ISO-10303-21;
HEADER;
FILE_DESCRIPTION(('FreeCAD Model'),'2;1');
FILE_NAME('Open CASCADE Shape Model','2026-07-27T10:30:46',(''),(''),
  'Open CASCADE STEP processor 7.8','FreeCAD','Unknown');
FILE_SCHEMA(('AUTOMOTIVE_DESIGN { 1 0 10303 214 1 1 1 1 }'));
ENDSEC;
DATA;
#1 = APPLICATION_PROTOCOL_DEFINITION('international standard',
  'automotive_design',2000,#2);
#2 = APPLICATION_CONTEXT(
  'core data for automotive mechanical design processes');
#3 = SHAPE_DEFINITION_REPRESENTATION(#4,#10);
#4 = PRODUCT_DEFINITION_SHAPE('','',#5);
#5 = PRODUCT_DEFINITION('design','',#6,#9);
#6 = PRODUCT_DEFINITION_FORMATION('','',#7);
#7 = PRODUCT('PC_backgroud_GPU','PC_backgroud_GPU','',(#8));
#8 = PRODUCT_CONTEXT('',#2,'mechanical');
#9 = PRODUCT_DEFINITION_CONTEXT('part definition',#2,'design');
#10 = SHAPE_REPRESENTATION('',(#11,#15,#19,#23,#27,#31,#35,#39,#43),#47
  );
#11 = AXIS2_PLACEMENT_3D('',#12,#13,#14);
#12 = CARTESIAN_POINT('',(0.,0.,0.));
#13 = DIRECTION('',(0.,0.,1.));
#14 = DIRECTION('',(1.,0.,-0.));
#15 = AXIS2_PLACEMENT_3D('',#16,#17,#18);
#16 = CARTESIAN_POINT('',(0.,0.,0.));
#17 = DIRECTION('',(0.,0.,1.));
#18 = DIRECTION('',(1.,0.,0.));
#19 = AXIS2_PLACEMENT_3D('',#20,#21,#22);
#20 = CARTESIAN_POINT('',(0.,0.,0.));
#21 = DIRECTION('',(1.,1.232595164408E-32,1.110223024625E-16));
#22 = DIRECTION('',(0.,1.,-1.110223024625E-16));
#23 = AXIS2_PLACEMENT_3D('',#24,#25,#26);
#24 = CARTESIAN_POINT('',(0.,0.,0.));
#25 = DIRECTION('',(0.,-1.,1.110223024625E-16));
#26 = DIRECTION('',(0.,1.110223024625E-16,1.));
#27 = AXIS2_PLACEMENT_3D('',#28,#29,#30);
#28 = CARTESIAN_POINT('',(0.,0.,0.));
#29 = DIRECTION('',(0.,0.,1.));
#30 = DIRECTION('',(1.,0.,0.));
#31 = AXIS2_PLACEMENT_3D('',#32,#33,#34);
#32 = CARTESIAN_POINT('',(0.,0.,0.));
#33 = DIRECTION('',(0.,-1.,-2.22044604925E-16));
#34 = DIRECTION('',(1.,0.,0.));
#35 = AXIS2_PLACEMENT_3D('',#36,#37,#38);
#36 = CARTESIAN_POINT('',(0.,0.,0.));
#37 = DIRECTION('',(1.,1.232595164408E-32,1.110223024625E-16));
#38 = DIRECTION('',(0.,1.,-1.110223024625E-16));
#39 = AXIS2_PLACEMENT_3D('',#40,#41,#42);
#40 = CARTESIAN_POINT('',(0.,0.,0.));
#41 = DIRECTION('',(0.,0.,1.));
#42 = DIRECTION('',(1.,0.,0.));
#43 = AXIS2_PLACEMENT_3D('',#44,#45,#46);
#44 = CARTESIAN_POINT('',(0.,0.,0.));
#45 = DIRECTION('',(0.,0.,1.));
#46 = DIRECTION('',(1.,0.,-0.));
#47 = ( GEOMETRIC_REPRESENTATION_CONTEXT(3) 
GLOBAL_UNCERTAINTY_ASSIGNED_CONTEXT((#51)) GLOBAL_UNIT_ASSIGNED_CONTEXT(
(#48,#49,#50)) REPRESENTATION_CONTEXT('Context #1',
  '3D Context with UNIT and UNCERTAINTY') );
#48 = ( LENGTH_UNIT() NAMED_UNIT(*) SI_UNIT(.MILLI.,.METRE.) );
#49 = ( NAMED_UNIT(*) PLANE_ANGLE_UNIT() SI_UNIT($,.RADIAN.) );
#50 = ( NAMED_UNIT(*) SI_UNIT($,.STERADIAN.) SOLID_ANGLE_UNIT() );
#51 = UNCERTAINTY_MEASURE_WITH_UNIT(LENGTH_MEASURE(1.E-07),#48,
  'distance_accuracy_value','confusion accuracy');
#52 = PRODUCT_RELATED_PRODUCT_CATEGORY('part',$,(#7));
#53 = SHAPE_DEFINITION_REPRESENTATION(#54,#60);
#54 = PRODUCT_DEFINITION_SHAPE('','',#55);
#55 = PRODUCT_DEFINITION('design','',#56,#59);
#56 = PRODUCT_DEFINITION_FORMATION('','',#57);
#57 = PRODUCT('X轴','X轴','',(#58));
#58 = PRODUCT_CONTEXT('',#2,'mechanical');
#59 = PRODUCT_DEFINITION_CONTEXT('part definition',#2,'design');
#60 = GEOMETRICALLY_BOUNDED_WIREFRAME_SHAPE_REPRESENTATION('',(#11,#61),
  #66);
#61 = GEOMETRIC_CURVE_SET('',(#62));
#62 = LINE('',#63,#64);
#63 = CARTESIAN_POINT('',(0.,0.,0.));
#64 = VECTOR('',#65,1.);
#65 = DIRECTION('',(1.,0.,0.));
#66 = ( GEOMETRIC_REPRESENTATION_CONTEXT(3) 
GLOBAL_UNCERTAINTY_ASSIGNED_CONTEXT((#70)) GLOBAL_UNIT_ASSIGNED_CONTEXT(
(#67,#68,#69)) REPRESENTATION_CONTEXT('Context #1',
  '3D Context with UNIT and UNCERTAINTY') );
#67 = ( LENGTH_UNIT() NAMED_UNIT(*) SI_UNIT(.MILLI.,.METRE.) );
#68 = ( NAMED_UNIT(*) PLANE_ANGLE_UNIT() SI_UNIT($,.RADIAN.) );
#69 = ( NAMED_UNIT(*) SI_UNIT($,.STERADIAN.) SOLID_ANGLE_UNIT() );
#70 = UNCERTAINTY_MEASURE_WITH_UNIT(LENGTH_MEASURE(1.E-07),#67,
  'distance_accuracy_value','confusion accuracy');
#71 = CONTEXT_DEPENDENT_SHAPE_REPRESENTATION(#72,#74);
#72 = ( REPRESENTATION_RELATIONSHIP('','',#60,#10) 
REPRESENTATION_RELATIONSHIP_WITH_TRANSFORMATION(#73) 
SHAPE_REPRESENTATION_RELATIONSHIP() );
#73 = ITEM_DEFINED_TRANSFORMATION('','',#11,#15);
#74 = PRODUCT_DEFINITION_SHAPE('Placement','Placement of an item',#75);
#75 = NEXT_ASSEMBLY_USAGE_OCCURRENCE('358','X轴','',#5,#55,$);
#76 = PRODUCT_RELATED_PRODUCT_CATEGORY('part',$,(#57));
#77 = CONTEXT_DEPENDENT_SHAPE_REPRESENTATION(#78,#80);
#78 = ( REPRESENTATION_RELATIONSHIP('','',#60,#10) 
REPRESENTATION_RELATIONSHIP_WITH_TRANSFORMATION(#79) 
SHAPE_REPRESENTATION_RELATIONSHIP() );
#79 = ITEM_DEFINED_TRANSFORMATION('','',#11,#19);
#80 = PRODUCT_DEFINITION_SHAPE('Placement','Placement of an item',#81);
#81 = NEXT_ASSEMBLY_USAGE_OCCURRENCE('359','Y轴','',#5,#55,$);
#82 = CONTEXT_DEPENDENT_SHAPE_REPRESENTATION(#83,#85);
#83 = ( REPRESENTATION_RELATIONSHIP('','',#60,#10) 
REPRESENTATION_RELATIONSHIP_WITH_TRANSFORMATION(#84) 
SHAPE_REPRESENTATION_RELATIONSHIP() );
#84 = ITEM_DEFINED_TRANSFORMATION('','',#11,#23);
#85 = PRODUCT_DEFINITION_SHAPE('Placement','Placement of an item',#86);
#86 = NEXT_ASSEMBLY_USAGE_OCCURRENCE('360','Z轴','',#5,#55,$);
#87 = SHAPE_DEFINITION_REPRESENTATION(#88,#94);
#88 = PRODUCT_DEFINITION_SHAPE('','',#89);
#89 = PRODUCT_DEFINITION('design','',#90,#93);
#90 = PRODUCT_DEFINITION_FORMATION('','',#91);
#91 = PRODUCT('XY平面','XY平面','',(#92));
#92 = PRODUCT_CONTEXT('',#2,'mechanical');
#93 = PRODUCT_DEFINITION_CONTEXT('part definition',#2,'design');
#94 = MANIFOLD_SURFACE_SHAPE_REPRESENTATION('',(#11),#95);
#95 = ( GEOMETRIC_REPRESENTATION_CONTEXT(3) 
GLOBAL_UNCERTAINTY_ASSIGNED_CONTEXT((#99)) GLOBAL_UNIT_ASSIGNED_CONTEXT(
(#96,#97,#98)) REPRESENTATION_CONTEXT('Context #1',
  '3D Context with UNIT and UNCERTAINTY') );
#96 = ( LENGTH_UNIT() NAMED_UNIT(*) SI_UNIT(.MILLI.,.METRE.) );
#97 = ( NAMED_UNIT(*) PLANE_ANGLE_UNIT() SI_UNIT($,.RADIAN.) );
#98 = ( NAMED_UNIT(*) SI_UNIT($,.STERADIAN.) SOLID_ANGLE_UNIT() );
#99 = UNCERTAINTY_MEASURE_WITH_UNIT(LENGTH_MEASURE(1.E-07),#96,
  'distance_accuracy_value','confusion accuracy');
#100 = CONTEXT_DEPENDENT_SHAPE_REPRESENTATION(#101,#103);
#101 = ( REPRESENTATION_RELATIONSHIP('','',#94,#10) 
REPRESENTATION_RELATIONSHIP_WITH_TRANSFORMATION(#102) 
SHAPE_REPRESENTATION_RELATIONSHIP() );
#102 = ITEM_DEFINED_TRANSFORMATION('','',#11,#27);
#103 = PRODUCT_DEFINITION_SHAPE('Placement','Placement of an item',#104
  );
#104 = NEXT_ASSEMBLY_USAGE_OCCURRENCE('361','XY平面','',#5,#89,$);
#105 = PRODUCT_RELATED_PRODUCT_CATEGORY('part',$,(#91));
#106 = CONTEXT_DEPENDENT_SHAPE_REPRESENTATION(#107,#109);
#107 = ( REPRESENTATION_RELATIONSHIP('','',#94,#10) 
REPRESENTATION_RELATIONSHIP_WITH_TRANSFORMATION(#108) 
SHAPE_REPRESENTATION_RELATIONSHIP() );
#108 = ITEM_DEFINED_TRANSFORMATION('','',#11,#31);
#109 = PRODUCT_DEFINITION_SHAPE('Placement','Placement of an item',#110
  );
#110 = NEXT_ASSEMBLY_USAGE_OCCURRENCE('362','XZ平面','',#5,#89,$);
#111 = CONTEXT_DEPENDENT_SHAPE_REPRESENTATION(#112,#114);
#112 = ( REPRESENTATION_RELATIONSHIP('','',#94,#10) 
REPRESENTATION_RELATIONSHIP_WITH_TRANSFORMATION(#113) 
SHAPE_REPRESENTATION_RELATIONSHIP() );
#113 = ITEM_DEFINED_TRANSFORMATION('','',#11,#35);
#114 = PRODUCT_DEFINITION_SHAPE('Placement','Placement of an item',#115
  );
#115 = NEXT_ASSEMBLY_USAGE_OCCURRENCE('363','YZ平面','',#5,#89,$);
#116 = SHAPE_DEFINITION_REPRESENTATION(#117,#123);
#117 = PRODUCT_DEFINITION_SHAPE('','',#118);
#118 = PRODUCT_DEFINITION('design','',#119,#122);
#119 = PRODUCT_DEFINITION_FORMATION('','',#120);
#120 = PRODUCT('Sketch','Sketch','',(#121));
#121 = PRODUCT_CONTEXT('',#2,'mechanical');
#122 = PRODUCT_DEFINITION_CONTEXT('part definition',#2,'design');
#123 = SHAPE_REPRESENTATION('',(#11,#124,#153,#162,#171,#180,#189,#218,
    #247,#256,#265,#274,#283,#312),#341);
#124 = GEOMETRIC_CURVE_SET('',(#125,#132,#139,#146));
#125 = TRIMMED_CURVE('',#126,(#130,PARAMETER_VALUE(0.)),(#131,
    PARAMETER_VALUE(39.5)),.T.,.PARAMETER.);
#126 = LINE('',#127,#128);
#127 = CARTESIAN_POINT('',(0.,0.,0.));
#128 = VECTOR('',#129,1.);
#129 = DIRECTION('',(0.,1.,0.));
#130 = CARTESIAN_POINT('',(0.,0.,0.));
#131 = CARTESIAN_POINT('',(0.,39.5,0.));
#132 = TRIMMED_CURVE('',#133,(#137,PARAMETER_VALUE(0.)),(#138,
    PARAMETER_VALUE(33.8)),.T.,.PARAMETER.);
#133 = LINE('',#134,#135);
#134 = CARTESIAN_POINT('',(0.,39.5,0.));
#135 = VECTOR('',#136,1.);
#136 = DIRECTION('',(-1.,0.,0.));
#137 = CARTESIAN_POINT('',(0.,39.5,0.));
#138 = CARTESIAN_POINT('',(-33.8,39.5,0.));
#139 = TRIMMED_CURVE('',#140,(#144,PARAMETER_VALUE(0.)),(#145,
    PARAMETER_VALUE(39.5)),.T.,.PARAMETER.);
#140 = LINE('',#141,#142);
#141 = CARTESIAN_POINT('',(-33.8,39.5,0.));
#142 = VECTOR('',#143,1.);
#143 = DIRECTION('',(0.,-1.,0.));
#144 = CARTESIAN_POINT('',(-33.8,39.5,0.));
#145 = CARTESIAN_POINT('',(-33.8,0.,0.));
#146 = TRIMMED_CURVE('',#147,(#151,PARAMETER_VALUE(0.)),(#152,
    PARAMETER_VALUE(33.8)),.T.,.PARAMETER.);
#147 = LINE('',#148,#149);
#148 = CARTESIAN_POINT('',(-33.8,0.,0.));
#149 = VECTOR('',#150,1.);
#150 = DIRECTION('',(1.,0.,0.));
#151 = CARTESIAN_POINT('',(-33.8,0.,0.));
#152 = CARTESIAN_POINT('',(0.,0.,0.));
#153 = GEOMETRIC_CURVE_SET('',(#154));
#154 = TRIMMED_CURVE('',#155,(#160,PARAMETER_VALUE(0.)),(#161,
    PARAMETER_VALUE(6.28318530718)),.T.,.PARAMETER.);
#155 = CIRCLE('',#156,0.15);
#156 = AXIS2_PLACEMENT_3D('',#157,#158,#159);
#157 = CARTESIAN_POINT('',(-31.05,38.5,0.));
#158 = DIRECTION('',(0.,0.,1.));
#159 = DIRECTION('',(1.,0.,-0.));
#160 = CARTESIAN_POINT('',(-30.9,38.5,0.));
#161 = CARTESIAN_POINT('',(-30.9,38.5,0.));
#162 = GEOMETRIC_CURVE_SET('',(#163));
#163 = TRIMMED_CURVE('',#164,(#169,PARAMETER_VALUE(0.)),(#170,
    PARAMETER_VALUE(6.28318530718)),.T.,.PARAMETER.);
#164 = CIRCLE('',#165,0.15);
#165 = AXIS2_PLACEMENT_3D('',#166,#167,#168);
#166 = CARTESIAN_POINT('',(-2.75,38.5,0.));
#167 = DIRECTION('',(0.,0.,1.));
#168 = DIRECTION('',(1.,0.,-0.));
#169 = CARTESIAN_POINT('',(-2.6,38.5,0.));
#170 = CARTESIAN_POINT('',(-2.6,38.5,0.));
#171 = GEOMETRIC_CURVE_SET('',(#172));
#172 = TRIMMED_CURVE('',#173,(#178,PARAMETER_VALUE(0.)),(#179,
    PARAMETER_VALUE(6.28318530718)),.T.,.PARAMETER.);
#173 = CIRCLE('',#174,0.15);
#174 = AXIS2_PLACEMENT_3D('',#175,#176,#177);
#175 = CARTESIAN_POINT('',(-2.75,1.,0.));
#176 = DIRECTION('',(0.,0.,1.));
#177 = DIRECTION('',(1.,0.,-0.));
#178 = CARTESIAN_POINT('',(-2.6,1.,0.));
#179 = CARTESIAN_POINT('',(-2.6,1.,0.));
#180 = GEOMETRIC_CURVE_SET('',(#181));
#181 = TRIMMED_CURVE('',#182,(#187,PARAMETER_VALUE(0.)),(#188,
    PARAMETER_VALUE(6.28318530718)),.T.,.PARAMETER.);
#182 = CIRCLE('',#183,0.15);
#183 = AXIS2_PLACEMENT_3D('',#184,#185,#186);
#184 = CARTESIAN_POINT('',(-31.05,1.,0.));
#185 = DIRECTION('',(0.,0.,1.));
#186 = DIRECTION('',(1.,0.,-0.));
#187 = CARTESIAN_POINT('',(-30.9,1.,0.));
#188 = CARTESIAN_POINT('',(-30.9,1.,0.));
#189 = GEOMETRIC_CURVE_SET('',(#190,#197,#204,#211));
#190 = TRIMMED_CURVE('',#191,(#195,PARAMETER_VALUE(0.)),(#196,
    PARAMETER_VALUE(3.)),.T.,.PARAMETER.);
#191 = LINE('',#192,#193);
#192 = CARTESIAN_POINT('',(-14.,14.5,0.));
#193 = VECTOR('',#194,1.);
#194 = DIRECTION('',(0.,-1.,0.));
#195 = CARTESIAN_POINT('',(-14.,14.5,0.));
#196 = CARTESIAN_POINT('',(-14.,11.5,0.));
#197 = TRIMMED_CURVE('',#198,(#202,PARAMETER_VALUE(0.)),(#203,
    PARAMETER_VALUE(8.)),.T.,.PARAMETER.);
#198 = LINE('',#199,#200);
#199 = CARTESIAN_POINT('',(-14.,11.5,0.));
#200 = VECTOR('',#201,1.);
#201 = DIRECTION('',(1.,0.,0.));
#202 = CARTESIAN_POINT('',(-14.,11.5,0.));
#203 = CARTESIAN_POINT('',(-6.,11.5,0.));
#204 = TRIMMED_CURVE('',#205,(#209,PARAMETER_VALUE(0.)),(#210,
    PARAMETER_VALUE(3.)),.T.,.PARAMETER.);
#205 = LINE('',#206,#207);
#206 = CARTESIAN_POINT('',(-6.,11.5,0.));
#207 = VECTOR('',#208,1.);
#208 = DIRECTION('',(0.,1.,0.));
#209 = CARTESIAN_POINT('',(-6.,11.5,0.));
#210 = CARTESIAN_POINT('',(-6.,14.5,0.));
#211 = TRIMMED_CURVE('',#212,(#216,PARAMETER_VALUE(0.)),(#217,
    PARAMETER_VALUE(8.)),.T.,.PARAMETER.);
#212 = LINE('',#213,#214);
#213 = CARTESIAN_POINT('',(-6.,14.5,0.));
#214 = VECTOR('',#215,1.);
#215 = DIRECTION('',(-1.,0.,0.));
#216 = CARTESIAN_POINT('',(-6.,14.5,0.));
#217 = CARTESIAN_POINT('',(-14.,14.5,0.));
#218 = GEOMETRIC_CURVE_SET('',(#219,#226,#233,#240));
#219 = TRIMMED_CURVE('',#220,(#224,PARAMETER_VALUE(0.)),(#225,
    PARAMETER_VALUE(39.8)),.T.,.PARAMETER.);
#220 = LINE('',#221,#222);
#221 = CARTESIAN_POINT('',(25.678620710462,39.845516499,0.));
#222 = VECTOR('',#223,1.);
#223 = DIRECTION('',(0.,-1.,0.));
#224 = CARTESIAN_POINT('',(25.678620710462,39.845516499,0.));
#225 = CARTESIAN_POINT('',(25.678620710462,4.551649900033E-02,0.));
#226 = TRIMMED_CURVE('',#227,(#231,PARAMETER_VALUE(0.)),(#232,
    PARAMETER_VALUE(33.8)),.T.,.PARAMETER.);
#227 = LINE('',#228,#229);
#228 = CARTESIAN_POINT('',(25.678620710462,4.551649900033E-02,0.));
#229 = VECTOR('',#230,1.);
#230 = DIRECTION('',(1.,0.,0.));
#231 = CARTESIAN_POINT('',(25.678620710462,4.551649900033E-02,0.));
#232 = CARTESIAN_POINT('',(59.478620710462,4.551649900033E-02,0.));
#233 = TRIMMED_CURVE('',#234,(#238,PARAMETER_VALUE(0.)),(#239,
    PARAMETER_VALUE(39.8)),.T.,.PARAMETER.);
#234 = LINE('',#235,#236);
#235 = CARTESIAN_POINT('',(59.478620710462,4.551649900033E-02,0.));
#236 = VECTOR('',#237,1.);
#237 = DIRECTION('',(0.,1.,0.));
#238 = CARTESIAN_POINT('',(59.478620710462,4.551649900033E-02,0.));
#239 = CARTESIAN_POINT('',(59.478620710462,39.845516499,0.));
#240 = TRIMMED_CURVE('',#241,(#245,PARAMETER_VALUE(0.)),(#246,
    PARAMETER_VALUE(33.8)),.T.,.PARAMETER.);
#241 = LINE('',#242,#243);
#242 = CARTESIAN_POINT('',(59.478620710462,39.845516499,0.));
#243 = VECTOR('',#244,1.);
#244 = DIRECTION('',(-1.,0.,0.));
#245 = CARTESIAN_POINT('',(59.478620710462,39.845516499,0.));
#246 = CARTESIAN_POINT('',(25.678620710462,39.845516499,0.));
#247 = GEOMETRIC_CURVE_SET('',(#248));
#248 = TRIMMED_CURVE('',#249,(#254,PARAMETER_VALUE(0.)),(#255,
    PARAMETER_VALUE(6.28318530718)),.T.,.PARAMETER.);
#249 = CIRCLE('',#250,0.165);
#250 = AXIS2_PLACEMENT_3D('',#251,#252,#253);
#251 = CARTESIAN_POINT('',(55.178620710462,39.245516499,0.));
#252 = DIRECTION('',(0.,0.,1.));
#253 = DIRECTION('',(1.,0.,-0.));
#254 = CARTESIAN_POINT('',(55.343620710462,39.245516499,0.));
#255 = CARTESIAN_POINT('',(55.343620710462,39.245516499,0.));
#256 = GEOMETRIC_CURVE_SET('',(#257));
#257 = TRIMMED_CURVE('',#258,(#263,PARAMETER_VALUE(0.)),(#264,
    PARAMETER_VALUE(6.28318530718)),.T.,.PARAMETER.);
#258 = CIRCLE('',#259,0.125);
#259 = AXIS2_PLACEMENT_3D('',#260,#261,#262);
#260 = CARTESIAN_POINT('',(26.388620710462,36.365516499,0.));
#261 = DIRECTION('',(0.,0.,1.));
#262 = DIRECTION('',(1.,0.,-0.));
#263 = CARTESIAN_POINT('',(26.513620710462,36.365516499,0.));
#264 = CARTESIAN_POINT('',(26.513620710462,36.365516499,0.));
#265 = GEOMETRIC_CURVE_SET('',(#266));
#266 = TRIMMED_CURVE('',#267,(#272,PARAMETER_VALUE(0.)),(#273,
    PARAMETER_VALUE(6.28318530718)),.T.,.PARAMETER.);
#267 = CIRCLE('',#268,0.125);
#268 = AXIS2_PLACEMENT_3D('',#269,#270,#271);
#269 = CARTESIAN_POINT('',(26.388620710462,3.650516499,0.));
#270 = DIRECTION('',(0.,0.,1.));
#271 = DIRECTION('',(1.,0.,-0.));
#272 = CARTESIAN_POINT('',(26.513620710462,3.650516499,0.));
#273 = CARTESIAN_POINT('',(26.513620710462,3.650516499,0.));
#274 = GEOMETRIC_CURVE_SET('',(#275));
#275 = TRIMMED_CURVE('',#276,(#281,PARAMETER_VALUE(0.)),(#282,
    PARAMETER_VALUE(6.28318530718)),.T.,.PARAMETER.);
#276 = CIRCLE('',#277,0.165);
#277 = AXIS2_PLACEMENT_3D('',#278,#279,#280);
#278 = CARTESIAN_POINT('',(58.878620710462,2.615516499,0.));
#279 = DIRECTION('',(0.,0.,1.));
#280 = DIRECTION('',(1.,0.,-0.));
#281 = CARTESIAN_POINT('',(59.043620710462,2.615516499,0.));
#282 = CARTESIAN_POINT('',(59.043620710462,2.615516499,0.));
#283 = GEOMETRIC_CURVE_SET('',(#284,#291,#298,#305));
#284 = TRIMMED_CURVE('',#285,(#289,PARAMETER_VALUE(0.)),(#290,
    PARAMETER_VALUE(12.5)),.T.,.PARAMETER.);
#285 = LINE('',#286,#287);
#286 = CARTESIAN_POINT('',(34.578620710462,28.845516499,0.));
#287 = VECTOR('',#288,1.);
#288 = DIRECTION('',(0.,-1.,0.));
#289 = CARTESIAN_POINT('',(34.578620710462,28.845516499,0.));
#290 = CARTESIAN_POINT('',(34.578620710462,16.345516499,0.));
#291 = TRIMMED_CURVE('',#292,(#296,PARAMETER_VALUE(0.)),(#297,
    PARAMETER_VALUE(7.2)),.T.,.PARAMETER.);
#292 = LINE('',#293,#294);
#293 = CARTESIAN_POINT('',(34.578620710462,16.345516499,0.));
#294 = VECTOR('',#295,1.);
#295 = DIRECTION('',(1.,0.,0.));
#296 = CARTESIAN_POINT('',(34.578620710462,16.345516499,0.));
#297 = CARTESIAN_POINT('',(41.778620710462,16.345516499,0.));
#298 = TRIMMED_CURVE('',#299,(#303,PARAMETER_VALUE(0.)),(#304,
    PARAMETER_VALUE(12.5)),.T.,.PARAMETER.);
#299 = LINE('',#300,#301);
#300 = CARTESIAN_POINT('',(41.778620710462,16.345516499,0.));
#301 = VECTOR('',#302,1.);
#302 = DIRECTION('',(0.,1.,0.));
#303 = CARTESIAN_POINT('',(41.778620710462,16.345516499,0.));
#304 = CARTESIAN_POINT('',(41.778620710462,28.845516499,0.));
#305 = TRIMMED_CURVE('',#306,(#310,PARAMETER_VALUE(0.)),(#311,
    PARAMETER_VALUE(7.2)),.T.,.PARAMETER.);
#306 = LINE('',#307,#308);
#307 = CARTESIAN_POINT('',(41.778620710462,28.845516499,0.));
#308 = VECTOR('',#309,1.);
#309 = DIRECTION('',(-1.,0.,0.));
#310 = CARTESIAN_POINT('',(41.778620710462,28.845516499,0.));
#311 = CARTESIAN_POINT('',(34.578620710462,28.845516499,0.));
#312 = GEOMETRIC_CURVE_SET('',(#313,#320,#327,#334));
#313 = TRIMMED_CURVE('',#314,(#318,PARAMETER_VALUE(0.)),(#319,
    PARAMETER_VALUE(3.)),.T.,.PARAMETER.);
#314 = LINE('',#315,#316);
#315 = CARTESIAN_POINT('',(45.478620710462,14.545516499,0.));
#316 = VECTOR('',#317,1.);
#317 = DIRECTION('',(0.,-1.,0.));
#318 = CARTESIAN_POINT('',(45.478620710462,14.545516499,0.));
#319 = CARTESIAN_POINT('',(45.478620710462,11.545516499,0.));
#320 = TRIMMED_CURVE('',#321,(#325,PARAMETER_VALUE(0.)),(#326,
    PARAMETER_VALUE(8.)),.T.,.PARAMETER.);
#321 = LINE('',#322,#323);
#322 = CARTESIAN_POINT('',(45.478620710462,11.545516499,0.));
#323 = VECTOR('',#324,1.);
#324 = DIRECTION('',(1.,0.,0.));
#325 = CARTESIAN_POINT('',(45.478620710462,11.545516499,0.));
#326 = CARTESIAN_POINT('',(53.478620710462,11.545516499,0.));
#327 = TRIMMED_CURVE('',#328,(#332,PARAMETER_VALUE(0.)),(#333,
    PARAMETER_VALUE(3.)),.T.,.PARAMETER.);
#328 = LINE('',#329,#330);
#329 = CARTESIAN_POINT('',(53.478620710462,11.545516499,0.));
#330 = VECTOR('',#331,1.);
#331 = DIRECTION('',(0.,1.,0.));
#332 = CARTESIAN_POINT('',(53.478620710462,11.545516499,0.));
#333 = CARTESIAN_POINT('',(53.478620710462,14.545516499,0.));
#334 = TRIMMED_CURVE('',#335,(#339,PARAMETER_VALUE(0.)),(#340,
    PARAMETER_VALUE(8.)),.T.,.PARAMETER.);
#335 = LINE('',#336,#337);
#336 = CARTESIAN_POINT('',(53.478620710462,14.545516499,0.));
#337 = VECTOR('',#338,1.);
#338 = DIRECTION('',(-1.,0.,0.));
#339 = CARTESIAN_POINT('',(53.478620710462,14.545516499,0.));
#340 = CARTESIAN_POINT('',(45.478620710462,14.545516499,0.));
#341 = ( GEOMETRIC_REPRESENTATION_CONTEXT(3) 
GLOBAL_UNCERTAINTY_ASSIGNED_CONTEXT((#345)) GLOBAL_UNIT_ASSIGNED_CONTEXT
((#342,#343,#344)) REPRESENTATION_CONTEXT('Context #1',
  '3D Context with UNIT and UNCERTAINTY') );
#342 = ( LENGTH_UNIT() NAMED_UNIT(*) SI_UNIT(.MILLI.,.METRE.) );
#343 = ( NAMED_UNIT(*) PLANE_ANGLE_UNIT() SI_UNIT($,.RADIAN.) );
#344 = ( NAMED_UNIT(*) SI_UNIT($,.STERADIAN.) SOLID_ANGLE_UNIT() );
#345 = UNCERTAINTY_MEASURE_WITH_UNIT(LENGTH_MEASURE(1.E-07),#342,
  'distance_accuracy_value','confusion accuracy');
#346 = CONTEXT_DEPENDENT_SHAPE_REPRESENTATION(#347,#349);
#347 = ( REPRESENTATION_RELATIONSHIP('','',#123,#10) 
REPRESENTATION_RELATIONSHIP_WITH_TRANSFORMATION(#348) 
SHAPE_REPRESENTATION_RELATIONSHIP() );
#348 = ITEM_DEFINED_TRANSFORMATION('','',#11,#39);
#349 = PRODUCT_DEFINITION_SHAPE('Placement','Placement of an item',#350
  );
#350 = NEXT_ASSEMBLY_USAGE_OCCURRENCE('364','Sketch','',#5,#118,$);
#351 = PRODUCT_RELATED_PRODUCT_CATEGORY('part',$,(#120));
#352 = SHAPE_DEFINITION_REPRESENTATION(#353,#359);
#353 = PRODUCT_DEFINITION_SHAPE('','',#354);
#354 = PRODUCT_DEFINITION('design','',#355,#358);
#355 = PRODUCT_DEFINITION_FORMATION('','',#356);
#356 = PRODUCT('Open CASCADE STEP translator 7.8 17.8',
  'Open CASCADE STEP translator 7.8 17.8','',(#357));
#357 = PRODUCT_CONTEXT('',#2,'mechanical');
#358 = PRODUCT_DEFINITION_CONTEXT('part definition',#2,'design');
#359 = GEOMETRICALLY_BOUNDED_WIREFRAME_SHAPE_REPRESENTATION('',(#11,#360
    ),#362);
#360 = GEOMETRIC_CURVE_SET('',(#361));
#361 = CARTESIAN_POINT('',(0.,0.,0.));
#362 = ( GEOMETRIC_REPRESENTATION_CONTEXT(3) 
GLOBAL_UNCERTAINTY_ASSIGNED_CONTEXT((#366)) GLOBAL_UNIT_ASSIGNED_CONTEXT
((#363,#364,#365)) REPRESENTATION_CONTEXT('Context #1',
  '3D Context with UNIT and UNCERTAINTY') );
#363 = ( LENGTH_UNIT() NAMED_UNIT(*) SI_UNIT(.MILLI.,.METRE.) );
#364 = ( NAMED_UNIT(*) PLANE_ANGLE_UNIT() SI_UNIT($,.RADIAN.) );
#365 = ( NAMED_UNIT(*) SI_UNIT($,.STERADIAN.) SOLID_ANGLE_UNIT() );
#366 = UNCERTAINTY_MEASURE_WITH_UNIT(LENGTH_MEASURE(1.E-07),#363,
  'distance_accuracy_value','confusion accuracy');
#367 = CONTEXT_DEPENDENT_SHAPE_REPRESENTATION(#368,#370);
#368 = ( REPRESENTATION_RELATIONSHIP('','',#359,#10) 
REPRESENTATION_RELATIONSHIP_WITH_TRANSFORMATION(#369) 
SHAPE_REPRESENTATION_RELATIONSHIP() );
#369 = ITEM_DEFINED_TRANSFORMATION('','',#11,#43);
#370 = PRODUCT_DEFINITION_SHAPE('Placement','Placement of an item',#371
  );
#371 = NEXT_ASSEMBLY_USAGE_OCCURRENCE('365','','',#5,#354,$);
#372 = PRODUCT_RELATED_PRODUCT_CATEGORY('part',$,(#356));
ENDSEC;
END-ISO-10303-21;
