                                                                        S0000001
,,31HOpen CASCADE IGES processor 7.8,13HFilename.iges,                  G0000001
16HOpen CASCADE 7.8,31HOpen CASCADE IGES processor 7.8,32,308,15,308,15,G0000002
,1.,2,2HMM,1,0.01,15H20260727.103125,1E-07,,,,11,0,15H20260727.103125,; G0000003
     402       1       0       0       0       0       0       000000000D0000001
     402       0       0       2       1                PC_backg        D0000002
     144       3       0       0       0       0       0       000020000D0000003
     144       0       0       1       0                    XY??        D0000004
     108       4       0       0       0       0       0       000010000D0000005
     108       0       0       1       0                               0D0000006
     142       5       0       0       0       0       0       000010500D0000007
     142       0       0       1       0                               0D0000008
     144       6       0       0       0       0       0       000020000D0000009
     144       0       0       1       0                    XZ??        D0000010
     108       7       0       0       0       0       0       000010000D0000011
     108       0       0       1       0                               0D0000012
     142       8       0       0       0       0       0       000010500D0000013
     142       0       0       1       0                               0D0000014
     144       9       0       0       0       0       0       000020000D0000015
     144       0       0       1       0                    YZ??        D0000016
     108      10       0       0       0       0       0       000010000D0000017
     108       0       0       1       0                               0D0000018
     142      11       0       0       0       0       0       000010500D0000019
     142       0       0       1       0                               0D0000020
     102      12       0       0       0       0       0       000020000D0000021
     102       0       0       1       0                               0D0000022
     110      13       0       0       0       0       0       000010000D0000023
     110       0       0       1       0                               0D0000024
     110      14       0       0       0       0       0       000010000D0000025
     110       0       0       1       0                               0D0000026
     110      15       0       0       0       0       0       000010000D0000027
     110       0       0       1       0                               0D0000028
     110      16       0       0       0       0       0       000010000D0000029
     110       0       0       1       0                               0D0000030
     100      17       0       0       0       0      33       000020000D0000031
     100       0       0       1       0                               0D0000032
     124      18       0       0       0       0       0       000000000D0000033
     124       0       0       1       0                               0D0000034
     100      19       0       0       0       0      37       000020000D0000035
     100       0       0       1       0                               0D0000036
     124      20       0       0       0       0       0       000000000D0000037
     124       0       0       1       0                               0D0000038
     100      21       0       0       0       0      41       000020000D0000039
     100       0       0       1       0                               0D0000040
     124      22       0       0       0       0       0       000000000D0000041
     124       0       0       1       0                               0D0000042
     100      23       0       0       0       0      45       000020000D0000043
     100       0       0       1       0                               0D0000044
     124      24       0       0       0       0       0       000000000D0000045
     124       0       0       1       0                               0D0000046
     102      25       0       0       0       0       0       000020000D0000047
     102       0       0       1       0                               0D0000048
     110      26       0       0       0       0       0       000010000D0000049
     110       0       0       1       0                               0D0000050
     110      27       0       0       0       0       0       000010000D0000051
     110       0       0       1       0                               0D0000052
     110      28       0       0       0       0       0       000010000D0000053
     110       0       0       1       0                               0D0000054
     110      29       0       0       0       0       0       000010000D0000055
     110       0       0       1       0                               0D0000056
     102      30       0       0       0       0       0       000020000D0000057
     102       0       0       1       0                               0D0000058
     110      31       0       0       0       0       0       000010000D0000059
     110       0       0       1       0                               0D0000060
     110      32       0       0       0       0       0       000010000D0000061
     110       0       0       1       0                               0D0000062
     110      33       0       0       0       0       0       000010000D0000063
     110       0       0       1       0                               0D0000064
     110      34       0       0       0       0       0       000010000D0000065
     110       0       0       1       0                               0D0000066
     100      35       0       0       0       0      69       000020000D0000067
     100       0       0       1       0                               0D0000068
     124      36       0       0       0       0       0       000000000D0000069
     124       0       0       1       0                               0D0000070
     100      37       0       0       0       0      73       000020000D0000071
     100       0       0       1       0                               0D0000072
     124      38       0       0       0       0       0       000000000D0000073
     124       0       0       1       0                               0D0000074
     100      39       0       0       0       0      77       000020000D0000075
     100       0       0       1       0                               0D0000076
     124      40       0       0       0       0       0       000000000D0000077
     124       0       0       1       0                               0D0000078
     100      41       0       0       0       0      81       000020000D0000079
     100       0       0       1       0                               0D0000080
     124      42       0       0       0       0       0       000000000D0000081
     124       0       0       1       0                               0D0000082
     102      43       0       0       0       0       0       000020000D0000083
     102       0       0       1       0                               0D0000084
     110      44       0       0       0       0       0       000010000D0000085
     110       0       0       1       0                               0D0000086
     110      45       0       0       0       0       0       000010000D0000087
     110       0       0       1       0                               0D0000088
     110      46       0       0       0       0       0       000010000D0000089
     110       0       0       1       0                               0D0000090
     110      47       0       0       0       0       0       000010000D0000091
     110       0       0       1       0                               0D0000092
     102      48       0       0       0       0       0       000020000D0000093
     102       0       0       1       0                               0D0000094
     110      49       0       0       0       0       0       000010000D0000095
     110       0       0       1       0                               0D0000096
     110      50       0       0       0       0       0       000010000D0000097
     110       0       0       1       0                               0D0000098
     110      51       0       0       0       0       0       000010000D0000099
     110       0       0       1       0                               0D0000100
     110      52       0       0       0       0       0       000010000D0000101
     110       0       0       1       0                               0D0000102
     110      53       0       0       0       0       0       000020000D0000103
     110       0       0       1       0                      X?        D0000104
     110      54       0       0       0       0       0       000020000D0000105
     110       0       0       2       0                      Y?        D0000106
     110      56       0       0       0       0       0       000020000D0000107
     110       0       0       2       0                      Z?        D0000108
     116      58       0       0       0       0       0       000020400D0000109
     116       0       0       1       0                               0D0000110
     406      59       0       0       0       0       0       000000000D0000111
     406       0       0       1      15                               0D0000112
     406      60       0       0       0       0       0       000000000D0000113
     406       0       0       1      15                               0D0000114
     406      61       0       0       0       0       0       000000000D0000115
     406       0       0       1      15                               0D0000116
     406      62       0       0       0       0       0       000000000D0000117
     406       0       0       1      15                               0D0000118
     406      63       0       0       0       0       0       000000000D0000119
     406       0       0       1      15                               0D0000120
     406      64       0       0       0       0       0       000000000D0000121
     406       0       0       1      15                               0D0000122
     406      65       0       0       0       0       0       000000000D0000123
     406       0       0       1      15                               0D0000124
402,20,3,9,15,21,31,35,39,43,47,57,67,71,75,79,83,93,103,105,    0000001P0000001
107,109,0,1,113;                                                 0000001P0000002
144,5,1,0,7,0,1,123;                                             0000003P0000003
108,0.,0.,1.,0.,0,0.,0.,0.,0.;                                   0000005P0000004
142,0,0,0,0,0;                                                   0000007P0000005
144,11,1,0,13,0,1,119;                                           0000009P0000006
108,0.,-1.,-2.220446049E-16,0.,0,0.,0.,0.,0.;                    0000011P0000007
142,0,0,0,0,0;                                                   0000013P0000008
144,17,1,0,19,0,1,111;                                           0000015P0000009
108,1.,1.232595164E-32,1.110223025E-16,0.,0,0.,0.,0.,0.;         0000017P0000010
142,0,0,0,0,0;                                                   0000019P0000011
102,4,23,25,27,29;                                               0000021P0000012
110,0.,0.,0.,0.,39.5,0.;                                         0000023P0000013
110,0.,39.5,0.,-33.8,39.5,0.;                                    0000025P0000014
110,-33.8,39.5,0.,-33.8,0.,0.;                                   0000027P0000015
110,-33.8,0.,0.,0.,0.,0.;                                        0000029P0000016
100,0.,0.,0.,0.15,0.,0.15,0.;                                    0000031P0000017
124,1.,0.,0.,-31.05,0.,1.,0.,38.5,0.,0.,1.,0.;                   0000033P0000018
100,0.,0.,0.,0.15,0.,0.15,0.;                                    0000035P0000019
124,1.,0.,0.,-2.75,0.,1.,0.,38.5,0.,0.,1.,0.;                    0000037P0000020
100,0.,0.,0.,0.15,0.,0.15,0.;                                    0000039P0000021
124,1.,0.,0.,-2.75,0.,1.,0.,1.,0.,0.,1.,0.;                      0000041P0000022
100,0.,0.,0.,0.15,0.,0.15,0.;                                    0000043P0000023
124,1.,0.,0.,-31.05,0.,1.,0.,1.,0.,0.,1.,0.;                     0000045P0000024
102,4,49,51,53,55;                                               0000047P0000025
110,-14.,14.5,0.,-14.,11.5,0.;                                   0000049P0000026
110,-14.,11.5,0.,-6.,11.5,0.;                                    0000051P0000027
110,-6.,11.5,0.,-6.,14.5,0.;                                     0000053P0000028
110,-6.,14.5,0.,-14.,14.5,0.;                                    0000055P0000029
102,4,59,61,63,65;                                               0000057P0000030
110,25.67862071,39.845516499,0.,25.67862071,4.5516499E-02,0.;    0000059P0000031
110,25.67862071,4.5516499E-02,0.,59.47862071,4.5516499E-02,0.;   0000061P0000032
110,59.47862071,4.5516499E-02,0.,59.47862071,39.845516499,0.;    0000063P0000033
110,59.47862071,39.845516499,0.,25.67862071,39.845516499,0.;     0000065P0000034
100,0.,0.,0.,0.165,0.,0.165,0.;                                  0000067P0000035
124,1.,0.,0.,55.17862071,0.,1.,0.,39.245516499,0.,0.,1.,0.;      0000069P0000036
100,0.,0.,0.,0.125,0.,0.125,0.;                                  0000071P0000037
124,1.,0.,0.,26.38862071,0.,1.,0.,36.365516499,0.,0.,1.,0.;      0000073P0000038
100,0.,0.,0.,0.125,0.,0.125,0.;                                  0000075P0000039
124,1.,0.,0.,26.38862071,0.,1.,0.,3.650516499,0.,0.,1.,0.;       0000077P0000040
100,0.,0.,0.,0.165,0.,0.165,0.;                                  0000079P0000041
124,1.,0.,0.,58.87862071,0.,1.,0.,2.615516499,0.,0.,1.,0.;       0000081P0000042
102,4,85,87,89,91;                                               0000083P0000043
110,34.57862071,28.845516499,0.,34.57862071,16.345516499,0.;     0000085P0000044
110,34.57862071,16.345516499,0.,41.77862071,16.345516499,0.;     0000087P0000045
110,41.77862071,16.345516499,0.,41.77862071,28.845516499,0.;     0000089P0000046
110,41.77862071,28.845516499,0.,34.57862071,28.845516499,0.;     0000091P0000047
102,4,95,97,99,101;                                              0000093P0000048
110,45.47862071,14.545516499,0.,45.47862071,11.545516499,0.;     0000095P0000049
110,45.47862071,11.545516499,0.,53.47862071,11.545516499,0.;     0000097P0000050
110,53.47862071,11.545516499,0.,53.47862071,14.545516499,0.;     0000099P0000051
110,53.47862071,14.545516499,0.,45.47862071,14.545516499,0.;     0000101P0000052
110,-2.E+100,0.,0.,2.E+100,0.,0.,0,1,121;                        0000103P0000053
110,0.,-2.E+100,2.220446049E+84,0.,2.E+100,-2.220446049E+84,0,1, 0000105P0000054
117;                                                             0000105P0000055
110,0.,-2.220446049E+84,-2.E+100,0.,2.220446049E+84,2.E+100,0,1, 0000107P0000056
115;                                                             0000107P0000057
116,0.,0.,0.,0;                                                  0000109P0000058
406,1,4HYZ__;                                                    0000111P0000059
406,1,16HPC_backgroud_GPU;                                       0000113P0000060
406,1,2HZ_;                                                      0000115P0000061
406,1,2HY_;                                                      0000117P0000062
406,1,4HXZ__;                                                    0000119P0000063
406,1,2HX_;                                                      0000121P0000064
406,1,4HXY__;                                                    0000123P0000065
S      1G      3D    124P     65                                        T0000001
