                                                                        S0000001
,,31HOpen CASCADE IGES processor 7.8,13HFilename.iges,                  G0000001
16HOpen CASCADE 7.8,31HOpen CASCADE IGES processor 7.8,32,308,15,308,15,G0000002
,1.,2,2HMM,1,0.01,15H20260727.103125,1E-07,,,,11,0,15H20260727.103125,; G0000003
     402       1       0       0       0       0       0       000000000D0000001
     402       0       0       1       1                 draft_4        D0000002
     144       2       0       0       0       0       0       000020000D0000003
     144       0       0       1       0                   XY-??        D0000004
     108       3       0       0       0       0       0       000010000D0000005
     108       0       0       1       0                               0D0000006
     142       4       0       0       0       0       0       000010500D0000007
     142       0       0       1       0                               0D0000008
     144       5       0       0       0       0       0       000020000D0000009
     144       0       0       1       0                   XZ-??        D0000010
     108       6       0       0       0       0       0       000010000D0000011
     108       0       0       1       0                               0D0000012
     142       7       0       0       0       0       0       000010500D0000013
     142       0       0       1       0                               0D0000014
     144       8       0       0       0       0       0       000020000D0000015
     144       0       0       1       0                   YZ-??        D0000016
     108       9       0       0       0       0       0       000010000D0000017
     108       0       0       1       0                               0D0000018
     142      10       0       0       0       0       0       000010500D0000019
     142       0       0       1       0                               0D0000020
     100      11       0       0       0       0       0       000020000D0000021
     100       0       0       1       0                  Sketch        D0000022
     110      12       0       0       0       0       0       000020000D0000023
     110       0       0       1       0                      X?        D0000024
     110      13       0       0       0       0       0       000020000D0000025
     110       0       0       2       0                      Y?        D0000026
     110      15       0       0       0       0       0       000020000D0000027
     110       0       0       2       0                      Z?        D0000028
     116      17       0       0       0       0       0       000020400D0000029
     116       0       0       1       0                               0D0000030
     406      18       0       0       0       0       0       000000000D0000031
     406       0       0       1      15                               0D0000032
     406      19       0       0       0       0       0       000000000D0000033
     406       0       0       1      15                               0D0000034
     406      20       0       0       0       0       0       000000000D0000035
     406       0       0       1      15                               0D0000036
     406      21       0       0       0       0       0       000000000D0000037
     406       0       0       1      15                               0D0000038
     406      22       0       0       0       0       0       000000000D0000039
     406       0       0       1      15                               0D0000040
     406      23       0       0       0       0       0       000000000D0000041
     406       0       0       1      15                               0D0000042
     406      24       0       0       0       0       0       000000000D0000043
     406       0       0       1      15                               0D0000044
     406      25       0       0       0       0       0       000000000D0000045
     406       0       0       1      15                               0D0000046
402,8,3,9,15,21,23,25,27,29,0,1,45;                              0000001P0000001
144,5,1,0,7,0,1,31;                                              0000003P0000002
108,0.,0.,1.,0.,0,0.,0.,0.,0.;                                   0000005P0000003
142,0,0,0,0,0;                                                   0000007P0000004
144,11,1,0,13,0,1,41;                                            0000009P0000005
108,0.,-1.,-2.220446049E-16,0.,0,0.,0.,0.,0.;                    0000011P0000006
142,0,0,0,0,0;                                                   0000013P0000007
144,17,1,0,19,0,1,37;                                            0000015P0000008
108,1.,1.232595164E-32,1.110223025E-16,0.,0,0.,0.,0.,0.;         0000017P0000009
142,0,0,0,0,0;                                                   0000019P0000010
100,0.,0.,0.,60.,0.,60.,0.,0,1,43;                               0000021P0000011
110,-2.E+100,0.,0.,2.E+100,0.,0.,0,1,35;                         0000023P0000012
110,0.,-2.E+100,2.220446049E+84,0.,2.E+100,-2.220446049E+84,0,1, 0000025P0000013
39;                                                              0000025P0000014
110,0.,-2.220446049E+84,-2.E+100,0.,2.220446049E+84,2.E+100,0,1, 0000027P0000015
33;                                                              0000027P0000016
116,0.,0.,0.,0;                                                  0000029P0000017
406,1,5HXY-__;                                                   0000031P0000018
406,1,2HZ_;                                                      0000033P0000019
406,1,2HX_;                                                      0000035P0000020
406,1,5HYZ-__;                                                   0000037P0000021
406,1,2HY_;                                                      0000039P0000022
406,1,5HXZ-__;                                                   0000041P0000023
406,1,6HSketch;                                                  0000043P0000024
406,1,7Hdraft_4;                                                 0000045P0000025
S      1G      3D     46P     25                                        T0000001
