ISO-10303-21;
HEADER;
FILE_DESCRIPTION(('FreeCAD Model'),'2;1');
FILE_NAME('Open CASCADE Shape Model','2026-07-24T11:08:44',('FreeCAD'),(
    'FreeCAD'),'Open CASCADE STEP processor 7.8','FreeCAD','Unknown');
FILE_SCHEMA(('AUTOMOTIVE_DESIGN { 1 0 10303 214 1 1 1 1 }'));
ENDSEC;
DATA;
#1 = APPLICATION_PROTOCOL_DEFINITION('international standard',
  'automotive_design',2000,#2);
#2 = APPLICATION_CONTEXT(
  'core data for automotive mechanical design processes');
#3 = SHAPE_DEFINITION_REPRESENTATION(#4,#10);
#4 = PRODUCT_DEFINITION_SHAPE('','',#5);
#5 = PRODUCT_DEFINITION('design','',#6,#9);
#6 = PRODUCT_DEFINITION_FORMATION('','',#7);
#7 = PRODUCT('Open CASCADE STEP translator 7.8 1',
  'Open CASCADE STEP translator 7.8 1','',(#8));
#8 = PRODUCT_CONTEXT('',#2,'mechanical');
#9 = PRODUCT_DEFINITION_CONTEXT('part definition',#2,'design');
#10 = ADVANCED_BREP_SHAPE_REPRESENTATION('',(#11,#15),#932);
#11 = AXIS2_PLACEMENT_3D('',#12,#13,#14);
#12 = CARTESIAN_POINT('',(0.,0.,0.));
#13 = DIRECTION('',(0.,0.,1.));
#14 = DIRECTION('',(1.,0.,-0.));
#15 = MANIFOLD_SOLID_BREP('',#16);
#16 = CLOSED_SHELL('',(#17,#57,#232,#256,#424,#550,#572,#698,#715,#732,
    #744,#761,#778,#795,#817,#836,#853,#872,#889,#901,#918));
#17 = ADVANCED_FACE('',(#18),#52,.F.);
#18 = FACE_BOUND('',#19,.F.);
#19 = EDGE_LOOP('',(#20,#30,#38,#46));
#20 = ORIENTED_EDGE('',*,*,#21,.F.);
#21 = EDGE_CURVE('',#22,#24,#26,.T.);
#22 = VERTEX_POINT('',#23);
#23 = CARTESIAN_POINT('',(30.343145750507,14.,0.));
#24 = VERTEX_POINT('',#25);
#25 = CARTESIAN_POINT('',(18.,14.,0.));
#26 = LINE('',#27,#28);
#27 = CARTESIAN_POINT('',(86.,14.,0.));
#28 = VECTOR('',#29,1.);
#29 = DIRECTION('',(-1.,0.,0.));
#30 = ORIENTED_EDGE('',*,*,#31,.F.);
#31 = EDGE_CURVE('',#32,#22,#34,.T.);
#32 = VERTEX_POINT('',#33);
#33 = CARTESIAN_POINT('',(30.343145750507,14.,34.));
#34 = LINE('',#35,#36);
#35 = CARTESIAN_POINT('',(30.343145750508,14.,0.));
#36 = VECTOR('',#37,1.);
#37 = DIRECTION('',(-0.,-0.,-1.));
#38 = ORIENTED_EDGE('',*,*,#39,.T.);
#39 = EDGE_CURVE('',#32,#40,#42,.T.);
#40 = VERTEX_POINT('',#41);
#41 = CARTESIAN_POINT('',(18.,14.,34.));
#42 = LINE('',#43,#44);
#43 = CARTESIAN_POINT('',(86.,14.,34.));
#44 = VECTOR('',#45,1.);
#45 = DIRECTION('',(-1.,0.,0.));
#46 = ORIENTED_EDGE('',*,*,#47,.F.);
#47 = EDGE_CURVE('',#24,#40,#48,.T.);
#48 = LINE('',#49,#50);
#49 = CARTESIAN_POINT('',(18.,14.,0.));
#50 = VECTOR('',#51,1.);
#51 = DIRECTION('',(0.,0.,1.));
#52 = PLANE('',#53);
#53 = AXIS2_PLACEMENT_3D('',#54,#55,#56);
#54 = CARTESIAN_POINT('',(86.,14.,0.));
#55 = DIRECTION('',(0.,-1.,0.));
#56 = DIRECTION('',(-1.,0.,0.));
#57 = ADVANCED_FACE('',(#58),#227,.T.);
#58 = FACE_BOUND('',#59,.T.);
#59 = EDGE_LOOP('',(#60,#70,#78,#86,#95,#104,#112,#121,#130,#138,#147,
    #156,#164,#172,#180,#186,#187,#196,#204,#212,#220));
#60 = ORIENTED_EDGE('',*,*,#61,.F.);
#61 = EDGE_CURVE('',#62,#64,#66,.T.);
#62 = VERTEX_POINT('',#63);
#63 = CARTESIAN_POINT('',(0.,0.,0.));
#64 = VERTEX_POINT('',#65);
#65 = CARTESIAN_POINT('',(30.343145750507,1.101341240428E-13,0.));
#66 = LINE('',#67,#68);
#67 = CARTESIAN_POINT('',(0.,0.,0.));
#68 = VECTOR('',#69,1.);
#69 = DIRECTION('',(1.,0.,0.));
#70 = ORIENTED_EDGE('',*,*,#71,.F.);
#71 = EDGE_CURVE('',#72,#62,#74,.T.);
#72 = VERTEX_POINT('',#73);
#73 = CARTESIAN_POINT('',(0.,58.,0.));
#74 = LINE('',#75,#76);
#75 = CARTESIAN_POINT('',(0.,58.,0.));
#76 = VECTOR('',#77,1.);
#77 = DIRECTION('',(0.,-1.,0.));
#78 = ORIENTED_EDGE('',*,*,#79,.F.);
#79 = EDGE_CURVE('',#80,#72,#82,.T.);
#80 = VERTEX_POINT('',#81);
#81 = CARTESIAN_POINT('',(29.101020514434,58.,0.));
#82 = LINE('',#83,#84);
#83 = CARTESIAN_POINT('',(86.,58.,0.));
#84 = VECTOR('',#85,1.);
#85 = DIRECTION('',(-1.,0.,0.));
#86 = ORIENTED_EDGE('',*,*,#87,.T.);
#87 = EDGE_CURVE('',#80,#88,#90,.T.);
#88 = VERTEX_POINT('',#89);
#89 = CARTESIAN_POINT('',(34.,54.,0.));
#90 = CIRCLE('',#91,5.);
#91 = AXIS2_PLACEMENT_3D('',#92,#93,#94);
#92 = CARTESIAN_POINT('',(34.,59.,0.));
#93 = DIRECTION('',(-0.,2.22044604925E-16,1.));
#94 = DIRECTION('',(0.,-1.,2.22044604925E-16));
#95 = ORIENTED_EDGE('',*,*,#96,.T.);
#96 = EDGE_CURVE('',#88,#97,#99,.T.);
#97 = VERTEX_POINT('',#98);
#98 = CARTESIAN_POINT('',(38.898979485566,58.,0.));
#99 = CIRCLE('',#100,5.);
#100 = AXIS2_PLACEMENT_3D('',#101,#102,#103);
#101 = CARTESIAN_POINT('',(34.,59.,0.));
#102 = DIRECTION('',(-0.,2.22044604925E-16,1.));
#103 = DIRECTION('',(0.,-1.,2.22044604925E-16));
#104 = ORIENTED_EDGE('',*,*,#105,.F.);
#105 = EDGE_CURVE('',#106,#97,#108,.T.);
#106 = VERTEX_POINT('',#107);
#107 = CARTESIAN_POINT('',(43.101020514434,58.,0.));
#108 = LINE('',#109,#110);
#109 = CARTESIAN_POINT('',(86.,58.,0.));
#110 = VECTOR('',#111,1.);
#111 = DIRECTION('',(-1.,0.,0.));
#112 = ORIENTED_EDGE('',*,*,#113,.T.);
#113 = EDGE_CURVE('',#106,#114,#116,.T.);
#114 = VERTEX_POINT('',#115);
#115 = CARTESIAN_POINT('',(48.,54.,0.));
#116 = CIRCLE('',#117,5.);
#117 = AXIS2_PLACEMENT_3D('',#118,#119,#120);
#118 = CARTESIAN_POINT('',(48.,59.,0.));
#119 = DIRECTION('',(-0.,2.22044604925E-16,1.));
#120 = DIRECTION('',(0.,-1.,2.22044604925E-16));
#121 = ORIENTED_EDGE('',*,*,#122,.T.);
#122 = EDGE_CURVE('',#114,#123,#125,.T.);
#123 = VERTEX_POINT('',#124);
#124 = CARTESIAN_POINT('',(52.898979485566,58.,0.));
#125 = CIRCLE('',#126,5.);
#126 = AXIS2_PLACEMENT_3D('',#127,#128,#129);
#127 = CARTESIAN_POINT('',(48.,59.,0.));
#128 = DIRECTION('',(-0.,2.22044604925E-16,1.));
#129 = DIRECTION('',(0.,-1.,2.22044604925E-16));
#130 = ORIENTED_EDGE('',*,*,#131,.F.);
#131 = EDGE_CURVE('',#132,#123,#134,.T.);
#132 = VERTEX_POINT('',#133);
#133 = CARTESIAN_POINT('',(57.101020514434,58.,0.));
#134 = LINE('',#135,#136);
#135 = CARTESIAN_POINT('',(86.,58.,0.));
#136 = VECTOR('',#137,1.);
#137 = DIRECTION('',(-1.,0.,0.));
#138 = ORIENTED_EDGE('',*,*,#139,.T.);
#139 = EDGE_CURVE('',#132,#140,#142,.T.);
#140 = VERTEX_POINT('',#141);
#141 = CARTESIAN_POINT('',(62.,54.,0.));
#142 = CIRCLE('',#143,5.);
#143 = AXIS2_PLACEMENT_3D('',#144,#145,#146);
#144 = CARTESIAN_POINT('',(62.,59.,0.));
#145 = DIRECTION('',(-0.,2.22044604925E-16,1.));
#146 = DIRECTION('',(0.,-1.,2.22044604925E-16));
#147 = ORIENTED_EDGE('',*,*,#148,.T.);
#148 = EDGE_CURVE('',#140,#149,#151,.T.);
#149 = VERTEX_POINT('',#150);
#150 = CARTESIAN_POINT('',(66.898979485566,58.,0.));
#151 = CIRCLE('',#152,5.);
#152 = AXIS2_PLACEMENT_3D('',#153,#154,#155);
#153 = CARTESIAN_POINT('',(62.,59.,0.));
#154 = DIRECTION('',(-0.,2.22044604925E-16,1.));
#155 = DIRECTION('',(0.,-1.,2.22044604925E-16));
#156 = ORIENTED_EDGE('',*,*,#157,.F.);
#157 = EDGE_CURVE('',#158,#149,#160,.T.);
#158 = VERTEX_POINT('',#159);
#159 = CARTESIAN_POINT('',(86.,58.,0.));
#160 = LINE('',#161,#162);
#161 = CARTESIAN_POINT('',(86.,58.,0.));
#162 = VECTOR('',#163,1.);
#163 = DIRECTION('',(-1.,0.,0.));
#164 = ORIENTED_EDGE('',*,*,#165,.F.);
#165 = EDGE_CURVE('',#166,#158,#168,.T.);
#166 = VERTEX_POINT('',#167);
#167 = CARTESIAN_POINT('',(86.,44.,0.));
#168 = LINE('',#169,#170);
#169 = CARTESIAN_POINT('',(86.,44.,0.));
#170 = VECTOR('',#171,1.);
#171 = DIRECTION('',(0.,1.,0.));
#172 = ORIENTED_EDGE('',*,*,#173,.F.);
#173 = EDGE_CURVE('',#174,#166,#176,.T.);
#174 = VERTEX_POINT('',#175);
#175 = CARTESIAN_POINT('',(18.,44.,0.));
#176 = LINE('',#177,#178);
#177 = CARTESIAN_POINT('',(18.,44.,0.));
#178 = VECTOR('',#179,1.);
#179 = DIRECTION('',(1.,0.,0.));
#180 = ORIENTED_EDGE('',*,*,#181,.F.);
#181 = EDGE_CURVE('',#24,#174,#182,.T.);
#182 = LINE('',#183,#184);
#183 = CARTESIAN_POINT('',(18.,14.,0.));
#184 = VECTOR('',#185,1.);
#185 = DIRECTION('',(0.,1.,0.));
#186 = ORIENTED_EDGE('',*,*,#21,.F.);
#187 = ORIENTED_EDGE('',*,*,#188,.F.);
#188 = EDGE_CURVE('',#189,#22,#191,.T.);
#189 = VERTEX_POINT('',#190);
#190 = CARTESIAN_POINT('',(41.656854249492,14.,0.));
#191 = CIRCLE('',#192,9.);
#192 = AXIS2_PLACEMENT_3D('',#193,#194,#195);
#193 = CARTESIAN_POINT('',(36.,7.,0.));
#194 = DIRECTION('',(0.,0.,1.));
#195 = DIRECTION('',(1.,0.,0.));
#196 = ORIENTED_EDGE('',*,*,#197,.F.);
#197 = EDGE_CURVE('',#198,#189,#200,.T.);
#198 = VERTEX_POINT('',#199);
#199 = CARTESIAN_POINT('',(86.,14.,0.));
#200 = LINE('',#201,#202);
#201 = CARTESIAN_POINT('',(86.,14.,0.));
#202 = VECTOR('',#203,1.);
#203 = DIRECTION('',(-1.,0.,0.));
#204 = ORIENTED_EDGE('',*,*,#205,.F.);
#205 = EDGE_CURVE('',#206,#198,#208,.T.);
#206 = VERTEX_POINT('',#207);
#207 = CARTESIAN_POINT('',(86.,0.,0.));
#208 = LINE('',#209,#210);
#209 = CARTESIAN_POINT('',(86.,0.,0.));
#210 = VECTOR('',#211,1.);
#211 = DIRECTION('',(0.,1.,0.));
#212 = ORIENTED_EDGE('',*,*,#213,.F.);
#213 = EDGE_CURVE('',#214,#206,#216,.T.);
#214 = VERTEX_POINT('',#215);
#215 = CARTESIAN_POINT('',(41.656854249492,-5.417888360171E-14,0.));
#216 = LINE('',#217,#218);
#217 = CARTESIAN_POINT('',(0.,0.,0.));
#218 = VECTOR('',#219,1.);
#219 = DIRECTION('',(1.,0.,0.));
#220 = ORIENTED_EDGE('',*,*,#221,.F.);
#221 = EDGE_CURVE('',#64,#214,#222,.T.);
#222 = CIRCLE('',#223,9.);
#223 = AXIS2_PLACEMENT_3D('',#224,#225,#226);
#224 = CARTESIAN_POINT('',(36.,7.,0.));
#225 = DIRECTION('',(0.,0.,1.));
#226 = DIRECTION('',(1.,0.,0.));
#227 = PLANE('',#228);
#228 = AXIS2_PLACEMENT_3D('',#229,#230,#231);
#229 = CARTESIAN_POINT('',(41.05601014673,28.915642494749,0.));
#230 = DIRECTION('',(-0.,-0.,-1.));
#231 = DIRECTION('',(-1.,0.,0.));
#232 = ADVANCED_FACE('',(#233),#251,.F.);
#233 = FACE_BOUND('',#234,.F.);
#234 = EDGE_LOOP('',(#235,#236,#244,#250));
#235 = ORIENTED_EDGE('',*,*,#47,.T.);
#236 = ORIENTED_EDGE('',*,*,#237,.T.);
#237 = EDGE_CURVE('',#40,#238,#240,.T.);
#238 = VERTEX_POINT('',#239);
#239 = CARTESIAN_POINT('',(18.,44.,34.));
#240 = LINE('',#241,#242);
#241 = CARTESIAN_POINT('',(18.,14.,34.));
#242 = VECTOR('',#243,1.);
#243 = DIRECTION('',(0.,1.,0.));
#244 = ORIENTED_EDGE('',*,*,#245,.F.);
#245 = EDGE_CURVE('',#174,#238,#246,.T.);
#246 = LINE('',#247,#248);
#247 = CARTESIAN_POINT('',(18.,44.,0.));
#248 = VECTOR('',#249,1.);
#249 = DIRECTION('',(0.,0.,1.));
#250 = ORIENTED_EDGE('',*,*,#181,.F.);
#251 = PLANE('',#252);
#252 = AXIS2_PLACEMENT_3D('',#253,#254,#255);
#253 = CARTESIAN_POINT('',(18.,14.,0.));
#254 = DIRECTION('',(-1.,0.,0.));
#255 = DIRECTION('',(0.,1.,0.));
#256 = ADVANCED_FACE('',(#257),#419,.T.);
#257 = FACE_BOUND('',#258,.T.);
#258 = EDGE_LOOP('',(#259,#270,#278,#286,#294,#303,#311,#319,#327,#334,
    #335,#336,#344,#352,#360,#369,#378,#386,#395,#404,#412));
#259 = ORIENTED_EDGE('',*,*,#260,.F.);
#260 = EDGE_CURVE('',#261,#263,#265,.T.);
#261 = VERTEX_POINT('',#262);
#262 = CARTESIAN_POINT('',(29.101020514433,58.,34.));
#263 = VERTEX_POINT('',#264);
#264 = CARTESIAN_POINT('',(34.,54.,34.));
#265 = CIRCLE('',#266,5.);
#266 = AXIS2_PLACEMENT_3D('',#267,#268,#269);
#267 = CARTESIAN_POINT('',(34.,59.,34.));
#268 = DIRECTION('',(-0.,2.22044604925E-16,1.));
#269 = DIRECTION('',(0.,-1.,2.22044604925E-16));
#270 = ORIENTED_EDGE('',*,*,#271,.T.);
#271 = EDGE_CURVE('',#261,#272,#274,.T.);
#272 = VERTEX_POINT('',#273);
#273 = CARTESIAN_POINT('',(0.,58.,34.));
#274 = LINE('',#275,#276);
#275 = CARTESIAN_POINT('',(86.,58.,34.));
#276 = VECTOR('',#277,1.);
#277 = DIRECTION('',(-1.,0.,0.));
#278 = ORIENTED_EDGE('',*,*,#279,.T.);
#279 = EDGE_CURVE('',#272,#280,#282,.T.);
#280 = VERTEX_POINT('',#281);
#281 = CARTESIAN_POINT('',(0.,0.,34.));
#282 = LINE('',#283,#284);
#283 = CARTESIAN_POINT('',(0.,58.,34.));
#284 = VECTOR('',#285,1.);
#285 = DIRECTION('',(0.,-1.,0.));
#286 = ORIENTED_EDGE('',*,*,#287,.T.);
#287 = EDGE_CURVE('',#280,#288,#290,.T.);
#288 = VERTEX_POINT('',#289);
#289 = CARTESIAN_POINT('',(30.343145750507,1.101341240428E-13,34.));
#290 = LINE('',#291,#292);
#291 = CARTESIAN_POINT('',(0.,0.,34.));
#292 = VECTOR('',#293,1.);
#293 = DIRECTION('',(1.,0.,0.));
#294 = ORIENTED_EDGE('',*,*,#295,.T.);
#295 = EDGE_CURVE('',#288,#296,#298,.T.);
#296 = VERTEX_POINT('',#297);
#297 = CARTESIAN_POINT('',(41.656854249492,-5.417888360171E-14,34.));
#298 = CIRCLE('',#299,9.);
#299 = AXIS2_PLACEMENT_3D('',#300,#301,#302);
#300 = CARTESIAN_POINT('',(36.,7.,34.));
#301 = DIRECTION('',(0.,0.,1.));
#302 = DIRECTION('',(1.,0.,0.));
#303 = ORIENTED_EDGE('',*,*,#304,.T.);
#304 = EDGE_CURVE('',#296,#305,#307,.T.);
#305 = VERTEX_POINT('',#306);
#306 = CARTESIAN_POINT('',(86.,0.,34.));
#307 = LINE('',#308,#309);
#308 = CARTESIAN_POINT('',(0.,0.,34.));
#309 = VECTOR('',#310,1.);
#310 = DIRECTION('',(1.,0.,0.));
#311 = ORIENTED_EDGE('',*,*,#312,.T.);
#312 = EDGE_CURVE('',#305,#313,#315,.T.);
#313 = VERTEX_POINT('',#314);
#314 = CARTESIAN_POINT('',(86.,14.,34.));
#315 = LINE('',#316,#317);
#316 = CARTESIAN_POINT('',(86.,0.,34.));
#317 = VECTOR('',#318,1.);
#318 = DIRECTION('',(0.,1.,0.));
#319 = ORIENTED_EDGE('',*,*,#320,.T.);
#320 = EDGE_CURVE('',#313,#321,#323,.T.);
#321 = VERTEX_POINT('',#322);
#322 = CARTESIAN_POINT('',(41.656854249492,14.,34.));
#323 = LINE('',#324,#325);
#324 = CARTESIAN_POINT('',(86.,14.,34.));
#325 = VECTOR('',#326,1.);
#326 = DIRECTION('',(-1.,0.,0.));
#327 = ORIENTED_EDGE('',*,*,#328,.T.);
#328 = EDGE_CURVE('',#321,#32,#329,.T.);
#329 = CIRCLE('',#330,9.);
#330 = AXIS2_PLACEMENT_3D('',#331,#332,#333);
#331 = CARTESIAN_POINT('',(36.,7.,34.));
#332 = DIRECTION('',(0.,0.,1.));
#333 = DIRECTION('',(1.,0.,0.));
#334 = ORIENTED_EDGE('',*,*,#39,.T.);
#335 = ORIENTED_EDGE('',*,*,#237,.T.);
#336 = ORIENTED_EDGE('',*,*,#337,.T.);
#337 = EDGE_CURVE('',#238,#338,#340,.T.);
#338 = VERTEX_POINT('',#339);
#339 = CARTESIAN_POINT('',(86.,44.,34.));
#340 = LINE('',#341,#342);
#341 = CARTESIAN_POINT('',(18.,44.,34.));
#342 = VECTOR('',#343,1.);
#343 = DIRECTION('',(1.,0.,0.));
#344 = ORIENTED_EDGE('',*,*,#345,.T.);
#345 = EDGE_CURVE('',#338,#346,#348,.T.);
#346 = VERTEX_POINT('',#347);
#347 = CARTESIAN_POINT('',(86.,58.,34.));
#348 = LINE('',#349,#350);
#349 = CARTESIAN_POINT('',(86.,44.,34.));
#350 = VECTOR('',#351,1.);
#351 = DIRECTION('',(0.,1.,0.));
#352 = ORIENTED_EDGE('',*,*,#353,.T.);
#353 = EDGE_CURVE('',#346,#354,#356,.T.);
#354 = VERTEX_POINT('',#355);
#355 = CARTESIAN_POINT('',(66.898979485566,58.,34.));
#356 = LINE('',#357,#358);
#357 = CARTESIAN_POINT('',(86.,58.,34.));
#358 = VECTOR('',#359,1.);
#359 = DIRECTION('',(-1.,0.,0.));
#360 = ORIENTED_EDGE('',*,*,#361,.F.);
#361 = EDGE_CURVE('',#362,#354,#364,.T.);
#362 = VERTEX_POINT('',#363);
#363 = CARTESIAN_POINT('',(62.,54.,34.));
#364 = CIRCLE('',#365,5.);
#365 = AXIS2_PLACEMENT_3D('',#366,#367,#368);
#366 = CARTESIAN_POINT('',(62.,59.,34.));
#367 = DIRECTION('',(-0.,2.22044604925E-16,1.));
#368 = DIRECTION('',(0.,-1.,2.22044604925E-16));
#369 = ORIENTED_EDGE('',*,*,#370,.F.);
#370 = EDGE_CURVE('',#371,#362,#373,.T.);
#371 = VERTEX_POINT('',#372);
#372 = CARTESIAN_POINT('',(57.101020514434,58.,34.));
#373 = CIRCLE('',#374,5.);
#374 = AXIS2_PLACEMENT_3D('',#375,#376,#377);
#375 = CARTESIAN_POINT('',(62.,59.,34.));
#376 = DIRECTION('',(-0.,2.22044604925E-16,1.));
#377 = DIRECTION('',(0.,-1.,2.22044604925E-16));
#378 = ORIENTED_EDGE('',*,*,#379,.T.);
#379 = EDGE_CURVE('',#371,#380,#382,.T.);
#380 = VERTEX_POINT('',#381);
#381 = CARTESIAN_POINT('',(52.898979485567,58.,34.));
#382 = LINE('',#383,#384);
#383 = CARTESIAN_POINT('',(86.,58.,34.));
#384 = VECTOR('',#385,1.);
#385 = DIRECTION('',(-1.,0.,0.));
#386 = ORIENTED_EDGE('',*,*,#387,.F.);
#387 = EDGE_CURVE('',#388,#380,#390,.T.);
#388 = VERTEX_POINT('',#389);
#389 = CARTESIAN_POINT('',(48.,54.,34.));
#390 = CIRCLE('',#391,5.);
#391 = AXIS2_PLACEMENT_3D('',#392,#393,#394);
#392 = CARTESIAN_POINT('',(48.,59.,34.));
#393 = DIRECTION('',(-0.,2.22044604925E-16,1.));
#394 = DIRECTION('',(0.,-1.,2.22044604925E-16));
#395 = ORIENTED_EDGE('',*,*,#396,.F.);
#396 = EDGE_CURVE('',#397,#388,#399,.T.);
#397 = VERTEX_POINT('',#398);
#398 = CARTESIAN_POINT('',(43.101020514433,58.,34.));
#399 = CIRCLE('',#400,5.);
#400 = AXIS2_PLACEMENT_3D('',#401,#402,#403);
#401 = CARTESIAN_POINT('',(48.,59.,34.));
#402 = DIRECTION('',(-0.,2.22044604925E-16,1.));
#403 = DIRECTION('',(0.,-1.,2.22044604925E-16));
#404 = ORIENTED_EDGE('',*,*,#405,.T.);
#405 = EDGE_CURVE('',#397,#406,#408,.T.);
#406 = VERTEX_POINT('',#407);
#407 = CARTESIAN_POINT('',(38.898979485567,58.,34.));
#408 = LINE('',#409,#410);
#409 = CARTESIAN_POINT('',(86.,58.,34.));
#410 = VECTOR('',#411,1.);
#411 = DIRECTION('',(-1.,0.,0.));
#412 = ORIENTED_EDGE('',*,*,#413,.F.);
#413 = EDGE_CURVE('',#263,#406,#414,.T.);
#414 = CIRCLE('',#415,5.);
#415 = AXIS2_PLACEMENT_3D('',#416,#417,#418);
#416 = CARTESIAN_POINT('',(34.,59.,34.));
#417 = DIRECTION('',(-0.,2.22044604925E-16,1.));
#418 = DIRECTION('',(0.,-1.,2.22044604925E-16));
#419 = PLANE('',#420);
#420 = AXIS2_PLACEMENT_3D('',#421,#422,#423);
#421 = CARTESIAN_POINT('',(41.05601014673,28.915642494749,34.));
#422 = DIRECTION('',(0.,0.,1.));
#423 = DIRECTION('',(1.,0.,0.));
#424 = ADVANCED_FACE('',(#425,#436),#545,.T.);
#425 = FACE_BOUND('',#426,.F.);
#426 = EDGE_LOOP('',(#427,#428,#434,#435));
#427 = ORIENTED_EDGE('',*,*,#188,.F.);
#428 = ORIENTED_EDGE('',*,*,#429,.F.);
#429 = EDGE_CURVE('',#321,#189,#430,.T.);
#430 = LINE('',#431,#432);
#431 = CARTESIAN_POINT('',(41.656854249492,14.,0.));
#432 = VECTOR('',#433,1.);
#433 = DIRECTION('',(-0.,-0.,-1.));
#434 = ORIENTED_EDGE('',*,*,#328,.T.);
#435 = ORIENTED_EDGE('',*,*,#31,.T.);
#436 = FACE_BOUND('',#437,.F.);
#437 = EDGE_LOOP('',(#438));
#438 = ORIENTED_EDGE('',*,*,#439,.T.);
#439 = EDGE_CURVE('',#440,#440,#442,.T.);
#440 = VERTEX_POINT('',#441);
#441 = CARTESIAN_POINT('',(36.,16.,21.4));
#442 = B_SPLINE_CURVE_WITH_KNOTS('',6,(#443,#444,#445,#446,#447,#448,
    #449,#450,#451,#452,#453,#454,#455,#456,#457,#458,#459,#460,#461,
    #462,#463,#464,#465,#466,#467,#468,#469,#470,#471,#472,#473,#474,
    #475,#476,#477,#478,#479,#480,#481,#482,#483,#484,#485,#486,#487,
    #488,#489,#490,#491,#492,#493,#494,#495,#496,#497,#498,#499,#500,
    #501,#502,#503,#504,#505,#506,#507,#508,#509,#510,#511,#512,#513,
    #514,#515,#516,#517,#518,#519,#520,#521,#522,#523,#524,#525,#526,
    #527,#528,#529,#530,#531,#532,#533,#534,#535,#536,#537,#538,#539,
    #540,#541,#542,#543,#544),.UNSPECIFIED.,.T.,.F.,(7,5,5,5,5,5,5,5,5,5
    ,5,5,5,5,5,5,5,5,5,5,7),(0.,5.886060959353E-02,8.538736499656E-02,
    0.122697417954,0.170215193511,0.207913898587,0.249194834492,
    0.328361042954,0.375549096804,0.412411311567,0.461375115571,
    0.498739110331,0.557941057495,0.605975142026,0.669974708683,
    0.749373052066,0.791124973428,0.828873460545,0.913274066028,
    0.962463686218,1.),.UNSPECIFIED.);
#443 = CARTESIAN_POINT('',(36.,16.,21.4));
#444 = CARTESIAN_POINT('',(36.336940420137,16.,21.4));
#445 = CARTESIAN_POINT('',(36.670868702014,15.984862669674,
    21.369037304579));
#446 = CARTESIAN_POINT('',(36.996394304427,15.955096500645,
    21.308151726198));
#447 = CARTESIAN_POINT('',(37.308317561696,15.91262140834,
    21.220028311486));
#448 = CARTESIAN_POINT('',(37.601954852549,15.860630721374,
    21.108985012804));
#449 = CARTESIAN_POINT('',(37.995774289276,15.776817836919,
    20.923667652633));
#450 = CARTESIAN_POINT('',(38.114206679943,15.749480084177,
    20.862426958873));
#451 = CARTESIAN_POINT('',(38.228721476889,15.721070597024,
    20.797821136962));
#452 = CARTESIAN_POINT('',(38.339327111778,15.69180644415,
    20.730131315811));
#453 = CARTESIAN_POINT('',(38.44604456691,15.661891785868,
    20.659616203655));
#454 = CARTESIAN_POINT('',(38.693583475356,15.588792968202,
    20.483692211748));
#455 = CARTESIAN_POINT('',(38.830667245425,15.545148132331,
    20.375727841648));
#456 = CARTESIAN_POINT('',(38.96034490787,15.501078509279,
    20.263198677617));
#457 = CARTESIAN_POINT('',(39.082802797094,15.457025727792,
    20.146589537068));
#458 = CARTESIAN_POINT('',(39.198226302358,15.413380792075,
    20.02629086273));
#459 = CARTESIAN_POINT('',(39.445076905006,15.315861347714,
    19.74506513808));
#460 = CARTESIAN_POINT('',(39.572270788721,15.26244395603,
    19.581994224056));
#461 = CARTESIAN_POINT('',(39.688652611802,15.210988084113,
    19.414099547426));
#462 = CARTESIAN_POINT('',(39.794463014783,15.162150923627,
    19.241941680371));
#463 = CARTESIAN_POINT('',(39.889890868459,15.116511516601,
    19.065962540623));
#464 = CARTESIAN_POINT('',(40.042616434557,15.041325981726,
    18.744157207972));
#465 = CARTESIAN_POINT('',(40.103711639992,15.010406489241,
    18.599629324358));
#466 = CARTESIAN_POINT('',(40.158358328927,14.982105731688,
    18.453200126296));
#467 = CARTESIAN_POINT('',(40.206571866066,14.956666887862,
    18.305114674973));
#468 = CARTESIAN_POINT('',(40.248359860817,14.93429612423,
    18.155599522989));
#469 = CARTESIAN_POINT('',(40.322438488576,14.89420444436,
    17.839803218915));
#470 = CARTESIAN_POINT('',(40.353446431518,14.877128789506,
    17.673291072432));
#471 = CARTESIAN_POINT('',(40.376717703457,14.864162959889,
    17.505697565892));
#472 = CARTESIAN_POINT('',(40.392237954829,14.855464492203,
    17.337384273761));
#473 = CARTESIAN_POINT('',(40.4,14.851114570556,17.168703770259));
#474 = CARTESIAN_POINT('',(40.4,14.851114570556,16.676469596627));
#475 = CARTESIAN_POINT('',(40.371453457406,14.867112867392,
    16.35340768913));
#476 = CARTESIAN_POINT('',(40.314513056205,14.89902415461,
    16.032939812252));
#477 = CARTESIAN_POINT('',(40.229202512088,14.945811463669,
    15.717247305548));
#478 = CARTESIAN_POINT('',(40.115478917288,15.005490001773,
    15.408741528702));
#479 = CARTESIAN_POINT('',(39.888879389869,15.116989126304,
    14.932286324147));
#480 = CARTESIAN_POINT('',(39.794152100405,15.162278276301,
    14.757762030738));
#481 = CARTESIAN_POINT('',(39.68920882622,15.210710944838,
    14.586999567163));
#482 = CARTESIAN_POINT('',(39.573865426486,15.261721846854,
    14.420430598925));
#483 = CARTESIAN_POINT('',(39.447887619926,15.314670096776,
    14.258601517584));
#484 = CARTESIAN_POINT('',(39.204085807602,15.411126956099,
    13.980034248562));
#485 = CARTESIAN_POINT('',(39.09049341073,15.454172324944,
    13.861158724027));
#486 = CARTESIAN_POINT('',(38.970057416576,15.497628880687,
    13.74586319449));
#487 = CARTESIAN_POINT('',(38.84260004087,15.541122223259,
    13.634520281523));
#488 = CARTESIAN_POINT('',(38.707942487387,15.584230128399,
    13.527591840206));
#489 = CARTESIAN_POINT('',(38.377238884553,15.682596363797,
    13.290192260245));
#490 = CARTESIAN_POINT('',(38.175117680129,15.737326791145,
    13.163205530362));
#491 = CARTESIAN_POINT('',(37.959581217131,15.789374296444,
    13.046451168128));
#492 = CARTESIAN_POINT('',(37.730832545099,15.837310489511,
    12.941805092559));
#493 = CARTESIAN_POINT('',(37.48927572004,15.879620715739,12.85127273665
    ));
#494 = CARTESIAN_POINT('',(37.041957712972,15.941617720884,
    12.720395323869));
#495 = CARTESIAN_POINT('',(36.841255613456,15.964292002866,
    12.673236461311));
#496 = CARTESIAN_POINT('',(36.63501627179,15.98195404704,12.636912140708
    ));
#497 = CARTESIAN_POINT('',(36.42490575618,15.993970514866,
    12.612333047714));
#498 = CARTESIAN_POINT('',(36.212652466614,16.,12.6));
#499 = CARTESIAN_POINT('',(35.663059579863,16.,12.6));
#500 = CARTESIAN_POINT('',(35.329131297986,15.984862669674,
    12.630962695421));
#501 = CARTESIAN_POINT('',(35.003605695573,15.955096500645,
    12.691848273802));
#502 = CARTESIAN_POINT('',(34.691682438304,15.91262140834,
    12.779971688514));
#503 = CARTESIAN_POINT('',(34.398045147452,15.860630721374,
    12.891014987196));
#504 = CARTESIAN_POINT('',(33.906307981421,15.755978928102,
    13.122408933274));
#505 = CARTESIAN_POINT('',(33.69886066287,15.704916646527,
    13.237887558712));
#506 = CARTESIAN_POINT('',(33.504139855776,15.650992476866,
    13.363434719281));
#507 = CARTESIAN_POINT('',(33.321905720479,15.595381282446,
    13.497602216197));
#508 = CARTESIAN_POINT('',(33.151837783733,15.539095857489,
    13.639205303338));
#509 = CARTESIAN_POINT('',(32.782754872863,15.40829177667,
    13.984587150517));
#510 = CARTESIAN_POINT('',(32.592603880856,15.33382376123,
    14.193671076127));
#511 = CARTESIAN_POINT('',(32.422375497964,15.261661443668,
    14.412404769461));
#512 = CARTESIAN_POINT('',(32.27135078022,15.193489350444,
    14.639275389928));
#513 = CARTESIAN_POINT('',(32.138970463701,15.130719712067,
    14.873224258066));
#514 = CARTESIAN_POINT('',(31.883489632117,15.004948608617,
    15.411543388874));
#515 = CARTESIAN_POINT('',(31.770178560271,14.94547203606,15.71953993097
    ));
#516 = CARTESIAN_POINT('',(31.685176774167,14.898850323946,
    16.034685889115));
#517 = CARTESIAN_POINT('',(31.628442616776,14.867054624941,
    16.354582535885));
#518 = CARTESIAN_POINT('',(31.6,14.851114570556,16.677059067777));
#519 = CARTESIAN_POINT('',(31.6,14.851114570556,17.16981971956));
#520 = CARTESIAN_POINT('',(31.607865073195,14.855522226041,
    17.339615394447));
#521 = CARTESIAN_POINT('',(31.623591226597,14.864336104689,
    17.509036538845));
#522 = CARTESIAN_POINT('',(31.647171123461,14.877472858451,
    17.677723754919));
#523 = CARTESIAN_POINT('',(31.678590118462,14.89477081392,
    17.845308345426));
#524 = CARTESIAN_POINT('',(31.7532926421,14.935181342157,18.16158846143)
  );
#525 = CARTESIAN_POINT('',(31.795147383137,14.957576229493,
    18.310544985235));
#526 = CARTESIAN_POINT('',(31.843383654153,14.983013009526,
    18.458075423312));
#527 = CARTESIAN_POINT('',(31.898009225832,15.011287004018,
    18.603955705643));
#528 = CARTESIAN_POINT('',(31.959039602851,15.042157111592,
    18.747943426294));
#529 = CARTESIAN_POINT('',(32.177316717869,15.149561162725,
    19.20689966804));
#530 = CARTESIAN_POINT('',(32.360009865364,15.235258430426,
    19.512733418081));
#531 = CARTESIAN_POINT('',(32.575268608489,15.329620986178,
    19.805807760943));
#532 = CARTESIAN_POINT('',(32.82469151558,15.429346041312,
    20.083592275981));
#533 = CARTESIAN_POINT('',(33.110376213572,15.53018987823,
    20.341986042497));
#534 = CARTESIAN_POINT('',(33.622761115447,15.682596363797,
    20.709807739755));
#535 = CARTESIAN_POINT('',(33.824882319872,15.737326791145,
    20.836794469638));
#536 = CARTESIAN_POINT('',(34.040418782869,15.789374296444,
    20.953548831872));
#537 = CARTESIAN_POINT('',(34.269167454901,15.837310489511,
    21.058194907441));
#538 = CARTESIAN_POINT('',(34.51072427996,15.879620715739,21.14872726335
    ));
#539 = CARTESIAN_POINT('',(34.958042287028,15.941617720884,
    21.279604676131));
#540 = CARTESIAN_POINT('',(35.158744386544,15.964292002866,
    21.326763538689));
#541 = CARTESIAN_POINT('',(35.364983728211,15.98195404704,
    21.363087859292));
#542 = CARTESIAN_POINT('',(35.57509424382,15.993970514866,
    21.387666952286));
#543 = CARTESIAN_POINT('',(35.787347533386,16.,21.4));
#544 = CARTESIAN_POINT('',(36.,16.,21.4));
#545 = CYLINDRICAL_SURFACE('',#546,9.);
#546 = AXIS2_PLACEMENT_3D('',#547,#548,#549);
#547 = CARTESIAN_POINT('',(36.,7.,0.));
#548 = DIRECTION('',(-0.,-0.,-1.));
#549 = DIRECTION('',(1.,0.,0.));
#550 = ADVANCED_FACE('',(#551),#567,.F.);
#551 = FACE_BOUND('',#552,.F.);
#552 = EDGE_LOOP('',(#553,#554,#560,#561));
#553 = ORIENTED_EDGE('',*,*,#61,.F.);
#554 = ORIENTED_EDGE('',*,*,#555,.T.);
#555 = EDGE_CURVE('',#62,#280,#556,.T.);
#556 = LINE('',#557,#558);
#557 = CARTESIAN_POINT('',(0.,0.,0.));
#558 = VECTOR('',#559,1.);
#559 = DIRECTION('',(0.,0.,1.));
#560 = ORIENTED_EDGE('',*,*,#287,.T.);
#561 = ORIENTED_EDGE('',*,*,#562,.T.);
#562 = EDGE_CURVE('',#288,#64,#563,.T.);
#563 = LINE('',#564,#565);
#564 = CARTESIAN_POINT('',(30.343145750508,0.,0.));
#565 = VECTOR('',#566,1.);
#566 = DIRECTION('',(-0.,-0.,-1.));
#567 = PLANE('',#568);
#568 = AXIS2_PLACEMENT_3D('',#569,#570,#571);
#569 = CARTESIAN_POINT('',(0.,0.,0.));
#570 = DIRECTION('',(0.,1.,0.));
#571 = DIRECTION('',(1.,0.,0.));
#572 = ADVANCED_FACE('',(#573,#584),#693,.T.);
#573 = FACE_BOUND('',#574,.F.);
#574 = EDGE_LOOP('',(#575,#581,#582,#583));
#575 = ORIENTED_EDGE('',*,*,#576,.T.);
#576 = EDGE_CURVE('',#296,#214,#577,.T.);
#577 = LINE('',#578,#579);
#578 = CARTESIAN_POINT('',(41.656854249492,0.,0.));
#579 = VECTOR('',#580,1.);
#580 = DIRECTION('',(-0.,-0.,-1.));
#581 = ORIENTED_EDGE('',*,*,#221,.F.);
#582 = ORIENTED_EDGE('',*,*,#562,.F.);
#583 = ORIENTED_EDGE('',*,*,#295,.T.);
#584 = FACE_BOUND('',#585,.F.);
#585 = EDGE_LOOP('',(#586));
#586 = ORIENTED_EDGE('',*,*,#587,.F.);
#587 = EDGE_CURVE('',#588,#588,#590,.T.);
#588 = VERTEX_POINT('',#589);
#589 = CARTESIAN_POINT('',(36.,-2.,21.4));
#590 = B_SPLINE_CURVE_WITH_KNOTS('',6,(#591,#592,#593,#594,#595,#596,
    #597,#598,#599,#600,#601,#602,#603,#604,#605,#606,#607,#608,#609,
    #610,#611,#612,#613,#614,#615,#616,#617,#618,#619,#620,#621,#622,
    #623,#624,#625,#626,#627,#628,#629,#630,#631,#632,#633,#634,#635,
    #636,#637,#638,#639,#640,#641,#642,#643,#644,#645,#646,#647,#648,
    #649,#650,#651,#652,#653,#654,#655,#656,#657,#658,#659,#660,#661,
    #662,#663,#664,#665,#666,#667,#668,#669,#670,#671,#672,#673,#674,
    #675,#676,#677,#678,#679,#680,#681,#682,#683,#684,#685,#686,#687,
    #688,#689,#690,#691,#692),.UNSPECIFIED.,.T.,.F.,(7,5,5,5,5,5,5,5,5,5
    ,5,5,5,5,5,5,5,5,5,5,7),(0.,5.886061029711E-02,8.538736601946E-02,
    0.122697419429,0.170215195562,0.207913901094,0.249194837499,
    0.328361046921,0.375549101343,0.412411316552,0.461375121149,
    0.498739116315,0.557941064052,0.605975149062,0.669974708521,
    0.749373051942,0.791124973325,0.828873460461,0.913274065985,
    0.962463686199,1.),.UNSPECIFIED.);
#591 = CARTESIAN_POINT('',(36.,-2.,21.4));
#592 = CARTESIAN_POINT('',(36.336940420137,-2.,21.4));
#593 = CARTESIAN_POINT('',(36.670868702014,-1.984862669674,
    21.369037304579));
#594 = CARTESIAN_POINT('',(36.996394304427,-1.955096500645,
    21.308151726198));
#595 = CARTESIAN_POINT('',(37.308317561696,-1.91262140834,
    21.220028311486));
#596 = CARTESIAN_POINT('',(37.601954852548,-1.860630721374,
    21.108985012804));
#597 = CARTESIAN_POINT('',(37.995774289286,-1.776817836917,
    20.923667652628));
#598 = CARTESIAN_POINT('',(38.11420667994,-1.749480084177,
    20.862426958874));
#599 = CARTESIAN_POINT('',(38.228721476879,-1.721070597026,
    20.797821136967));
#600 = CARTESIAN_POINT('',(38.339327111777,-1.691806444151,
    20.730131315813));
#601 = CARTESIAN_POINT('',(38.446044566918,-1.661891785866,
    20.659616203649));
#602 = CARTESIAN_POINT('',(38.693583475355,-1.588792968202,
    20.483692211748));
#603 = CARTESIAN_POINT('',(38.830667245425,-1.545148132331,
    20.375727841648));
#604 = CARTESIAN_POINT('',(38.96034490787,-1.501078509279,
    20.263198677617));
#605 = CARTESIAN_POINT('',(39.082802797094,-1.457025727792,
    20.146589537069));
#606 = CARTESIAN_POINT('',(39.198226302358,-1.413380792075,
    20.02629086273));
#607 = CARTESIAN_POINT('',(39.445076905007,-1.315861347714,
    19.74506513808));
#608 = CARTESIAN_POINT('',(39.572270788721,-1.26244395603,
    19.581994224056));
#609 = CARTESIAN_POINT('',(39.688652611802,-1.210988084113,
    19.414099547426));
#610 = CARTESIAN_POINT('',(39.794463014783,-1.162150923627,
    19.241941680371));
#611 = CARTESIAN_POINT('',(39.889890868459,-1.116511516601,
    19.065962540623));
#612 = CARTESIAN_POINT('',(40.042616434557,-1.041325981726,
    18.744157207971));
#613 = CARTESIAN_POINT('',(40.103711639992,-1.010406489241,
    18.599629324358));
#614 = CARTESIAN_POINT('',(40.158358328927,-0.982105731688,
    18.453200126296));
#615 = CARTESIAN_POINT('',(40.206571866066,-0.956666887862,
    18.305114674973));
#616 = CARTESIAN_POINT('',(40.248359860817,-0.93429612423,
    18.155599522989));
#617 = CARTESIAN_POINT('',(40.322438488576,-0.89420444436,
    17.839803218915));
#618 = CARTESIAN_POINT('',(40.353446431518,-0.877128789506,
    17.673291072432));
#619 = CARTESIAN_POINT('',(40.376717703457,-0.864162959889,
    17.505697565892));
#620 = CARTESIAN_POINT('',(40.392237954829,-0.855464492203,
    17.337384273761));
#621 = CARTESIAN_POINT('',(40.4,-0.851114570556,17.168703770259));
#622 = CARTESIAN_POINT('',(40.4,-0.851114570556,16.676469596627));
#623 = CARTESIAN_POINT('',(40.371453457406,-0.867112867392,
    16.35340768913));
#624 = CARTESIAN_POINT('',(40.314513056205,-0.899024154611,
    16.032939812251));
#625 = CARTESIAN_POINT('',(40.229202512088,-0.945811463669,
    15.717247305548));
#626 = CARTESIAN_POINT('',(40.115478917288,-1.005490001773,
    15.408741528702));
#627 = CARTESIAN_POINT('',(39.888879389869,-1.116989126304,
    14.932286324147));
#628 = CARTESIAN_POINT('',(39.794152100405,-1.162278276301,
    14.757762030738));
#629 = CARTESIAN_POINT('',(39.68920882622,-1.210710944838,
    14.586999567162));
#630 = CARTESIAN_POINT('',(39.573865426486,-1.261721846854,
    14.420430598925));
#631 = CARTESIAN_POINT('',(39.447887619926,-1.314670096776,
    14.258601517584));
#632 = CARTESIAN_POINT('',(39.204085807602,-1.411126956099,
    13.980034248562));
#633 = CARTESIAN_POINT('',(39.09049341073,-1.454172324944,
    13.861158724027));
#634 = CARTESIAN_POINT('',(38.970057416576,-1.497628880687,
    13.745863194491));
#635 = CARTESIAN_POINT('',(38.84260004087,-1.541122223259,
    13.634520281523));
#636 = CARTESIAN_POINT('',(38.707942487387,-1.584230128399,
    13.527591840206));
#637 = CARTESIAN_POINT('',(38.377238884553,-1.682596363797,
    13.290192260245));
#638 = CARTESIAN_POINT('',(38.175117680128,-1.737326791145,
    13.163205530362));
#639 = CARTESIAN_POINT('',(37.959581217132,-1.789374296443,
    13.046451168129));
#640 = CARTESIAN_POINT('',(37.730832545098,-1.837310489511,
    12.941805092559));
#641 = CARTESIAN_POINT('',(37.48927572004,-1.879620715739,12.85127273665
    ));
#642 = CARTESIAN_POINT('',(37.041957713214,-1.94161772085,12.72039532394
    ));
#643 = CARTESIAN_POINT('',(36.841255613389,-1.964292002888,
    12.673236461263));
#644 = CARTESIAN_POINT('',(36.635016271544,-1.981954047058,
    12.636912140673));
#645 = CARTESIAN_POINT('',(36.424905756116,-1.993970514851,
    12.612333047743));
#646 = CARTESIAN_POINT('',(36.212652466863,-2.,12.6));
#647 = CARTESIAN_POINT('',(35.663059579862,-2.,12.6));
#648 = CARTESIAN_POINT('',(35.329131297987,-1.984862669674,
    12.630962695421));
#649 = CARTESIAN_POINT('',(35.003605695572,-1.955096500645,
    12.691848273802));
#650 = CARTESIAN_POINT('',(34.691682438304,-1.91262140834,
    12.779971688514));
#651 = CARTESIAN_POINT('',(34.398045147451,-1.860630721374,
    12.891014987196));
#652 = CARTESIAN_POINT('',(33.906307981362,-1.75597892809,
    13.122408933302));
#653 = CARTESIAN_POINT('',(33.698860662886,-1.704916646527,
    13.237887558714));
#654 = CARTESIAN_POINT('',(33.504139855828,-1.650992476882,
    13.363434719246));
#655 = CARTESIAN_POINT('',(33.321905720487,-1.595381282452,
    13.497602216178));
#656 = CARTESIAN_POINT('',(33.151837783681,-1.539095857471,
    13.639205303387));
#657 = CARTESIAN_POINT('',(32.782754898745,-1.408291785843,
    13.984587126297));
#658 = CARTESIAN_POINT('',(32.592603848681,-1.333823748406,
    14.193671117289));
#659 = CARTESIAN_POINT('',(32.422375491886,-1.261661442329,
    14.412404768187));
#660 = CARTESIAN_POINT('',(32.271350809492,-1.193489362617,
    14.639275348236));
#661 = CARTESIAN_POINT('',(32.13897045082,-1.130719705726,
    14.873224285207));
#662 = CARTESIAN_POINT('',(31.883489632117,-1.004948608617,
    15.411543388874));
#663 = CARTESIAN_POINT('',(31.770178560271,-0.945472036061,
    15.71953993097));
#664 = CARTESIAN_POINT('',(31.685176774167,-0.898850323946,
    16.034685889115));
#665 = CARTESIAN_POINT('',(31.628442616776,-0.867054624941,
    16.354582535885));
#666 = CARTESIAN_POINT('',(31.6,-0.851114570556,16.677059067777));
#667 = CARTESIAN_POINT('',(31.6,-0.851114570556,17.16981971956));
#668 = CARTESIAN_POINT('',(31.607865073195,-0.855522226041,
    17.339615394447));
#669 = CARTESIAN_POINT('',(31.623591226597,-0.864336104689,
    17.509036538845));
#670 = CARTESIAN_POINT('',(31.647171123461,-0.877472858451,
    17.677723754919));
#671 = CARTESIAN_POINT('',(31.678590118462,-0.89477081392,
    17.845308345426));
#672 = CARTESIAN_POINT('',(31.7532926421,-0.935181342157,18.16158846143)
  );
#673 = CARTESIAN_POINT('',(31.795147383137,-0.957576229493,
    18.310544985235));
#674 = CARTESIAN_POINT('',(31.843383654153,-0.983013009526,
    18.458075423312));
#675 = CARTESIAN_POINT('',(31.898009225832,-1.011287004018,
    18.603955705642));
#676 = CARTESIAN_POINT('',(31.959039602851,-1.042157111592,
    18.747943426294));
#677 = CARTESIAN_POINT('',(32.177316717869,-1.149561162725,
    19.20689966804));
#678 = CARTESIAN_POINT('',(32.360009865364,-1.235258430426,
    19.51273341808));
#679 = CARTESIAN_POINT('',(32.575268608489,-1.329620986178,
    19.805807760943));
#680 = CARTESIAN_POINT('',(32.824691515581,-1.429346041312,
    20.083592275981));
#681 = CARTESIAN_POINT('',(33.110376213572,-1.53018987823,
    20.341986042496));
#682 = CARTESIAN_POINT('',(33.622761115447,-1.682596363797,
    20.709807739755));
#683 = CARTESIAN_POINT('',(33.824882319872,-1.737326791145,
    20.836794469638));
#684 = CARTESIAN_POINT('',(34.040418782868,-1.789374296443,
    20.953548831872));
#685 = CARTESIAN_POINT('',(34.269167454902,-1.837310489511,
    21.058194907441));
#686 = CARTESIAN_POINT('',(34.51072427996,-1.879620715739,21.14872726335
    ));
#687 = CARTESIAN_POINT('',(34.958042287028,-1.941617720884,
    21.279604676131));
#688 = CARTESIAN_POINT('',(35.158744386544,-1.964292002866,
    21.326763538689));
#689 = CARTESIAN_POINT('',(35.364983728211,-1.98195404704,
    21.363087859292));
#690 = CARTESIAN_POINT('',(35.57509424382,-1.993970514866,
    21.387666952286));
#691 = CARTESIAN_POINT('',(35.787347533386,-2.,21.4));
#692 = CARTESIAN_POINT('',(36.,-2.,21.4));
#693 = CYLINDRICAL_SURFACE('',#694,9.);
#694 = AXIS2_PLACEMENT_3D('',#695,#696,#697);
#695 = CARTESIAN_POINT('',(36.,7.,0.));
#696 = DIRECTION('',(-0.,-0.,-1.));
#697 = DIRECTION('',(1.,0.,0.));
#698 = ADVANCED_FACE('',(#699),#710,.F.);
#699 = FACE_BOUND('',#700,.F.);
#700 = EDGE_LOOP('',(#701,#702,#703,#704));
#701 = ORIENTED_EDGE('',*,*,#213,.F.);
#702 = ORIENTED_EDGE('',*,*,#576,.F.);
#703 = ORIENTED_EDGE('',*,*,#304,.T.);
#704 = ORIENTED_EDGE('',*,*,#705,.F.);
#705 = EDGE_CURVE('',#206,#305,#706,.T.);
#706 = LINE('',#707,#708);
#707 = CARTESIAN_POINT('',(86.,0.,0.));
#708 = VECTOR('',#709,1.);
#709 = DIRECTION('',(0.,0.,1.));
#710 = PLANE('',#711);
#711 = AXIS2_PLACEMENT_3D('',#712,#713,#714);
#712 = CARTESIAN_POINT('',(0.,0.,0.));
#713 = DIRECTION('',(0.,1.,0.));
#714 = DIRECTION('',(1.,0.,0.));
#715 = ADVANCED_FACE('',(#716),#727,.F.);
#716 = FACE_BOUND('',#717,.F.);
#717 = EDGE_LOOP('',(#718,#719,#720,#726));
#718 = ORIENTED_EDGE('',*,*,#705,.T.);
#719 = ORIENTED_EDGE('',*,*,#312,.T.);
#720 = ORIENTED_EDGE('',*,*,#721,.F.);
#721 = EDGE_CURVE('',#198,#313,#722,.T.);
#722 = LINE('',#723,#724);
#723 = CARTESIAN_POINT('',(86.,14.,0.));
#724 = VECTOR('',#725,1.);
#725 = DIRECTION('',(0.,0.,1.));
#726 = ORIENTED_EDGE('',*,*,#205,.F.);
#727 = PLANE('',#728);
#728 = AXIS2_PLACEMENT_3D('',#729,#730,#731);
#729 = CARTESIAN_POINT('',(86.,0.,0.));
#730 = DIRECTION('',(-1.,0.,0.));
#731 = DIRECTION('',(0.,1.,0.));
#732 = ADVANCED_FACE('',(#733),#739,.F.);
#733 = FACE_BOUND('',#734,.F.);
#734 = EDGE_LOOP('',(#735,#736,#737,#738));
#735 = ORIENTED_EDGE('',*,*,#197,.F.);
#736 = ORIENTED_EDGE('',*,*,#721,.T.);
#737 = ORIENTED_EDGE('',*,*,#320,.T.);
#738 = ORIENTED_EDGE('',*,*,#429,.T.);
#739 = PLANE('',#740);
#740 = AXIS2_PLACEMENT_3D('',#741,#742,#743);
#741 = CARTESIAN_POINT('',(86.,14.,0.));
#742 = DIRECTION('',(0.,-1.,0.));
#743 = DIRECTION('',(-1.,0.,0.));
#744 = ADVANCED_FACE('',(#745),#756,.F.);
#745 = FACE_BOUND('',#746,.F.);
#746 = EDGE_LOOP('',(#747,#748,#749,#755));
#747 = ORIENTED_EDGE('',*,*,#245,.T.);
#748 = ORIENTED_EDGE('',*,*,#337,.T.);
#749 = ORIENTED_EDGE('',*,*,#750,.F.);
#750 = EDGE_CURVE('',#166,#338,#751,.T.);
#751 = LINE('',#752,#753);
#752 = CARTESIAN_POINT('',(86.,44.,0.));
#753 = VECTOR('',#754,1.);
#754 = DIRECTION('',(0.,0.,1.));
#755 = ORIENTED_EDGE('',*,*,#173,.F.);
#756 = PLANE('',#757);
#757 = AXIS2_PLACEMENT_3D('',#758,#759,#760);
#758 = CARTESIAN_POINT('',(18.,44.,0.));
#759 = DIRECTION('',(0.,1.,0.));
#760 = DIRECTION('',(1.,0.,0.));
#761 = ADVANCED_FACE('',(#762),#773,.F.);
#762 = FACE_BOUND('',#763,.F.);
#763 = EDGE_LOOP('',(#764,#765,#766,#772));
#764 = ORIENTED_EDGE('',*,*,#750,.T.);
#765 = ORIENTED_EDGE('',*,*,#345,.T.);
#766 = ORIENTED_EDGE('',*,*,#767,.F.);
#767 = EDGE_CURVE('',#158,#346,#768,.T.);
#768 = LINE('',#769,#770);
#769 = CARTESIAN_POINT('',(86.,58.,0.));
#770 = VECTOR('',#771,1.);
#771 = DIRECTION('',(0.,0.,1.));
#772 = ORIENTED_EDGE('',*,*,#165,.F.);
#773 = PLANE('',#774);
#774 = AXIS2_PLACEMENT_3D('',#775,#776,#777);
#775 = CARTESIAN_POINT('',(86.,44.,0.));
#776 = DIRECTION('',(-1.,0.,0.));
#777 = DIRECTION('',(0.,1.,0.));
#778 = ADVANCED_FACE('',(#779),#790,.F.);
#779 = FACE_BOUND('',#780,.F.);
#780 = EDGE_LOOP('',(#781,#782,#783,#784));
#781 = ORIENTED_EDGE('',*,*,#157,.F.);
#782 = ORIENTED_EDGE('',*,*,#767,.T.);
#783 = ORIENTED_EDGE('',*,*,#353,.T.);
#784 = ORIENTED_EDGE('',*,*,#785,.F.);
#785 = EDGE_CURVE('',#149,#354,#786,.T.);
#786 = LINE('',#787,#788);
#787 = CARTESIAN_POINT('',(66.898979485566,58.,-2.));
#788 = VECTOR('',#789,1.);
#789 = DIRECTION('',(0.,2.22044604925E-16,1.));
#790 = PLANE('',#791);
#791 = AXIS2_PLACEMENT_3D('',#792,#793,#794);
#792 = CARTESIAN_POINT('',(86.,58.,0.));
#793 = DIRECTION('',(0.,-1.,0.));
#794 = DIRECTION('',(-1.,0.,0.));
#795 = ADVANCED_FACE('',(#796),#812,.F.);
#796 = FACE_BOUND('',#797,.F.);
#797 = EDGE_LOOP('',(#798,#799,#805,#806));
#798 = ORIENTED_EDGE('',*,*,#131,.F.);
#799 = ORIENTED_EDGE('',*,*,#800,.T.);
#800 = EDGE_CURVE('',#132,#371,#801,.T.);
#801 = LINE('',#802,#803);
#802 = CARTESIAN_POINT('',(57.101020514434,58.,-2.));
#803 = VECTOR('',#804,1.);
#804 = DIRECTION('',(0.,2.22044604925E-16,1.));
#805 = ORIENTED_EDGE('',*,*,#379,.T.);
#806 = ORIENTED_EDGE('',*,*,#807,.F.);
#807 = EDGE_CURVE('',#123,#380,#808,.T.);
#808 = LINE('',#809,#810);
#809 = CARTESIAN_POINT('',(52.898979485566,58.,-2.));
#810 = VECTOR('',#811,1.);
#811 = DIRECTION('',(0.,2.22044604925E-16,1.));
#812 = PLANE('',#813);
#813 = AXIS2_PLACEMENT_3D('',#814,#815,#816);
#814 = CARTESIAN_POINT('',(86.,58.,0.));
#815 = DIRECTION('',(0.,-1.,0.));
#816 = DIRECTION('',(-1.,0.,0.));
#817 = ADVANCED_FACE('',(#818),#831,.F.);
#818 = FACE_BOUND('',#819,.F.);
#819 = EDGE_LOOP('',(#820,#826,#827,#828,#829,#830));
#820 = ORIENTED_EDGE('',*,*,#821,.F.);
#821 = EDGE_CURVE('',#106,#397,#822,.T.);
#822 = LINE('',#823,#824);
#823 = CARTESIAN_POINT('',(43.101020514434,58.,-2.));
#824 = VECTOR('',#825,1.);
#825 = DIRECTION('',(0.,2.22044604925E-16,1.));
#826 = ORIENTED_EDGE('',*,*,#113,.T.);
#827 = ORIENTED_EDGE('',*,*,#122,.T.);
#828 = ORIENTED_EDGE('',*,*,#807,.T.);
#829 = ORIENTED_EDGE('',*,*,#387,.F.);
#830 = ORIENTED_EDGE('',*,*,#396,.F.);
#831 = CYLINDRICAL_SURFACE('',#832,5.);
#832 = AXIS2_PLACEMENT_3D('',#833,#834,#835);
#833 = CARTESIAN_POINT('',(48.,59.,-2.));
#834 = DIRECTION('',(0.,2.22044604925E-16,1.));
#835 = DIRECTION('',(0.,-1.,2.22044604925E-16));
#836 = ADVANCED_FACE('',(#837),#848,.F.);
#837 = FACE_BOUND('',#838,.F.);
#838 = EDGE_LOOP('',(#839,#840,#841,#842));
#839 = ORIENTED_EDGE('',*,*,#105,.F.);
#840 = ORIENTED_EDGE('',*,*,#821,.T.);
#841 = ORIENTED_EDGE('',*,*,#405,.T.);
#842 = ORIENTED_EDGE('',*,*,#843,.F.);
#843 = EDGE_CURVE('',#97,#406,#844,.T.);
#844 = LINE('',#845,#846);
#845 = CARTESIAN_POINT('',(38.898979485566,58.,-2.));
#846 = VECTOR('',#847,1.);
#847 = DIRECTION('',(0.,2.22044604925E-16,1.));
#848 = PLANE('',#849);
#849 = AXIS2_PLACEMENT_3D('',#850,#851,#852);
#850 = CARTESIAN_POINT('',(86.,58.,0.));
#851 = DIRECTION('',(0.,-1.,0.));
#852 = DIRECTION('',(-1.,0.,0.));
#853 = ADVANCED_FACE('',(#854),#867,.F.);
#854 = FACE_BOUND('',#855,.F.);
#855 = EDGE_LOOP('',(#856,#862,#863,#864,#865,#866));
#856 = ORIENTED_EDGE('',*,*,#857,.F.);
#857 = EDGE_CURVE('',#80,#261,#858,.T.);
#858 = LINE('',#859,#860);
#859 = CARTESIAN_POINT('',(29.101020514434,58.,-2.));
#860 = VECTOR('',#861,1.);
#861 = DIRECTION('',(0.,2.22044604925E-16,1.));
#862 = ORIENTED_EDGE('',*,*,#87,.T.);
#863 = ORIENTED_EDGE('',*,*,#96,.T.);
#864 = ORIENTED_EDGE('',*,*,#843,.T.);
#865 = ORIENTED_EDGE('',*,*,#413,.F.);
#866 = ORIENTED_EDGE('',*,*,#260,.F.);
#867 = CYLINDRICAL_SURFACE('',#868,5.);
#868 = AXIS2_PLACEMENT_3D('',#869,#870,#871);
#869 = CARTESIAN_POINT('',(34.,59.,-2.));
#870 = DIRECTION('',(0.,2.22044604925E-16,1.));
#871 = DIRECTION('',(0.,-1.,2.22044604925E-16));
#872 = ADVANCED_FACE('',(#873),#884,.F.);
#873 = FACE_BOUND('',#874,.F.);
#874 = EDGE_LOOP('',(#875,#876,#877,#878));
#875 = ORIENTED_EDGE('',*,*,#79,.F.);
#876 = ORIENTED_EDGE('',*,*,#857,.T.);
#877 = ORIENTED_EDGE('',*,*,#271,.T.);
#878 = ORIENTED_EDGE('',*,*,#879,.F.);
#879 = EDGE_CURVE('',#72,#272,#880,.T.);
#880 = LINE('',#881,#882);
#881 = CARTESIAN_POINT('',(0.,58.,0.));
#882 = VECTOR('',#883,1.);
#883 = DIRECTION('',(0.,0.,1.));
#884 = PLANE('',#885);
#885 = AXIS2_PLACEMENT_3D('',#886,#887,#888);
#886 = CARTESIAN_POINT('',(86.,58.,0.));
#887 = DIRECTION('',(0.,-1.,0.));
#888 = DIRECTION('',(-1.,0.,0.));
#889 = ADVANCED_FACE('',(#890),#896,.F.);
#890 = FACE_BOUND('',#891,.F.);
#891 = EDGE_LOOP('',(#892,#893,#894,#895));
#892 = ORIENTED_EDGE('',*,*,#879,.T.);
#893 = ORIENTED_EDGE('',*,*,#279,.T.);
#894 = ORIENTED_EDGE('',*,*,#555,.F.);
#895 = ORIENTED_EDGE('',*,*,#71,.F.);
#896 = PLANE('',#897);
#897 = AXIS2_PLACEMENT_3D('',#898,#899,#900);
#898 = CARTESIAN_POINT('',(0.,58.,0.));
#899 = DIRECTION('',(1.,0.,0.));
#900 = DIRECTION('',(0.,-1.,0.));
#901 = ADVANCED_FACE('',(#902),#913,.F.);
#902 = FACE_BOUND('',#903,.F.);
#903 = EDGE_LOOP('',(#904,#905,#911,#912));
#904 = ORIENTED_EDGE('',*,*,#439,.F.);
#905 = ORIENTED_EDGE('',*,*,#906,.F.);
#906 = EDGE_CURVE('',#588,#440,#907,.T.);
#907 = LINE('',#908,#909);
#908 = CARTESIAN_POINT('',(36.,-2.,21.4));
#909 = VECTOR('',#910,1.);
#910 = DIRECTION('',(0.,1.,0.));
#911 = ORIENTED_EDGE('',*,*,#587,.T.);
#912 = ORIENTED_EDGE('',*,*,#906,.T.);
#913 = CYLINDRICAL_SURFACE('',#914,4.4);
#914 = AXIS2_PLACEMENT_3D('',#915,#916,#917);
#915 = CARTESIAN_POINT('',(36.,-2.,17.));
#916 = DIRECTION('',(0.,1.,0.));
#917 = DIRECTION('',(0.,0.,1.));
#918 = ADVANCED_FACE('',(#919),#927,.F.);
#919 = FACE_BOUND('',#920,.F.);
#920 = EDGE_LOOP('',(#921,#922,#923,#924,#925,#926));
#921 = ORIENTED_EDGE('',*,*,#800,.F.);
#922 = ORIENTED_EDGE('',*,*,#139,.T.);
#923 = ORIENTED_EDGE('',*,*,#148,.T.);
#924 = ORIENTED_EDGE('',*,*,#785,.T.);
#925 = ORIENTED_EDGE('',*,*,#361,.F.);
#926 = ORIENTED_EDGE('',*,*,#370,.F.);
#927 = CYLINDRICAL_SURFACE('',#928,5.);
#928 = AXIS2_PLACEMENT_3D('',#929,#930,#931);
#929 = CARTESIAN_POINT('',(62.,59.,-2.));
#930 = DIRECTION('',(0.,2.22044604925E-16,1.));
#931 = DIRECTION('',(0.,-1.,2.22044604925E-16));
#932 = ( GEOMETRIC_REPRESENTATION_CONTEXT(3) 
GLOBAL_UNCERTAINTY_ASSIGNED_CONTEXT((#936)) GLOBAL_UNIT_ASSIGNED_CONTEXT
((#933,#934,#935)) REPRESENTATION_CONTEXT('Context #1',
  '3D Context with UNIT and UNCERTAINTY') );
#933 = ( LENGTH_UNIT() NAMED_UNIT(*) SI_UNIT(.MILLI.,.METRE.) );
#934 = ( NAMED_UNIT(*) PLANE_ANGLE_UNIT() SI_UNIT($,.RADIAN.) );
#935 = ( NAMED_UNIT(*) SI_UNIT($,.STERADIAN.) SOLID_ANGLE_UNIT() );
#936 = UNCERTAINTY_MEASURE_WITH_UNIT(LENGTH_MEASURE(1.E-07),#933,
  'distance_accuracy_value','confusion accuracy');
#937 = PRODUCT_RELATED_PRODUCT_CATEGORY('part',$,(#7));
ENDSEC;
END-ISO-10303-21;
