ISO-10303-21;
HEADER;
FILE_DESCRIPTION(('FreeCAD Model'),'2;1');
FILE_NAME('Open CASCADE Shape Model','2026-07-24T11:08:44',('FreeCAD'),(
    'FreeCAD'),'Open CASCADE STEP processor 7.8','FreeCAD','Unknown');
FILE_SCHEMA(('AUTOMOTIVE_DESIGN { 1 0 10303 214 1 1 1 1 }'));
ENDSEC;
DATA;
#1 = APPLICATION_PROTOCOL_DEFINITION('international standard',
  'automotive_design',2000,#2);
#2 = APPLICATION_CONTEXT(
  'core data for automotive mechanical design processes');
#3 = SHAPE_DEFINITION_REPRESENTATION(#4,#10);
#4 = PRODUCT_DEFINITION_SHAPE('','',#5);
#5 = PRODUCT_DEFINITION('design','',#6,#9);
#6 = PRODUCT_DEFINITION_FORMATION('','',#7);
#7 = PRODUCT('Open CASCADE STEP translator 7.8 2',
  'Open CASCADE STEP translator 7.8 2','',(#8));
#8 = PRODUCT_CONTEXT('',#2,'mechanical');
#9 = PRODUCT_DEFINITION_CONTEXT('part definition',#2,'design');
#10 = ADVANCED_BREP_SHAPE_REPRESENTATION('',(#11,#15),#1707);
#11 = AXIS2_PLACEMENT_3D('',#12,#13,#14);
#12 = CARTESIAN_POINT('',(0.,0.,0.));
#13 = DIRECTION('',(0.,0.,1.));
#14 = DIRECTION('',(1.,0.,-0.));
#15 = MANIFOLD_SOLID_BREP('',#16);
#16 = CLOSED_SHELL('',(#17,#57,#88,#119,#488,#868,#885,#902,#919,#936,
    #953,#970,#987,#1004,#1021,#1038,#1055,#1072,#1089,#1106,#1123,#1140
    ,#1157,#1174,#1191,#1208,#1225,#1242,#1259,#1276,#1293,#1310,#1327,
    #1344,#1361,#1378,#1395,#1412,#1429,#1446,#1463,#1480,#1497,#1514,
    #1531,#1548,#1565,#1582,#1599,#1616,#1628,#1653,#1673,#1698));
#17 = ADVANCED_FACE('',(#18),#52,.F.);
#18 = FACE_BOUND('',#19,.F.);
#19 = EDGE_LOOP('',(#20,#30,#38,#46));
#20 = ORIENTED_EDGE('',*,*,#21,.T.);
#21 = EDGE_CURVE('',#22,#24,#26,.T.);
#22 = VERTEX_POINT('',#23);
#23 = CARTESIAN_POINT('',(24.,0.,0.));
#24 = VERTEX_POINT('',#25);
#25 = CARTESIAN_POINT('',(24.,0.,12.));
#26 = LINE('',#27,#28);
#27 = CARTESIAN_POINT('',(24.,0.,0.));
#28 = VECTOR('',#29,1.);
#29 = DIRECTION('',(0.,0.,1.));
#30 = ORIENTED_EDGE('',*,*,#31,.T.);
#31 = EDGE_CURVE('',#24,#32,#34,.T.);
#32 = VERTEX_POINT('',#33);
#33 = CARTESIAN_POINT('',(20.324619658163,2.675786940511,12.));
#34 = LINE('',#35,#36);
#35 = CARTESIAN_POINT('',(24.,0.,12.));
#36 = VECTOR('',#37,1.);
#37 = DIRECTION('',(-0.808444792213,0.588572015936,0.));
#38 = ORIENTED_EDGE('',*,*,#39,.F.);
#39 = EDGE_CURVE('',#40,#32,#42,.T.);
#40 = VERTEX_POINT('',#41);
#41 = CARTESIAN_POINT('',(20.324619658163,2.675786940511,0.));
#42 = LINE('',#43,#44);
#43 = CARTESIAN_POINT('',(20.324619658163,2.675786940511,0.));
#44 = VECTOR('',#45,1.);
#45 = DIRECTION('',(0.,0.,1.));
#46 = ORIENTED_EDGE('',*,*,#47,.F.);
#47 = EDGE_CURVE('',#22,#40,#48,.T.);
#48 = LINE('',#49,#50);
#49 = CARTESIAN_POINT('',(24.,0.,0.));
#50 = VECTOR('',#51,1.);
#51 = DIRECTION('',(-0.808444792213,0.588572015936,0.));
#52 = PLANE('',#53);
#53 = AXIS2_PLACEMENT_3D('',#54,#55,#56);
#54 = CARTESIAN_POINT('',(24.,0.,0.));
#55 = DIRECTION('',(-0.588572015936,-0.808444792213,0.));
#56 = DIRECTION('',(-0.808444792213,0.588572015936,0.));
#57 = ADVANCED_FACE('',(#58),#83,.F.);
#58 = FACE_BOUND('',#59,.F.);
#59 = EDGE_LOOP('',(#60,#70,#76,#77));
#60 = ORIENTED_EDGE('',*,*,#61,.T.);
#61 = EDGE_CURVE('',#62,#64,#66,.T.);
#62 = VERTEX_POINT('',#63);
#63 = CARTESIAN_POINT('',(20.324619658163,-2.675786940511,0.));
#64 = VERTEX_POINT('',#65);
#65 = CARTESIAN_POINT('',(20.324619658163,-2.675786940511,12.));
#66 = LINE('',#67,#68);
#67 = CARTESIAN_POINT('',(20.324619658163,-2.675786940511,0.));
#68 = VECTOR('',#69,1.);
#69 = DIRECTION('',(0.,0.,1.));
#70 = ORIENTED_EDGE('',*,*,#71,.T.);
#71 = EDGE_CURVE('',#64,#24,#72,.T.);
#72 = LINE('',#73,#74);
#73 = CARTESIAN_POINT('',(20.324619658163,-2.675786940511,12.));
#74 = VECTOR('',#75,1.);
#75 = DIRECTION('',(0.808444792213,0.588572015936,0.));
#76 = ORIENTED_EDGE('',*,*,#21,.F.);
#77 = ORIENTED_EDGE('',*,*,#78,.F.);
#78 = EDGE_CURVE('',#62,#22,#79,.T.);
#79 = LINE('',#80,#81);
#80 = CARTESIAN_POINT('',(20.324619658163,-2.675786940511,0.));
#81 = VECTOR('',#82,1.);
#82 = DIRECTION('',(0.808444792213,0.588572015936,0.));
#83 = PLANE('',#84);
#84 = AXIS2_PLACEMENT_3D('',#85,#86,#87);
#85 = CARTESIAN_POINT('',(20.324619658163,-2.675786940511,0.));
#86 = DIRECTION('',(-0.588572015936,0.808444792213,0.));
#87 = DIRECTION('',(0.808444792213,0.588572015936,0.));
#88 = ADVANCED_FACE('',(#89),#114,.F.);
#89 = FACE_BOUND('',#90,.F.);
#90 = EDGE_LOOP('',(#91,#92,#100,#108));
#91 = ORIENTED_EDGE('',*,*,#39,.T.);
#92 = ORIENTED_EDGE('',*,*,#93,.T.);
#93 = EDGE_CURVE('',#32,#94,#96,.T.);
#94 = VERTEX_POINT('',#95);
#95 = CARTESIAN_POINT('',(23.182219830938,6.21165708246,12.));
#96 = LINE('',#97,#98);
#97 = CARTESIAN_POINT('',(20.324619658163,2.675786940511,12.));
#98 = VECTOR('',#99,1.);
#99 = DIRECTION('',(0.628564056789,0.777757819963,0.));
#100 = ORIENTED_EDGE('',*,*,#101,.F.);
#101 = EDGE_CURVE('',#102,#94,#104,.T.);
#102 = VERTEX_POINT('',#103);
#103 = CARTESIAN_POINT('',(23.182219830938,6.21165708246,0.));
#104 = LINE('',#105,#106);
#105 = CARTESIAN_POINT('',(23.182219830938,6.21165708246,0.));
#106 = VECTOR('',#107,1.);
#107 = DIRECTION('',(0.,0.,1.));
#108 = ORIENTED_EDGE('',*,*,#109,.F.);
#109 = EDGE_CURVE('',#40,#102,#110,.T.);
#110 = LINE('',#111,#112);
#111 = CARTESIAN_POINT('',(20.324619658163,2.675786940511,0.));
#112 = VECTOR('',#113,1.);
#113 = DIRECTION('',(0.628564056789,0.777757819963,0.));
#114 = PLANE('',#115);
#115 = AXIS2_PLACEMENT_3D('',#116,#117,#118);
#116 = CARTESIAN_POINT('',(20.324619658163,2.675786940511,0.));
#117 = DIRECTION('',(-0.777757819963,0.628564056789,0.));
#118 = DIRECTION('',(0.628564056789,0.777757819963,0.));
#119 = ADVANCED_FACE('',(#120),#483,.F.);
#120 = FACE_BOUND('',#121,.F.);
#121 = EDGE_LOOP('',(#122,#123,#124,#132,#140,#148,#156,#164,#172,#180,
    #188,#196,#204,#212,#220,#228,#236,#244,#252,#260,#268,#276,#284,
    #292,#300,#308,#316,#324,#332,#340,#348,#356,#364,#372,#380,#388,
    #396,#404,#412,#420,#428,#436,#444,#452,#460,#468,#476,#482));
#122 = ORIENTED_EDGE('',*,*,#47,.T.);
#123 = ORIENTED_EDGE('',*,*,#109,.T.);
#124 = ORIENTED_EDGE('',*,*,#125,.T.);
#125 = EDGE_CURVE('',#102,#126,#128,.T.);
#126 = VERTEX_POINT('',#127);
#127 = CARTESIAN_POINT('',(18.939530416481,7.845010363484,0.));
#128 = LINE('',#129,#130);
#129 = CARTESIAN_POINT('',(23.182219830938,6.21165708246,0.));
#130 = VECTOR('',#131,1.);
#131 = DIRECTION('',(-0.933231351066,0.359276001685,0.));
#132 = ORIENTED_EDGE('',*,*,#133,.T.);
#133 = EDGE_CURVE('',#126,#134,#136,.T.);
#134 = VERTEX_POINT('',#135);
#135 = CARTESIAN_POINT('',(20.784609690827,12.,0.));
#136 = LINE('',#137,#138);
#137 = CARTESIAN_POINT('',(18.939530416481,7.845010363484,0.));
#138 = VECTOR('',#139,1.);
#139 = DIRECTION('',(0.405847719646,0.913940713864,0.));
#140 = ORIENTED_EDGE('',*,*,#141,.T.);
#141 = EDGE_CURVE('',#134,#142,#144,.T.);
#142 = VERTEX_POINT('',#143);
#143 = CARTESIAN_POINT('',(16.26374347597,12.479609294679,0.));
#144 = LINE('',#145,#146);
#145 = CARTESIAN_POINT('',(20.784609690827,12.,0.));
#146 = VECTOR('',#147,1.);
#147 = DIRECTION('',(-0.994419735582,0.105495921651,0.));
#148 = ORIENTED_EDGE('',*,*,#149,.T.);
#149 = EDGE_CURVE('',#142,#150,#152,.T.);
#150 = VERTEX_POINT('',#151);
#151 = CARTESIAN_POINT('',(16.970562748477,16.970562748477,0.));
#152 = LINE('',#153,#154);
#153 = CARTESIAN_POINT('',(16.26374347597,12.479609294679,0.));
#154 = VECTOR('',#155,1.);
#155 = DIRECTION('',(0.155473531104,0.987840058474,0.));
#156 = ORIENTED_EDGE('',*,*,#157,.T.);
#157 = EDGE_CURVE('',#150,#158,#160,.T.);
#158 = VERTEX_POINT('',#159);
#159 = CARTESIAN_POINT('',(12.479609294679,16.26374347597,0.));
#160 = LINE('',#161,#162);
#161 = CARTESIAN_POINT('',(16.970562748477,16.970562748477,0.));
#162 = VECTOR('',#163,1.);
#163 = DIRECTION('',(-0.987840058474,-0.155473531104,0.));
#164 = ORIENTED_EDGE('',*,*,#165,.T.);
#165 = EDGE_CURVE('',#158,#166,#168,.T.);
#166 = VERTEX_POINT('',#167);
#167 = CARTESIAN_POINT('',(12.,20.784609690827,0.));
#168 = LINE('',#169,#170);
#169 = CARTESIAN_POINT('',(12.479609294679,16.26374347597,0.));
#170 = VECTOR('',#171,1.);
#171 = DIRECTION('',(-0.105495921651,0.994419735582,0.));
#172 = ORIENTED_EDGE('',*,*,#173,.T.);
#173 = EDGE_CURVE('',#166,#174,#176,.T.);
#174 = VERTEX_POINT('',#175);
#175 = CARTESIAN_POINT('',(7.845010363484,18.939530416481,0.));
#176 = LINE('',#177,#178);
#177 = CARTESIAN_POINT('',(12.,20.784609690827,0.));
#178 = VECTOR('',#179,1.);
#179 = DIRECTION('',(-0.913940713864,-0.405847719646,0.));
#180 = ORIENTED_EDGE('',*,*,#181,.T.);
#181 = EDGE_CURVE('',#174,#182,#184,.T.);
#182 = VERTEX_POINT('',#183);
#183 = CARTESIAN_POINT('',(6.21165708246,23.182219830938,0.));
#184 = LINE('',#185,#186);
#185 = CARTESIAN_POINT('',(7.845010363484,18.939530416481,0.));
#186 = VECTOR('',#187,1.);
#187 = DIRECTION('',(-0.359276001685,0.933231351066,0.));
#188 = ORIENTED_EDGE('',*,*,#189,.T.);
#189 = EDGE_CURVE('',#182,#190,#192,.T.);
#190 = VERTEX_POINT('',#191);
#191 = CARTESIAN_POINT('',(2.675786940511,20.324619658163,0.));
#192 = LINE('',#193,#194);
#193 = CARTESIAN_POINT('',(6.21165708246,23.182219830938,0.));
#194 = VECTOR('',#195,1.);
#195 = DIRECTION('',(-0.777757819963,-0.628564056789,0.));
#196 = ORIENTED_EDGE('',*,*,#197,.T.);
#197 = EDGE_CURVE('',#190,#198,#200,.T.);
#198 = VERTEX_POINT('',#199);
#199 = CARTESIAN_POINT('',(1.33226762955E-15,24.,0.));
#200 = LINE('',#201,#202);
#201 = CARTESIAN_POINT('',(2.675786940511,20.324619658163,0.));
#202 = VECTOR('',#203,1.);
#203 = DIRECTION('',(-0.588572015936,0.808444792213,0.));
#204 = ORIENTED_EDGE('',*,*,#205,.T.);
#205 = EDGE_CURVE('',#198,#206,#208,.T.);
#206 = VERTEX_POINT('',#207);
#207 = CARTESIAN_POINT('',(-2.675786940511,20.324619658163,0.));
#208 = LINE('',#209,#210);
#209 = CARTESIAN_POINT('',(1.33226762955E-15,24.,0.));
#210 = VECTOR('',#211,1.);
#211 = DIRECTION('',(-0.588572015936,-0.808444792213,0.));
#212 = ORIENTED_EDGE('',*,*,#213,.T.);
#213 = EDGE_CURVE('',#206,#214,#216,.T.);
#214 = VERTEX_POINT('',#215);
#215 = CARTESIAN_POINT('',(-6.21165708246,23.182219830938,0.));
#216 = LINE('',#217,#218);
#217 = CARTESIAN_POINT('',(-2.675786940511,20.324619658163,0.));
#218 = VECTOR('',#219,1.);
#219 = DIRECTION('',(-0.777757819963,0.628564056789,0.));
#220 = ORIENTED_EDGE('',*,*,#221,.T.);
#221 = EDGE_CURVE('',#214,#222,#224,.T.);
#222 = VERTEX_POINT('',#223);
#223 = CARTESIAN_POINT('',(-7.845010363484,18.939530416481,0.));
#224 = LINE('',#225,#226);
#225 = CARTESIAN_POINT('',(-6.21165708246,23.182219830938,0.));
#226 = VECTOR('',#227,1.);
#227 = DIRECTION('',(-0.359276001685,-0.933231351066,0.));
#228 = ORIENTED_EDGE('',*,*,#229,.T.);
#229 = EDGE_CURVE('',#222,#230,#232,.T.);
#230 = VERTEX_POINT('',#231);
#231 = CARTESIAN_POINT('',(-12.,20.784609690827,0.));
#232 = LINE('',#233,#234);
#233 = CARTESIAN_POINT('',(-7.845010363484,18.939530416481,0.));
#234 = VECTOR('',#235,1.);
#235 = DIRECTION('',(-0.913940713864,0.405847719646,0.));
#236 = ORIENTED_EDGE('',*,*,#237,.T.);
#237 = EDGE_CURVE('',#230,#238,#240,.T.);
#238 = VERTEX_POINT('',#239);
#239 = CARTESIAN_POINT('',(-12.47960929467,16.26374347597,0.));
#240 = LINE('',#241,#242);
#241 = CARTESIAN_POINT('',(-12.,20.784609690827,0.));
#242 = VECTOR('',#243,1.);
#243 = DIRECTION('',(-0.105495921651,-0.994419735582,0.));
#244 = ORIENTED_EDGE('',*,*,#245,.T.);
#245 = EDGE_CURVE('',#238,#246,#248,.T.);
#246 = VERTEX_POINT('',#247);
#247 = CARTESIAN_POINT('',(-16.97056274847,16.970562748477,0.));
#248 = LINE('',#249,#250);
#249 = CARTESIAN_POINT('',(-12.47960929467,16.26374347597,0.));
#250 = VECTOR('',#251,1.);
#251 = DIRECTION('',(-0.987840058474,0.155473531104,0.));
#252 = ORIENTED_EDGE('',*,*,#253,.T.);
#253 = EDGE_CURVE('',#246,#254,#256,.T.);
#254 = VERTEX_POINT('',#255);
#255 = CARTESIAN_POINT('',(-16.26374347597,12.479609294679,0.));
#256 = LINE('',#257,#258);
#257 = CARTESIAN_POINT('',(-16.97056274847,16.970562748477,0.));
#258 = VECTOR('',#259,1.);
#259 = DIRECTION('',(0.155473531104,-0.987840058474,0.));
#260 = ORIENTED_EDGE('',*,*,#261,.T.);
#261 = EDGE_CURVE('',#254,#262,#264,.T.);
#262 = VERTEX_POINT('',#263);
#263 = CARTESIAN_POINT('',(-20.78460969082,12.,0.));
#264 = LINE('',#265,#266);
#265 = CARTESIAN_POINT('',(-16.26374347597,12.479609294679,0.));
#266 = VECTOR('',#267,1.);
#267 = DIRECTION('',(-0.994419735582,-0.105495921651,0.));
#268 = ORIENTED_EDGE('',*,*,#269,.T.);
#269 = EDGE_CURVE('',#262,#270,#272,.T.);
#270 = VERTEX_POINT('',#271);
#271 = CARTESIAN_POINT('',(-18.93953041648,7.845010363484,0.));
#272 = LINE('',#273,#274);
#273 = CARTESIAN_POINT('',(-20.78460969082,12.,0.));
#274 = VECTOR('',#275,1.);
#275 = DIRECTION('',(0.405847719646,-0.913940713864,0.));
#276 = ORIENTED_EDGE('',*,*,#277,.T.);
#277 = EDGE_CURVE('',#270,#278,#280,.T.);
#278 = VERTEX_POINT('',#279);
#279 = CARTESIAN_POINT('',(-23.18221983093,6.211657082461,0.));
#280 = LINE('',#281,#282);
#281 = CARTESIAN_POINT('',(-18.93953041648,7.845010363484,0.));
#282 = VECTOR('',#283,1.);
#283 = DIRECTION('',(-0.933231351066,-0.359276001685,0.));
#284 = ORIENTED_EDGE('',*,*,#285,.T.);
#285 = EDGE_CURVE('',#278,#286,#288,.T.);
#286 = VERTEX_POINT('',#287);
#287 = CARTESIAN_POINT('',(-20.32461965816,2.675786940511,0.));
#288 = LINE('',#289,#290);
#289 = CARTESIAN_POINT('',(-23.18221983093,6.211657082461,0.));
#290 = VECTOR('',#291,1.);
#291 = DIRECTION('',(0.628564056789,-0.777757819963,0.));
#292 = ORIENTED_EDGE('',*,*,#293,.T.);
#293 = EDGE_CURVE('',#286,#294,#296,.T.);
#294 = VERTEX_POINT('',#295);
#295 = CARTESIAN_POINT('',(-24.,3.10862446895E-15,0.));
#296 = LINE('',#297,#298);
#297 = CARTESIAN_POINT('',(-20.32461965816,2.675786940511,0.));
#298 = VECTOR('',#299,1.);
#299 = DIRECTION('',(-0.808444792213,-0.588572015936,0.));
#300 = ORIENTED_EDGE('',*,*,#301,.T.);
#301 = EDGE_CURVE('',#294,#302,#304,.T.);
#302 = VERTEX_POINT('',#303);
#303 = CARTESIAN_POINT('',(-20.32461965816,-2.675786940511,0.));
#304 = LINE('',#305,#306);
#305 = CARTESIAN_POINT('',(-24.,3.10862446895E-15,0.));
#306 = VECTOR('',#307,1.);
#307 = DIRECTION('',(0.808444792213,-0.588572015936,0.));
#308 = ORIENTED_EDGE('',*,*,#309,.T.);
#309 = EDGE_CURVE('',#302,#310,#312,.T.);
#310 = VERTEX_POINT('',#311);
#311 = CARTESIAN_POINT('',(-23.18221983093,-6.21165708246,0.));
#312 = LINE('',#313,#314);
#313 = CARTESIAN_POINT('',(-20.32461965816,-2.675786940511,0.));
#314 = VECTOR('',#315,1.);
#315 = DIRECTION('',(-0.628564056789,-0.777757819963,0.));
#316 = ORIENTED_EDGE('',*,*,#317,.T.);
#317 = EDGE_CURVE('',#310,#318,#320,.T.);
#318 = VERTEX_POINT('',#319);
#319 = CARTESIAN_POINT('',(-18.93953041648,-7.845010363484,0.));
#320 = LINE('',#321,#322);
#321 = CARTESIAN_POINT('',(-23.18221983093,-6.21165708246,0.));
#322 = VECTOR('',#323,1.);
#323 = DIRECTION('',(0.933231351066,-0.359276001685,0.));
#324 = ORIENTED_EDGE('',*,*,#325,.T.);
#325 = EDGE_CURVE('',#318,#326,#328,.T.);
#326 = VERTEX_POINT('',#327);
#327 = CARTESIAN_POINT('',(-20.78460969082,-12.,0.));
#328 = LINE('',#329,#330);
#329 = CARTESIAN_POINT('',(-18.93953041648,-7.845010363484,0.));
#330 = VECTOR('',#331,1.);
#331 = DIRECTION('',(-0.405847719646,-0.913940713864,0.));
#332 = ORIENTED_EDGE('',*,*,#333,.T.);
#333 = EDGE_CURVE('',#326,#334,#336,.T.);
#334 = VERTEX_POINT('',#335);
#335 = CARTESIAN_POINT('',(-16.26374347597,-12.47960929467,0.));
#336 = LINE('',#337,#338);
#337 = CARTESIAN_POINT('',(-20.78460969082,-12.,0.));
#338 = VECTOR('',#339,1.);
#339 = DIRECTION('',(0.994419735582,-0.105495921651,0.));
#340 = ORIENTED_EDGE('',*,*,#341,.T.);
#341 = EDGE_CURVE('',#334,#342,#344,.T.);
#342 = VERTEX_POINT('',#343);
#343 = CARTESIAN_POINT('',(-16.97056274847,-16.97056274847,0.));
#344 = LINE('',#345,#346);
#345 = CARTESIAN_POINT('',(-16.26374347597,-12.47960929467,0.));
#346 = VECTOR('',#347,1.);
#347 = DIRECTION('',(-0.155473531104,-0.987840058474,0.));
#348 = ORIENTED_EDGE('',*,*,#349,.T.);
#349 = EDGE_CURVE('',#342,#350,#352,.T.);
#350 = VERTEX_POINT('',#351);
#351 = CARTESIAN_POINT('',(-12.47960929467,-16.26374347597,0.));
#352 = LINE('',#353,#354);
#353 = CARTESIAN_POINT('',(-16.97056274847,-16.97056274847,0.));
#354 = VECTOR('',#355,1.);
#355 = DIRECTION('',(0.987840058474,0.155473531104,0.));
#356 = ORIENTED_EDGE('',*,*,#357,.T.);
#357 = EDGE_CURVE('',#350,#358,#360,.T.);
#358 = VERTEX_POINT('',#359);
#359 = CARTESIAN_POINT('',(-12.,-20.78460969082,0.));
#360 = LINE('',#361,#362);
#361 = CARTESIAN_POINT('',(-12.47960929467,-16.26374347597,0.));
#362 = VECTOR('',#363,1.);
#363 = DIRECTION('',(0.105495921651,-0.994419735582,0.));
#364 = ORIENTED_EDGE('',*,*,#365,.T.);
#365 = EDGE_CURVE('',#358,#366,#368,.T.);
#366 = VERTEX_POINT('',#367);
#367 = CARTESIAN_POINT('',(-7.845010363484,-18.93953041648,0.));
#368 = LINE('',#369,#370);
#369 = CARTESIAN_POINT('',(-12.,-20.78460969082,0.));
#370 = VECTOR('',#371,1.);
#371 = DIRECTION('',(0.913940713864,0.405847719646,0.));
#372 = ORIENTED_EDGE('',*,*,#373,.T.);
#373 = EDGE_CURVE('',#366,#374,#376,.T.);
#374 = VERTEX_POINT('',#375);
#375 = CARTESIAN_POINT('',(-6.21165708246,-23.18221983093,0.));
#376 = LINE('',#377,#378);
#377 = CARTESIAN_POINT('',(-7.845010363484,-18.93953041648,0.));
#378 = VECTOR('',#379,1.);
#379 = DIRECTION('',(0.359276001685,-0.933231351066,0.));
#380 = ORIENTED_EDGE('',*,*,#381,.T.);
#381 = EDGE_CURVE('',#374,#382,#384,.T.);
#382 = VERTEX_POINT('',#383);
#383 = CARTESIAN_POINT('',(-2.675786940511,-20.32461965816,0.));
#384 = LINE('',#385,#386);
#385 = CARTESIAN_POINT('',(-6.21165708246,-23.18221983093,0.));
#386 = VECTOR('',#387,1.);
#387 = DIRECTION('',(0.777757819963,0.628564056789,0.));
#388 = ORIENTED_EDGE('',*,*,#389,.T.);
#389 = EDGE_CURVE('',#382,#390,#392,.T.);
#390 = VERTEX_POINT('',#391);
#391 = CARTESIAN_POINT('',(-4.440892098501E-15,-24.,0.));
#392 = LINE('',#393,#394);
#393 = CARTESIAN_POINT('',(-2.675786940511,-20.32461965816,0.));
#394 = VECTOR('',#395,1.);
#395 = DIRECTION('',(0.588572015936,-0.808444792213,0.));
#396 = ORIENTED_EDGE('',*,*,#397,.T.);
#397 = EDGE_CURVE('',#390,#398,#400,.T.);
#398 = VERTEX_POINT('',#399);
#399 = CARTESIAN_POINT('',(2.675786940511,-20.32461965816,0.));
#400 = LINE('',#401,#402);
#401 = CARTESIAN_POINT('',(-4.440892098501E-15,-24.,0.));
#402 = VECTOR('',#403,1.);
#403 = DIRECTION('',(0.588572015936,0.808444792213,0.));
#404 = ORIENTED_EDGE('',*,*,#405,.T.);
#405 = EDGE_CURVE('',#398,#406,#408,.T.);
#406 = VERTEX_POINT('',#407);
#407 = CARTESIAN_POINT('',(6.21165708246,-23.18221983093,0.));
#408 = LINE('',#409,#410);
#409 = CARTESIAN_POINT('',(2.675786940511,-20.32461965816,0.));
#410 = VECTOR('',#411,1.);
#411 = DIRECTION('',(0.777757819963,-0.628564056789,0.));
#412 = ORIENTED_EDGE('',*,*,#413,.T.);
#413 = EDGE_CURVE('',#406,#414,#416,.T.);
#414 = VERTEX_POINT('',#415);
#415 = CARTESIAN_POINT('',(7.845010363484,-18.93953041648,0.));
#416 = LINE('',#417,#418);
#417 = CARTESIAN_POINT('',(6.21165708246,-23.18221983093,0.));
#418 = VECTOR('',#419,1.);
#419 = DIRECTION('',(0.359276001685,0.933231351066,0.));
#420 = ORIENTED_EDGE('',*,*,#421,.T.);
#421 = EDGE_CURVE('',#414,#422,#424,.T.);
#422 = VERTEX_POINT('',#423);
#423 = CARTESIAN_POINT('',(12.,-20.78460969082,0.));
#424 = LINE('',#425,#426);
#425 = CARTESIAN_POINT('',(7.845010363484,-18.93953041648,0.));
#426 = VECTOR('',#427,1.);
#427 = DIRECTION('',(0.913940713864,-0.405847719646,0.));
#428 = ORIENTED_EDGE('',*,*,#429,.T.);
#429 = EDGE_CURVE('',#422,#430,#432,.T.);
#430 = VERTEX_POINT('',#431);
#431 = CARTESIAN_POINT('',(12.479609294679,-16.26374347597,0.));
#432 = LINE('',#433,#434);
#433 = CARTESIAN_POINT('',(12.,-20.78460969082,0.));
#434 = VECTOR('',#435,1.);
#435 = DIRECTION('',(0.105495921651,0.994419735582,0.));
#436 = ORIENTED_EDGE('',*,*,#437,.T.);
#437 = EDGE_CURVE('',#430,#438,#440,.T.);
#438 = VERTEX_POINT('',#439);
#439 = CARTESIAN_POINT('',(16.970562748477,-16.97056274847,0.));
#440 = LINE('',#441,#442);
#441 = CARTESIAN_POINT('',(12.479609294679,-16.26374347597,0.));
#442 = VECTOR('',#443,1.);
#443 = DIRECTION('',(0.987840058474,-0.155473531104,0.));
#444 = ORIENTED_EDGE('',*,*,#445,.T.);
#445 = EDGE_CURVE('',#438,#446,#448,.T.);
#446 = VERTEX_POINT('',#447);
#447 = CARTESIAN_POINT('',(16.26374347597,-12.47960929467,0.));
#448 = LINE('',#449,#450);
#449 = CARTESIAN_POINT('',(16.970562748477,-16.97056274847,0.));
#450 = VECTOR('',#451,1.);
#451 = DIRECTION('',(-0.155473531104,0.987840058474,0.));
#452 = ORIENTED_EDGE('',*,*,#453,.T.);
#453 = EDGE_CURVE('',#446,#454,#456,.T.);
#454 = VERTEX_POINT('',#455);
#455 = CARTESIAN_POINT('',(20.784609690827,-12.,0.));
#456 = LINE('',#457,#458);
#457 = CARTESIAN_POINT('',(16.26374347597,-12.47960929467,0.));
#458 = VECTOR('',#459,1.);
#459 = DIRECTION('',(0.994419735582,0.105495921651,0.));
#460 = ORIENTED_EDGE('',*,*,#461,.T.);
#461 = EDGE_CURVE('',#454,#462,#464,.T.);
#462 = VERTEX_POINT('',#463);
#463 = CARTESIAN_POINT('',(18.939530416481,-7.845010363484,0.));
#464 = LINE('',#465,#466);
#465 = CARTESIAN_POINT('',(20.784609690827,-12.,0.));
#466 = VECTOR('',#467,1.);
#467 = DIRECTION('',(-0.405847719646,0.913940713864,0.));
#468 = ORIENTED_EDGE('',*,*,#469,.T.);
#469 = EDGE_CURVE('',#462,#470,#472,.T.);
#470 = VERTEX_POINT('',#471);
#471 = CARTESIAN_POINT('',(23.182219830938,-6.211657082461,0.));
#472 = LINE('',#473,#474);
#473 = CARTESIAN_POINT('',(18.939530416481,-7.845010363484,0.));
#474 = VECTOR('',#475,1.);
#475 = DIRECTION('',(0.933231351066,0.359276001685,0.));
#476 = ORIENTED_EDGE('',*,*,#477,.T.);
#477 = EDGE_CURVE('',#470,#62,#478,.T.);
#478 = LINE('',#479,#480);
#479 = CARTESIAN_POINT('',(23.182219830938,-6.211657082461,0.));
#480 = VECTOR('',#481,1.);
#481 = DIRECTION('',(-0.628564056789,0.777757819963,0.));
#482 = ORIENTED_EDGE('',*,*,#78,.T.);
#483 = PLANE('',#484);
#484 = AXIS2_PLACEMENT_3D('',#485,#486,#487);
#485 = CARTESIAN_POINT('',(-9.117065551963E-16,5.00624581648E-16,0.));
#486 = DIRECTION('',(0.,0.,1.));
#487 = DIRECTION('',(1.,0.,0.));
#488 = ADVANCED_FACE('',(#489,#852),#863,.T.);
#489 = FACE_BOUND('',#490,.T.);
#490 = EDGE_LOOP('',(#491,#492,#493,#501,#509,#517,#525,#533,#541,#549,
    #557,#565,#573,#581,#589,#597,#605,#613,#621,#629,#637,#645,#653,
    #661,#669,#677,#685,#693,#701,#709,#717,#725,#733,#741,#749,#757,
    #765,#773,#781,#789,#797,#805,#813,#821,#829,#837,#845,#851));
#491 = ORIENTED_EDGE('',*,*,#31,.T.);
#492 = ORIENTED_EDGE('',*,*,#93,.T.);
#493 = ORIENTED_EDGE('',*,*,#494,.T.);
#494 = EDGE_CURVE('',#94,#495,#497,.T.);
#495 = VERTEX_POINT('',#496);
#496 = CARTESIAN_POINT('',(18.939530416481,7.845010363484,12.));
#497 = LINE('',#498,#499);
#498 = CARTESIAN_POINT('',(23.182219830938,6.21165708246,12.));
#499 = VECTOR('',#500,1.);
#500 = DIRECTION('',(-0.933231351066,0.359276001685,0.));
#501 = ORIENTED_EDGE('',*,*,#502,.T.);
#502 = EDGE_CURVE('',#495,#503,#505,.T.);
#503 = VERTEX_POINT('',#504);
#504 = CARTESIAN_POINT('',(20.784609690827,12.,12.));
#505 = LINE('',#506,#507);
#506 = CARTESIAN_POINT('',(18.939530416481,7.845010363484,12.));
#507 = VECTOR('',#508,1.);
#508 = DIRECTION('',(0.405847719646,0.913940713864,0.));
#509 = ORIENTED_EDGE('',*,*,#510,.T.);
#510 = EDGE_CURVE('',#503,#511,#513,.T.);
#511 = VERTEX_POINT('',#512);
#512 = CARTESIAN_POINT('',(16.26374347597,12.479609294679,12.));
#513 = LINE('',#514,#515);
#514 = CARTESIAN_POINT('',(20.784609690827,12.,12.));
#515 = VECTOR('',#516,1.);
#516 = DIRECTION('',(-0.994419735582,0.105495921651,0.));
#517 = ORIENTED_EDGE('',*,*,#518,.T.);
#518 = EDGE_CURVE('',#511,#519,#521,.T.);
#519 = VERTEX_POINT('',#520);
#520 = CARTESIAN_POINT('',(16.970562748477,16.970562748477,12.));
#521 = LINE('',#522,#523);
#522 = CARTESIAN_POINT('',(16.26374347597,12.479609294679,12.));
#523 = VECTOR('',#524,1.);
#524 = DIRECTION('',(0.155473531104,0.987840058474,0.));
#525 = ORIENTED_EDGE('',*,*,#526,.T.);
#526 = EDGE_CURVE('',#519,#527,#529,.T.);
#527 = VERTEX_POINT('',#528);
#528 = CARTESIAN_POINT('',(12.479609294679,16.26374347597,12.));
#529 = LINE('',#530,#531);
#530 = CARTESIAN_POINT('',(16.970562748477,16.970562748477,12.));
#531 = VECTOR('',#532,1.);
#532 = DIRECTION('',(-0.987840058474,-0.155473531104,0.));
#533 = ORIENTED_EDGE('',*,*,#534,.T.);
#534 = EDGE_CURVE('',#527,#535,#537,.T.);
#535 = VERTEX_POINT('',#536);
#536 = CARTESIAN_POINT('',(12.,20.784609690827,12.));
#537 = LINE('',#538,#539);
#538 = CARTESIAN_POINT('',(12.479609294679,16.26374347597,12.));
#539 = VECTOR('',#540,1.);
#540 = DIRECTION('',(-0.105495921651,0.994419735582,0.));
#541 = ORIENTED_EDGE('',*,*,#542,.T.);
#542 = EDGE_CURVE('',#535,#543,#545,.T.);
#543 = VERTEX_POINT('',#544);
#544 = CARTESIAN_POINT('',(7.845010363484,18.939530416481,12.));
#545 = LINE('',#546,#547);
#546 = CARTESIAN_POINT('',(12.,20.784609690827,12.));
#547 = VECTOR('',#548,1.);
#548 = DIRECTION('',(-0.913940713864,-0.405847719646,0.));
#549 = ORIENTED_EDGE('',*,*,#550,.T.);
#550 = EDGE_CURVE('',#543,#551,#553,.T.);
#551 = VERTEX_POINT('',#552);
#552 = CARTESIAN_POINT('',(6.21165708246,23.182219830938,12.));
#553 = LINE('',#554,#555);
#554 = CARTESIAN_POINT('',(7.845010363484,18.939530416481,12.));
#555 = VECTOR('',#556,1.);
#556 = DIRECTION('',(-0.359276001685,0.933231351066,0.));
#557 = ORIENTED_EDGE('',*,*,#558,.T.);
#558 = EDGE_CURVE('',#551,#559,#561,.T.);
#559 = VERTEX_POINT('',#560);
#560 = CARTESIAN_POINT('',(2.675786940511,20.324619658163,12.));
#561 = LINE('',#562,#563);
#562 = CARTESIAN_POINT('',(6.21165708246,23.182219830938,12.));
#563 = VECTOR('',#564,1.);
#564 = DIRECTION('',(-0.777757819963,-0.628564056789,0.));
#565 = ORIENTED_EDGE('',*,*,#566,.T.);
#566 = EDGE_CURVE('',#559,#567,#569,.T.);
#567 = VERTEX_POINT('',#568);
#568 = CARTESIAN_POINT('',(1.33226762955E-15,24.,12.));
#569 = LINE('',#570,#571);
#570 = CARTESIAN_POINT('',(2.675786940511,20.324619658163,12.));
#571 = VECTOR('',#572,1.);
#572 = DIRECTION('',(-0.588572015936,0.808444792213,0.));
#573 = ORIENTED_EDGE('',*,*,#574,.T.);
#574 = EDGE_CURVE('',#567,#575,#577,.T.);
#575 = VERTEX_POINT('',#576);
#576 = CARTESIAN_POINT('',(-2.675786940511,20.324619658163,12.));
#577 = LINE('',#578,#579);
#578 = CARTESIAN_POINT('',(1.33226762955E-15,24.,12.));
#579 = VECTOR('',#580,1.);
#580 = DIRECTION('',(-0.588572015936,-0.808444792213,0.));
#581 = ORIENTED_EDGE('',*,*,#582,.T.);
#582 = EDGE_CURVE('',#575,#583,#585,.T.);
#583 = VERTEX_POINT('',#584);
#584 = CARTESIAN_POINT('',(-6.21165708246,23.182219830938,12.));
#585 = LINE('',#586,#587);
#586 = CARTESIAN_POINT('',(-2.675786940511,20.324619658163,12.));
#587 = VECTOR('',#588,1.);
#588 = DIRECTION('',(-0.777757819963,0.628564056789,0.));
#589 = ORIENTED_EDGE('',*,*,#590,.T.);
#590 = EDGE_CURVE('',#583,#591,#593,.T.);
#591 = VERTEX_POINT('',#592);
#592 = CARTESIAN_POINT('',(-7.845010363484,18.939530416481,12.));
#593 = LINE('',#594,#595);
#594 = CARTESIAN_POINT('',(-6.21165708246,23.182219830938,12.));
#595 = VECTOR('',#596,1.);
#596 = DIRECTION('',(-0.359276001685,-0.933231351066,0.));
#597 = ORIENTED_EDGE('',*,*,#598,.T.);
#598 = EDGE_CURVE('',#591,#599,#601,.T.);
#599 = VERTEX_POINT('',#600);
#600 = CARTESIAN_POINT('',(-12.,20.784609690827,12.));
#601 = LINE('',#602,#603);
#602 = CARTESIAN_POINT('',(-7.845010363484,18.939530416481,12.));
#603 = VECTOR('',#604,1.);
#604 = DIRECTION('',(-0.913940713864,0.405847719646,0.));
#605 = ORIENTED_EDGE('',*,*,#606,.T.);
#606 = EDGE_CURVE('',#599,#607,#609,.T.);
#607 = VERTEX_POINT('',#608);
#608 = CARTESIAN_POINT('',(-12.47960929467,16.26374347597,12.));
#609 = LINE('',#610,#611);
#610 = CARTESIAN_POINT('',(-12.,20.784609690827,12.));
#611 = VECTOR('',#612,1.);
#612 = DIRECTION('',(-0.105495921651,-0.994419735582,0.));
#613 = ORIENTED_EDGE('',*,*,#614,.T.);
#614 = EDGE_CURVE('',#607,#615,#617,.T.);
#615 = VERTEX_POINT('',#616);
#616 = CARTESIAN_POINT('',(-16.97056274847,16.970562748477,12.));
#617 = LINE('',#618,#619);
#618 = CARTESIAN_POINT('',(-12.47960929467,16.26374347597,12.));
#619 = VECTOR('',#620,1.);
#620 = DIRECTION('',(-0.987840058474,0.155473531104,0.));
#621 = ORIENTED_EDGE('',*,*,#622,.T.);
#622 = EDGE_CURVE('',#615,#623,#625,.T.);
#623 = VERTEX_POINT('',#624);
#624 = CARTESIAN_POINT('',(-16.26374347597,12.479609294679,12.));
#625 = LINE('',#626,#627);
#626 = CARTESIAN_POINT('',(-16.97056274847,16.970562748477,12.));
#627 = VECTOR('',#628,1.);
#628 = DIRECTION('',(0.155473531104,-0.987840058474,0.));
#629 = ORIENTED_EDGE('',*,*,#630,.T.);
#630 = EDGE_CURVE('',#623,#631,#633,.T.);
#631 = VERTEX_POINT('',#632);
#632 = CARTESIAN_POINT('',(-20.78460969082,12.,12.));
#633 = LINE('',#634,#635);
#634 = CARTESIAN_POINT('',(-16.26374347597,12.479609294679,12.));
#635 = VECTOR('',#636,1.);
#636 = DIRECTION('',(-0.994419735582,-0.105495921651,0.));
#637 = ORIENTED_EDGE('',*,*,#638,.T.);
#638 = EDGE_CURVE('',#631,#639,#641,.T.);
#639 = VERTEX_POINT('',#640);
#640 = CARTESIAN_POINT('',(-18.93953041648,7.845010363484,12.));
#641 = LINE('',#642,#643);
#642 = CARTESIAN_POINT('',(-20.78460969082,12.,12.));
#643 = VECTOR('',#644,1.);
#644 = DIRECTION('',(0.405847719646,-0.913940713864,0.));
#645 = ORIENTED_EDGE('',*,*,#646,.T.);
#646 = EDGE_CURVE('',#639,#647,#649,.T.);
#647 = VERTEX_POINT('',#648);
#648 = CARTESIAN_POINT('',(-23.18221983093,6.211657082461,12.));
#649 = LINE('',#650,#651);
#650 = CARTESIAN_POINT('',(-18.93953041648,7.845010363484,12.));
#651 = VECTOR('',#652,1.);
#652 = DIRECTION('',(-0.933231351066,-0.359276001685,0.));
#653 = ORIENTED_EDGE('',*,*,#654,.T.);
#654 = EDGE_CURVE('',#647,#655,#657,.T.);
#655 = VERTEX_POINT('',#656);
#656 = CARTESIAN_POINT('',(-20.32461965816,2.675786940511,12.));
#657 = LINE('',#658,#659);
#658 = CARTESIAN_POINT('',(-23.18221983093,6.211657082461,12.));
#659 = VECTOR('',#660,1.);
#660 = DIRECTION('',(0.628564056789,-0.777757819963,0.));
#661 = ORIENTED_EDGE('',*,*,#662,.T.);
#662 = EDGE_CURVE('',#655,#663,#665,.T.);
#663 = VERTEX_POINT('',#664);
#664 = CARTESIAN_POINT('',(-24.,3.10862446895E-15,12.));
#665 = LINE('',#666,#667);
#666 = CARTESIAN_POINT('',(-20.32461965816,2.675786940511,12.));
#667 = VECTOR('',#668,1.);
#668 = DIRECTION('',(-0.808444792213,-0.588572015936,0.));
#669 = ORIENTED_EDGE('',*,*,#670,.T.);
#670 = EDGE_CURVE('',#663,#671,#673,.T.);
#671 = VERTEX_POINT('',#672);
#672 = CARTESIAN_POINT('',(-20.32461965816,-2.675786940511,12.));
#673 = LINE('',#674,#675);
#674 = CARTESIAN_POINT('',(-24.,3.10862446895E-15,12.));
#675 = VECTOR('',#676,1.);
#676 = DIRECTION('',(0.808444792213,-0.588572015936,0.));
#677 = ORIENTED_EDGE('',*,*,#678,.T.);
#678 = EDGE_CURVE('',#671,#679,#681,.T.);
#679 = VERTEX_POINT('',#680);
#680 = CARTESIAN_POINT('',(-23.18221983093,-6.21165708246,12.));
#681 = LINE('',#682,#683);
#682 = CARTESIAN_POINT('',(-20.32461965816,-2.675786940511,12.));
#683 = VECTOR('',#684,1.);
#684 = DIRECTION('',(-0.628564056789,-0.777757819963,0.));
#685 = ORIENTED_EDGE('',*,*,#686,.T.);
#686 = EDGE_CURVE('',#679,#687,#689,.T.);
#687 = VERTEX_POINT('',#688);
#688 = CARTESIAN_POINT('',(-18.93953041648,-7.845010363484,12.));
#689 = LINE('',#690,#691);
#690 = CARTESIAN_POINT('',(-23.18221983093,-6.21165708246,12.));
#691 = VECTOR('',#692,1.);
#692 = DIRECTION('',(0.933231351066,-0.359276001685,0.));
#693 = ORIENTED_EDGE('',*,*,#694,.T.);
#694 = EDGE_CURVE('',#687,#695,#697,.T.);
#695 = VERTEX_POINT('',#696);
#696 = CARTESIAN_POINT('',(-20.78460969082,-12.,12.));
#697 = LINE('',#698,#699);
#698 = CARTESIAN_POINT('',(-18.93953041648,-7.845010363484,12.));
#699 = VECTOR('',#700,1.);
#700 = DIRECTION('',(-0.405847719646,-0.913940713864,0.));
#701 = ORIENTED_EDGE('',*,*,#702,.T.);
#702 = EDGE_CURVE('',#695,#703,#705,.T.);
#703 = VERTEX_POINT('',#704);
#704 = CARTESIAN_POINT('',(-16.26374347597,-12.47960929467,12.));
#705 = LINE('',#706,#707);
#706 = CARTESIAN_POINT('',(-20.78460969082,-12.,12.));
#707 = VECTOR('',#708,1.);
#708 = DIRECTION('',(0.994419735582,-0.105495921651,0.));
#709 = ORIENTED_EDGE('',*,*,#710,.T.);
#710 = EDGE_CURVE('',#703,#711,#713,.T.);
#711 = VERTEX_POINT('',#712);
#712 = CARTESIAN_POINT('',(-16.97056274847,-16.97056274847,12.));
#713 = LINE('',#714,#715);
#714 = CARTESIAN_POINT('',(-16.26374347597,-12.47960929467,12.));
#715 = VECTOR('',#716,1.);
#716 = DIRECTION('',(-0.155473531104,-0.987840058474,0.));
#717 = ORIENTED_EDGE('',*,*,#718,.T.);
#718 = EDGE_CURVE('',#711,#719,#721,.T.);
#719 = VERTEX_POINT('',#720);
#720 = CARTESIAN_POINT('',(-12.47960929467,-16.26374347597,12.));
#721 = LINE('',#722,#723);
#722 = CARTESIAN_POINT('',(-16.97056274847,-16.97056274847,12.));
#723 = VECTOR('',#724,1.);
#724 = DIRECTION('',(0.987840058474,0.155473531104,0.));
#725 = ORIENTED_EDGE('',*,*,#726,.T.);
#726 = EDGE_CURVE('',#719,#727,#729,.T.);
#727 = VERTEX_POINT('',#728);
#728 = CARTESIAN_POINT('',(-12.,-20.78460969082,12.));
#729 = LINE('',#730,#731);
#730 = CARTESIAN_POINT('',(-12.47960929467,-16.26374347597,12.));
#731 = VECTOR('',#732,1.);
#732 = DIRECTION('',(0.105495921651,-0.994419735582,0.));
#733 = ORIENTED_EDGE('',*,*,#734,.T.);
#734 = EDGE_CURVE('',#727,#735,#737,.T.);
#735 = VERTEX_POINT('',#736);
#736 = CARTESIAN_POINT('',(-7.845010363484,-18.93953041648,12.));
#737 = LINE('',#738,#739);
#738 = CARTESIAN_POINT('',(-12.,-20.78460969082,12.));
#739 = VECTOR('',#740,1.);
#740 = DIRECTION('',(0.913940713864,0.405847719646,0.));
#741 = ORIENTED_EDGE('',*,*,#742,.T.);
#742 = EDGE_CURVE('',#735,#743,#745,.T.);
#743 = VERTEX_POINT('',#744);
#744 = CARTESIAN_POINT('',(-6.21165708246,-23.18221983093,12.));
#745 = LINE('',#746,#747);
#746 = CARTESIAN_POINT('',(-7.845010363484,-18.93953041648,12.));
#747 = VECTOR('',#748,1.);
#748 = DIRECTION('',(0.359276001685,-0.933231351066,0.));
#749 = ORIENTED_EDGE('',*,*,#750,.T.);
#750 = EDGE_CURVE('',#743,#751,#753,.T.);
#751 = VERTEX_POINT('',#752);
#752 = CARTESIAN_POINT('',(-2.675786940511,-20.32461965816,12.));
#753 = LINE('',#754,#755);
#754 = CARTESIAN_POINT('',(-6.21165708246,-23.18221983093,12.));
#755 = VECTOR('',#756,1.);
#756 = DIRECTION('',(0.777757819963,0.628564056789,0.));
#757 = ORIENTED_EDGE('',*,*,#758,.T.);
#758 = EDGE_CURVE('',#751,#759,#761,.T.);
#759 = VERTEX_POINT('',#760);
#760 = CARTESIAN_POINT('',(-4.440892098501E-15,-24.,12.));
#761 = LINE('',#762,#763);
#762 = CARTESIAN_POINT('',(-2.675786940511,-20.32461965816,12.));
#763 = VECTOR('',#764,1.);
#764 = DIRECTION('',(0.588572015936,-0.808444792213,0.));
#765 = ORIENTED_EDGE('',*,*,#766,.T.);
#766 = EDGE_CURVE('',#759,#767,#769,.T.);
#767 = VERTEX_POINT('',#768);
#768 = CARTESIAN_POINT('',(2.675786940511,-20.32461965816,12.));
#769 = LINE('',#770,#771);
#770 = CARTESIAN_POINT('',(-4.440892098501E-15,-24.,12.));
#771 = VECTOR('',#772,1.);
#772 = DIRECTION('',(0.588572015936,0.808444792213,0.));
#773 = ORIENTED_EDGE('',*,*,#774,.T.);
#774 = EDGE_CURVE('',#767,#775,#777,.T.);
#775 = VERTEX_POINT('',#776);
#776 = CARTESIAN_POINT('',(6.21165708246,-23.18221983093,12.));
#777 = LINE('',#778,#779);
#778 = CARTESIAN_POINT('',(2.675786940511,-20.32461965816,12.));
#779 = VECTOR('',#780,1.);
#780 = DIRECTION('',(0.777757819963,-0.628564056789,0.));
#781 = ORIENTED_EDGE('',*,*,#782,.T.);
#782 = EDGE_CURVE('',#775,#783,#785,.T.);
#783 = VERTEX_POINT('',#784);
#784 = CARTESIAN_POINT('',(7.845010363484,-18.93953041648,12.));
#785 = LINE('',#786,#787);
#786 = CARTESIAN_POINT('',(6.21165708246,-23.18221983093,12.));
#787 = VECTOR('',#788,1.);
#788 = DIRECTION('',(0.359276001685,0.933231351066,0.));
#789 = ORIENTED_EDGE('',*,*,#790,.T.);
#790 = EDGE_CURVE('',#783,#791,#793,.T.);
#791 = VERTEX_POINT('',#792);
#792 = CARTESIAN_POINT('',(12.,-20.78460969082,12.));
#793 = LINE('',#794,#795);
#794 = CARTESIAN_POINT('',(7.845010363484,-18.93953041648,12.));
#795 = VECTOR('',#796,1.);
#796 = DIRECTION('',(0.913940713864,-0.405847719646,0.));
#797 = ORIENTED_EDGE('',*,*,#798,.T.);
#798 = EDGE_CURVE('',#791,#799,#801,.T.);
#799 = VERTEX_POINT('',#800);
#800 = CARTESIAN_POINT('',(12.479609294679,-16.26374347597,12.));
#801 = LINE('',#802,#803);
#802 = CARTESIAN_POINT('',(12.,-20.78460969082,12.));
#803 = VECTOR('',#804,1.);
#804 = DIRECTION('',(0.105495921651,0.994419735582,0.));
#805 = ORIENTED_EDGE('',*,*,#806,.T.);
#806 = EDGE_CURVE('',#799,#807,#809,.T.);
#807 = VERTEX_POINT('',#808);
#808 = CARTESIAN_POINT('',(16.970562748477,-16.97056274847,12.));
#809 = LINE('',#810,#811);
#810 = CARTESIAN_POINT('',(12.479609294679,-16.26374347597,12.));
#811 = VECTOR('',#812,1.);
#812 = DIRECTION('',(0.987840058474,-0.155473531104,0.));
#813 = ORIENTED_EDGE('',*,*,#814,.T.);
#814 = EDGE_CURVE('',#807,#815,#817,.T.);
#815 = VERTEX_POINT('',#816);
#816 = CARTESIAN_POINT('',(16.26374347597,-12.47960929467,12.));
#817 = LINE('',#818,#819);
#818 = CARTESIAN_POINT('',(16.970562748477,-16.97056274847,12.));
#819 = VECTOR('',#820,1.);
#820 = DIRECTION('',(-0.155473531104,0.987840058474,0.));
#821 = ORIENTED_EDGE('',*,*,#822,.T.);
#822 = EDGE_CURVE('',#815,#823,#825,.T.);
#823 = VERTEX_POINT('',#824);
#824 = CARTESIAN_POINT('',(20.784609690827,-12.,12.));
#825 = LINE('',#826,#827);
#826 = CARTESIAN_POINT('',(16.26374347597,-12.47960929467,12.));
#827 = VECTOR('',#828,1.);
#828 = DIRECTION('',(0.994419735582,0.105495921651,0.));
#829 = ORIENTED_EDGE('',*,*,#830,.T.);
#830 = EDGE_CURVE('',#823,#831,#833,.T.);
#831 = VERTEX_POINT('',#832);
#832 = CARTESIAN_POINT('',(18.939530416481,-7.845010363484,12.));
#833 = LINE('',#834,#835);
#834 = CARTESIAN_POINT('',(20.784609690827,-12.,12.));
#835 = VECTOR('',#836,1.);
#836 = DIRECTION('',(-0.405847719646,0.913940713864,0.));
#837 = ORIENTED_EDGE('',*,*,#838,.T.);
#838 = EDGE_CURVE('',#831,#839,#841,.T.);
#839 = VERTEX_POINT('',#840);
#840 = CARTESIAN_POINT('',(23.182219830938,-6.211657082461,12.));
#841 = LINE('',#842,#843);
#842 = CARTESIAN_POINT('',(18.939530416481,-7.845010363484,12.));
#843 = VECTOR('',#844,1.);
#844 = DIRECTION('',(0.933231351066,0.359276001685,0.));
#845 = ORIENTED_EDGE('',*,*,#846,.T.);
#846 = EDGE_CURVE('',#839,#64,#847,.T.);
#847 = LINE('',#848,#849);
#848 = CARTESIAN_POINT('',(23.182219830938,-6.211657082461,12.));
#849 = VECTOR('',#850,1.);
#850 = DIRECTION('',(-0.628564056789,0.777757819963,0.));
#851 = ORIENTED_EDGE('',*,*,#71,.T.);
#852 = FACE_BOUND('',#853,.T.);
#853 = EDGE_LOOP('',(#854));
#854 = ORIENTED_EDGE('',*,*,#855,.F.);
#855 = EDGE_CURVE('',#856,#856,#858,.T.);
#856 = VERTEX_POINT('',#857);
#857 = CARTESIAN_POINT('',(3.8,0.,12.));
#858 = CIRCLE('',#859,3.8);
#859 = AXIS2_PLACEMENT_3D('',#860,#861,#862);
#860 = CARTESIAN_POINT('',(0.,0.,12.));
#861 = DIRECTION('',(0.,0.,1.));
#862 = DIRECTION('',(1.,0.,0.));
#863 = PLANE('',#864);
#864 = AXIS2_PLACEMENT_3D('',#865,#866,#867);
#865 = CARTESIAN_POINT('',(-9.117065551963E-16,5.00624581648E-16,12.));
#866 = DIRECTION('',(0.,0.,1.));
#867 = DIRECTION('',(1.,0.,0.));
#868 = ADVANCED_FACE('',(#869),#880,.F.);
#869 = FACE_BOUND('',#870,.F.);
#870 = EDGE_LOOP('',(#871,#877,#878,#879));
#871 = ORIENTED_EDGE('',*,*,#872,.T.);
#872 = EDGE_CURVE('',#470,#839,#873,.T.);
#873 = LINE('',#874,#875);
#874 = CARTESIAN_POINT('',(23.182219830938,-6.211657082461,0.));
#875 = VECTOR('',#876,1.);
#876 = DIRECTION('',(0.,0.,1.));
#877 = ORIENTED_EDGE('',*,*,#846,.T.);
#878 = ORIENTED_EDGE('',*,*,#61,.F.);
#879 = ORIENTED_EDGE('',*,*,#477,.F.);
#880 = PLANE('',#881);
#881 = AXIS2_PLACEMENT_3D('',#882,#883,#884);
#882 = CARTESIAN_POINT('',(23.182219830938,-6.211657082461,0.));
#883 = DIRECTION('',(-0.777757819963,-0.628564056789,0.));
#884 = DIRECTION('',(-0.628564056789,0.777757819963,0.));
#885 = ADVANCED_FACE('',(#886),#897,.F.);
#886 = FACE_BOUND('',#887,.F.);
#887 = EDGE_LOOP('',(#888,#889,#890,#896));
#888 = ORIENTED_EDGE('',*,*,#101,.T.);
#889 = ORIENTED_EDGE('',*,*,#494,.T.);
#890 = ORIENTED_EDGE('',*,*,#891,.F.);
#891 = EDGE_CURVE('',#126,#495,#892,.T.);
#892 = LINE('',#893,#894);
#893 = CARTESIAN_POINT('',(18.939530416481,7.845010363484,0.));
#894 = VECTOR('',#895,1.);
#895 = DIRECTION('',(0.,0.,1.));
#896 = ORIENTED_EDGE('',*,*,#125,.F.);
#897 = PLANE('',#898);
#898 = AXIS2_PLACEMENT_3D('',#899,#900,#901);
#899 = CARTESIAN_POINT('',(23.182219830938,6.21165708246,0.));
#900 = DIRECTION('',(-0.359276001685,-0.933231351066,0.));
#901 = DIRECTION('',(-0.933231351066,0.359276001685,0.));
#902 = ADVANCED_FACE('',(#903),#914,.F.);
#903 = FACE_BOUND('',#904,.F.);
#904 = EDGE_LOOP('',(#905,#906,#907,#913));
#905 = ORIENTED_EDGE('',*,*,#891,.T.);
#906 = ORIENTED_EDGE('',*,*,#502,.T.);
#907 = ORIENTED_EDGE('',*,*,#908,.F.);
#908 = EDGE_CURVE('',#134,#503,#909,.T.);
#909 = LINE('',#910,#911);
#910 = CARTESIAN_POINT('',(20.784609690827,12.,0.));
#911 = VECTOR('',#912,1.);
#912 = DIRECTION('',(0.,0.,1.));
#913 = ORIENTED_EDGE('',*,*,#133,.F.);
#914 = PLANE('',#915);
#915 = AXIS2_PLACEMENT_3D('',#916,#917,#918);
#916 = CARTESIAN_POINT('',(18.939530416481,7.845010363484,0.));
#917 = DIRECTION('',(-0.913940713864,0.405847719646,0.));
#918 = DIRECTION('',(0.405847719646,0.913940713864,0.));
#919 = ADVANCED_FACE('',(#920),#931,.F.);
#920 = FACE_BOUND('',#921,.F.);
#921 = EDGE_LOOP('',(#922,#923,#924,#930));
#922 = ORIENTED_EDGE('',*,*,#908,.T.);
#923 = ORIENTED_EDGE('',*,*,#510,.T.);
#924 = ORIENTED_EDGE('',*,*,#925,.F.);
#925 = EDGE_CURVE('',#142,#511,#926,.T.);
#926 = LINE('',#927,#928);
#927 = CARTESIAN_POINT('',(16.26374347597,12.479609294679,0.));
#928 = VECTOR('',#929,1.);
#929 = DIRECTION('',(0.,0.,1.));
#930 = ORIENTED_EDGE('',*,*,#141,.F.);
#931 = PLANE('',#932);
#932 = AXIS2_PLACEMENT_3D('',#933,#934,#935);
#933 = CARTESIAN_POINT('',(20.784609690827,12.,0.));
#934 = DIRECTION('',(-0.105495921651,-0.994419735582,0.));
#935 = DIRECTION('',(-0.994419735582,0.105495921651,0.));
#936 = ADVANCED_FACE('',(#937),#948,.F.);
#937 = FACE_BOUND('',#938,.F.);
#938 = EDGE_LOOP('',(#939,#940,#941,#947));
#939 = ORIENTED_EDGE('',*,*,#925,.T.);
#940 = ORIENTED_EDGE('',*,*,#518,.T.);
#941 = ORIENTED_EDGE('',*,*,#942,.F.);
#942 = EDGE_CURVE('',#150,#519,#943,.T.);
#943 = LINE('',#944,#945);
#944 = CARTESIAN_POINT('',(16.970562748477,16.970562748477,0.));
#945 = VECTOR('',#946,1.);
#946 = DIRECTION('',(0.,0.,1.));
#947 = ORIENTED_EDGE('',*,*,#149,.F.);
#948 = PLANE('',#949);
#949 = AXIS2_PLACEMENT_3D('',#950,#951,#952);
#950 = CARTESIAN_POINT('',(16.26374347597,12.479609294679,0.));
#951 = DIRECTION('',(-0.987840058474,0.155473531104,0.));
#952 = DIRECTION('',(0.155473531104,0.987840058474,0.));
#953 = ADVANCED_FACE('',(#954),#965,.F.);
#954 = FACE_BOUND('',#955,.F.);
#955 = EDGE_LOOP('',(#956,#957,#958,#964));
#956 = ORIENTED_EDGE('',*,*,#942,.T.);
#957 = ORIENTED_EDGE('',*,*,#526,.T.);
#958 = ORIENTED_EDGE('',*,*,#959,.F.);
#959 = EDGE_CURVE('',#158,#527,#960,.T.);
#960 = LINE('',#961,#962);
#961 = CARTESIAN_POINT('',(12.479609294679,16.26374347597,0.));
#962 = VECTOR('',#963,1.);
#963 = DIRECTION('',(0.,0.,1.));
#964 = ORIENTED_EDGE('',*,*,#157,.F.);
#965 = PLANE('',#966);
#966 = AXIS2_PLACEMENT_3D('',#967,#968,#969);
#967 = CARTESIAN_POINT('',(16.970562748477,16.970562748477,0.));
#968 = DIRECTION('',(0.155473531104,-0.987840058474,0.));
#969 = DIRECTION('',(-0.987840058474,-0.155473531104,0.));
#970 = ADVANCED_FACE('',(#971),#982,.F.);
#971 = FACE_BOUND('',#972,.F.);
#972 = EDGE_LOOP('',(#973,#974,#975,#981));
#973 = ORIENTED_EDGE('',*,*,#959,.T.);
#974 = ORIENTED_EDGE('',*,*,#534,.T.);
#975 = ORIENTED_EDGE('',*,*,#976,.F.);
#976 = EDGE_CURVE('',#166,#535,#977,.T.);
#977 = LINE('',#978,#979);
#978 = CARTESIAN_POINT('',(12.,20.784609690827,0.));
#979 = VECTOR('',#980,1.);
#980 = DIRECTION('',(0.,0.,1.));
#981 = ORIENTED_EDGE('',*,*,#165,.F.);
#982 = PLANE('',#983);
#983 = AXIS2_PLACEMENT_3D('',#984,#985,#986);
#984 = CARTESIAN_POINT('',(12.479609294679,16.26374347597,0.));
#985 = DIRECTION('',(-0.994419735582,-0.105495921651,0.));
#986 = DIRECTION('',(-0.105495921651,0.994419735582,0.));
#987 = ADVANCED_FACE('',(#988),#999,.F.);
#988 = FACE_BOUND('',#989,.F.);
#989 = EDGE_LOOP('',(#990,#991,#992,#998));
#990 = ORIENTED_EDGE('',*,*,#976,.T.);
#991 = ORIENTED_EDGE('',*,*,#542,.T.);
#992 = ORIENTED_EDGE('',*,*,#993,.F.);
#993 = EDGE_CURVE('',#174,#543,#994,.T.);
#994 = LINE('',#995,#996);
#995 = CARTESIAN_POINT('',(7.845010363484,18.939530416481,0.));
#996 = VECTOR('',#997,1.);
#997 = DIRECTION('',(0.,0.,1.));
#998 = ORIENTED_EDGE('',*,*,#173,.F.);
#999 = PLANE('',#1000);
#1000 = AXIS2_PLACEMENT_3D('',#1001,#1002,#1003);
#1001 = CARTESIAN_POINT('',(12.,20.784609690827,0.));
#1002 = DIRECTION('',(0.405847719646,-0.913940713864,0.));
#1003 = DIRECTION('',(-0.913940713864,-0.405847719646,0.));
#1004 = ADVANCED_FACE('',(#1005),#1016,.F.);
#1005 = FACE_BOUND('',#1006,.F.);
#1006 = EDGE_LOOP('',(#1007,#1008,#1009,#1015));
#1007 = ORIENTED_EDGE('',*,*,#993,.T.);
#1008 = ORIENTED_EDGE('',*,*,#550,.T.);
#1009 = ORIENTED_EDGE('',*,*,#1010,.F.);
#1010 = EDGE_CURVE('',#182,#551,#1011,.T.);
#1011 = LINE('',#1012,#1013);
#1012 = CARTESIAN_POINT('',(6.21165708246,23.182219830938,0.));
#1013 = VECTOR('',#1014,1.);
#1014 = DIRECTION('',(0.,0.,1.));
#1015 = ORIENTED_EDGE('',*,*,#181,.F.);
#1016 = PLANE('',#1017);
#1017 = AXIS2_PLACEMENT_3D('',#1018,#1019,#1020);
#1018 = CARTESIAN_POINT('',(7.845010363484,18.939530416481,0.));
#1019 = DIRECTION('',(-0.933231351066,-0.359276001685,0.));
#1020 = DIRECTION('',(-0.359276001685,0.933231351066,0.));
#1021 = ADVANCED_FACE('',(#1022),#1033,.F.);
#1022 = FACE_BOUND('',#1023,.F.);
#1023 = EDGE_LOOP('',(#1024,#1025,#1026,#1032));
#1024 = ORIENTED_EDGE('',*,*,#1010,.T.);
#1025 = ORIENTED_EDGE('',*,*,#558,.T.);
#1026 = ORIENTED_EDGE('',*,*,#1027,.F.);
#1027 = EDGE_CURVE('',#190,#559,#1028,.T.);
#1028 = LINE('',#1029,#1030);
#1029 = CARTESIAN_POINT('',(2.675786940511,20.324619658163,0.));
#1030 = VECTOR('',#1031,1.);
#1031 = DIRECTION('',(0.,0.,1.));
#1032 = ORIENTED_EDGE('',*,*,#189,.F.);
#1033 = PLANE('',#1034);
#1034 = AXIS2_PLACEMENT_3D('',#1035,#1036,#1037);
#1035 = CARTESIAN_POINT('',(6.21165708246,23.182219830938,0.));
#1036 = DIRECTION('',(0.628564056789,-0.777757819963,0.));
#1037 = DIRECTION('',(-0.777757819963,-0.628564056789,0.));
#1038 = ADVANCED_FACE('',(#1039),#1050,.F.);
#1039 = FACE_BOUND('',#1040,.F.);
#1040 = EDGE_LOOP('',(#1041,#1042,#1043,#1049));
#1041 = ORIENTED_EDGE('',*,*,#1027,.T.);
#1042 = ORIENTED_EDGE('',*,*,#566,.T.);
#1043 = ORIENTED_EDGE('',*,*,#1044,.F.);
#1044 = EDGE_CURVE('',#198,#567,#1045,.T.);
#1045 = LINE('',#1046,#1047);
#1046 = CARTESIAN_POINT('',(1.33226762955E-15,24.,0.));
#1047 = VECTOR('',#1048,1.);
#1048 = DIRECTION('',(0.,0.,1.));
#1049 = ORIENTED_EDGE('',*,*,#197,.F.);
#1050 = PLANE('',#1051);
#1051 = AXIS2_PLACEMENT_3D('',#1052,#1053,#1054);
#1052 = CARTESIAN_POINT('',(2.675786940511,20.324619658163,0.));
#1053 = DIRECTION('',(-0.808444792213,-0.588572015936,0.));
#1054 = DIRECTION('',(-0.588572015936,0.808444792213,0.));
#1055 = ADVANCED_FACE('',(#1056),#1067,.F.);
#1056 = FACE_BOUND('',#1057,.F.);
#1057 = EDGE_LOOP('',(#1058,#1059,#1060,#1066));
#1058 = ORIENTED_EDGE('',*,*,#1044,.T.);
#1059 = ORIENTED_EDGE('',*,*,#574,.T.);
#1060 = ORIENTED_EDGE('',*,*,#1061,.F.);
#1061 = EDGE_CURVE('',#206,#575,#1062,.T.);
#1062 = LINE('',#1063,#1064);
#1063 = CARTESIAN_POINT('',(-2.675786940511,20.324619658163,0.));
#1064 = VECTOR('',#1065,1.);
#1065 = DIRECTION('',(0.,0.,1.));
#1066 = ORIENTED_EDGE('',*,*,#205,.F.);
#1067 = PLANE('',#1068);
#1068 = AXIS2_PLACEMENT_3D('',#1069,#1070,#1071);
#1069 = CARTESIAN_POINT('',(1.33226762955E-15,24.,0.));
#1070 = DIRECTION('',(0.808444792213,-0.588572015936,0.));
#1071 = DIRECTION('',(-0.588572015936,-0.808444792213,0.));
#1072 = ADVANCED_FACE('',(#1073),#1084,.F.);
#1073 = FACE_BOUND('',#1074,.F.);
#1074 = EDGE_LOOP('',(#1075,#1076,#1077,#1083));
#1075 = ORIENTED_EDGE('',*,*,#1061,.T.);
#1076 = ORIENTED_EDGE('',*,*,#582,.T.);
#1077 = ORIENTED_EDGE('',*,*,#1078,.F.);
#1078 = EDGE_CURVE('',#214,#583,#1079,.T.);
#1079 = LINE('',#1080,#1081);
#1080 = CARTESIAN_POINT('',(-6.21165708246,23.182219830938,0.));
#1081 = VECTOR('',#1082,1.);
#1082 = DIRECTION('',(0.,0.,1.));
#1083 = ORIENTED_EDGE('',*,*,#213,.F.);
#1084 = PLANE('',#1085);
#1085 = AXIS2_PLACEMENT_3D('',#1086,#1087,#1088);
#1086 = CARTESIAN_POINT('',(-2.675786940511,20.324619658163,0.));
#1087 = DIRECTION('',(-0.628564056789,-0.777757819963,0.));
#1088 = DIRECTION('',(-0.777757819963,0.628564056789,0.));
#1089 = ADVANCED_FACE('',(#1090),#1101,.F.);
#1090 = FACE_BOUND('',#1091,.F.);
#1091 = EDGE_LOOP('',(#1092,#1093,#1094,#1100));
#1092 = ORIENTED_EDGE('',*,*,#1078,.T.);
#1093 = ORIENTED_EDGE('',*,*,#590,.T.);
#1094 = ORIENTED_EDGE('',*,*,#1095,.F.);
#1095 = EDGE_CURVE('',#222,#591,#1096,.T.);
#1096 = LINE('',#1097,#1098);
#1097 = CARTESIAN_POINT('',(-7.845010363484,18.939530416481,0.));
#1098 = VECTOR('',#1099,1.);
#1099 = DIRECTION('',(0.,0.,1.));
#1100 = ORIENTED_EDGE('',*,*,#221,.F.);
#1101 = PLANE('',#1102);
#1102 = AXIS2_PLACEMENT_3D('',#1103,#1104,#1105);
#1103 = CARTESIAN_POINT('',(-6.21165708246,23.182219830938,0.));
#1104 = DIRECTION('',(0.933231351066,-0.359276001685,0.));
#1105 = DIRECTION('',(-0.359276001685,-0.933231351066,0.));
#1106 = ADVANCED_FACE('',(#1107),#1118,.F.);
#1107 = FACE_BOUND('',#1108,.F.);
#1108 = EDGE_LOOP('',(#1109,#1110,#1111,#1117));
#1109 = ORIENTED_EDGE('',*,*,#1095,.T.);
#1110 = ORIENTED_EDGE('',*,*,#598,.T.);
#1111 = ORIENTED_EDGE('',*,*,#1112,.F.);
#1112 = EDGE_CURVE('',#230,#599,#1113,.T.);
#1113 = LINE('',#1114,#1115);
#1114 = CARTESIAN_POINT('',(-12.,20.784609690827,0.));
#1115 = VECTOR('',#1116,1.);
#1116 = DIRECTION('',(0.,0.,1.));
#1117 = ORIENTED_EDGE('',*,*,#229,.F.);
#1118 = PLANE('',#1119);
#1119 = AXIS2_PLACEMENT_3D('',#1120,#1121,#1122);
#1120 = CARTESIAN_POINT('',(-7.845010363484,18.939530416481,0.));
#1121 = DIRECTION('',(-0.405847719646,-0.913940713864,0.));
#1122 = DIRECTION('',(-0.913940713864,0.405847719646,0.));
#1123 = ADVANCED_FACE('',(#1124),#1135,.F.);
#1124 = FACE_BOUND('',#1125,.F.);
#1125 = EDGE_LOOP('',(#1126,#1127,#1128,#1134));
#1126 = ORIENTED_EDGE('',*,*,#1112,.T.);
#1127 = ORIENTED_EDGE('',*,*,#606,.T.);
#1128 = ORIENTED_EDGE('',*,*,#1129,.F.);
#1129 = EDGE_CURVE('',#238,#607,#1130,.T.);
#1130 = LINE('',#1131,#1132);
#1131 = CARTESIAN_POINT('',(-12.47960929467,16.26374347597,0.));
#1132 = VECTOR('',#1133,1.);
#1133 = DIRECTION('',(0.,0.,1.));
#1134 = ORIENTED_EDGE('',*,*,#237,.F.);
#1135 = PLANE('',#1136);
#1136 = AXIS2_PLACEMENT_3D('',#1137,#1138,#1139);
#1137 = CARTESIAN_POINT('',(-12.,20.784609690827,0.));
#1138 = DIRECTION('',(0.994419735582,-0.105495921651,0.));
#1139 = DIRECTION('',(-0.105495921651,-0.994419735582,0.));
#1140 = ADVANCED_FACE('',(#1141),#1152,.F.);
#1141 = FACE_BOUND('',#1142,.F.);
#1142 = EDGE_LOOP('',(#1143,#1144,#1145,#1151));
#1143 = ORIENTED_EDGE('',*,*,#1129,.T.);
#1144 = ORIENTED_EDGE('',*,*,#614,.T.);
#1145 = ORIENTED_EDGE('',*,*,#1146,.F.);
#1146 = EDGE_CURVE('',#246,#615,#1147,.T.);
#1147 = LINE('',#1148,#1149);
#1148 = CARTESIAN_POINT('',(-16.97056274847,16.970562748477,0.));
#1149 = VECTOR('',#1150,1.);
#1150 = DIRECTION('',(0.,0.,1.));
#1151 = ORIENTED_EDGE('',*,*,#245,.F.);
#1152 = PLANE('',#1153);
#1153 = AXIS2_PLACEMENT_3D('',#1154,#1155,#1156);
#1154 = CARTESIAN_POINT('',(-12.47960929467,16.26374347597,0.));
#1155 = DIRECTION('',(-0.155473531104,-0.987840058474,0.));
#1156 = DIRECTION('',(-0.987840058474,0.155473531104,0.));
#1157 = ADVANCED_FACE('',(#1158),#1169,.F.);
#1158 = FACE_BOUND('',#1159,.F.);
#1159 = EDGE_LOOP('',(#1160,#1161,#1162,#1168));
#1160 = ORIENTED_EDGE('',*,*,#1146,.T.);
#1161 = ORIENTED_EDGE('',*,*,#622,.T.);
#1162 = ORIENTED_EDGE('',*,*,#1163,.F.);
#1163 = EDGE_CURVE('',#254,#623,#1164,.T.);
#1164 = LINE('',#1165,#1166);
#1165 = CARTESIAN_POINT('',(-16.26374347597,12.479609294679,0.));
#1166 = VECTOR('',#1167,1.);
#1167 = DIRECTION('',(0.,0.,1.));
#1168 = ORIENTED_EDGE('',*,*,#253,.F.);
#1169 = PLANE('',#1170);
#1170 = AXIS2_PLACEMENT_3D('',#1171,#1172,#1173);
#1171 = CARTESIAN_POINT('',(-16.97056274847,16.970562748477,0.));
#1172 = DIRECTION('',(0.987840058474,0.155473531104,0.));
#1173 = DIRECTION('',(0.155473531104,-0.987840058474,0.));
#1174 = ADVANCED_FACE('',(#1175),#1186,.F.);
#1175 = FACE_BOUND('',#1176,.F.);
#1176 = EDGE_LOOP('',(#1177,#1178,#1179,#1185));
#1177 = ORIENTED_EDGE('',*,*,#1163,.T.);
#1178 = ORIENTED_EDGE('',*,*,#630,.T.);
#1179 = ORIENTED_EDGE('',*,*,#1180,.F.);
#1180 = EDGE_CURVE('',#262,#631,#1181,.T.);
#1181 = LINE('',#1182,#1183);
#1182 = CARTESIAN_POINT('',(-20.78460969082,12.,0.));
#1183 = VECTOR('',#1184,1.);
#1184 = DIRECTION('',(0.,0.,1.));
#1185 = ORIENTED_EDGE('',*,*,#261,.F.);
#1186 = PLANE('',#1187);
#1187 = AXIS2_PLACEMENT_3D('',#1188,#1189,#1190);
#1188 = CARTESIAN_POINT('',(-16.26374347597,12.479609294679,0.));
#1189 = DIRECTION('',(0.105495921651,-0.994419735582,0.));
#1190 = DIRECTION('',(-0.994419735582,-0.105495921651,0.));
#1191 = ADVANCED_FACE('',(#1192),#1203,.F.);
#1192 = FACE_BOUND('',#1193,.F.);
#1193 = EDGE_LOOP('',(#1194,#1195,#1196,#1202));
#1194 = ORIENTED_EDGE('',*,*,#1180,.T.);
#1195 = ORIENTED_EDGE('',*,*,#638,.T.);
#1196 = ORIENTED_EDGE('',*,*,#1197,.F.);
#1197 = EDGE_CURVE('',#270,#639,#1198,.T.);
#1198 = LINE('',#1199,#1200);
#1199 = CARTESIAN_POINT('',(-18.93953041648,7.845010363484,0.));
#1200 = VECTOR('',#1201,1.);
#1201 = DIRECTION('',(0.,0.,1.));
#1202 = ORIENTED_EDGE('',*,*,#269,.F.);
#1203 = PLANE('',#1204);
#1204 = AXIS2_PLACEMENT_3D('',#1205,#1206,#1207);
#1205 = CARTESIAN_POINT('',(-20.78460969082,12.,0.));
#1206 = DIRECTION('',(0.913940713864,0.405847719646,0.));
#1207 = DIRECTION('',(0.405847719646,-0.913940713864,0.));
#1208 = ADVANCED_FACE('',(#1209),#1220,.F.);
#1209 = FACE_BOUND('',#1210,.F.);
#1210 = EDGE_LOOP('',(#1211,#1212,#1213,#1219));
#1211 = ORIENTED_EDGE('',*,*,#1197,.T.);
#1212 = ORIENTED_EDGE('',*,*,#646,.T.);
#1213 = ORIENTED_EDGE('',*,*,#1214,.F.);
#1214 = EDGE_CURVE('',#278,#647,#1215,.T.);
#1215 = LINE('',#1216,#1217);
#1216 = CARTESIAN_POINT('',(-23.18221983093,6.211657082461,0.));
#1217 = VECTOR('',#1218,1.);
#1218 = DIRECTION('',(0.,0.,1.));
#1219 = ORIENTED_EDGE('',*,*,#277,.F.);
#1220 = PLANE('',#1221);
#1221 = AXIS2_PLACEMENT_3D('',#1222,#1223,#1224);
#1222 = CARTESIAN_POINT('',(-18.93953041648,7.845010363484,0.));
#1223 = DIRECTION('',(0.359276001685,-0.933231351066,0.));
#1224 = DIRECTION('',(-0.933231351066,-0.359276001685,0.));
#1225 = ADVANCED_FACE('',(#1226),#1237,.F.);
#1226 = FACE_BOUND('',#1227,.F.);
#1227 = EDGE_LOOP('',(#1228,#1229,#1230,#1236));
#1228 = ORIENTED_EDGE('',*,*,#1214,.T.);
#1229 = ORIENTED_EDGE('',*,*,#654,.T.);
#1230 = ORIENTED_EDGE('',*,*,#1231,.F.);
#1231 = EDGE_CURVE('',#286,#655,#1232,.T.);
#1232 = LINE('',#1233,#1234);
#1233 = CARTESIAN_POINT('',(-20.32461965816,2.675786940511,0.));
#1234 = VECTOR('',#1235,1.);
#1235 = DIRECTION('',(0.,0.,1.));
#1236 = ORIENTED_EDGE('',*,*,#285,.F.);
#1237 = PLANE('',#1238);
#1238 = AXIS2_PLACEMENT_3D('',#1239,#1240,#1241);
#1239 = CARTESIAN_POINT('',(-23.18221983093,6.211657082461,0.));
#1240 = DIRECTION('',(0.777757819963,0.628564056789,0.));
#1241 = DIRECTION('',(0.628564056789,-0.777757819963,0.));
#1242 = ADVANCED_FACE('',(#1243),#1254,.F.);
#1243 = FACE_BOUND('',#1244,.F.);
#1244 = EDGE_LOOP('',(#1245,#1246,#1247,#1253));
#1245 = ORIENTED_EDGE('',*,*,#1231,.T.);
#1246 = ORIENTED_EDGE('',*,*,#662,.T.);
#1247 = ORIENTED_EDGE('',*,*,#1248,.F.);
#1248 = EDGE_CURVE('',#294,#663,#1249,.T.);
#1249 = LINE('',#1250,#1251);
#1250 = CARTESIAN_POINT('',(-24.,3.10862446895E-15,0.));
#1251 = VECTOR('',#1252,1.);
#1252 = DIRECTION('',(0.,0.,1.));
#1253 = ORIENTED_EDGE('',*,*,#293,.F.);
#1254 = PLANE('',#1255);
#1255 = AXIS2_PLACEMENT_3D('',#1256,#1257,#1258);
#1256 = CARTESIAN_POINT('',(-20.32461965816,2.675786940511,0.));
#1257 = DIRECTION('',(0.588572015936,-0.808444792213,0.));
#1258 = DIRECTION('',(-0.808444792213,-0.588572015936,0.));
#1259 = ADVANCED_FACE('',(#1260),#1271,.F.);
#1260 = FACE_BOUND('',#1261,.F.);
#1261 = EDGE_LOOP('',(#1262,#1263,#1264,#1270));
#1262 = ORIENTED_EDGE('',*,*,#1248,.T.);
#1263 = ORIENTED_EDGE('',*,*,#670,.T.);
#1264 = ORIENTED_EDGE('',*,*,#1265,.F.);
#1265 = EDGE_CURVE('',#302,#671,#1266,.T.);
#1266 = LINE('',#1267,#1268);
#1267 = CARTESIAN_POINT('',(-20.32461965816,-2.675786940511,0.));
#1268 = VECTOR('',#1269,1.);
#1269 = DIRECTION('',(0.,0.,1.));
#1270 = ORIENTED_EDGE('',*,*,#301,.F.);
#1271 = PLANE('',#1272);
#1272 = AXIS2_PLACEMENT_3D('',#1273,#1274,#1275);
#1273 = CARTESIAN_POINT('',(-24.,3.10862446895E-15,0.));
#1274 = DIRECTION('',(0.588572015936,0.808444792213,0.));
#1275 = DIRECTION('',(0.808444792213,-0.588572015936,0.));
#1276 = ADVANCED_FACE('',(#1277),#1288,.F.);
#1277 = FACE_BOUND('',#1278,.F.);
#1278 = EDGE_LOOP('',(#1279,#1280,#1281,#1287));
#1279 = ORIENTED_EDGE('',*,*,#1265,.T.);
#1280 = ORIENTED_EDGE('',*,*,#678,.T.);
#1281 = ORIENTED_EDGE('',*,*,#1282,.F.);
#1282 = EDGE_CURVE('',#310,#679,#1283,.T.);
#1283 = LINE('',#1284,#1285);
#1284 = CARTESIAN_POINT('',(-23.18221983093,-6.21165708246,0.));
#1285 = VECTOR('',#1286,1.);
#1286 = DIRECTION('',(0.,0.,1.));
#1287 = ORIENTED_EDGE('',*,*,#309,.F.);
#1288 = PLANE('',#1289);
#1289 = AXIS2_PLACEMENT_3D('',#1290,#1291,#1292);
#1290 = CARTESIAN_POINT('',(-20.32461965816,-2.675786940511,0.));
#1291 = DIRECTION('',(0.777757819963,-0.628564056789,0.));
#1292 = DIRECTION('',(-0.628564056789,-0.777757819963,0.));
#1293 = ADVANCED_FACE('',(#1294),#1305,.F.);
#1294 = FACE_BOUND('',#1295,.F.);
#1295 = EDGE_LOOP('',(#1296,#1297,#1298,#1304));
#1296 = ORIENTED_EDGE('',*,*,#1282,.T.);
#1297 = ORIENTED_EDGE('',*,*,#686,.T.);
#1298 = ORIENTED_EDGE('',*,*,#1299,.F.);
#1299 = EDGE_CURVE('',#318,#687,#1300,.T.);
#1300 = LINE('',#1301,#1302);
#1301 = CARTESIAN_POINT('',(-18.93953041648,-7.845010363484,0.));
#1302 = VECTOR('',#1303,1.);
#1303 = DIRECTION('',(0.,0.,1.));
#1304 = ORIENTED_EDGE('',*,*,#317,.F.);
#1305 = PLANE('',#1306);
#1306 = AXIS2_PLACEMENT_3D('',#1307,#1308,#1309);
#1307 = CARTESIAN_POINT('',(-23.18221983093,-6.21165708246,0.));
#1308 = DIRECTION('',(0.359276001685,0.933231351066,0.));
#1309 = DIRECTION('',(0.933231351066,-0.359276001685,0.));
#1310 = ADVANCED_FACE('',(#1311),#1322,.F.);
#1311 = FACE_BOUND('',#1312,.F.);
#1312 = EDGE_LOOP('',(#1313,#1314,#1315,#1321));
#1313 = ORIENTED_EDGE('',*,*,#1299,.T.);
#1314 = ORIENTED_EDGE('',*,*,#694,.T.);
#1315 = ORIENTED_EDGE('',*,*,#1316,.F.);
#1316 = EDGE_CURVE('',#326,#695,#1317,.T.);
#1317 = LINE('',#1318,#1319);
#1318 = CARTESIAN_POINT('',(-20.78460969082,-12.,0.));
#1319 = VECTOR('',#1320,1.);
#1320 = DIRECTION('',(0.,0.,1.));
#1321 = ORIENTED_EDGE('',*,*,#325,.F.);
#1322 = PLANE('',#1323);
#1323 = AXIS2_PLACEMENT_3D('',#1324,#1325,#1326);
#1324 = CARTESIAN_POINT('',(-18.93953041648,-7.845010363484,0.));
#1325 = DIRECTION('',(0.913940713864,-0.405847719646,0.));
#1326 = DIRECTION('',(-0.405847719646,-0.913940713864,0.));
#1327 = ADVANCED_FACE('',(#1328),#1339,.F.);
#1328 = FACE_BOUND('',#1329,.F.);
#1329 = EDGE_LOOP('',(#1330,#1331,#1332,#1338));
#1330 = ORIENTED_EDGE('',*,*,#1316,.T.);
#1331 = ORIENTED_EDGE('',*,*,#702,.T.);
#1332 = ORIENTED_EDGE('',*,*,#1333,.F.);
#1333 = EDGE_CURVE('',#334,#703,#1334,.T.);
#1334 = LINE('',#1335,#1336);
#1335 = CARTESIAN_POINT('',(-16.26374347597,-12.47960929467,0.));
#1336 = VECTOR('',#1337,1.);
#1337 = DIRECTION('',(0.,0.,1.));
#1338 = ORIENTED_EDGE('',*,*,#333,.F.);
#1339 = PLANE('',#1340);
#1340 = AXIS2_PLACEMENT_3D('',#1341,#1342,#1343);
#1341 = CARTESIAN_POINT('',(-20.78460969082,-12.,0.));
#1342 = DIRECTION('',(0.105495921651,0.994419735582,0.));
#1343 = DIRECTION('',(0.994419735582,-0.105495921651,0.));
#1344 = ADVANCED_FACE('',(#1345),#1356,.F.);
#1345 = FACE_BOUND('',#1346,.F.);
#1346 = EDGE_LOOP('',(#1347,#1348,#1349,#1355));
#1347 = ORIENTED_EDGE('',*,*,#1333,.T.);
#1348 = ORIENTED_EDGE('',*,*,#710,.T.);
#1349 = ORIENTED_EDGE('',*,*,#1350,.F.);
#1350 = EDGE_CURVE('',#342,#711,#1351,.T.);
#1351 = LINE('',#1352,#1353);
#1352 = CARTESIAN_POINT('',(-16.97056274847,-16.97056274847,0.));
#1353 = VECTOR('',#1354,1.);
#1354 = DIRECTION('',(0.,0.,1.));
#1355 = ORIENTED_EDGE('',*,*,#341,.F.);
#1356 = PLANE('',#1357);
#1357 = AXIS2_PLACEMENT_3D('',#1358,#1359,#1360);
#1358 = CARTESIAN_POINT('',(-16.26374347597,-12.47960929467,0.));
#1359 = DIRECTION('',(0.987840058474,-0.155473531104,0.));
#1360 = DIRECTION('',(-0.155473531104,-0.987840058474,0.));
#1361 = ADVANCED_FACE('',(#1362),#1373,.F.);
#1362 = FACE_BOUND('',#1363,.F.);
#1363 = EDGE_LOOP('',(#1364,#1365,#1366,#1372));
#1364 = ORIENTED_EDGE('',*,*,#1350,.T.);
#1365 = ORIENTED_EDGE('',*,*,#718,.T.);
#1366 = ORIENTED_EDGE('',*,*,#1367,.F.);
#1367 = EDGE_CURVE('',#350,#719,#1368,.T.);
#1368 = LINE('',#1369,#1370);
#1369 = CARTESIAN_POINT('',(-12.47960929467,-16.26374347597,0.));
#1370 = VECTOR('',#1371,1.);
#1371 = DIRECTION('',(0.,0.,1.));
#1372 = ORIENTED_EDGE('',*,*,#349,.F.);
#1373 = PLANE('',#1374);
#1374 = AXIS2_PLACEMENT_3D('',#1375,#1376,#1377);
#1375 = CARTESIAN_POINT('',(-16.97056274847,-16.97056274847,0.));
#1376 = DIRECTION('',(-0.155473531104,0.987840058474,0.));
#1377 = DIRECTION('',(0.987840058474,0.155473531104,0.));
#1378 = ADVANCED_FACE('',(#1379),#1390,.F.);
#1379 = FACE_BOUND('',#1380,.F.);
#1380 = EDGE_LOOP('',(#1381,#1382,#1383,#1389));
#1381 = ORIENTED_EDGE('',*,*,#1367,.T.);
#1382 = ORIENTED_EDGE('',*,*,#726,.T.);
#1383 = ORIENTED_EDGE('',*,*,#1384,.F.);
#1384 = EDGE_CURVE('',#358,#727,#1385,.T.);
#1385 = LINE('',#1386,#1387);
#1386 = CARTESIAN_POINT('',(-12.,-20.78460969082,0.));
#1387 = VECTOR('',#1388,1.);
#1388 = DIRECTION('',(0.,0.,1.));
#1389 = ORIENTED_EDGE('',*,*,#357,.F.);
#1390 = PLANE('',#1391);
#1391 = AXIS2_PLACEMENT_3D('',#1392,#1393,#1394);
#1392 = CARTESIAN_POINT('',(-12.47960929467,-16.26374347597,0.));
#1393 = DIRECTION('',(0.994419735582,0.105495921651,0.));
#1394 = DIRECTION('',(0.105495921651,-0.994419735582,0.));
#1395 = ADVANCED_FACE('',(#1396),#1407,.F.);
#1396 = FACE_BOUND('',#1397,.F.);
#1397 = EDGE_LOOP('',(#1398,#1399,#1400,#1406));
#1398 = ORIENTED_EDGE('',*,*,#1384,.T.);
#1399 = ORIENTED_EDGE('',*,*,#734,.T.);
#1400 = ORIENTED_EDGE('',*,*,#1401,.F.);
#1401 = EDGE_CURVE('',#366,#735,#1402,.T.);
#1402 = LINE('',#1403,#1404);
#1403 = CARTESIAN_POINT('',(-7.845010363484,-18.93953041648,0.));
#1404 = VECTOR('',#1405,1.);
#1405 = DIRECTION('',(0.,0.,1.));
#1406 = ORIENTED_EDGE('',*,*,#365,.F.);
#1407 = PLANE('',#1408);
#1408 = AXIS2_PLACEMENT_3D('',#1409,#1410,#1411);
#1409 = CARTESIAN_POINT('',(-12.,-20.78460969082,0.));
#1410 = DIRECTION('',(-0.405847719646,0.913940713864,0.));
#1411 = DIRECTION('',(0.913940713864,0.405847719646,0.));
#1412 = ADVANCED_FACE('',(#1413),#1424,.F.);
#1413 = FACE_BOUND('',#1414,.F.);
#1414 = EDGE_LOOP('',(#1415,#1416,#1417,#1423));
#1415 = ORIENTED_EDGE('',*,*,#1401,.T.);
#1416 = ORIENTED_EDGE('',*,*,#742,.T.);
#1417 = ORIENTED_EDGE('',*,*,#1418,.F.);
#1418 = EDGE_CURVE('',#374,#743,#1419,.T.);
#1419 = LINE('',#1420,#1421);
#1420 = CARTESIAN_POINT('',(-6.21165708246,-23.18221983093,0.));
#1421 = VECTOR('',#1422,1.);
#1422 = DIRECTION('',(0.,0.,1.));
#1423 = ORIENTED_EDGE('',*,*,#373,.F.);
#1424 = PLANE('',#1425);
#1425 = AXIS2_PLACEMENT_3D('',#1426,#1427,#1428);
#1426 = CARTESIAN_POINT('',(-7.845010363484,-18.93953041648,0.));
#1427 = DIRECTION('',(0.933231351066,0.359276001685,0.));
#1428 = DIRECTION('',(0.359276001685,-0.933231351066,0.));
#1429 = ADVANCED_FACE('',(#1430),#1441,.F.);
#1430 = FACE_BOUND('',#1431,.F.);
#1431 = EDGE_LOOP('',(#1432,#1433,#1434,#1440));
#1432 = ORIENTED_EDGE('',*,*,#1418,.T.);
#1433 = ORIENTED_EDGE('',*,*,#750,.T.);
#1434 = ORIENTED_EDGE('',*,*,#1435,.F.);
#1435 = EDGE_CURVE('',#382,#751,#1436,.T.);
#1436 = LINE('',#1437,#1438);
#1437 = CARTESIAN_POINT('',(-2.675786940511,-20.32461965816,0.));
#1438 = VECTOR('',#1439,1.);
#1439 = DIRECTION('',(0.,0.,1.));
#1440 = ORIENTED_EDGE('',*,*,#381,.F.);
#1441 = PLANE('',#1442);
#1442 = AXIS2_PLACEMENT_3D('',#1443,#1444,#1445);
#1443 = CARTESIAN_POINT('',(-6.21165708246,-23.18221983093,0.));
#1444 = DIRECTION('',(-0.628564056789,0.777757819963,0.));
#1445 = DIRECTION('',(0.777757819963,0.628564056789,0.));
#1446 = ADVANCED_FACE('',(#1447),#1458,.F.);
#1447 = FACE_BOUND('',#1448,.F.);
#1448 = EDGE_LOOP('',(#1449,#1450,#1451,#1457));
#1449 = ORIENTED_EDGE('',*,*,#1435,.T.);
#1450 = ORIENTED_EDGE('',*,*,#758,.T.);
#1451 = ORIENTED_EDGE('',*,*,#1452,.F.);
#1452 = EDGE_CURVE('',#390,#759,#1453,.T.);
#1453 = LINE('',#1454,#1455);
#1454 = CARTESIAN_POINT('',(-4.440892098501E-15,-24.,0.));
#1455 = VECTOR('',#1456,1.);
#1456 = DIRECTION('',(0.,0.,1.));
#1457 = ORIENTED_EDGE('',*,*,#389,.F.);
#1458 = PLANE('',#1459);
#1459 = AXIS2_PLACEMENT_3D('',#1460,#1461,#1462);
#1460 = CARTESIAN_POINT('',(-2.675786940511,-20.32461965816,0.));
#1461 = DIRECTION('',(0.808444792213,0.588572015936,0.));
#1462 = DIRECTION('',(0.588572015936,-0.808444792213,0.));
#1463 = ADVANCED_FACE('',(#1464),#1475,.F.);
#1464 = FACE_BOUND('',#1465,.F.);
#1465 = EDGE_LOOP('',(#1466,#1467,#1468,#1474));
#1466 = ORIENTED_EDGE('',*,*,#1452,.T.);
#1467 = ORIENTED_EDGE('',*,*,#766,.T.);
#1468 = ORIENTED_EDGE('',*,*,#1469,.F.);
#1469 = EDGE_CURVE('',#398,#767,#1470,.T.);
#1470 = LINE('',#1471,#1472);
#1471 = CARTESIAN_POINT('',(2.675786940511,-20.32461965816,0.));
#1472 = VECTOR('',#1473,1.);
#1473 = DIRECTION('',(0.,0.,1.));
#1474 = ORIENTED_EDGE('',*,*,#397,.F.);
#1475 = PLANE('',#1476);
#1476 = AXIS2_PLACEMENT_3D('',#1477,#1478,#1479);
#1477 = CARTESIAN_POINT('',(-4.440892098501E-15,-24.,0.));
#1478 = DIRECTION('',(-0.808444792213,0.588572015936,0.));
#1479 = DIRECTION('',(0.588572015936,0.808444792213,0.));
#1480 = ADVANCED_FACE('',(#1481),#1492,.F.);
#1481 = FACE_BOUND('',#1482,.F.);
#1482 = EDGE_LOOP('',(#1483,#1484,#1485,#1491));
#1483 = ORIENTED_EDGE('',*,*,#1469,.T.);
#1484 = ORIENTED_EDGE('',*,*,#774,.T.);
#1485 = ORIENTED_EDGE('',*,*,#1486,.F.);
#1486 = EDGE_CURVE('',#406,#775,#1487,.T.);
#1487 = LINE('',#1488,#1489);
#1488 = CARTESIAN_POINT('',(6.21165708246,-23.18221983093,0.));
#1489 = VECTOR('',#1490,1.);
#1490 = DIRECTION('',(0.,0.,1.));
#1491 = ORIENTED_EDGE('',*,*,#405,.F.);
#1492 = PLANE('',#1493);
#1493 = AXIS2_PLACEMENT_3D('',#1494,#1495,#1496);
#1494 = CARTESIAN_POINT('',(2.675786940511,-20.32461965816,0.));
#1495 = DIRECTION('',(0.628564056789,0.777757819963,0.));
#1496 = DIRECTION('',(0.777757819963,-0.628564056789,0.));
#1497 = ADVANCED_FACE('',(#1498),#1509,.F.);
#1498 = FACE_BOUND('',#1499,.F.);
#1499 = EDGE_LOOP('',(#1500,#1501,#1502,#1508));
#1500 = ORIENTED_EDGE('',*,*,#1486,.T.);
#1501 = ORIENTED_EDGE('',*,*,#782,.T.);
#1502 = ORIENTED_EDGE('',*,*,#1503,.F.);
#1503 = EDGE_CURVE('',#414,#783,#1504,.T.);
#1504 = LINE('',#1505,#1506);
#1505 = CARTESIAN_POINT('',(7.845010363484,-18.93953041648,0.));
#1506 = VECTOR('',#1507,1.);
#1507 = DIRECTION('',(0.,0.,1.));
#1508 = ORIENTED_EDGE('',*,*,#413,.F.);
#1509 = PLANE('',#1510);
#1510 = AXIS2_PLACEMENT_3D('',#1511,#1512,#1513);
#1511 = CARTESIAN_POINT('',(6.21165708246,-23.18221983093,0.));
#1512 = DIRECTION('',(-0.933231351066,0.359276001685,0.));
#1513 = DIRECTION('',(0.359276001685,0.933231351066,0.));
#1514 = ADVANCED_FACE('',(#1515),#1526,.F.);
#1515 = FACE_BOUND('',#1516,.F.);
#1516 = EDGE_LOOP('',(#1517,#1518,#1519,#1525));
#1517 = ORIENTED_EDGE('',*,*,#1503,.T.);
#1518 = ORIENTED_EDGE('',*,*,#790,.T.);
#1519 = ORIENTED_EDGE('',*,*,#1520,.F.);
#1520 = EDGE_CURVE('',#422,#791,#1521,.T.);
#1521 = LINE('',#1522,#1523);
#1522 = CARTESIAN_POINT('',(12.,-20.78460969082,0.));
#1523 = VECTOR('',#1524,1.);
#1524 = DIRECTION('',(0.,0.,1.));
#1525 = ORIENTED_EDGE('',*,*,#421,.F.);
#1526 = PLANE('',#1527);
#1527 = AXIS2_PLACEMENT_3D('',#1528,#1529,#1530);
#1528 = CARTESIAN_POINT('',(7.845010363484,-18.93953041648,0.));
#1529 = DIRECTION('',(0.405847719646,0.913940713864,0.));
#1530 = DIRECTION('',(0.913940713864,-0.405847719646,0.));
#1531 = ADVANCED_FACE('',(#1532),#1543,.F.);
#1532 = FACE_BOUND('',#1533,.F.);
#1533 = EDGE_LOOP('',(#1534,#1535,#1536,#1542));
#1534 = ORIENTED_EDGE('',*,*,#1520,.T.);
#1535 = ORIENTED_EDGE('',*,*,#798,.T.);
#1536 = ORIENTED_EDGE('',*,*,#1537,.F.);
#1537 = EDGE_CURVE('',#430,#799,#1538,.T.);
#1538 = LINE('',#1539,#1540);
#1539 = CARTESIAN_POINT('',(12.479609294679,-16.26374347597,0.));
#1540 = VECTOR('',#1541,1.);
#1541 = DIRECTION('',(0.,0.,1.));
#1542 = ORIENTED_EDGE('',*,*,#429,.F.);
#1543 = PLANE('',#1544);
#1544 = AXIS2_PLACEMENT_3D('',#1545,#1546,#1547);
#1545 = CARTESIAN_POINT('',(12.,-20.78460969082,0.));
#1546 = DIRECTION('',(-0.994419735582,0.105495921651,0.));
#1547 = DIRECTION('',(0.105495921651,0.994419735582,0.));
#1548 = ADVANCED_FACE('',(#1549),#1560,.F.);
#1549 = FACE_BOUND('',#1550,.F.);
#1550 = EDGE_LOOP('',(#1551,#1552,#1553,#1559));
#1551 = ORIENTED_EDGE('',*,*,#1537,.T.);
#1552 = ORIENTED_EDGE('',*,*,#806,.T.);
#1553 = ORIENTED_EDGE('',*,*,#1554,.F.);
#1554 = EDGE_CURVE('',#438,#807,#1555,.T.);
#1555 = LINE('',#1556,#1557);
#1556 = CARTESIAN_POINT('',(16.970562748477,-16.97056274847,0.));
#1557 = VECTOR('',#1558,1.);
#1558 = DIRECTION('',(0.,0.,1.));
#1559 = ORIENTED_EDGE('',*,*,#437,.F.);
#1560 = PLANE('',#1561);
#1561 = AXIS2_PLACEMENT_3D('',#1562,#1563,#1564);
#1562 = CARTESIAN_POINT('',(12.479609294679,-16.26374347597,0.));
#1563 = DIRECTION('',(0.155473531104,0.987840058474,0.));
#1564 = DIRECTION('',(0.987840058474,-0.155473531104,0.));
#1565 = ADVANCED_FACE('',(#1566),#1577,.F.);
#1566 = FACE_BOUND('',#1567,.F.);
#1567 = EDGE_LOOP('',(#1568,#1569,#1570,#1576));
#1568 = ORIENTED_EDGE('',*,*,#1554,.T.);
#1569 = ORIENTED_EDGE('',*,*,#814,.T.);
#1570 = ORIENTED_EDGE('',*,*,#1571,.F.);
#1571 = EDGE_CURVE('',#446,#815,#1572,.T.);
#1572 = LINE('',#1573,#1574);
#1573 = CARTESIAN_POINT('',(16.26374347597,-12.47960929467,0.));
#1574 = VECTOR('',#1575,1.);
#1575 = DIRECTION('',(0.,0.,1.));
#1576 = ORIENTED_EDGE('',*,*,#445,.F.);
#1577 = PLANE('',#1578);
#1578 = AXIS2_PLACEMENT_3D('',#1579,#1580,#1581);
#1579 = CARTESIAN_POINT('',(16.970562748477,-16.97056274847,0.));
#1580 = DIRECTION('',(-0.987840058474,-0.155473531104,0.));
#1581 = DIRECTION('',(-0.155473531104,0.987840058474,0.));
#1582 = ADVANCED_FACE('',(#1583),#1594,.F.);
#1583 = FACE_BOUND('',#1584,.F.);
#1584 = EDGE_LOOP('',(#1585,#1586,#1587,#1593));
#1585 = ORIENTED_EDGE('',*,*,#1571,.T.);
#1586 = ORIENTED_EDGE('',*,*,#822,.T.);
#1587 = ORIENTED_EDGE('',*,*,#1588,.F.);
#1588 = EDGE_CURVE('',#454,#823,#1589,.T.);
#1589 = LINE('',#1590,#1591);
#1590 = CARTESIAN_POINT('',(20.784609690827,-12.,0.));
#1591 = VECTOR('',#1592,1.);
#1592 = DIRECTION('',(0.,0.,1.));
#1593 = ORIENTED_EDGE('',*,*,#453,.F.);
#1594 = PLANE('',#1595);
#1595 = AXIS2_PLACEMENT_3D('',#1596,#1597,#1598);
#1596 = CARTESIAN_POINT('',(16.26374347597,-12.47960929467,0.));
#1597 = DIRECTION('',(-0.105495921651,0.994419735582,0.));
#1598 = DIRECTION('',(0.994419735582,0.105495921651,0.));
#1599 = ADVANCED_FACE('',(#1600),#1611,.F.);
#1600 = FACE_BOUND('',#1601,.F.);
#1601 = EDGE_LOOP('',(#1602,#1603,#1604,#1610));
#1602 = ORIENTED_EDGE('',*,*,#1588,.T.);
#1603 = ORIENTED_EDGE('',*,*,#830,.T.);
#1604 = ORIENTED_EDGE('',*,*,#1605,.F.);
#1605 = EDGE_CURVE('',#462,#831,#1606,.T.);
#1606 = LINE('',#1607,#1608);
#1607 = CARTESIAN_POINT('',(18.939530416481,-7.845010363484,0.));
#1608 = VECTOR('',#1609,1.);
#1609 = DIRECTION('',(0.,0.,1.));
#1610 = ORIENTED_EDGE('',*,*,#461,.F.);
#1611 = PLANE('',#1612);
#1612 = AXIS2_PLACEMENT_3D('',#1613,#1614,#1615);
#1613 = CARTESIAN_POINT('',(20.784609690827,-12.,0.));
#1614 = DIRECTION('',(-0.913940713864,-0.405847719646,0.));
#1615 = DIRECTION('',(-0.405847719646,0.913940713864,0.));
#1616 = ADVANCED_FACE('',(#1617),#1623,.F.);
#1617 = FACE_BOUND('',#1618,.F.);
#1618 = EDGE_LOOP('',(#1619,#1620,#1621,#1622));
#1619 = ORIENTED_EDGE('',*,*,#1605,.T.);
#1620 = ORIENTED_EDGE('',*,*,#838,.T.);
#1621 = ORIENTED_EDGE('',*,*,#872,.F.);
#1622 = ORIENTED_EDGE('',*,*,#469,.F.);
#1623 = PLANE('',#1624);
#1624 = AXIS2_PLACEMENT_3D('',#1625,#1626,#1627);
#1625 = CARTESIAN_POINT('',(18.939530416481,-7.845010363484,0.));
#1626 = DIRECTION('',(-0.359276001685,0.933231351066,0.));
#1627 = DIRECTION('',(0.933231351066,0.359276001685,0.));
#1628 = ADVANCED_FACE('',(#1629),#1648,.T.);
#1629 = FACE_BOUND('',#1630,.F.);
#1630 = EDGE_LOOP('',(#1631,#1639,#1646,#1647));
#1631 = ORIENTED_EDGE('',*,*,#1632,.T.);
#1632 = EDGE_CURVE('',#856,#1633,#1635,.T.);
#1633 = VERTEX_POINT('',#1634);
#1634 = CARTESIAN_POINT('',(3.8,0.,50.));
#1635 = LINE('',#1636,#1637);
#1636 = CARTESIAN_POINT('',(3.8,0.,12.));
#1637 = VECTOR('',#1638,1.);
#1638 = DIRECTION('',(0.,0.,1.));
#1639 = ORIENTED_EDGE('',*,*,#1640,.T.);
#1640 = EDGE_CURVE('',#1633,#1633,#1641,.T.);
#1641 = CIRCLE('',#1642,3.8);
#1642 = AXIS2_PLACEMENT_3D('',#1643,#1644,#1645);
#1643 = CARTESIAN_POINT('',(0.,0.,50.));
#1644 = DIRECTION('',(0.,0.,1.));
#1645 = DIRECTION('',(1.,0.,0.));
#1646 = ORIENTED_EDGE('',*,*,#1632,.F.);
#1647 = ORIENTED_EDGE('',*,*,#855,.F.);
#1648 = CYLINDRICAL_SURFACE('',#1649,3.8);
#1649 = AXIS2_PLACEMENT_3D('',#1650,#1651,#1652);
#1650 = CARTESIAN_POINT('',(0.,0.,12.));
#1651 = DIRECTION('',(-0.,-0.,-1.));
#1652 = DIRECTION('',(1.,0.,0.));
#1653 = ADVANCED_FACE('',(#1654,#1665),#1668,.F.);
#1654 = FACE_BOUND('',#1655,.F.);
#1655 = EDGE_LOOP('',(#1656));
#1656 = ORIENTED_EDGE('',*,*,#1657,.T.);
#1657 = EDGE_CURVE('',#1658,#1658,#1660,.T.);
#1658 = VERTEX_POINT('',#1659);
#1659 = CARTESIAN_POINT('',(12.,0.,50.));
#1660 = CIRCLE('',#1661,12.);
#1661 = AXIS2_PLACEMENT_3D('',#1662,#1663,#1664);
#1662 = CARTESIAN_POINT('',(0.,0.,50.));
#1663 = DIRECTION('',(0.,0.,1.));
#1664 = DIRECTION('',(1.,0.,0.));
#1665 = FACE_BOUND('',#1666,.F.);
#1666 = EDGE_LOOP('',(#1667));
#1667 = ORIENTED_EDGE('',*,*,#1640,.F.);
#1668 = PLANE('',#1669);
#1669 = AXIS2_PLACEMENT_3D('',#1670,#1671,#1672);
#1670 = CARTESIAN_POINT('',(-9.116267550263E-16,-3.40453421458E-17,50.)
  );
#1671 = DIRECTION('',(0.,0.,1.));
#1672 = DIRECTION('',(1.,0.,0.));
#1673 = ADVANCED_FACE('',(#1674),#1693,.T.);
#1674 = FACE_BOUND('',#1675,.F.);
#1675 = EDGE_LOOP('',(#1676,#1684,#1691,#1692));
#1676 = ORIENTED_EDGE('',*,*,#1677,.T.);
#1677 = EDGE_CURVE('',#1658,#1678,#1680,.T.);
#1678 = VERTEX_POINT('',#1679);
#1679 = CARTESIAN_POINT('',(12.,0.,54.));
#1680 = LINE('',#1681,#1682);
#1681 = CARTESIAN_POINT('',(12.,0.,50.));
#1682 = VECTOR('',#1683,1.);
#1683 = DIRECTION('',(0.,0.,1.));
#1684 = ORIENTED_EDGE('',*,*,#1685,.T.);
#1685 = EDGE_CURVE('',#1678,#1678,#1686,.T.);
#1686 = CIRCLE('',#1687,12.);
#1687 = AXIS2_PLACEMENT_3D('',#1688,#1689,#1690);
#1688 = CARTESIAN_POINT('',(0.,0.,54.));
#1689 = DIRECTION('',(0.,0.,1.));
#1690 = DIRECTION('',(1.,0.,0.));
#1691 = ORIENTED_EDGE('',*,*,#1677,.F.);
#1692 = ORIENTED_EDGE('',*,*,#1657,.F.);
#1693 = CYLINDRICAL_SURFACE('',#1694,12.);
#1694 = AXIS2_PLACEMENT_3D('',#1695,#1696,#1697);
#1695 = CARTESIAN_POINT('',(0.,0.,50.));
#1696 = DIRECTION('',(-0.,-0.,-1.));
#1697 = DIRECTION('',(1.,0.,0.));
#1698 = ADVANCED_FACE('',(#1699),#1702,.T.);
#1699 = FACE_BOUND('',#1700,.T.);
#1700 = EDGE_LOOP('',(#1701));
#1701 = ORIENTED_EDGE('',*,*,#1685,.T.);
#1702 = PLANE('',#1703);
#1703 = AXIS2_PLACEMENT_3D('',#1704,#1705,#1706);
#1704 = CARTESIAN_POINT('',(-9.116267550263E-16,-3.40453421458E-17,54.)
  );
#1705 = DIRECTION('',(0.,0.,1.));
#1706 = DIRECTION('',(1.,0.,0.));
#1707 = ( GEOMETRIC_REPRESENTATION_CONTEXT(3) 
GLOBAL_UNCERTAINTY_ASSIGNED_CONTEXT((#1711)) 
GLOBAL_UNIT_ASSIGNED_CONTEXT((#1708,#1709,#1710)) REPRESENTATION_CONTEXT
('Context #1','3D Context with UNIT and UNCERTAINTY') );
#1708 = ( LENGTH_UNIT() NAMED_UNIT(*) SI_UNIT(.MILLI.,.METRE.) );
#1709 = ( NAMED_UNIT(*) PLANE_ANGLE_UNIT() SI_UNIT($,.RADIAN.) );
#1710 = ( NAMED_UNIT(*) SI_UNIT($,.STERADIAN.) SOLID_ANGLE_UNIT() );
#1711 = UNCERTAINTY_MEASURE_WITH_UNIT(LENGTH_MEASURE(1.E-07),#1708,
  'distance_accuracy_value','confusion accuracy');
#1712 = PRODUCT_RELATED_PRODUCT_CATEGORY('part',$,(#7));
ENDSEC;
END-ISO-10303-21;
