                                                                        S0000001
,,31HOpen CASCADE IGES processor 7.8,13HFilename.iges,                  G0000001
16HOpen CASCADE 7.8,31HOpen CASCADE IGES processor 7.8,32,308,15,308,15,G0000002
,1.,2,2HMM,1,0.01,15H20260727.103125,1.00001E-07,,,,11,0,               G0000003
15H20260727.103125,;                                                    G0000004
     402       1       0       0       0       0       0       000000000D0000001
     402       0       0       1       1                 draft_3        D0000002
     144       2       0       0       0       0       0       000020000D0000003
     144       0       0       1       0                   XY-??        D0000004
     108       3       0       0       0       0       0       000010000D0000005
     108       0       0       1       0                               0D0000006
     142       4       0       0       0       0       0       000010500D0000007
     142       0       0       1       0                               0D0000008
     144       5       0       0       0       0       0       000020000D0000009
     144       0       0       1       0                   XZ-??        D0000010
     108       6       0       0       0       0       0       000010000D0000011
     108       0       0       1       0                               0D0000012
     142       7       0       0       0       0       0       000010500D0000013
     142       0       0       1       0                               0D0000014
     144       8       0       0       0       0       0       000020000D0000015
     144       0       0       1       0                   YZ-??        D0000016
     108       9       0       0       0       0       0       000010000D0000017
     108       0       0       1       0                               0D0000018
     142      10       0       0       0       0       0       000010500D0000019
     142       0       0       1       0                               0D0000020
     100      11       0       0       0       0      23       000020000D0000021
     100       0       0       1       0                               0D0000022
     124      12       0       0       0       0       0       000000000D0000023
     124       0       0       1       0                               0D0000024
     102      13       0       0       0       0       0       000020000D0000025
     102       0       0       1       0                               0D0000026
     100      14       0       0       0       0      29       000010000D0000027
     100       0       0       2       0                               0D0000028
     124      16       0       0       0       0       0       000000000D0000029
     124       0       0       1       0                               0D0000030
     100      17       0       0       0       0      33       000010000D0000031
     100       0       0       2       0                               0D0000032
     124      19       0       0       0       0       0       000000000D0000033
     124       0       0       1       0                               0D0000034
     100      20       0       0       0       0      37       000010000D0000035
     100       0       0       2       0                               0D0000036
     124      22       0       0       0       0       0       000000000D0000037
     124       0       0       1       0                               0D0000038
     100      23       0       0       0       0      41       000010000D0000039
     100       0       0       2       0                               0D0000040
     124      25       0       0       0       0       0       000000000D0000041
     124       0       0       1       0                               0D0000042
     100      26       0       0       0       0      45       000010000D0000043
     100       0       0       2       0                               0D0000044
     124      28       0       0       0       0       0       000000000D0000045
     124       0       0       1       0                               0D0000046
     100      29       0       0       0       0      49       000010000D0000047
     100       0       0       2       0                               0D0000048
     124      31       0       0       0       0       0       000000000D0000049
     124       0       0       1       0                               0D0000050
     100      32       0       0       0       0      53       000020000D0000051
     100       0       0       1       0                               0D0000052
     124      33       0       0       0       0       0       000000000D0000053
     124       0       0       1       0                               0D0000054
     100      34       0       0       0       0      57       000020000D0000055
     100       0       0       1       0                               0D0000056
     124      35       0       0       0       0       0       000000000D0000057
     124       0       0       1       0                               0D0000058
     110      36       0       0       0       0       0       000020000D0000059
     110       0       0       1       0                      X?        D0000060
     110      37       0       0       0       0       0       000020000D0000061
     110       0       0       2       0                      Y?        D0000062
     110      39       0       0       0       0       0       000020000D0000063
     110       0       0       2       0                      Z?        D0000064
     116      41       0       0       0       0       0       000020400D0000065
     116       0       0       1       0                               0D0000066
     406      42       0       0       0       0       0       000000000D0000067
     406       0       0       1      15                               0D0000068
     406      43       0       0       0       0       0       000000000D0000069
     406       0       0       1      15                               0D0000070
     406      44       0       0       0       0       0       000000000D0000071
     406       0       0       1      15                               0D0000072
     406      45       0       0       0       0       0       000000000D0000073
     406       0       0       1      15                               0D0000074
     406      46       0       0       0       0       0       000000000D0000075
     406       0       0       1      15                               0D0000076
     406      47       0       0       0       0       0       000000000D0000077
     406       0       0       1      15                               0D0000078
     406      48       0       0       0       0       0       000000000D0000079
     406       0       0       1      15                               0D0000080
402,11,3,9,15,21,25,51,55,59,61,63,65,0,1,67;                    0000001P0000001
144,5,1,0,7,0,1,69;                                              0000003P0000002
108,0.,0.,1.,0.,0,0.,0.,0.,0.;                                   0000005P0000003
142,0,0,0,0,0;                                                   0000007P0000004
144,11,1,0,13,0,1,71;                                            0000009P0000005
108,0.,-1.,-2.220446049E-16,0.,0,0.,0.,0.,0.;                    0000011P0000006
142,0,0,0,0,0;                                                   0000013P0000007
144,17,1,0,19,0,1,79;                                            0000015P0000008
108,1.,1.232595164E-32,1.110223025E-16,0.,0,0.,0.,0.,0.;         0000017P0000009
142,0,0,0,0,0;                                                   0000019P0000010
100,0.,0.,0.,12.5,0.,12.5,0.;                                    0000021P0000011
124,1.,0.,0.,-34.54945586,0.,1.,0.,3.8E-15,0.,0.,1.,0.;          0000023P0000012
102,6,27,31,35,39,43,47;                                         0000025P0000013
100,0.,0.,0.,-28.856181356,-26.249192701,26.890536053,           0000027P0000014
-28.259483199;                                                   0000027P0000015
124,1.,0.,0.,15.951991959,0.,-1.,0.,-46.436239164,0.,0.,-1.,0.;  0000029P0000016
100,0.,0.,0.,-24.259163447,-18.176755965,4.456412799,            0000031P0000017
29.98402664;                                                     0000031P0000018
124,1.,0.,0.,67.10169146,0.,1.,0.,0.,0.,0.,1.,0.;                0000033P0000019
100,0.,0.,0.,-5.880455007,39.565392061,-38.333442936,            0000035P0000020
-11.425723289;                                                   0000035P0000021
124,1.,0.,0.,77.438559266,0.,-1.,0.,69.5494187,0.,0.,-1.,0.;     0000037P0000022
100,0.,0.,0.,28.750082202,-8.569292467,-28.37936793,             0000039P0000023
-9.726843058;                                                    0000039P0000024
124,1.,0.,0.,10.355034128,0.,1.,0.,89.544434456,0.,0.,1.,0.;     0000041P0000025
100,0.,0.,0.,37.83915724,-12.969124077,11.867051514,             0000043P0000026
38.199124183;                                                    0000043P0000027
124,1.,0.,0.,-55.863491043,0.,-1.,0.,66.848467321,0.,0.,-1.,0.;  0000045P0000028
100,0.,0.,0.,-8.900288635,28.649343137,22.601871065,             0000047P0000029
-19.727022694;                                                   0000047P0000030
124,1.,0.,0.,-35.096150894,0.,1.,0.,0.,0.,0.,1.,0.;              0000049P0000031
100,0.,0.,0.,12.5,0.,12.5,0.;                                    0000051P0000032
124,1.,0.,0.,67.10169146,0.,1.,0.,0.,0.,0.,1.,0.;                0000053P0000033
100,0.,0.,0.,9.,0.,9.,0.;                                        0000055P0000034
124,1.,0.,0.,10.355034128,0.,1.,0.,89.544434456,0.,0.,1.,0.;     0000057P0000035
110,-2.E+100,0.,0.,2.E+100,0.,0.,0,1,75;                         0000059P0000036
110,0.,-2.E+100,2.220446049E+84,0.,2.E+100,-2.220446049E+84,0,1, 0000061P0000037
77;                                                              0000061P0000038
110,0.,-2.220446049E+84,-2.E+100,0.,2.220446049E+84,2.E+100,0,1, 0000063P0000039
73;                                                              0000063P0000040
116,0.,0.,0.,0;                                                  0000065P0000041
406,1,7Hdraft_3;                                                 0000067P0000042
406,1,5HXY-__;                                                   0000069P0000043
406,1,5HXZ-__;                                                   0000071P0000044
406,1,2HZ_;                                                      0000073P0000045
406,1,2HX_;                                                      0000075P0000046
406,1,2HY_;                                                      0000077P0000047
406,1,5HYZ-__;                                                   0000079P0000048
S      1G      4D     80P     48                                        T0000001
