                                                                        S0000001
,,31HOpen CASCADE IGES processor 7.8,13HFilename.iges,                  G0000001
16HOpen CASCADE 7.8,31HOpen CASCADE IGES processor 7.8,32,308,15,308,15,G0000002
,1.,2,2HMM,1,0.01,15H20260727.103125,1.00001E-07,,,,11,0,               G0000003
15H20260727.103125,;                                                    G0000004
     402       1       0       0       0       0       0       000000000D0000001
     402       0       0       4       1                smart_gl        D0000002
     144       5       0       0       0       0       0       000020000D0000003
     144       0       0       1       0                    XY??        D0000004
     108       6       0       0       0       0       0       000010000D0000005
     108       0       0       1       0                               0D0000006
     142       7       0       0       0       0       0       000010500D0000007
     142       0       0       1       0                               0D0000008
     144       8       0       0       0       0       0       000020000D0000009
     144       0       0       1       0                    XZ??        D0000010
     108       9       0       0       0       0       0       000010000D0000011
     108       0       0       1       0                               0D0000012
     142      10       0       0       0       0       0       000010500D0000013
     142       0       0       1       0                               0D0000014
     144      11       0       0       0       0       0       000020000D0000015
     144       0       0       1       0                    YZ??        D0000016
     108      12       0       0       0       0       0       000010000D0000017
     108       0       0       1       0                               0D0000018
     142      13       0       0       0       0       0       000010500D0000019
     142       0       0       1       0                               0D0000020
     102      14       0       0       0       0       0       000020000D0000021
     102       0       0       1       0                               0D0000022
     110      15       0       0       0       0       0       000010000D0000023
     110       0       0       2       0                               0D0000024
     100      17       0       0       0       0      27       000010000D0000025
     100       0       0       1       0                               0D0000026
     124      18       0       0       0       0       0       000000000D0000027
     124       0       0       1       0                               0D0000028
     110      19       0       0       0       0       0       000010000D0000029
     110       0       0       1       0                               0D0000030
     100      20       0       0       0       0      33       000010000D0000031
     100       0       0       1       0                               0D0000032
     124      21       0       0       0       0       0       000000000D0000033
     124       0       0       1       0                               0D0000034
     110      22       0       0       0       0       0       000010000D0000035
     110       0       0       1       0                               0D0000036
     100      23       0       0       0       0      39       000010000D0000037
     100       0       0       1       0                               0D0000038
     124      24       0       0       0       0       0       000000000D0000039
     124       0       0       1       0                               0D0000040
     110      25       0       0       0       0       0       000010000D0000041
     110       0       0       1       0                               0D0000042
     100      26       0       0       0       0      45       000010000D0000043
     100       0       0       1       0                               0D0000044
     124      27       0       0       0       0       0       000000000D0000045
     124       0       0       1       0                               0D0000046
     110      28       0       0       0       0       0       000010000D0000047
     110       0       0       2       0                               0D0000048
     100      30       0       0       0       0      51       000010000D0000049
     100       0       0       1       0                               0D0000050
     124      31       0       0       0       0       0       000000000D0000051
     124       0       0       1       0                               0D0000052
     110      32       0       0       0       0       0       000010000D0000053
     110       0       0       2       0                               0D0000054
     100      34       0       0       0       0      57       000010000D0000055
     100       0       0       1       0                               0D0000056
     124      35       0       0       0       0       0       000000000D0000057
     124       0       0       1       0                               0D0000058
     100      36       0       0       0       0      61       000020000D0000059
     100       0       0       1       0                               0D0000060
     124      37       0       0       0       0       0       000000000D0000061
     124       0       0       1       0                               0D0000062
     100      38       0       0       0       0      65       000020000D0000063
     100       0       0       1       0                               0D0000064
     124      39       0       0       0       0       0       000000000D0000065
     124       0       0       1       0                               0D0000066
     102      40       0       0       0       0       0       000020000D0000067
     102       0       0       1       0                               0D0000068
     110      41       0       0       0       0       0       000010000D0000069
     110       0       0       1       0                               0D0000070
     110      42       0       0       0       0       0       000010000D0000071
     110       0       0       1       0                               0D0000072
     110      43       0       0       0       0       0       000020000D0000073
     110       0       0       1       0                               0D0000074
     104      44       0       0       0       0      77       000020000D0000075
     104       0       0       2       1                               0D0000076
     124      46       0       0       0       0       0       000000000D0000077
     124       0       0       2       0                               0D0000078
     104      48       0       0       0       0      81       000020000D0000079
     104       0       0       2       1                               0D0000080
     124      50       0       0       0       0       0       000000000D0000081
     124       0       0       2       0                               0D0000082
     100      52       0       0       0       0      85       000020000D0000083
     100       0       0       1       0                               0D0000084
     124      53       0       0       0       0       0       000000000D0000085
     124       0       0       1       0                               0D0000086
     104      54       0       0       0       0      89       000020000D0000087
     104       0       0       2       3                               0D0000088
     124      56       0       0       0       0       0       000000000D0000089
     124       0       0       2       0                               0D0000090
     104      58       0       0       0       0      93       000020000D0000091
     104       0       0       2       3                               0D0000092
     124      60       0       0       0       0       0       000000000D0000093
     124       0       0       2       0                               0D0000094
     126      62       0       0       0       0       0       000020000D0000095
     126       0       0      33       0                               0D0000096
     126      95       0       0       0       0       0       000020000D0000097
     126       0       0      33       0                               0D0000098
     102     128       0       0       0       0       0       000020000D0000099
     102       0       0       1       0                               0D0000100
     110     129       0       0       0       0       0       000010000D0000101
     110       0       0       1       0                               0D0000102
     100     130       0       0       0       0     105       000010000D0000103
     100       0       0       1       0                               0D0000104
     124     131       0       0       0       0       0       000000000D0000105
     124       0       0       1       0                               0D0000106
     110     132       0       0       0       0       0       000010000D0000107
     110       0       0       1       0                               0D0000108
     100     133       0       0       0       0     111       000010000D0000109
     100       0       0       1       0                               0D0000110
     124     134       0       0       0       0       0       000000000D0000111
     124       0       0       1       0                               0D0000112
     110     135       0       0       0       0       0       000010000D0000113
     110       0       0       1       0                               0D0000114
     100     136       0       0       0       0     117       000010000D0000115
     100       0       0       1       0                               0D0000116
     124     137       0       0       0       0       0       000000000D0000117
     124       0       0       1       0                               0D0000118
     110     138       0       0       0       0       0       000010000D0000119
     110       0       0       1       0                               0D0000120
     100     139       0       0       0       0     123       000010000D0000121
     100       0       0       1       0                               0D0000122
     124     140       0       0       0       0       0       000000000D0000123
     124       0       0       1       0                               0D0000124
     102     141       0       0       0       0       0       000020000D0000125
     102       0       0       1       0                               0D0000126
     100     142       0       0       0       0     129       000010000D0000127
     100       0       0       1       0                               0D0000128
     124     143       0       0       0       0       0       000000000D0000129
     124       0       0       1       0                               0D0000130
     100     144       0       0       0       0     133       000010000D0000131
     100       0       0       1       0                               0D0000132
     124     145       0       0       0       0       0       000000000D0000133
     124       0       0       1       0                               0D0000134
     100     146       0       0       0       0     137       000010000D0000135
     100       0       0       1       0                               0D0000136
     124     147       0       0       0       0       0       000000000D0000137
     124       0       0       1       0                               0D0000138
     100     148       0       0       0       0     141       000010000D0000139
     100       0       0       2       0                               0D0000140
     124     150       0       0       0       0       0       000000000D0000141
     124       0       0       1       0                               0D0000142
     126     151       0       0       0       0       0       000020000D0000143
     126       0       0       6       0                               0D0000144
     102     157       0       0       0       0       0       000020000D0000145
     102       0       0       1       0                               0D0000146
     110     158       0       0       0       0       0       000010000D0000147
     110       0       0       1       0                               0D0000148
     110     159       0       0       0       0       0       000010000D0000149
     110       0       0       1       0                               0D0000150
     110     160       0       0       0       0       0       000010000D0000151
     110       0       0       1       0                               0D0000152
     110     161       0       0       0       0       0       000010000D0000153
     110       0       0       1       0                               0D0000154
     110     162       0       0       0       0       0       000010000D0000155
     110       0       0       1       0                               0D0000156
     110     163       0       0       0       0       0       000010000D0000157
     110       0       0       1       0                               0D0000158
     110     164       0       0       0       0       0       000020000D0000159
     110       0       0       1       0                               0D0000160
     100     165       0       0       0       0     163       000020000D0000161
     100       0       0       1       0                               0D0000162
     124     166       0       0       0       0       0       000000000D0000163
     124       0       0       1       0                               0D0000164
     100     167       0       0       0       0     167       000020000D0000165
     100       0       0       1       0                               0D0000166
     124     168       0       0       0       0       0       000000000D0000167
     124       0       0       1       0                               0D0000168
     104     169       0       0       0       0     171       000020000D0000169
     104       0       0       2       1                               0D0000170
     124     171       0       0       0       0       0       000000000D0000171
     124       0       0       2       0                               0D0000172
     100     173       0       0       0       0     175       000020000D0000173
     100       0       0       1       0                               0D0000174
     124     174       0       0       0       0       0       000000000D0000175
     124       0       0       1       0                               0D0000176
     100     175       0       0       0       0     179       000020000D0000177
     100       0       0       1       0                               0D0000178
     124     176       0       0       0       0       0       000000000D0000179
     124       0       0       1       0                               0D0000180
     126     177       0       0       0       0       0       000020000D0000181
     126       0       0      33       0                               0D0000182
     126     210       0       0       0       0       0       000020000D0000183
     126       0       0      33       0                               0D0000184
     102     243       0       0       0       0       0       000020000D0000185
     102       0       0       1       0                               0D0000186
     110     244       0       0       0       0       0       000010000D0000187
     110       0       0       1       0                               0D0000188
     100     245       0       0       0       0     191       000010000D0000189
     100       0       0       2       0                               0D0000190
     124     247       0       0       0       0       0       000000000D0000191
     124       0       0       1       0                               0D0000192
     110     248       0       0       0       0       0       000010000D0000193
     110       0       0       1       0                               0D0000194
     100     249       0       0       0       0     197       000010000D0000195
     100       0       0       1       0                               0D0000196
     124     250       0       0       0       0       0       000000000D0000197
     124       0       0       1       0                               0D0000198
     110     251       0       0       0       0       0       000010000D0000199
     110       0       0       1       0                               0D0000200
     100     252       0       0       0       0     203       000010000D0000201
     100       0       0       1       0                               0D0000202
     124     253       0       0       0       0       0       000000000D0000203
     124       0       0       1       0                               0D0000204
     110     254       0       0       0       0       0       000010000D0000205
     110       0       0       1       0                               0D0000206
     100     255       0       0       0       0     209       000010000D0000207
     100       0       0       1       0                               0D0000208
     124     256       0       0       0       0       0       000000000D0000209
     124       0       0       1       0                               0D0000210
     102     257       0       0       0       0       0       000020000D0000211
     102       0       0       1       0                               0D0000212
     110     258       0       0       0       0       0       000010000D0000213
     110       0       0       1       0                               0D0000214
     110     259       0       0       0       0       0       000010000D0000215
     110       0       0       1       0                               0D0000216
     110     260       0       0       0       0       0       000010000D0000217
     110       0       0       1       0                               0D0000218
     110     261       0       0       0       0       0       000010000D0000219
     110       0       0       1       0                               0D0000220
     102     262       0       0       0       0       0       000020000D0000221
     102       0       0       1       0                               0D0000222
     110     263       0       0       0       0       0       000010000D0000223
     110       0       0       1       0                               0D0000224
     110     264       0       0       0       0       0       000010000D0000225
     110       0       0       1       0                               0D0000226
     110     265       0       0       0       0       0       000010000D0000227
     110       0       0       1       0                               0D0000228
     110     266       0       0       0       0       0       000010000D0000229
     110       0       0       1       0                               0D0000230
     102     267       0       0       0       0       0       000020000D0000231
     102       0       0       1       0                               0D0000232
     110     268       0       0       0       0       0       000010000D0000233
     110       0       0       1       0                               0D0000234
     110     269       0       0       0       0       0       000010000D0000235
     110       0       0       2       0                               0D0000236
     110     271       0       0       0       0       0       000010000D0000237
     110       0       0       1       0                               0D0000238
     102     272       0       0       0       0       0       000020000D0000239
     102       0       0       1       0                               0D0000240
     110     273       0       0       0       0       0       000010000D0000241
     110       0       0       1       0                               0D0000242
     110     274       0       0       0       0       0       000010000D0000243
     110       0       0       1       0                               0D0000244
     110     275       0       0       0       0       0       000010000D0000245
     110       0       0       1       0                               0D0000246
     110     276       0       0       0       0       0       000010000D0000247
     110       0       0       1       0                               0D0000248
     102     277       0       0       0       0       0       000020000D0000249
     102       0       0       1       0                               0D0000250
     110     278       0       0       0       0       0       000010000D0000251
     110       0       0       1       0                               0D0000252
     110     279       0       0       0       0       0       000010000D0000253
     110       0       0       2       0                               0D0000254
     110     281       0       0       0       0       0       000010000D0000255
     110       0       0       2       0                               0D0000256
     110     283       0       0       0       0       0       000010000D0000257
     110       0       0       2       0                               0D0000258
     110     285       0       0       0       0       0       000010000D0000259
     110       0       0       2       0                               0D0000260
     110     287       0       0       0       0       0       000010000D0000261
     110       0       0       2       0                               0D0000262
     110     289       0       0       0       0       0       000010000D0000263
     110       0       0       1       0                               0D0000264
     102     290       0       0       0       0       0       000020000D0000265
     102       0       0       1       0                               0D0000266
     110     291       0       0       0       0       0       000010000D0000267
     110       0       0       1       0                               0D0000268
     110     292       0       0       0       0       0       000010000D0000269
     110       0       0       2       0                               0D0000270
     110     294       0       0       0       0       0       000010000D0000271
     110       0       0       2       0                               0D0000272
     110     296       0       0       0       0       0       000010000D0000273
     110       0       0       2       0                               0D0000274
     110     298       0       0       0       0       0       000010000D0000275
     110       0       0       2       0                               0D0000276
     110     300       0       0       0       0       0       000010000D0000277
     110       0       0       2       0                               0D0000278
     110     302       0       0       0       0       0       000010000D0000279
     110       0       0       2       0                               0D0000280
     110     304       0       0       0       0       0       000010000D0000281
     110       0       0       2       0                               0D0000282
     110     306       0       0       0       0       0       000010000D0000283
     110       0       0       1       0                               0D0000284
     102     307       0       0       0       0       0       000020000D0000285
     102       0       0       1       0                               0D0000286
     100     308       0       0       0       0     289       000010000D0000287
     100       0       0       1       0                               0D0000288
     124     309       0       0       0       0       0       000000000D0000289
     124       0       0       1       0                               0D0000290
     110     310       0       0       0       0       0       000010000D0000291
     110       0       0       1       0                               0D0000292
     100     311       0       0       0       0     295       000010000D0000293
     100       0       0       1       0                               0D0000294
     124     312       0       0       0       0       0       000000000D0000295
     124       0       0       1       0                               0D0000296
     110     313       0       0       0       0       0       000010000D0000297
     110       0       0       1       0                               0D0000298
     102     314       0       0       0       0       0       000020000D0000299
     102       0       0       1       0                               0D0000300
     100     315       0       0       0       0     303       000010000D0000301
     100       0       0       2       0                               0D0000302
     124     317       0       0       0       0       0       000000000D0000303
     124       0       0       2       0                               0D0000304
     110     319       0       0       0       0       0       000010000D0000305
     110       0       0       2       0                               0D0000306
     100     321       0       0       0       0     309       000010000D0000307
     100       0       0       2       0                               0D0000308
     124     323       0       0       0       0       0       000000000D0000309
     124       0       0       2       0                               0D0000310
     110     325       0       0       0       0       0       000010000D0000311
     110       0       0       2       0                               0D0000312
     102     327       0       0       0       0       0       000020000D0000313
     102       0       0       1       0                               0D0000314
     100     328       0       0       0       0     317       000010000D0000315
     100       0       0       2       0                               0D0000316
     124     330       0       0       0       0       0       000000000D0000317
     124       0       0       2       0                               0D0000318
     100     332       0       0       0       0     321       000010000D0000319
     100       0       0       2       0                               0D0000320
     124     334       0       0       0       0       0       000000000D0000321
     124       0       0       2       0                               0D0000322
     100     336       0       0       0       0     325       000010000D0000323
     100       0       0       1       0                               0D0000324
     124     337       0       0       0       0       0       000000000D0000325
     124       0       0       2       0                               0D0000326
     100     339       0       0       0       0     329       000010000D0000327
     100       0       0       2       0                               0D0000328
     124     341       0       0       0       0       0       000000000D0000329
     124       0       0       2       0                               0D0000330
     102     343       0       0       0       0       0       000020000D0000331
     102       0       0       1       0                               0D0000332
     100     344       0       0       0       0     335       000010000D0000333
     100       0       0       2       0                               0D0000334
     124     346       0       0       0       0       0       000000000D0000335
     124       0       0       2       0                               0D0000336
     100     348       0       0       0       0     339       000010000D0000337
     100       0       0       2       0                               0D0000338
     124     350       0       0       0       0       0       000000000D0000339
     124       0       0       2       0                               0D0000340
     100     352       0       0       0       0     343       000010000D0000341
     100       0       0       2       0                               0D0000342
     124     354       0       0       0       0       0       000000000D0000343
     124       0       0       2       0                               0D0000344
     100     356       0       0       0       0     347       000010000D0000345
     100       0       0       2       0                               0D0000346
     124     358       0       0       0       0       0       000000000D0000347
     124       0       0       1       0                               0D0000348
     110     359       0       0       0       0       0       000020000D0000349
     110       0       0       2       0                               0D0000350
     110     361       0       0       0       0       0       000020000D0000351
     110       0       0       2       0                               0D0000352
     110     363       0       0       0       0       0       000020000D0000353
     110       0       0       2       0                               0D0000354
     102     365       0       0       0       0       0       000020000D0000355
     102       0       0       1       0                               0D0000356
     100     366       0       0       0       0     359       000010000D0000357
     100       0       0       2       0                               0D0000358
     124     368       0       0       0       0       0       000000000D0000359
     124       0       0       1       0                               0D0000360
     100     369       0       0       0       0     363       000010000D0000361
     100       0       0       2       0                               0D0000362
     124     371       0       0       0       0       0       000000000D0000363
     124       0       0       1       0                               0D0000364
     100     372       0       0       0       0     367       000010000D0000365
     100       0       0       2       0                               0D0000366
     124     374       0       0       0       0       0       000000000D0000367
     124       0       0       1       0                               0D0000368
     100     375       0       0       0       0     371       000010000D0000369
     100       0       0       2       0                               0D0000370
     124     377       0       0       0       0       0       000000000D0000371
     124       0       0       1       0                               0D0000372
     102     378       0       0       0       0       0       000020000D0000373
     102       0       0       1       0                               0D0000374
     100     379       0       0       0       0     377       000010000D0000375
     100       0       0       2       0                               0D0000376
     124     381       0       0       0       0       0       000000000D0000377
     124       0       0       1       0                               0D0000378
     100     382       0       0       0       0     381       000010000D0000379
     100       0       0       2       0                               0D0000380
     124     384       0       0       0       0       0       000000000D0000381
     124       0       0       1       0                               0D0000382
     100     385       0       0       0       0     385       000010000D0000383
     100       0       0       2       0                               0D0000384
     124     387       0       0       0       0       0       000000000D0000385
     124       0       0       1       0                               0D0000386
     100     388       0       0       0       0     389       000010000D0000387
     100       0       0       2       0                               0D0000388
     124     390       0       0       0       0       0       000000000D0000389
     124       0       0       2       0                               0D0000390
     102     392       0       0       0       0       0       000020000D0000391
     102       0       0       1       0                               0D0000392
     100     393       0       0       0       0     395       000010000D0000393
     100       0       0       2       0                               0D0000394
     124     395       0       0       0       0       0       000000000D0000395
     124       0       0       2       0                               0D0000396
     100     397       0       0       0       0     399       000010000D0000397
     100       0       0       2       0                               0D0000398
     124     399       0       0       0       0       0       000000000D0000399
     124       0       0       2       0                               0D0000400
     100     401       0       0       0       0     403       000010000D0000401
     100       0       0       2       0                               0D0000402
     124     403       0       0       0       0       0       000000000D0000403
     124       0       0       2       0                               0D0000404
     100     405       0       0       0       0     407       000010000D0000405
     100       0       0       2       0                               0D0000406
     124     407       0       0       0       0       0       000000000D0000407
     124       0       0       2       0                               0D0000408
     102     409       0       0       0       0       0       000020000D0000409
     102       0       0       1       0                               0D0000410
     100     410       0       0       0       0     413       000010000D0000411
     100       0       0       2       0                               0D0000412
     124     412       0       0       0       0       0       000000000D0000413
     124       0       0       2       0                               0D0000414
     100     414       0       0       0       0     417       000010000D0000415
     100       0       0       2       0                               0D0000416
     124     416       0       0       0       0       0       000000000D0000417
     124       0       0       2       0                               0D0000418
     100     418       0       0       0       0     421       000010000D0000419
     100       0       0       2       0                               0D0000420
     124     420       0       0       0       0       0       000000000D0000421
     124       0       0       2       0                               0D0000422
     100     422       0       0       0       0     425       000010000D0000423
     100       0       0       2       0                               0D0000424
     124     424       0       0       0       0       0       000000000D0000425
     124       0       0       2       0                               0D0000426
     102     426       0       0       0       0       0       000020000D0000427
     102       0       0       1       0                               0D0000428
     100     427       0       0       0       0     431       000010000D0000429
     100       0       0       2       0                               0D0000430
     124     429       0       0       0       0       0       000000000D0000431
     124       0       0       1       0                               0D0000432
     100     430       0       0       0       0     435       000010000D0000433
     100       0       0       2       0                               0D0000434
     124     432       0       0       0       0       0       000000000D0000435
     124       0       0       1       0                               0D0000436
     100     433       0       0       0       0     439       000010000D0000437
     100       0       0       2       0                               0D0000438
     124     435       0       0       0       0       0       000000000D0000439
     124       0       0       1       0                               0D0000440
     100     436       0       0       0       0     443       000010000D0000441
     100       0       0       2       0                               0D0000442
     124     438       0       0       0       0       0       000000000D0000443
     124       0       0       1       0                               0D0000444
     102     439       0       0       0       0       0       000020000D0000445
     102       0       0       1       0                               0D0000446
     100     440       0       0       0       0     449       000010000D0000447
     100       0       0       2       0                               0D0000448
     124     442       0       0       0       0       0       000000000D0000449
     124       0       0       2       0                               0D0000450
     100     444       0       0       0       0     453       000010000D0000451
     100       0       0       2       0                               0D0000452
     124     446       0       0       0       0       0       000000000D0000453
     124       0       0       2       0                               0D0000454
     100     448       0       0       0       0     457       000010000D0000455
     100       0       0       2       0                               0D0000456
     124     450       0       0       0       0       0       000000000D0000457
     124       0       0       2       0                               0D0000458
     100     452       0       0       0       0     461       000010000D0000459
     100       0       0       2       0                               0D0000460
     124     454       0       0       0       0       0       000000000D0000461
     124       0       0       2       0                               0D0000462
     102     456       0       0       0       0       0       000020000D0000463
     102       0       0       1       0                               0D0000464
     100     457       0       0       0       0     467       000010000D0000465
     100       0       0       2       0                               0D0000466
     124     459       0       0       0       0       0       000000000D0000467
     124       0       0       2       0                               0D0000468
     100     461       0       0       0       0     471       000010000D0000469
     100       0       0       2       0                               0D0000470
     124     463       0       0       0       0       0       000000000D0000471
     124       0       0       2       0                               0D0000472
     100     465       0       0       0       0     475       000010000D0000473
     100       0       0       2       0                               0D0000474
     124     467       0       0       0       0       0       000000000D0000475
     124       0       0       2       0                               0D0000476
     100     469       0       0       0       0     479       000010000D0000477
     100       0       0       2       0                               0D0000478
     124     471       0       0       0       0       0       000000000D0000479
     124       0       0       2       0                               0D0000480
     102     473       0       0       0       0       0       000020000D0000481
     102       0       0       1       0                               0D0000482
     100     474       0       0       0       0     485       000010000D0000483
     100       0       0       2       0                               0D0000484
     124     476       0       0       0       0       0       000000000D0000485
     124       0       0       2       0                               0D0000486
     100     478       0       0       0       0     489       000010000D0000487
     100       0       0       2       0                               0D0000488
     124     480       0       0       0       0       0       000000000D0000489
     124       0       0       2       0                               0D0000490
     100     482       0       0       0       0     493       000010000D0000491
     100       0       0       2       0                               0D0000492
     124     484       0       0       0       0       0       000000000D0000493
     124       0       0       2       0                               0D0000494
     100     486       0       0       0       0     497       000010000D0000495
     100       0       0       1       0                               0D0000496
     124     487       0       0       0       0       0       000000000D0000497
     124       0       0       2       0                               0D0000498
     102     489       0       0       0       0       0       000020000D0000499
     102       0       0       1       0                               0D0000500
     100     490       0       0       0       0     503       000010000D0000501
     100       0       0       2       0                               0D0000502
     124     492       0       0       0       0       0       000000000D0000503
     124       0       0       2       0                               0D0000504
     100     494       0       0       0       0     507       000010000D0000505
     100       0       0       2       0                               0D0000506
     124     496       0       0       0       0       0       000000000D0000507
     124       0       0       2       0                               0D0000508
     100     498       0       0       0       0     511       000010000D0000509
     100       0       0       2       0                               0D0000510
     124     500       0       0       0       0       0       000000000D0000511
     124       0       0       2       0                               0D0000512
     100     502       0       0       0       0     515       000010000D0000513
     100       0       0       2       0                               0D0000514
     124     504       0       0       0       0       0       000000000D0000515
     124       0       0       2       0                               0D0000516
     102     506       0       0       0       0       0       000020000D0000517
     102       0       0       1       0                               0D0000518
     100     507       0       0       0       0     521       000010000D0000519
     100       0       0       2       0                               0D0000520
     124     509       0       0       0       0       0       000000000D0000521
     124       0       0       2       0                               0D0000522
     100     511       0       0       0       0     525       000010000D0000523
     100       0       0       1       0                               0D0000524
     124     512       0       0       0       0       0       000000000D0000525
     124       0       0       2       0                               0D0000526
     100     514       0       0       0       0     529       000010000D0000527
     100       0       0       2       0                               0D0000528
     124     516       0       0       0       0       0       000000000D0000529
     124       0       0       2       0                               0D0000530
     100     518       0       0       0       0     533       000010000D0000531
     100       0       0       2       0                               0D0000532
     124     520       0       0       0       0       0       000000000D0000533
     124       0       0       2       0                               0D0000534
     110     522       0       0       0       0       0       000020000D0000535
     110       0       0       2       0                               0D0000536
     110     524       0       0       0       0       0       000020000D0000537
     110       0       0       1       0                      X?        D0000538
     110     525       0       0       0       0       0       000020000D0000539
     110       0       0       2       0                      Y?        D0000540
     110     527       0       0       0       0       0       000020000D0000541
     110       0       0       2       0                      Z?        D0000542
     116     529       0       0       0       0       0       000020400D0000543
     116       0       0       1       0                               0D0000544
     406     530       0       0       0       0       0       000000000D0000545
     406       0       0       1      15                               0D0000546
     406     531       0       0       0       0       0       000000000D0000547
     406       0       0       1      15                               0D0000548
     406     532       0       0       0       0       0       000000000D0000549
     406       0       0       1      15                               0D0000550
     406     533       0       0       0       0       0       000000000D0000551
     406       0       0       1      15                               0D0000552
     406     534       0       0       0       0       0       000000000D0000553
     406       0       0       1      15                               0D0000554
     406     535       0       0       0       0       0       000000000D0000555
     406       0       0       1      15                               0D0000556
     406     536       0       0       0       0       0       000000000D0000557
     406       0       0       1      15                               0D0000558
402,56,3,9,15,21,59,63,67,73,75,79,83,87,91,95,97,99,125,143,    0000001P0000001
145,159,161,165,169,173,177,181,183,185,211,221,231,239,249,265, 0000001P0000002
285,299,313,331,349,351,353,355,373,391,409,427,445,463,481,499, 0000001P0000003
517,535,537,539,541,543,0,1,557;                                 0000001P0000004
144,5,1,0,7,0,1,545;                                             0000003P0000005
108,0.,0.,1.,0.,0,0.,0.,0.,0.;                                   0000005P0000006
142,0,0,0,0,0;                                                   0000007P0000007
144,11,1,0,13,0,1,551;                                           0000009P0000008
108,0.,-1.,-2.220446049E-16,0.,0,0.,0.,0.,0.;                    0000011P0000009
142,0,0,0,0,0;                                                   0000013P0000010
144,17,1,0,19,0,1,553;                                           0000015P0000011
108,1.,1.232595164E-32,1.110223025E-16,0.,0,0.,0.,0.,0.;         0000017P0000012
142,0,0,0,0,0;                                                   0000019P0000013
102,12,23,25,29,31,35,37,41,43,47,49,53,55;                      0000021P0000014
110,-44.643130545,-12.869088826,0.,-49.429859706,18.660641182,   0000023P0000015
0.;                                                              0000023P0000016
100,0.,0.,0.,-7.466052407,1.133468976,-6.635741076,-3.604667922; 0000025P0000017
124,1.,0.,0.,-41.963807299,0.,-1.,0.,19.794110158,0.,0.,-1.,0.;  0000027P0000018
110,-48.599548375,23.39877808,0.,-39.471823234,40.201774073,0.;  0000029P0000019
100,0.,0.,0.,-4.651579896,-2.52683169,-2.674622368,-4.568201955; 0000031P0000020
124,1.,0.,0.,-34.820243339,0.,-1.,0.,37.674942383,0.,0.,-1.,0.;  0000033P0000021
110,-37.494865706,42.243144338,0.,-35.609579366,43.346954779,0.; 0000035P0000022
100,0.,0.,0.,-0.253591518,-0.433129282,0.444396049,0.233284771;  0000037P0000023
124,1.,0.,0.,-35.355987848,0.,-1.,0.,42.913825497,0.,0.,-1.,0.;  0000039P0000024
110,-34.9115918,42.680540725,0.,-45.894580509,21.758485865,0.;   0000041P0000025
100,0.,0.,0.,-2.318573914,1.217130501,-2.603528024,-0.280773011; 0000043P0000026
124,1.,0.,0.,-43.576006595,0.,1.,0.,20.541355364,0.,0.,1.,0.;    0000045P0000027
110,-46.179534618,20.260582353,0.,-42.634760882,-12.609093143,   0000047P0000028
0.;                                                              0000047P0000029
100,0.,0.,0.,0.989596048,-0.106721287,0.123456585,0.987647834;   0000049P0000030
124,1.,0.,0.,-43.62435693,0.,-1.,0.,-12.71581443,0.,0.,-1.,0.;   0000051P0000031
110,-43.500900345,-13.703462264,0.,-43.535092777,-13.707736339,  0000053P0000032
0.;                                                              0000053P0000033
100,0.,0.,0.,0.123514882,0.988114204,-0.984522887,0.149466691;   0000055P0000034
124,1.,0.,0.,-43.658607658,0.,-1.,0.,-12.719622135,0.,0.,-1.,0.; 0000057P0000035
100,0.,0.,0.,14.692776526,2.8162366,-14.828473656,1.981221756;   0000059P0000036
124,1.,0.,0.,35.37559,0.,1.,0.,33.926314,0.,0.,1.,0.;            0000061P0000037
100,0.,0.,0.,-7.863233823,0.811411811,4.26786122,-6.653885773;   0000063P0000038
124,1.,0.,0.,26.749602,0.,1.,0.,16.206119,0.,0.,1.,0.;           0000065P0000039
102,2,69,71;                                                     0000067P0000040
110,-113.726379,52.477703,0.,-93.611549,39.413429,0.;            0000069P0000041
110,-93.611549,39.413429,0.,-113.311646,28.526537,0.;            0000071P0000042
110,-108.049,31.0762,0.,-78.058838,26.867582,0.;                 0000073P0000043
104,0.165247114,0.,0.246775425,0.,-0.,-1.,0.,2.329953171,        0000075P0000044
-0.645820167,2.262652774,0.789971105;                            0000075P0000045
124,0.939421911,0.342762999,0.,-126.740952,-0.342762999,         0000077P0000046
0.939421911,0.,52.1553,0.,0.,1.,0.;                              0000077P0000047
104,0.165336702,0.,0.434107521,0.,-0.,-1.,0.,-1.963699347,       0000079P0000048
0.913736533,0.275200019,1.508221429;                             0000079P0000049
124,-0.596702303,0.802462685,0.,-115.560875,-0.802462685,        0000081P0000050
-0.596702303,0.,46.815094,0.,0.,1.,0.;                           0000081P0000051
100,0.,0.,0.,-2.664924532,-1.864416485,1.207507029,-3.01990039;  0000083P0000052
124,1.,0.,0.,-99.373681,0.,1.,0.,57.486163,0.,0.,1.,0.;          0000085P0000053
104,0.,-0.,1.,-18.377827774,-0.,0.,0.,0.281616823,-2.274973729,  0000087P0000054
1.087737018E-04,-4.471045022E-02;                                0000087P0000055
124,-0.817146047,-0.576430688,0.,-131.419308213,0.576430688,     0000089P0000056
-0.817146047,0.,69.631046265,0.,0.,1.,0.;                        0000089P0000057
104,0.,-0.,1.,-19.904065018,-0.,0.,0.,0.119626668,1.543067395,   0000091P0000058
0.185254161,1.920237189;                                         0000091P0000059
124,-0.963133403,-0.269024253,0.,-128.339994132,0.269024253,     0000093P0000060
-0.963133403,0.,69.748722006,0.,0.,1.,0.;                        0000093P0000061
126,41,6,1,1,1,0,0.,0.,0.,0.,0.,0.,0.,0.785398163,0.785398163,   0000095P0000062
0.785398163,0.785398163,0.785398163,1.570796327,1.570796327,     0000095P0000063
1.570796327,1.570796327,1.570796327,2.35619449,2.35619449,       0000095P0000064
2.35619449,2.35619449,2.35619449,3.141592654,3.141592654,        0000095P0000065
3.141592654,3.141592654,3.141592654,3.926990817,3.926990817,     0000095P0000066
3.926990817,3.926990817,3.926990817,4.71238898,4.71238898,       0000095P0000067
4.71238898,4.71238898,4.71238898,5.497787144,5.497787144,        0000095P0000068
5.497787144,5.497787144,5.497787144,6.283185307,6.283185307,     0000095P0000069
6.283185307,6.283185307,6.283185307,6.283185307,6.283185307,1.,  0000095P0000070
1.,1.,1.,1.,1.,1.,1.,1.,1.,1.,1.,1.,1.,1.,1.,1.,1.,1.,1.,1.,1.,  0000095P0000071
1.,1.,1.,1.,1.,1.,1.,1.,1.,1.,1.,1.,1.,1.,1.,1.,1.,1.,1.,1.,     0000095P0000072
-122.317883,70.552133,0.,-122.321229579,70.304462925,0.,         0000095P0000073
-122.223605232,70.05542892,0.,-122.024904151,69.812666849,0.,    0000095P0000074
-121.730221812,69.583895827,0.,-121.349827269,69.376080827,0.,   0000095P0000075
-120.445498807,69.013538987,0.,-119.921566398,68.858812754,0.,   0000095P0000076
-119.339804589,68.736220651,0.,-118.717872967,68.649994194,0.,   0000095P0000077
-118.075596351,68.602404718,0.,-116.789989616,68.585033281,0.,   0000095P0000078
-116.146661645,68.615251349,0.,-115.522627286,68.684642006,0.,   0000095P0000079
-114.93776549,68.791470402,0.,-114.409843731,68.931983721,0.,    0000095P0000080
-113.496049714,69.269958639,0.,-113.11017898,69.467419674,0.,    0000095P0000081
-112.809422936,69.688144984,0.,-112.604235074,69.925449608,0.,   0000095P0000082
-112.499917579,70.171754925,0.,-112.493224421,70.667095075,0.,   0000095P0000083
-112.590848768,70.91612908,0.,-112.789549849,71.158891151,0.,    0000095P0000084
-113.084232188,71.387662173,0.,-113.464626731,71.595477173,0.,   0000095P0000085
-114.368955193,71.958019013,0.,-114.892887602,72.112745246,0.,   0000095P0000086
-115.474649411,72.235337349,0.,-116.096581033,72.321563806,0.,   0000095P0000087
-116.738857649,72.369153282,0.,-118.024464384,72.386524719,0.,   0000095P0000088
-118.667792355,72.356306651,0.,-119.291826714,72.286915994,0.,   0000095P0000089
-119.87668851,72.180087598,0.,-120.404610269,72.039574279,0.,    0000095P0000090
-121.318404286,71.701599361,0.,-121.70427502,71.504138326,0.,    0000095P0000091
-122.005031064,71.283413016,0.,-122.210218926,71.046108392,0.,   0000095P0000092
-122.314536421,70.799803075,0.,-122.317883,70.552133,0.,0.,      0000095P0000093
6.283185307,0.,0.,1.;                                            0000095P0000094
126,41,6,1,1,1,0,0.,0.,0.,0.,0.,0.,0.,0.785398163,0.785398163,   0000097P0000095
0.785398163,0.785398163,0.785398163,1.570796327,1.570796327,     0000097P0000096
1.570796327,1.570796327,1.570796327,2.35619449,2.35619449,       0000097P0000097
2.35619449,2.35619449,2.35619449,3.141592654,3.141592654,        0000097P0000098
3.141592654,3.141592654,3.141592654,3.926990817,3.926990817,     0000097P0000099
3.926990817,3.926990817,3.926990817,4.71238898,4.71238898,       0000097P0000100
4.71238898,4.71238898,4.71238898,5.497787144,5.497787144,        0000097P0000101
5.497787144,5.497787144,5.497787144,6.283185307,6.283185307,     0000097P0000102
6.283185307,6.283185307,6.283185307,6.283185307,6.283185307,1.,  0000097P0000103
1.,1.,1.,1.,1.,1.,1.,1.,1.,1.,1.,1.,1.,1.,1.,1.,1.,1.,1.,1.,1.,  0000097P0000104
1.,1.,1.,1.,1.,1.,1.,1.,1.,1.,1.,1.,1.,1.,1.,1.,1.,1.,1.,1.,     0000097P0000105
-123.108971,65.730064,0.,-123.217826994,65.253172316,0.,         0000097P0000106
-123.229949074,64.754200845,0.,-123.14197859,64.247852029,0.,    0000097P0000107
-122.955534374,63.749990748,0.,-122.677543185,63.276024388,0.,   0000097P0000108
-121.960575826,62.402801829,0.,-121.521600855,62.003547089,0.,   0000097P0000109
-121.013184882,61.655110996,0.,-120.450543463,61.369054153,0.,   0000097P0000110
-119.85181501,61.153574803,0.,-118.620158061,60.872434985,0.,    0000097P0000111
-117.987231622,60.806774988,0.,-117.356193343,60.820360756,0.,   0000097P0000112
-116.746942433,60.91367657,0.,-116.178203723,61.082909111,0.,    0000097P0000113
-115.15334512,61.558539927,0.,-114.697226938,61.864937408,0.,    0000097P0000114
-114.313220017,62.232586678,0.,-114.014250537,62.650612011,0.,   0000097P0000115
-113.808660994,63.105422316,0.,-113.590949006,64.059205684,0.,   0000097P0000116
-113.578826926,64.558177155,0.,-113.66679741,65.064525971,0.,    0000097P0000117
-113.853241626,65.562387252,0.,-114.131232815,66.036353612,0.,   0000097P0000118
-114.848200174,66.909576171,0.,-115.287175145,67.308830911,0.,   0000097P0000119
-115.795591118,67.657267004,0.,-116.358232537,67.943323847,0.,   0000097P0000120
-116.95696099,68.158803197,0.,-118.188617939,68.439943015,0.,    0000097P0000121
-118.821544378,68.505603012,0.,-119.452582657,68.492017244,0.,   0000097P0000122
-120.061833567,68.39870143,0.,-120.630572277,68.229468889,0.,    0000097P0000123
-121.65543088,67.753838073,0.,-122.111549062,67.447440592,0.,    0000097P0000124
-122.495555983,67.079791322,0.,-122.794525463,66.661765989,0.,   0000097P0000125
-123.000115006,66.206955684,0.,-123.108971,65.730064,0.,0.,      0000097P0000126
6.283185307,0.,0.,1.;                                            0000097P0000127
102,8,101,103,107,109,113,115,119,121;                           0000099P0000128
110,-140.751144,67.507431,0.,-140.751144,62.290748,0.;           0000101P0000129
100,0.,0.,0.,-0.549355,0.,0.,-0.549355;                          0000103P0000130
124,1.,0.,0.,-140.201789,0.,1.,0.,62.290748,0.,0.,1.,0.;         0000105P0000131
110,-140.201789,61.741393,0.,-138.692528,61.741393,0.;           0000107P0000132
100,0.,0.,0.,0.,-0.549355,0.549355,0.;                           0000109P0000133
124,1.,0.,0.,-138.692528,0.,1.,0.,62.290748,0.,0.,1.,0.;         0000111P0000134
110,-138.143173,62.290748,0.,-138.143173,67.507431,0.;           0000113P0000135
100,0.,0.,0.,0.549355,0.,0.,0.549355;                            0000115P0000136
124,1.,0.,0.,-138.692528,0.,1.,0.,67.507431,0.,0.,1.,0.;         0000117P0000137
110,-138.692528,68.056786,0.,-140.201789,68.056786,0.;           0000119P0000138
100,0.,0.,0.,0.,0.549355,-0.549355,0.;                           0000121P0000139
124,1.,0.,0.,-140.201789,0.,1.,0.,67.507431,0.,0.,1.,0.;         0000123P0000140
102,4,127,131,135,139;                                           0000125P0000141
100,0.,0.,0.,-3.316216477,1.047189977,-1.443238329,-3.164010381; 0000127P0000142
124,1.,0.,0.,-131.648804,0.,1.,0.,63.607886736,0.,0.,1.,0.;      0000129P0000143
100,0.,0.,0.,-0.113677811,-0.249215785,0.113677811,0.249215785;  0000131P0000144
124,1.,0.,0.,-132.978364519,0.,1.,0.,60.693092139,0.,0.,1.,0.;   0000133P0000145
100,0.,0.,0.,-1.215882708,2.665578812,-2.79380764,-0.882224481;  0000135P0000146
124,1.,0.,0.,-131.648804,0.,-1.,0.,63.607886736,0.,0.,-1.,0.;    0000137P0000147
100,0.,0.,0.,0.261204418,-8.248274831E-02,-0.261204418,          0000139P0000148
8.248274831E-02;                                                 0000139P0000149
124,1.,0.,0.,-134.703816058,0.,1.,0.,64.572593965,0.,0.,1.,0.;   0000141P0000150
126,11,3,1,1,1,1,-3.,-2.,-1.,0.,1.,2.,3.,4.,5.,6.,7.,8.,9.,10.,  0000143P0000151
11.,12.,1.,1.,1.,1.,1.,1.,1.,1.,1.,1.,1.,1.,-107.921,65.6022,0., 0000143P0000152
-105.799,65.0397,0.,-107.501,66.509724104,0.,-108.919,64.196,0., 0000143P0000153
-108.1,63.3011,0.,-105.007,62.1249,0.,-106.438,59.1846,0.,       0000143P0000154
-101.606,61.409,0.,-101.478,61.23,0.,-107.921,65.6022,0.,        0000143P0000155
-105.799,65.0397,0.,-107.501,66.509724104,0.,0.,9.,0.,0.,1.;     0000143P0000156
102,6,147,149,151,153,155,157;                                   0000145P0000157
110,-179.09565,100.41437,0.,-133.628121,107.257697,0.;           0000147P0000158
110,-133.628121,107.257697,0.,-131.953976,85.121747,0.;          0000149P0000159
110,-131.953976,85.121747,0.,-85.449861,81.029383,0.;            0000151P0000160
110,-85.449861,81.029383,0.,-101.633296,62.212872,0.;            0000153P0000161
110,-101.633296,62.212872,0.,-169.157242,62.212872,0.;           0000155P0000162
110,-169.157242,62.212872,0.,-179.09565,100.41437,0.;            0000157P0000163
110,-171.369158,43.826092,0.,-101.653596,43.826092,0.;           0000159P0000164
100,0.,0.,0.,6.66528641,-7.454794234,3.123397982,9.499704471;    0000161P0000165
124,1.,0.,0.,80.071224556,0.,1.,0.,191.162075174,0.,0.,1.,0.;    0000163P0000166
100,0.,0.,0.,-6.881045642,-4.917265727,2.419766099,8.103889398;  0000165P0000167
124,1.,0.,0.,137.520738,0.,1.,0.,114.59353,0.,0.,1.,0.;          0000167P0000168
104,1.008599617E-03,0.,6.489995276E-03,0.,-0.,-1.,0.,            0000169P0000169
15.967171972,10.698685047,-12.489395161,-11.394820889;           0000169P0000170
124,-0.329682704,0.944091793,0.,195.187393,-0.944091793,         0000171P0000171
-0.329682704,0.,133.858398,0.,0.,1.,0.;                          0000171P0000172
100,0.,0.,0.,12.933154,0.,12.933154,0.;                          0000173P0000173
124,1.,0.,0.,54.931007,0.,1.,0.,95.725029,0.,0.,1.,0.;           0000175P0000174
100,0.,0.,0.,21.343175,0.,21.343175,0.;                          0000177P0000175
124,1.,0.,0.,95.959827,0.,1.,0.,131.114766,0.,0.,1.,0.;          0000179P0000176
126,41,6,1,1,1,0,0.,0.,0.,0.,0.,0.,0.,0.785398163,0.785398163,   0000181P0000177
0.785398163,0.785398163,0.785398163,1.570796327,1.570796327,     0000181P0000178
1.570796327,1.570796327,1.570796327,2.35619449,2.35619449,       0000181P0000179
2.35619449,2.35619449,2.35619449,3.141592654,3.141592654,        0000181P0000180
3.141592654,3.141592654,3.141592654,3.926990817,3.926990817,     0000181P0000181
3.926990817,3.926990817,3.926990817,4.71238898,4.71238898,       0000181P0000182
4.71238898,4.71238898,4.71238898,5.497787144,5.497787144,        0000181P0000183
5.497787144,5.497787144,5.497787144,6.283185307,6.283185307,     0000181P0000184
6.283185307,6.283185307,6.283185307,6.283185307,6.283185307,1.,  0000181P0000185
1.,1.,1.,1.,1.,1.,1.,1.,1.,1.,1.,1.,1.,1.,1.,1.,1.,1.,1.,1.,1.,  0000181P0000186
1.,1.,1.,1.,1.,1.,1.,1.,1.,1.,1.,1.,1.,1.,1.,1.,1.,1.,1.,1.,     0000181P0000187
154.210731,173.883427,0.,155.038615274,172.690301551,0.,         0000181P0000188
156.097076777,171.657171672,0.,157.36059707,170.820826703,0.,    0000181P0000189
158.791736236,170.209876474,0.,160.344019377,169.840781605,0.,   0000181P0000190
163.590769557,169.593901334,0.,165.285231175,169.716116344,0.,   0000181P0000191
167.000730998,170.087798676,0.,168.683473586,170.700112186,0.,   0000181P0000192
170.281429178,171.531250247,0.,173.21725877,173.568359717,0.,    0000181P0000193
174.555127867,174.774327722,0.,175.71769069,176.136310885,0.,    0000181P0000194
176.666308915,177.613203184,0.,177.373876244,179.157704772,0.,   0000181P0000195
178.279016089,182.285492883,0.,178.476587093,183.868774181,0.,   0000181P0000196
178.405199381,185.423226911,0.,178.064005552,186.89955452,0.,    0000181P0000197
177.466701274,188.252671551,0.,175.810932726,190.638922449,0.,   0000181P0000198
174.752471223,191.672052328,0.,173.48895093,192.508397297,0.,    0000181P0000199
172.057811764,193.119347526,0.,170.505528623,193.488442395,0.,   0000181P0000200
167.258778443,193.735322666,0.,165.564316825,193.613107656,0.,   0000181P0000201
163.848817002,193.241425324,0.,162.166074414,192.629111814,0.,   0000181P0000202
160.568118822,191.797973753,0.,157.63228923,189.760864283,0.,    0000181P0000203
156.294420133,188.554896278,0.,155.13185731,187.192913115,0.,    0000181P0000204
154.183239085,185.716020816,0.,153.475671756,184.171519228,0.,   0000181P0000205
152.570531911,181.043731117,0.,152.372960907,179.460449819,0.,   0000181P0000206
152.444348619,177.905997089,0.,152.785542448,176.42966948,0.,    0000181P0000207
153.382846726,175.076552449,0.,154.210731,173.883427,0.,0.,      0000181P0000208
6.283185307,0.,0.,1.;                                            0000181P0000209
126,41,6,1,1,1,0,0.,0.,0.,0.,0.,0.,0.,0.785398163,0.785398163,   0000183P0000210
0.785398163,0.785398163,0.785398163,1.570796327,1.570796327,     0000183P0000211
1.570796327,1.570796327,1.570796327,2.35619449,2.35619449,       0000183P0000212
2.35619449,2.35619449,2.35619449,3.141592654,3.141592654,        0000183P0000213
3.141592654,3.141592654,3.141592654,3.926990817,3.926990817,     0000183P0000214
3.926990817,3.926990817,3.926990817,4.71238898,4.71238898,       0000183P0000215
4.71238898,4.71238898,4.71238898,5.497787144,5.497787144,        0000183P0000216
5.497787144,5.497787144,5.497787144,6.283185307,6.283185307,     0000183P0000217
6.283185307,6.283185307,6.283185307,6.283185307,6.283185307,1.,  0000183P0000218
1.,1.,1.,1.,1.,1.,1.,1.,1.,1.,1.,1.,1.,1.,1.,1.,1.,1.,1.,1.,1.,  0000183P0000219
1.,1.,1.,1.,1.,1.,1.,1.,1.,1.,1.,1.,1.,1.,1.,1.,1.,1.,1.,1.,     0000183P0000220
139.286716,167.1257,0.,138.617105387,167.99010618,0.,            0000183P0000221
137.69894073,168.66196813,0.,136.552860275,169.114630382,0.,     0000183P0000222
135.212341511,169.331310947,0.,133.721342528,169.307947704,0.,   0000183P0000223
130.536578654,168.796901723,0.,128.842819083,168.309219839,0.,   0000183P0000224
127.096773863,167.597251026,0.,125.3528409,166.680840188,0.,     0000183P0000225
123.665304248,165.590852049,0.,120.50058921,163.139311531,0.,    0000183P0000226
119.023416111,161.777763246,0.,117.700215735,160.318225044,0.,   0000183P0000227
116.57444085,158.805543843,0.,115.678902613,157.287431078,0.,    0000183P0000228
114.38808356,154.331475209,0.,113.9928049,152.893637044,0.,      0000183P0000229
113.867562202,151.541507135,0.,114.019409056,150.318663704,0.,   0000183P0000230
114.440463387,149.26171618,0.,115.779684613,147.53290382,0.,     0000183P0000231
116.69784927,146.86104187,0.,117.843929725,146.408379618,0.,     0000183P0000232
119.184448489,146.191699053,0.,120.675447472,146.215062296,0.,   0000183P0000233
123.860211346,146.726108277,0.,125.553970917,147.213790161,0.,   0000183P0000234
127.300016137,147.925758974,0.,129.0439491,148.842169812,0.,     0000183P0000235
130.731485752,149.932157951,0.,133.89620079,152.383698469,0.,    0000183P0000236
135.373373889,153.745246754,0.,136.696574265,155.204784956,0.,   0000183P0000237
137.82234915,156.717466157,0.,138.717887387,158.235578922,0.,    0000183P0000238
140.00870644,161.191534791,0.,140.4039851,162.629372956,0.,      0000183P0000239
140.529227798,163.981502865,0.,140.377380944,165.204346296,0.,   0000183P0000240
139.956326613,166.26129382,0.,139.286716,167.1257,0.,0.,         0000183P0000241
6.283185307,0.,0.,1.;                                            0000183P0000242
102,8,187,189,193,195,199,201,205,207;                           0000185P0000243
110,47.397617,-33.305470542,0.,47.397617,-42.234058367,0.;       0000187P0000244
100,0.,0.,0.,-4.451083542,5.329070518E-13,-3.552713679E-14,      0000189P0000245
-4.451083542;                                                    0000189P0000246
124,1.,0.,0.,51.848700542,0.,1.,0.,-42.234058367,0.,0.,1.,0.;    0000191P0000247
110,51.848700542,-46.685141909,0.,57.161263458,-46.685141909,0.; 0000193P0000248
100,0.,0.,0.,0.,-4.451083542,4.451083542,0.;                     0000195P0000249
124,1.,0.,0.,57.161263458,0.,1.,0.,-42.234058367,0.,0.,1.,0.;    0000197P0000250
110,61.612347,-42.234058367,0.,61.612347,-33.305470542,0.;       0000199P0000251
100,0.,0.,0.,4.451083542,0.,0.,4.451083542;                      0000201P0000252
124,1.,0.,0.,57.161263458,0.,1.,0.,-33.305470542,0.,0.,1.,0.;    0000203P0000253
110,57.161263458,-28.854387,0.,51.848700542,-28.854387,0.;       0000205P0000254
100,0.,0.,0.,-4.97379915E-13,4.451083542,-4.451083542,0.;        0000207P0000255
124,1.,0.,0.,51.848700542,0.,1.,0.,-33.305470542,0.,0.,1.,0.;    0000209P0000256
102,4,213,215,217,219;                                           0000211P0000257
110,120.216896,-40.076542,0.,120.216896,-61.897388,0.;           0000213P0000258
110,120.216896,-61.897388,0.,151.389542,-61.897388,0.;           0000215P0000259
110,151.389542,-61.897388,0.,151.389542,-40.076542,0.;           0000217P0000260
110,151.389542,-40.076542,0.,120.216896,-40.076542,0.;           0000219P0000261
102,4,223,225,227,229;                                           0000221P0000262
110,56.125961,-66.885002,0.,56.125961,-84.092308,0.;             0000223P0000263
110,56.125961,-84.092308,0.,93.782501,-84.092308,0.;             0000225P0000264
110,93.782501,-84.092308,0.,93.782501,-66.885002,0.;             0000227P0000265
110,93.782501,-66.885002,0.,56.125961,-66.885002,0.;             0000229P0000266
102,3,233,235,237;                                               0000231P0000267
110,-629.081848,-206.085785,0.,-663.995452934,-61.173949793,0.;  0000233P0000268
110,-663.995452934,-61.173949793,0.,-772.035981066,              0000235P0000269
-163.865936207,0.;                                               0000235P0000270
110,-772.035981066,-163.865936207,0.,-629.081848,-206.085785,0.; 0000237P0000271
102,4,241,243,245,247;                                           0000239P0000272
110,-350.545959,-239.436005,0.,-378.337737,-68.361877,0.;        0000241P0000273
110,-378.337737,-68.361877,0.,-549.411865,-96.153655,0.;         0000243P0000274
110,-549.411865,-96.153655,0.,-521.620087,-267.227783,0.;        0000245P0000275
110,-521.620087,-267.227783,0.,-350.545959,-239.436005,0.;       0000247P0000276
102,7,251,253,255,257,259,261,263;                               0000249P0000277
110,-661.196899,-493.268066,0.,-642.210189213,-409.175089123,0.; 0000251P0000278
110,-642.210189213,-409.175089123,0.,-696.118706067,             0000253P0000279
-341.899568172,0.;                                               0000253P0000280
110,-696.118706067,-341.899568172,0.,-782.328236838,             0000255P0000281
-342.101342594,0.;                                               0000255P0000282
110,-782.328236838,-342.101342594,0.,-835.921246501,             0000257P0000283
-409.628472134,0.;                                               0000257P0000284
110,-835.921246501,-409.628472134,0.,-816.541105681,             0000259P0000285
-493.631650945,0.;                                               0000259P0000286
110,-816.541105681,-493.631650945,0.,-738.7814557,               0000261P0000287
-530.854772031,0.;                                               0000261P0000288
110,-738.7814557,-530.854772031,0.,-661.196899,-493.268066,0.;   0000263P0000289
102,9,267,269,271,273,275,277,279,281,283;                       0000265P0000290
110,-311.019745,-522.912659,0.,-280.576102989,-458.332853992,0.; 0000267P0000291
110,-280.576102989,-458.332853992,0.,-298.766018692,             0000269P0000292
-389.29305735,0.;                                                0000269P0000293
110,-298.766018692,-389.29305735,0.,-357.078228395,              0000271P0000294
-348.097757213,0.;                                               0000271P0000295
110,-357.078228395,-348.097757213,0.,-428.227801109,             0000273P0000296
-354.022692352,0.;                                               0000273P0000297
110,-428.227801109,-354.022692352,0.,-478.923061022,             0000275P0000298
-404.295519765,0.;                                               0000275P0000299
110,-478.923061022,-404.295519765,0.,-485.443132605,             0000277P0000300
-475.393024787,0.;                                               0000277P0000301
110,-485.443132605,-475.393024787,0.,-444.737201902,             0000279P0000302
-534.047894656,0.;                                               0000279P0000303
110,-444.737201902,-534.047894656,0.,-375.852026286,             0000281P0000304
-552.814863885,0.;                                               0000281P0000305
110,-375.852026286,-552.814863885,0.,-311.019745,-522.912659,0.; 0000283P0000306
102,4,287,291,293,297;                                           0000285P0000307
100,0.,0.,0.,2.71828568,42.920145,-2.71828568,-42.920145;        0000287P0000308
124,1.,0.,0.,-661.19689968,0.,1.,0.,-645.814331,0.,0.,1.,0.;     0000289P0000309
110,-663.915185361,-688.734476,0.,-478.636250149,-700.468851,0.; 0000291P0000310
100,0.,0.,0.,-2.71828568,-42.920145,2.71828568,42.920145;        0000293P0000311
124,1.,0.,0.,-475.917964468,0.,1.,0.,-657.548706,0.,0.,1.,0.;    0000295P0000312
110,-473.199678788,-614.628561,0.,-658.478614,-602.894186,0.;    0000297P0000313
102,4,301,305,307,311;                                           0000299P0000314
100,0.,0.,0.,15.880313927,98.731026681,-15.880313927,            0000301P0000315
-98.731026681;                                                   0000301P0000316
124,1.,0.,0.,-2.01128862E+03,0.,1.,0.,1.76095173E+03,0.,0.,1.,   0000303P0000317
0.;                                                              0000303P0000318
110,-2.027168934E+03,1.662220704E+03,0.,-1.527168934E+03,        0000305P0000319
1.581798599E+03,0.;                                              0000305P0000320
100,0.,0.,0.,-15.880313927,-98.731026681,15.880313927,           0000307P0000321
98.731026681;                                                    0000307P0000322
124,1.,0.,0.,-1.51128862E+03,0.,1.,0.,1.680529626E+03,0.,0.,1.,  0000309P0000323
0.;                                                              0000309P0000324
110,-1.495408306E+03,1.779260652E+03,0.,-1.995408306E+03,        0000311P0000325
1.859682757E+03,0.;                                              0000311P0000326
102,4,315,319,323,327;                                           0000313P0000327
100,0.,0.,0.,-79.527407907,-245.558815094,245.250563065,         0000315P0000328
-80.47298674;                                                    0000315P0000329
124,1.,0.,0.,-2.249549571E+03,0.,1.,0.,1.202798706E+03,0.,0.,1., 0000317P0000330
0.;                                                              0000317P0000331
100,0.,0.,0.,114.018875618,-37.412511315,-114.018875618,         0000319P0000332
37.412511315;                                                    0000319P0000333
124,1.,0.,0.,-2.118317883E+03,0.,1.,0.,1.159738231E+03,0.,0.,1., 0000321P0000334
0.;                                                              0000321P0000335
100,0.,0.,0.,17.21281183,5.64796411,-5.581599041,17.234446374;   0000323P0000336
124,1.,0.,0.,-2.249549571E+03,0.,-1.,0.,1.202798706E+03,0.,0.,   0000325P0000337
-1.,0.;                                                          0000325P0000338
100,0.,0.,0.,36.972904433,114.16218436,-36.972904433,            0000327P0000339
-114.16218436;                                                   0000327P0000340
124,1.,0.,0.,-2.292104074E+03,0.,1.,0.,1.071402075E+03,0.,0.,1., 0000329P0000341
0.;                                                              0000329P0000342
102,4,333,337,341,345;                                           0000331P0000343
100,0.,0.,0.,254.27428726,74.476708884,-220.363326105,           0000333P0000344
147.112874474;                                                   0000333P0000345
124,1.,0.,0.,-1.296142969E+03,0.,1.,0.,942.451184973,0.,0.,1.,   0000335P0000346
0.;                                                              0000335P0000347
100,0.,0.,0.,-66.535582807,44.418647216,66.535582807,            0000337P0000348
-44.418647216;                                                   0000337P0000349
124,1.,0.,0.,-1.449970713E+03,0.,1.,0.,1.045145412E+03,0.,0.,1., 0000339P0000350
0.;                                                              0000339P0000351
100,0.,0.,0.,-87.29216049,-58.275580042,100.725253537,           0000341P0000352
-29.502335709;                                                   0000341P0000353
124,1.,0.,0.,-1.296142969E+03,0.,-1.,0.,942.451184973,0.,0.,-1., 0000343P0000354
0.;                                                              0000343P0000355
100,0.,0.,0.,-76.774516862,-22.487186587,76.774516862,           0000345P0000356
22.487186587;                                                    0000345P0000357
124,1.,0.,0.,-1.118643199E+03,0.,1.,0.,994.44070727,0.,0.,1.,0.; 0000347P0000358
110,-1.134081787E+03,2.205489258E+03,0.,-500.479706,             0000349P0000359
2.205489258E+03,0.;                                              0000349P0000360
110,-912.628479,2.369528809E+03,0.,-912.628479,2.010692627E+03,  0000351P0000361
0.;                                                              0000351P0000362
110,-1.562634766E+03,1.20740815E+03,0.,-906.477112,              0000353P0000363
1.20740815E+03,0.;                                               0000353P0000364
102,4,357,361,365,369;                                           0000355P0000365
100,0.,0.,0.,277.569688146,-71.962794524,188.824165794,          0000357P0000366
215.798540276;                                                   0000357P0000367
124,1.,0.,0.,413.212585,0.,1.,0.,2.914612255E+03,0.,0.,1.,0.;    0000359P0000368
100,0.,0.,0.,38.17472418,43.628153838,-38.17472418,              0000361P0000369
-43.628153838;                                                   0000361P0000370
124,1.,0.,0.,563.862026614,0.,1.,0.,3.086782641E+03,0.,0.,1.,0.; 0000363P0000371
100,0.,0.,0.,112.474717434,-128.542232601,165.336741254,         0000365P0000372
42.865249508;                                                    0000365P0000373
124,1.,0.,0.,413.212585,0.,-1.,0.,2.914612255E+03,0.,0.,-1.,0.;  0000367P0000374
100,0.,0.,0.,-56.116473446,14.548772508,56.116473446,            0000369P0000375
-14.548772508;                                                   0000369P0000376
124,1.,0.,0.,634.6657997,0.,1.,0.,2.857198233E+03,0.,0.,1.,0.;   0000371P0000377
102,4,375,379,383,387;                                           0000373P0000378
100,0.,0.,0.,277.56966929,-71.962865596,188.824267279,           0000375P0000379
215.798450924;                                                   0000375P0000380
124,1.,0.,0.,804.904937,0.,1.,0.,2.914612255E+03,0.,0.,1.,0.;    0000377P0000381
100,0.,0.,0.,38.174744695,43.62813577,-38.174744695,             0000379P0000382
-43.62813577;                                                    0000379P0000383
124,1.,0.,0.,955.554459584,0.,1.,0.,3.08678257E+03,0.,0.,1.,0.;  0000381P0000384
100,0.,0.,0.,112.474777889,-128.542179383,165.33673003,          0000383P0000385
42.865291844;                                                    0000383P0000386
124,1.,0.,0.,804.904937,0.,-1.,0.,2.914612255E+03,0.,0.,-1.,0.;  0000385P0000387
100,0.,0.,0.,-56.11646963,14.548786876,56.11646963,              0000387P0000388
-14.548786876;                                                   0000387P0000389
124,1.,0.,0.,1.026358137E+03,0.,1.,0.,2.857198176E+03,0.,0.,1.,  0000389P0000390
0.;                                                              0000389P0000391
102,4,393,397,401,405;                                           0000391P0000392
100,0.,0.,0.,277.569620806,-71.962912362,188.824267279,          0000393P0000393
215.798404157;                                                   0000393P0000394
124,1.,0.,0.,1.196597289E+03,0.,1.,0.,2.914612302E+03,0.,0.,1.,  0000395P0000395
0.;                                                              0000395P0000396
100,0.,0.,0.,38.174733053,43.62811301,-38.174733053,             0000397P0000397
-43.62811301;                                                    0000397P0000398
124,1.,0.,0.,1.347246823E+03,0.,1.,0.,3.086782593E+03,0.,0.,1.,  0000399P0000399
0.;                                                              0000399P0000400
100,0.,0.,0.,112.474801173,-128.542178136,165.336735377,         0000401P0000401
42.865328575;                                                    0000401P0000402
124,1.,0.,0.,1.196597289E+03,0.,-1.,0.,2.914612302E+03,0.,0.,    0000403P0000403
-1.,0.;                                                          0000403P0000404
100,0.,0.,0.,-56.116442715,14.548791894,56.116442715,            0000405P0000405
-14.548791894;                                                   0000405P0000406
124,1.,0.,0.,1.418050467E+03,0.,1.,0.,2.857198181E+03,0.,0.,1.,  0000407P0000407
0.;                                                              0000407P0000408
102,4,411,415,419,423;                                           0000409P0000409
100,0.,0.,0.,277.569598387,-71.96283009,188.824173622,           0000411P0000410
215.798429835;                                                   0000411P0000411
124,1.,0.,0.,1.588289641E+03,0.,1.,0.,2.914612276E+03,0.,0.,1.,  0000413P0000412
0.;                                                              0000413P0000413
100,0.,0.,0.,38.174709576,43.62811301,-38.174709576,             0000415P0000414
-43.62811301;                                                    0000415P0000415
124,1.,0.,0.,1.738939105E+03,0.,1.,0.,3.086782593E+03,0.,0.,1.,  0000417P0000416
0.;                                                              0000417P0000417
100,0.,0.,0.,112.47475447,-128.542203814,165.336735377,          0000419P0000418
42.865283031;                                                    0000419P0000419
124,1.,0.,0.,1.588289641E+03,0.,-1.,0.,2.914612276E+03,0.,0.,    0000421P0000420
-1.,0.;                                                          0000421P0000421
100,0.,0.,0.,-56.116431505,14.54877353,56.116431505,             0000423P0000422
-14.54877353;                                                    0000423P0000423
124,1.,0.,0.,1.809742808E+03,0.,1.,0.,2.85719822E+03,0.,0.,1.,   0000425P0000424
0.;                                                              0000425P0000425
102,4,429,433,437,441;                                           0000427P0000426
100,0.,0.,0.,277.56972725,-71.962809781,188.824172622,           0000429P0000427
215.798589687;                                                   0000429P0000428
124,1.,0.,0.,724.88739,0.,1.,0.,1.883214616E+03,0.,0.,1.,0.;     0000431P0000429
100,0.,0.,0.,38.174737301,43.628177245,-38.174737301,            0000433P0000430
-43.628177245;                                                   0000433P0000431
124,1.,0.,0.,875.536825321,0.,1.,0.,2.055385029E+03,0.,0.,1.,0.; 0000435P0000432
100,0.,0.,0.,112.47469802,-128.542235198,165.33673003,           0000437P0000433
42.865249647;                                                    0000437P0000434
124,1.,0.,0.,724.88739,0.,-1.,0.,1.883214616E+03,0.,0.,-1.,0.;   0000439P0000435
100,0.,0.,0.,-56.11649861,14.548780067,56.11649861,              0000441P0000436
-14.548780067;                                                   0000441P0000437
124,1.,0.,0.,946.34061864,0.,1.,0.,1.825800586E+03,0.,0.,1.,0.;  0000443P0000438
102,4,447,451,455,459;                                           0000445P0000439
100,0.,0.,0.,277.569639852,-71.962831879,188.824172622,          0000447P0000440
215.79848464;                                                    0000447P0000441
124,1.,0.,0.,1.116579742E+03,0.,1.,0.,1.883214638E+03,0.,0.,1.,  0000449P0000442
0.;                                                              0000449P0000443
100,0.,0.,0.,38.174719594,43.62813577,-38.174719594,             0000451P0000444
-43.62813577;                                                    0000451P0000445
124,1.,0.,0.,1.267229195E+03,0.,1.,0.,2.055384987E+03,0.,0.,1.,  0000453P0000446
0.;                                                              0000453P0000447
100,0.,0.,0.,112.474733435,-128.5422131,165.33673003,            0000455P0000448
42.865276307;                                                    0000455P0000449
124,1.,0.,0.,1.116579742E+03,0.,-1.,0.,1.883214638E+03,0.,0.,    0000457P0000450
-1.,0.;                                                          0000457P0000451
100,0.,0.,0.,-56.116454911,14.548777786,56.116454911,            0000459P0000452
-14.548777786;                                                   0000459P0000453
124,1.,0.,0.,1.338032927E+03,0.,1.,0.,1.825800584E+03,0.,0.,1.,  0000461P0000454
0.;                                                              0000461P0000455
102,4,465,469,473,477;                                           0000463P0000456
100,0.,0.,0.,277.569763397,-71.962794586,188.824267279,          0000465P0000457
215.798548288;                                                   0000465P0000458
124,1.,0.,0.,1.508272094E+03,0.,1.,0.,1.883214658E+03,0.,0.,1.,  0000467P0000459
0.;                                                              0000467P0000460
100,0.,0.,0.,38.174763761,43.628177245,-38.174763761,            0000469P0000461
-43.628177245;                                                   0000469P0000462
124,1.,0.,0.,1.658921598E+03,0.,1.,0.,2.055385029E+03,0.,0.,1.,  0000471P0000463
0.;                                                              0000471P0000464
100,0.,0.,0.,112.474739756,-128.542193799,165.33673003,          0000473P0000465
42.865235014;                                                    0000473P0000466
124,1.,0.,0.,1.508272094E+03,0.,-1.,0.,1.883214658E+03,0.,0.,    0000475P0000467
-1.,0.;                                                          0000475P0000468
100,0.,0.,0.,-56.116516683,14.548779786,56.116516683,            0000477P0000469
-14.548779786;                                                   0000477P0000470
124,1.,0.,0.,1.729725341E+03,0.,1.,0.,1.825800643E+03,0.,0.,1.,  0000479P0000471
0.;                                                              0000479P0000472
102,4,483,487,491,495;                                           0000481P0000473
100,0.,0.,0.,277.569591679,-71.962879002,188.824173622,          0000483P0000474
215.798437517;                                                   0000483P0000475
124,1.,0.,0.,1.899964446E+03,0.,1.,0.,1.883214685E+03,0.,0.,1.,  0000485P0000476
0.;                                                              0000485P0000477
100,0.,0.,0.,38.174708217,43.62811301,-38.174708217,             0000487P0000478
-43.62811301;                                                    0000487P0000479
124,1.,0.,0.,2.050613911E+03,0.,1.,0.,2.05538501E+03,0.,0.,1.,   0000489P0000480
0.;                                                              0000489P0000481
100,0.,0.,0.,112.474757188,-128.542211496,165.336735377,         0000491P0000482
42.865313202;                                                    0000491P0000483
124,1.,0.,0.,1.899964446E+03,0.,-1.,0.,1.883214685E+03,0.,0.,    0000493P0000484
-1.,0.;                                                          0000493P0000485
100,0.,0.,0.,-56.116428151,14.5487829,56.116428151,-14.5487829;  0000495P0000486
124,1.,0.,0.,2.12141761E+03,0.,1.,0.,1.825800589E+03,0.,0.,1.,   0000497P0000487
0.;                                                              0000497P0000488
102,4,501,505,509,513;                                           0000499P0000489
100,0.,0.,0.,277.569739142,-71.962756526,188.824173622,          0000501P0000490
215.798586349;                                                   0000501P0000491
124,1.,0.,0.,2.291656798E+03,0.,1.,0.,1.88321462E+03,0.,0.,1.,   0000503P0000492
0.;                                                              0000503P0000493
100,0.,0.,0.,38.174738094,43.628177245,-38.174738094,            0000505P0000494
-43.628177245;                                                   0000505P0000495
124,1.,0.,0.,2.442306234E+03,0.,1.,0.,2.055385029E+03,0.,0.,1.,  0000507P0000496
0.;                                                              0000507P0000497
100,0.,0.,0.,112.474697434,-128.542231859,165.336735377,         0000509P0000498
42.865217475;                                                    0000509P0000499
124,1.,0.,0.,2.291656798E+03,0.,-1.,0.,1.88321462E+03,0.,0.,-1., 0000511P0000500
0.;                                                              0000511P0000501
100,0.,0.,0.,-56.116501883,14.548769526,56.116501883,            0000513P0000502
-14.548769526;                                                   0000513P0000503
124,1.,0.,0.,2.513110035E+03,0.,1.,0.,1.825800633E+03,0.,0.,1.,  0000515P0000504
0.;                                                              0000515P0000505
102,4,519,523,527,531;                                           0000517P0000506
100,0.,0.,0.,228.017329968,-458.928675017,512.448199762,         0000519P0000507
-2.067384667;                                                    0000519P0000508
124,1.,0.,0.,1.65866928E+03,0.,1.,0.,3.649486178E+03,0.,0.,1.,   0000521P0000509
0.;                                                              0000521P0000510
100,0.,0.,0.,103.6020784,-0.417964876,-103.6020784,0.417964876;  0000523P0000511
124,1.,0.,0.,2.067515401E+03,0.,1.,0.,3.647836758E+03,0.,0.,1.,  0000525P0000512
0.;                                                              0000525P0000513
100,0.,0.,0.,305.244042963,1.231454915,135.820423795,            0000527P0000514
273.364691805;                                                   0000527P0000515
124,1.,0.,0.,1.65866928E+03,0.,-1.,0.,3.649486178E+03,0.,0.,-1., 0000529P0000516
0.;                                                              0000529P0000517
100,0.,0.,0.,-46.098453086,92.781991606,46.098453086,            0000531P0000518
-92.781991606;                                                   0000531P0000519
124,1.,0.,0.,1.840588157E+03,0.,1.,0.,3.283339495E+03,0.,0.,1.,  0000533P0000520
0.;                                                              0000533P0000521
110,2.044427856E+03,4.106501953E+03,0.,2.932159912E+03,          0000535P0000522
3.480765137E+03,0.;                                              0000535P0000523
110,-2.E+100,0.,0.,2.E+100,0.,0.,0,1,547;                        0000537P0000524
110,0.,-2.E+100,2.220446049E+84,0.,2.E+100,-2.220446049E+84,0,1, 0000539P0000525
555;                                                             0000539P0000526
110,0.,-2.220446049E+84,-2.E+100,0.,2.220446049E+84,2.E+100,0,1, 0000541P0000527
549;                                                             0000541P0000528
116,0.,0.,0.,0;                                                  0000543P0000529
406,1,4HXY__;                                                    0000545P0000530
406,1,2HX_;                                                      0000547P0000531
406,1,2HZ_;                                                      0000549P0000532
406,1,4HXZ__;                                                    0000551P0000533
406,1,4HYZ__;                                                    0000553P0000534
406,1,2HY_;                                                      0000555P0000535
406,1,15Hsmart_glasses_0;                                        0000557P0000536
S      1G      4D    558P    536                                        T0000001
