ISO-10303-21;
HEADER;
FILE_DESCRIPTION(('FreeCAD Model'),'2;1');
FILE_NAME('Open CASCADE Shape Model','2026-07-27T10:30:48',(''),(''),
  'Open CASCADE STEP processor 7.8','FreeCAD','Unknown');
FILE_SCHEMA(('AUTOMOTIVE_DESIGN { 1 0 10303 214 1 1 1 1 }'));
ENDSEC;
DATA;
#1 = APPLICATION_PROTOCOL_DEFINITION('international standard',
  'automotive_design',2000,#2);
#2 = APPLICATION_CONTEXT(
  'core data for automotive mechanical design processes');
#3 = SHAPE_DEFINITION_REPRESENTATION(#4,#10);
#4 = PRODUCT_DEFINITION_SHAPE('','',#5);
#5 = PRODUCT_DEFINITION('design','',#6,#9);
#6 = PRODUCT_DEFINITION_FORMATION('','',#7);
#7 = PRODUCT('smart_glasses_0','smart_glasses_0','',(#8));
#8 = PRODUCT_CONTEXT('',#2,'mechanical');
#9 = PRODUCT_DEFINITION_CONTEXT('part definition',#2,'design');
#10 = SHAPE_REPRESENTATION('',(#11,#15,#19,#23,#27,#31,#35,#39,#43,#47),
  #51);
#11 = AXIS2_PLACEMENT_3D('',#12,#13,#14);
#12 = CARTESIAN_POINT('',(0.,0.,0.));
#13 = DIRECTION('',(0.,0.,1.));
#14 = DIRECTION('',(1.,0.,-0.));
#15 = AXIS2_PLACEMENT_3D('',#16,#17,#18);
#16 = CARTESIAN_POINT('',(0.,0.,0.));
#17 = DIRECTION('',(0.,0.,1.));
#18 = DIRECTION('',(1.,0.,0.));
#19 = AXIS2_PLACEMENT_3D('',#20,#21,#22);
#20 = CARTESIAN_POINT('',(0.,0.,0.));
#21 = DIRECTION('',(1.,1.232595164408E-32,1.110223024625E-16));
#22 = DIRECTION('',(0.,1.,-1.110223024625E-16));
#23 = AXIS2_PLACEMENT_3D('',#24,#25,#26);
#24 = CARTESIAN_POINT('',(0.,0.,0.));
#25 = DIRECTION('',(0.,-1.,1.110223024625E-16));
#26 = DIRECTION('',(0.,1.110223024625E-16,1.));
#27 = AXIS2_PLACEMENT_3D('',#28,#29,#30);
#28 = CARTESIAN_POINT('',(0.,0.,0.));
#29 = DIRECTION('',(0.,0.,1.));
#30 = DIRECTION('',(1.,0.,0.));
#31 = AXIS2_PLACEMENT_3D('',#32,#33,#34);
#32 = CARTESIAN_POINT('',(0.,0.,0.));
#33 = DIRECTION('',(0.,-1.,-2.22044604925E-16));
#34 = DIRECTION('',(1.,0.,0.));
#35 = AXIS2_PLACEMENT_3D('',#36,#37,#38);
#36 = CARTESIAN_POINT('',(0.,0.,0.));
#37 = DIRECTION('',(1.,1.232595164408E-32,1.110223024625E-16));
#38 = DIRECTION('',(0.,1.,-1.110223024625E-16));
#39 = AXIS2_PLACEMENT_3D('',#40,#41,#42);
#40 = CARTESIAN_POINT('',(0.,0.,0.));
#41 = DIRECTION('',(0.,0.,1.));
#42 = DIRECTION('',(1.,0.,0.));
#43 = AXIS2_PLACEMENT_3D('',#44,#45,#46);
#44 = CARTESIAN_POINT('',(0.,0.,0.));
#45 = DIRECTION('',(0.,0.,1.));
#46 = DIRECTION('',(1.,0.,0.));
#47 = AXIS2_PLACEMENT_3D('',#48,#49,#50);
#48 = CARTESIAN_POINT('',(0.,0.,0.));
#49 = DIRECTION('',(0.,0.,1.));
#50 = DIRECTION('',(1.,0.,-0.));
#51 = ( GEOMETRIC_REPRESENTATION_CONTEXT(3) 
GLOBAL_UNCERTAINTY_ASSIGNED_CONTEXT((#55)) GLOBAL_UNIT_ASSIGNED_CONTEXT(
(#52,#53,#54)) REPRESENTATION_CONTEXT('Context #1',
  '3D Context with UNIT and UNCERTAINTY') );
#52 = ( LENGTH_UNIT() NAMED_UNIT(*) SI_UNIT(.MILLI.,.METRE.) );
#53 = ( NAMED_UNIT(*) PLANE_ANGLE_UNIT() SI_UNIT($,.RADIAN.) );
#54 = ( NAMED_UNIT(*) SI_UNIT($,.STERADIAN.) SOLID_ANGLE_UNIT() );
#55 = UNCERTAINTY_MEASURE_WITH_UNIT(LENGTH_MEASURE(1.E-07),#52,
  'distance_accuracy_value','confusion accuracy');
#56 = PRODUCT_RELATED_PRODUCT_CATEGORY('part',$,(#7));
#57 = SHAPE_DEFINITION_REPRESENTATION(#58,#64);
#58 = PRODUCT_DEFINITION_SHAPE('','',#59);
#59 = PRODUCT_DEFINITION('design','',#60,#63);
#60 = PRODUCT_DEFINITION_FORMATION('','',#61);
#61 = PRODUCT('X轴','X轴','',(#62));
#62 = PRODUCT_CONTEXT('',#2,'mechanical');
#63 = PRODUCT_DEFINITION_CONTEXT('part definition',#2,'design');
#64 = GEOMETRICALLY_BOUNDED_WIREFRAME_SHAPE_REPRESENTATION('',(#11,#65),
  #70);
#65 = GEOMETRIC_CURVE_SET('',(#66));
#66 = LINE('',#67,#68);
#67 = CARTESIAN_POINT('',(0.,0.,0.));
#68 = VECTOR('',#69,1.);
#69 = DIRECTION('',(1.,0.,0.));
#70 = ( GEOMETRIC_REPRESENTATION_CONTEXT(3) 
GLOBAL_UNCERTAINTY_ASSIGNED_CONTEXT((#74)) GLOBAL_UNIT_ASSIGNED_CONTEXT(
(#71,#72,#73)) REPRESENTATION_CONTEXT('Context #1',
  '3D Context with UNIT and UNCERTAINTY') );
#71 = ( LENGTH_UNIT() NAMED_UNIT(*) SI_UNIT(.MILLI.,.METRE.) );
#72 = ( NAMED_UNIT(*) PLANE_ANGLE_UNIT() SI_UNIT($,.RADIAN.) );
#73 = ( NAMED_UNIT(*) SI_UNIT($,.STERADIAN.) SOLID_ANGLE_UNIT() );
#74 = UNCERTAINTY_MEASURE_WITH_UNIT(LENGTH_MEASURE(1.E-07),#71,
  'distance_accuracy_value','confusion accuracy');
#75 = CONTEXT_DEPENDENT_SHAPE_REPRESENTATION(#76,#78);
#76 = ( REPRESENTATION_RELATIONSHIP('','',#64,#10) 
REPRESENTATION_RELATIONSHIP_WITH_TRANSFORMATION(#77) 
SHAPE_REPRESENTATION_RELATIONSHIP() );
#77 = ITEM_DEFINED_TRANSFORMATION('','',#11,#15);
#78 = PRODUCT_DEFINITION_SHAPE('Placement','Placement of an item',#79);
#79 = NEXT_ASSEMBLY_USAGE_OCCURRENCE('470','X轴','',#5,#59,$);
#80 = PRODUCT_RELATED_PRODUCT_CATEGORY('part',$,(#61));
#81 = CONTEXT_DEPENDENT_SHAPE_REPRESENTATION(#82,#84);
#82 = ( REPRESENTATION_RELATIONSHIP('','',#64,#10) 
REPRESENTATION_RELATIONSHIP_WITH_TRANSFORMATION(#83) 
SHAPE_REPRESENTATION_RELATIONSHIP() );
#83 = ITEM_DEFINED_TRANSFORMATION('','',#11,#19);
#84 = PRODUCT_DEFINITION_SHAPE('Placement','Placement of an item',#85);
#85 = NEXT_ASSEMBLY_USAGE_OCCURRENCE('471','Y轴','',#5,#59,$);
#86 = CONTEXT_DEPENDENT_SHAPE_REPRESENTATION(#87,#89);
#87 = ( REPRESENTATION_RELATIONSHIP('','',#64,#10) 
REPRESENTATION_RELATIONSHIP_WITH_TRANSFORMATION(#88) 
SHAPE_REPRESENTATION_RELATIONSHIP() );
#88 = ITEM_DEFINED_TRANSFORMATION('','',#11,#23);
#89 = PRODUCT_DEFINITION_SHAPE('Placement','Placement of an item',#90);
#90 = NEXT_ASSEMBLY_USAGE_OCCURRENCE('472','Z轴','',#5,#59,$);
#91 = SHAPE_DEFINITION_REPRESENTATION(#92,#98);
#92 = PRODUCT_DEFINITION_SHAPE('','',#93);
#93 = PRODUCT_DEFINITION('design','',#94,#97);
#94 = PRODUCT_DEFINITION_FORMATION('','',#95);
#95 = PRODUCT('XY平面','XY平面','',(#96));
#96 = PRODUCT_CONTEXT('',#2,'mechanical');
#97 = PRODUCT_DEFINITION_CONTEXT('part definition',#2,'design');
#98 = MANIFOLD_SURFACE_SHAPE_REPRESENTATION('',(#11),#99);
#99 = ( GEOMETRIC_REPRESENTATION_CONTEXT(3) 
GLOBAL_UNCERTAINTY_ASSIGNED_CONTEXT((#103)) GLOBAL_UNIT_ASSIGNED_CONTEXT
((#100,#101,#102)) REPRESENTATION_CONTEXT('Context #1',
  '3D Context with UNIT and UNCERTAINTY') );
#100 = ( LENGTH_UNIT() NAMED_UNIT(*) SI_UNIT(.MILLI.,.METRE.) );
#101 = ( NAMED_UNIT(*) PLANE_ANGLE_UNIT() SI_UNIT($,.RADIAN.) );
#102 = ( NAMED_UNIT(*) SI_UNIT($,.STERADIAN.) SOLID_ANGLE_UNIT() );
#103 = UNCERTAINTY_MEASURE_WITH_UNIT(LENGTH_MEASURE(1.E-07),#100,
  'distance_accuracy_value','confusion accuracy');
#104 = CONTEXT_DEPENDENT_SHAPE_REPRESENTATION(#105,#107);
#105 = ( REPRESENTATION_RELATIONSHIP('','',#98,#10) 
REPRESENTATION_RELATIONSHIP_WITH_TRANSFORMATION(#106) 
SHAPE_REPRESENTATION_RELATIONSHIP() );
#106 = ITEM_DEFINED_TRANSFORMATION('','',#11,#27);
#107 = PRODUCT_DEFINITION_SHAPE('Placement','Placement of an item',#108
  );
#108 = NEXT_ASSEMBLY_USAGE_OCCURRENCE('473','XY平面','',#5,#93,$);
#109 = PRODUCT_RELATED_PRODUCT_CATEGORY('part',$,(#95));
#110 = CONTEXT_DEPENDENT_SHAPE_REPRESENTATION(#111,#113);
#111 = ( REPRESENTATION_RELATIONSHIP('','',#98,#10) 
REPRESENTATION_RELATIONSHIP_WITH_TRANSFORMATION(#112) 
SHAPE_REPRESENTATION_RELATIONSHIP() );
#112 = ITEM_DEFINED_TRANSFORMATION('','',#11,#31);
#113 = PRODUCT_DEFINITION_SHAPE('Placement','Placement of an item',#114
  );
#114 = NEXT_ASSEMBLY_USAGE_OCCURRENCE('474','XZ平面','',#5,#93,$);
#115 = CONTEXT_DEPENDENT_SHAPE_REPRESENTATION(#116,#118);
#116 = ( REPRESENTATION_RELATIONSHIP('','',#98,#10) 
REPRESENTATION_RELATIONSHIP_WITH_TRANSFORMATION(#117) 
SHAPE_REPRESENTATION_RELATIONSHIP() );
#117 = ITEM_DEFINED_TRANSFORMATION('','',#11,#35);
#118 = PRODUCT_DEFINITION_SHAPE('Placement','Placement of an item',#119
  );
#119 = NEXT_ASSEMBLY_USAGE_OCCURRENCE('475','YZ平面','',#5,#93,$);
#120 = SHAPE_DEFINITION_REPRESENTATION(#121,#127);
#121 = PRODUCT_DEFINITION_SHAPE('','',#122);
#122 = PRODUCT_DEFINITION('design','',#123,#126);
#123 = PRODUCT_DEFINITION_FORMATION('','',#124);
#124 = PRODUCT('Sketch','Sketch','',(#125));
#125 = PRODUCT_CONTEXT('',#2,'mechanical');
#126 = PRODUCT_DEFINITION_CONTEXT('part definition',#2,'design');
#127 = SHAPE_REPRESENTATION('',(#11,#128,#219,#228,#237,#252,#260,#269,
    #278,#287,#296,#305,#314,#323,#384,#417),#434);
#128 = GEOMETRIC_CURVE_SET('',(#129,#136,#144,#151,#159,#166,#174,#181,
    #189,#196,#204,#211));
#129 = TRIMMED_CURVE('',#130,(#134,PARAMETER_VALUE(0.)),(#135,
    PARAMETER_VALUE(31.891012063322)),.T.,.PARAMETER.);
#130 = LINE('',#131,#132);
#131 = CARTESIAN_POINT('',(-44.64313054532,-12.86908882571,0.));
#132 = VECTOR('',#133,1.);
#133 = DIRECTION('',(-0.150096495878,0.988671351828,0.));
#134 = CARTESIAN_POINT('',(-44.64313054532,-12.86908882571,0.));
#135 = CARTESIAN_POINT('',(-49.42985970602,18.660641182089,0.));
#136 = TRIMMED_CURVE('',#137,(#142,PARAMETER_VALUE(2.643969638873)),(
    #143,PARAMETER_VALUE(3.292258527215)),.T.,.PARAMETER.);
#137 = CIRCLE('',#138,7.551601847461);
#138 = AXIS2_PLACEMENT_3D('',#139,#140,#141);
#139 = CARTESIAN_POINT('',(-41.96380729903,19.794110157659,0.));
#140 = DIRECTION('',(0.,0.,1.));
#141 = DIRECTION('',(1.,0.,-0.));
#142 = CARTESIAN_POINT('',(-48.59954837539,23.398778079961,0.));
#143 = CARTESIAN_POINT('',(-49.42985970602,18.660641182089,0.));
#144 = TRIMMED_CURVE('',#145,(#149,PARAMETER_VALUE(0.)),(#150,
    PARAMETER_VALUE(19.122134833413)),.T.,.PARAMETER.);
#145 = LINE('',#146,#147);
#146 = CARTESIAN_POINT('',(-39.47182323412,40.201774072718,0.));
#147 = VECTOR('',#148,1.);
#148 = DIRECTION('',(-0.477338185343,-0.878719669071,0.));
#149 = CARTESIAN_POINT('',(-39.47182323412,40.201774072718,0.));
#150 = CARTESIAN_POINT('',(-48.59954837539,23.398778079961,0.));
#151 = TRIMMED_CURVE('',#152,(#157,PARAMETER_VALUE(2.100476069912)),(
    #158,PARAMETER_VALUE(2.643969638873)),.T.,.PARAMETER.);
#152 = CIRCLE('',#153,5.293588);
#153 = AXIS2_PLACEMENT_3D('',#154,#155,#156);
#154 = CARTESIAN_POINT('',(-34.82024333856,37.674942382843,0.));
#155 = DIRECTION('',(0.,0.,1.));
#156 = DIRECTION('',(1.,0.,-0.));
#157 = CARTESIAN_POINT('',(-37.49486570622,42.243144338111,0.));
#158 = CARTESIAN_POINT('',(-39.47182323412,40.201774072718,0.));
#159 = TRIMMED_CURVE('',#160,(#164,PARAMETER_VALUE(0.)),(#165,
    PARAMETER_VALUE(2.184651476628)),.T.,.PARAMETER.);
#160 = LINE('',#161,#162);
#161 = CARTESIAN_POINT('',(-37.49486570622,42.243144338111,0.));
#162 = VECTOR('',#163,1.);
#163 = DIRECTION('',(0.862968926797,0.505256995382,0.));
#164 = CARTESIAN_POINT('',(-37.49486570622,42.243144338111,0.));
#165 = CARTESIAN_POINT('',(-35.60957936601,43.346954779148,0.));
#166 = TRIMMED_CURVE('',#167,(#172,PARAMETER_VALUE(5.799779151209)),(
    #173,PARAMETER_VALUE(8.383661377091)),.T.,.PARAMETER.);
#167 = CIRCLE('',#168,0.501906);
#168 = AXIS2_PLACEMENT_3D('',#169,#170,#171);
#169 = CARTESIAN_POINT('',(-35.35598784849,42.913825496975,0.));
#170 = DIRECTION('',(0.,0.,1.));
#171 = DIRECTION('',(1.,0.,-0.));
#172 = CARTESIAN_POINT('',(-34.91159179964,42.680540725495,0.));
#173 = CARTESIAN_POINT('',(-35.60957936601,43.346954779148,0.));
#174 = TRIMMED_CURVE('',#175,(#179,PARAMETER_VALUE(0.)),(#180,
    PARAMETER_VALUE(23.629608980207)),.T.,.PARAMETER.);
#175 = LINE('',#176,#177);
#176 = CARTESIAN_POINT('',(-34.91159179964,42.680540725495,0.));
#177 = VECTOR('',#178,1.);
#178 = DIRECTION('',(-0.464797733997,-0.885416888517,0.));
#179 = CARTESIAN_POINT('',(-34.91159179964,42.680540725495,0.));
#180 = CARTESIAN_POINT('',(-45.89458050887,21.758485865361,0.));
#181 = TRIMMED_CURVE('',#182,(#187,PARAMETER_VALUE(2.658186497619)),(
    #188,PARAMETER_VALUE(3.249020751856)),.T.,.PARAMETER.);
#182 = CIRCLE('',#183,2.618624);
#183 = AXIS2_PLACEMENT_3D('',#184,#185,#186);
#184 = CARTESIAN_POINT('',(-43.57600659459,20.541355363972,0.));
#185 = DIRECTION('',(0.,0.,1.));
#186 = DIRECTION('',(1.,0.,-0.));
#187 = CARTESIAN_POINT('',(-45.89458050887,21.758485865361,0.));
#188 = CARTESIAN_POINT('',(-46.17953461819,20.260582352965,0.));
#189 = TRIMMED_CURVE('',#190,(#194,PARAMETER_VALUE(0.)),(#195,
    PARAMETER_VALUE(33.060262976212)),.T.,.PARAMETER.);
#190 = LINE('',#191,#192);
#191 = CARTESIAN_POINT('',(-46.17953461819,20.260582352965,0.));
#192 = VECTOR('',#193,1.);
#193 = DIRECTION('',(0.10722158317,-0.994235149299,0.));
#194 = CARTESIAN_POINT('',(-46.17953461819,20.260582352965,0.));
#195 = CARTESIAN_POINT('',(-42.63476088186,-12.60909314306,0.));
#196 = TRIMMED_CURVE('',#197,(#202,PARAMETER_VALUE(4.836744579034)),(
    #203,PARAMETER_VALUE(6.390613405446)),.T.,.PARAMETER.);
#197 = CIRCLE('',#198,0.995334);
#198 = AXIS2_PLACEMENT_3D('',#199,#200,#201);
#199 = CARTESIAN_POINT('',(-43.62435692995,-12.71581443033,0.));
#200 = DIRECTION('',(0.,0.,1.));
#201 = DIRECTION('',(1.,0.,-0.));
#202 = CARTESIAN_POINT('',(-43.50090034479,-13.70346226389,0.));
#203 = CARTESIAN_POINT('',(-42.63476088186,-12.60909314306,0.));
#204 = TRIMMED_CURVE('',#205,(#209,PARAMETER_VALUE(0.)),(#210,
    PARAMETER_VALUE(3.445852750002E-02)),.T.,.PARAMETER.);
#205 = LINE('',#206,#207);
#206 = CARTESIAN_POINT('',(-43.50090034479,-13.70346226389,0.));
#207 = VECTOR('',#208,1.);
#208 = DIRECTION('',(-0.992277801784,-0.124035334027,0.));
#209 = CARTESIAN_POINT('',(-43.50090034479,-13.70346226389,0.));
#210 = CARTESIAN_POINT('',(-43.53509277671,-13.70773633886,0.));
#211 = TRIMMED_CURVE('',#212,(#217,PARAMETER_VALUE(3.292258527215)),(
    #218,PARAMETER_VALUE(4.836744579034)),.T.,.PARAMETER.);
#212 = CIRCLE('',#213,0.995804);
#213 = AXIS2_PLACEMENT_3D('',#214,#215,#216);
#214 = CARTESIAN_POINT('',(-43.65860765848,-12.71962213473,0.));
#215 = DIRECTION('',(0.,0.,1.));
#216 = DIRECTION('',(1.,0.,-0.));
#217 = CARTESIAN_POINT('',(-44.64313054532,-12.86908882571,0.));
#218 = CARTESIAN_POINT('',(-43.53509277671,-13.70773633886,0.));
#219 = GEOMETRIC_CURVE_SET('',(#220));
#220 = TRIMMED_CURVE('',#221,(#226,PARAMETER_VALUE(0.189378)),(#227,
    PARAMETER_VALUE(3.00877)),.T.,.PARAMETER.);
#221 = CIRCLE('',#222,14.960243);
#222 = AXIS2_PLACEMENT_3D('',#223,#224,#225);
#223 = CARTESIAN_POINT('',(35.37559,33.926314,0.));
#224 = DIRECTION('',(0.,0.,1.));
#225 = DIRECTION('',(1.,0.,-0.));
#226 = CARTESIAN_POINT('',(50.068366525636,36.742550599929,0.));
#227 = CARTESIAN_POINT('',(20.547116343809,35.907535756066,0.));
#228 = GEOMETRIC_CURVE_SET('',(#229));
#229 = TRIMMED_CURVE('',#230,(#235,PARAMETER_VALUE(3.038766)),(#236,
    PARAMETER_VALUE(5.282701)),.T.,.PARAMETER.);
#230 = CIRCLE('',#231,7.904988);
#231 = AXIS2_PLACEMENT_3D('',#232,#233,#234);
#232 = CARTESIAN_POINT('',(26.749602,16.206119,0.));
#233 = DIRECTION('',(0.,0.,1.));
#234 = DIRECTION('',(1.,0.,-0.));
#235 = CARTESIAN_POINT('',(18.886368177098,17.017530810683,0.));
#236 = CARTESIAN_POINT('',(31.017463220255,9.55223322665,0.));
#237 = GEOMETRIC_CURVE_SET('',(#238,#245));
#238 = TRIMMED_CURVE('',#239,(#243,PARAMETER_VALUE(0.)),(#244,
    PARAMETER_VALUE(23.985029520015)),.T.,.PARAMETER.);
#239 = LINE('',#240,#241);
#240 = CARTESIAN_POINT('',(-113.726379,52.477703,0.));
#241 = VECTOR('',#242,1.);
#242 = DIRECTION('',(0.838641035785,-0.544684507855,0.));
#243 = CARTESIAN_POINT('',(-113.726379,52.477703,0.));
#244 = CARTESIAN_POINT('',(-93.611549,39.413429,0.));
#245 = TRIMMED_CURVE('',#246,(#250,PARAMETER_VALUE(0.)),(#251,
    PARAMETER_VALUE(22.508181606453)),.T.,.PARAMETER.);
#246 = LINE('',#247,#248);
#247 = CARTESIAN_POINT('',(-93.611549,39.413429,0.));
#248 = VECTOR('',#249,1.);
#249 = DIRECTION('',(-0.875241605228,-0.483685985405,0.));
#250 = CARTESIAN_POINT('',(-93.611549,39.413429,0.));
#251 = CARTESIAN_POINT('',(-113.311646,28.526537,0.));
#252 = GEOMETRIC_CURVE_SET('',(#253));
#253 = TRIMMED_CURVE('',#254,(#258,PARAMETER_VALUE(0.)),(#259,
    PARAMETER_VALUE(30.284026850077)),.T.,.PARAMETER.);
#254 = LINE('',#255,#256);
#255 = CARTESIAN_POINT('',(-108.049,31.0762,0.));
#256 = VECTOR('',#257,1.);
#257 = DIRECTION('',(0.990296374669,-0.138971544994,0.));
#258 = CARTESIAN_POINT('',(-108.049,31.0762,0.));
#259 = CARTESIAN_POINT('',(-78.058838,26.867582,0.));
#260 = GEOMETRIC_CURVE_SET('',(#261));
#261 = TRIMMED_CURVE('',#262,(#267,PARAMETER_VALUE(5.95658930718)),(#268
    ,PARAMETER_VALUE(6.68645730718)),.T.,.PARAMETER.);
#262 = ELLIPSE('',#263,2.459988396383,2.013024432122);
#263 = AXIS2_PLACEMENT_3D('',#264,#265,#266);
#264 = CARTESIAN_POINT('',(-126.740952,52.1553,0.));
#265 = DIRECTION('',(-0.,0.,1.));
#266 = DIRECTION('',(0.939421910851,-0.342762998899,0.));
#267 = CARTESIAN_POINT('',(-124.7735061973,50.749980648234,0.));
#268 = CARTESIAN_POINT('',(-124.3445935421,52.121862514929,0.));
#269 = GEOMETRIC_CURVE_SET('',(#270));
#270 = TRIMMED_CURVE('',#271,(#276,PARAMETER_VALUE(2.495549)),(#277,
    PARAMETER_VALUE(7.741846)),.T.,.PARAMETER.);
#271 = ELLIPSE('',#272,2.459321829994,1.517753856226);
#272 = AXIS2_PLACEMENT_3D('',#273,#274,#275);
#273 = CARTESIAN_POINT('',(-115.560875,46.815094,0.));
#274 = DIRECTION('',(0.,0.,1.));
#275 = DIRECTION('',(-0.596702303091,-0.802462685416,0.));
#276 = CARTESIAN_POINT('',(-113.6558916052,47.84566075799,0.));
#277 = CARTESIAN_POINT('',(-114.5147960674,45.694297053177,0.));
#278 = GEOMETRIC_CURVE_SET('',(#279));
#279 = TRIMMED_CURVE('',#280,(#285,PARAMETER_VALUE(3.752059)),(#286,
    PARAMETER_VALUE(5.092766)),.T.,.PARAMETER.);
#280 = CIRCLE('',#281,3.252364);
#281 = AXIS2_PLACEMENT_3D('',#282,#283,#284);
#282 = CARTESIAN_POINT('',(-99.373681,57.486163,0.));
#283 = DIRECTION('',(0.,0.,1.));
#284 = DIRECTION('',(1.,0.,-0.));
#285 = CARTESIAN_POINT('',(-102.0386055317,55.621746515318,0.));
#286 = CARTESIAN_POINT('',(-98.16617397094,54.466262610373,0.));
#287 = GEOMETRIC_CURVE_SET('',(#288));
#288 = TRIMMED_CURVE('',#289,(#294,PARAMETER_VALUE(-2.274973728673)),(
    #295,PARAMETER_VALUE(-4.471045021863E-02)),.T.,.PARAMETER.);
#289 = PARABOLA('',#290,4.594456943434);
#290 = AXIS2_PLACEMENT_3D('',#291,#292,#293);
#291 = CARTESIAN_POINT('',(-131.4193082125,69.631046265326,0.));
#292 = DIRECTION('',(0.,0.,1.));
#293 = DIRECTION('',(-0.817146047113,0.576430687669,0.));
#294 = CARTESIAN_POINT('',(-130.3380656152,71.652364633779,0.));
#295 = CARTESIAN_POINT('',(-131.393624621,69.667643933487,0.));
#296 = GEOMETRIC_CURVE_SET('',(#297));
#297 = TRIMMED_CURVE('',#298,(#303,PARAMETER_VALUE(1.543067394595)),(
    #304,PARAMETER_VALUE(1.920237189123)),.T.,.PARAMETER.);
#298 = PARABOLA('',#299,4.976016254395);
#299 = AXIS2_PLACEMENT_3D('',#300,#301,#302);
#300 = CARTESIAN_POINT('',(-128.3399941315,69.748722005909,0.));
#301 = DIRECTION('',(0.,0.,1.));
#302 = DIRECTION('',(-0.96313340261,0.26902425314,0.));
#303 = CARTESIAN_POINT('',(-128.870333125,68.2947247308,0.));
#304 = CARTESIAN_POINT('',(-129.0350089775,67.949115290398,0.));
#305 = GEOMETRIC_CURVE_SET('',(#306));
#306 = TRIMMED_CURVE('',#307,(#312,PARAMETER_VALUE(0.)),(#313,
    PARAMETER_VALUE(6.28318530718)),.T.,.PARAMETER.);
#307 = ELLIPSE('',#308,4.91110427538,1.892232719291);
#308 = AXIS2_PLACEMENT_3D('',#309,#310,#311);
#309 = CARTESIAN_POINT('',(-117.407227,70.485779,0.));
#310 = DIRECTION('',(0.,0.,1.));
#311 = DIRECTION('',(-0.999908722081,1.351101428097E-02,0.));
#312 = CARTESIAN_POINT('',(-122.317883,70.552133,0.));
#313 = CARTESIAN_POINT('',(-122.317883,70.552133,0.));
#314 = GEOMETRIC_CURVE_SET('',(#315));
#315 = TRIMMED_CURVE('',#316,(#321,PARAMETER_VALUE(0.)),(#322,
    PARAMETER_VALUE(6.28318530718)),.T.,.PARAMETER.);
#316 = ELLIPSE('',#317,4.825588950534,3.736889957526);
#317 = AXIS2_PLACEMENT_3D('',#318,#319,#320);
#318 = CARTESIAN_POINT('',(-118.404388,64.656189,0.));
#319 = DIRECTION('',(0.,0.,1.));
#320 = DIRECTION('',(-0.974924107342,0.222537603391,0.));
#321 = CARTESIAN_POINT('',(-123.108971,65.730064,0.));
#322 = CARTESIAN_POINT('',(-123.108971,65.730064,0.));
#323 = GEOMETRIC_CURVE_SET('',(#324,#331,#339,#346,#354,#361,#369,#376)
  );
#324 = TRIMMED_CURVE('',#325,(#329,PARAMETER_VALUE(0.)),(#330,
    PARAMETER_VALUE(5.216683)),.T.,.PARAMETER.);
#325 = LINE('',#326,#327);
#326 = CARTESIAN_POINT('',(-140.751144,67.507431,0.));
#327 = VECTOR('',#328,1.);
#328 = DIRECTION('',(0.,-1.,0.));
#329 = CARTESIAN_POINT('',(-140.751144,67.507431,0.));
#330 = CARTESIAN_POINT('',(-140.751144,62.290748,0.));
#331 = TRIMMED_CURVE('',#332,(#337,PARAMETER_VALUE(3.14159265359)),(#338
    ,PARAMETER_VALUE(4.712388980385)),.T.,.PARAMETER.);
#332 = CIRCLE('',#333,0.549354999999);
#333 = AXIS2_PLACEMENT_3D('',#334,#335,#336);
#334 = CARTESIAN_POINT('',(-140.201789,62.290748,0.));
#335 = DIRECTION('',(0.,0.,1.));
#336 = DIRECTION('',(1.,0.,-0.));
#337 = CARTESIAN_POINT('',(-140.751144,62.290748,0.));
#338 = CARTESIAN_POINT('',(-140.201789,61.741393000001,0.));
#339 = TRIMMED_CURVE('',#340,(#344,PARAMETER_VALUE(0.)),(#345,
    PARAMETER_VALUE(1.509261000001)),.T.,.PARAMETER.);
#340 = LINE('',#341,#342);
#341 = CARTESIAN_POINT('',(-140.201789,61.741393000001,0.));
#342 = VECTOR('',#343,1.);
#343 = DIRECTION('',(1.,0.,0.));
#344 = CARTESIAN_POINT('',(-140.201789,61.741393000001,0.));
#345 = CARTESIAN_POINT('',(-138.6925279999,61.741393000001,0.));
#346 = TRIMMED_CURVE('',#347,(#352,PARAMETER_VALUE(4.712388980385)),(
    #353,PARAMETER_VALUE(6.28318530718)),.T.,.PARAMETER.);
#347 = CIRCLE('',#348,0.549354999999);
#348 = AXIS2_PLACEMENT_3D('',#349,#350,#351);
#349 = CARTESIAN_POINT('',(-138.6925279999,62.290748,0.));
#350 = DIRECTION('',(0.,0.,1.));
#351 = DIRECTION('',(1.,0.,-0.));
#352 = CARTESIAN_POINT('',(-138.6925279999,61.741393000001,0.));
#353 = CARTESIAN_POINT('',(-138.143173,62.290748,0.));
#354 = TRIMMED_CURVE('',#355,(#359,PARAMETER_VALUE(0.)),(#360,
    PARAMETER_VALUE(5.216683)),.T.,.PARAMETER.);
#355 = LINE('',#356,#357);
#356 = CARTESIAN_POINT('',(-138.143173,62.290748,0.));
#357 = VECTOR('',#358,1.);
#358 = DIRECTION('',(0.,1.,0.));
#359 = CARTESIAN_POINT('',(-138.143173,62.290748,0.));
#360 = CARTESIAN_POINT('',(-138.143173,67.507431,0.));
#361 = TRIMMED_CURVE('',#362,(#367,PARAMETER_VALUE(0.)),(#368,
    PARAMETER_VALUE(1.570796326795)),.T.,.PARAMETER.);
#362 = CIRCLE('',#363,0.549354999999);
#363 = AXIS2_PLACEMENT_3D('',#364,#365,#366);
#364 = CARTESIAN_POINT('',(-138.6925279999,67.507431,0.));
#365 = DIRECTION('',(0.,0.,1.));
#366 = DIRECTION('',(1.,0.,-0.));
#367 = CARTESIAN_POINT('',(-138.143173,67.507431,0.));
#368 = CARTESIAN_POINT('',(-138.6925279999,68.056785999999,0.));
#369 = TRIMMED_CURVE('',#370,(#374,PARAMETER_VALUE(0.)),(#375,
    PARAMETER_VALUE(1.509261000001)),.T.,.PARAMETER.);
#370 = LINE('',#371,#372);
#371 = CARTESIAN_POINT('',(-138.6925279999,68.056785999999,0.));
#372 = VECTOR('',#373,1.);
#373 = DIRECTION('',(-1.,0.,0.));
#374 = CARTESIAN_POINT('',(-138.6925279999,68.056785999999,0.));
#375 = CARTESIAN_POINT('',(-140.201789,68.056785999999,0.));
#376 = TRIMMED_CURVE('',#377,(#382,PARAMETER_VALUE(1.570796326795)),(
    #383,PARAMETER_VALUE(3.14159265359)),.T.,.PARAMETER.);
#377 = CIRCLE('',#378,0.549354999999);
#378 = AXIS2_PLACEMENT_3D('',#379,#380,#381);
#379 = CARTESIAN_POINT('',(-140.201789,67.507431,0.));
#380 = DIRECTION('',(0.,0.,1.));
#381 = DIRECTION('',(1.,0.,-0.));
#382 = CARTESIAN_POINT('',(-140.201789,68.056785999999,0.));
#383 = CARTESIAN_POINT('',(-140.751144,67.507431,0.));
#384 = GEOMETRIC_CURVE_SET('',(#385,#393,#401,#409));
#385 = TRIMMED_CURVE('',#386,(#391,PARAMETER_VALUE(2.835723729928)),(
    #392,PARAMETER_VALUE(4.284439038901)),.T.,.PARAMETER.);
#386 = CIRCLE('',#387,3.477628296582);
#387 = AXIS2_PLACEMENT_3D('',#388,#389,#390);
#388 = CARTESIAN_POINT('',(-131.648804,63.607886736038,0.));
#389 = DIRECTION('',(0.,0.,1.));
#390 = DIRECTION('',(1.,0.,-0.));
#391 = CARTESIAN_POINT('',(-134.9650204767,64.655076713346,0.));
#392 = CARTESIAN_POINT('',(-133.0920423294,60.443876354634,0.));
#393 = TRIMMED_CURVE('',#394,(#399,PARAMETER_VALUE(4.284439038911)),(
    #400,PARAMETER_VALUE(7.42603169249)),.T.,.PARAMETER.);
#394 = CIRCLE('',#395,0.273918148291);
#395 = AXIS2_PLACEMENT_3D('',#396,#397,#398);
#396 = CARTESIAN_POINT('',(-132.9783645188,60.693092139341,0.));
#397 = DIRECTION('',(0.,0.,1.));
#398 = DIRECTION('',(1.,0.,-0.));
#399 = CARTESIAN_POINT('',(-133.0920423294,60.443876354634,0.));
#400 = CARTESIAN_POINT('',(-132.8646867082,60.942307924047,0.));
#401 = TRIMMED_CURVE('',#402,(#407,PARAMETER_VALUE(2.835723729928)),(
    #408,PARAMETER_VALUE(4.2844390389)),.T.,.PARAMETER.);
#402 = CIRCLE('',#403,2.929792);
#403 = AXIS2_PLACEMENT_3D('',#404,#405,#406);
#404 = CARTESIAN_POINT('',(-131.648804,63.607886736038,0.));
#405 = DIRECTION('',(0.,0.,1.));
#406 = DIRECTION('',(1.,0.,-0.));
#407 = CARTESIAN_POINT('',(-134.4426116399,64.490111216732,0.));
#408 = CARTESIAN_POINT('',(-132.8646867082,60.942307924047,0.));
#409 = TRIMMED_CURVE('',#410,(#415,PARAMETER_VALUE(5.977316383518)),(
    #416,PARAMETER_VALUE(9.118909037108)),.T.,.PARAMETER.);
#410 = CIRCLE('',#411,0.273918148291);
#411 = AXIS2_PLACEMENT_3D('',#412,#413,#414);
#412 = CARTESIAN_POINT('',(-134.7038160583,64.572593965039,0.));
#413 = DIRECTION('',(0.,0.,1.));
#414 = DIRECTION('',(1.,0.,-0.));
#415 = CARTESIAN_POINT('',(-134.4426116399,64.490111216732,0.));
#416 = CARTESIAN_POINT('',(-134.9650204767,64.655076713346,0.));
#417 = GEOMETRIC_CURVE_SET('',(#418));
#418 = TRIMMED_CURVE('',#419,(#432,PARAMETER_VALUE(0.)),(#433,
    PARAMETER_VALUE(9.)),.T.,.PARAMETER.);
#419 = B_SPLINE_CURVE_WITH_KNOTS('',3,(#420,#421,#422,#423,#424,#425,
    #426,#427,#428,#429,#430,#431),.UNSPECIFIED.,.T.,.F.,(1,1,1,1,1,1,1,
    1,1,1,1,1,1,1,1,1),(-3.,-2.,-1.,0.,1.,2.,3.,4.,5.,6.,7.,8.,9.,10.,
    11.,12.),.UNIFORM_KNOTS.);
#420 = CARTESIAN_POINT('',(-107.921,65.6022,0.));
#421 = CARTESIAN_POINT('',(-105.799,65.0397,0.));
#422 = CARTESIAN_POINT('',(-107.501,66.509724104363,0.));
#423 = CARTESIAN_POINT('',(-108.919,64.196,0.));
#424 = CARTESIAN_POINT('',(-108.1,63.3011,0.));
#425 = CARTESIAN_POINT('',(-105.007,62.1249,0.));
#426 = CARTESIAN_POINT('',(-106.438,59.1846,0.));
#427 = CARTESIAN_POINT('',(-101.606,61.409,0.));
#428 = CARTESIAN_POINT('',(-101.478,61.23,0.));
#429 = CARTESIAN_POINT('',(-107.921,65.6022,0.));
#430 = CARTESIAN_POINT('',(-105.799,65.0397,0.));
#431 = CARTESIAN_POINT('',(-107.501,66.509724104363,0.));
#432 = CARTESIAN_POINT('',(-106.4363333333,65.378454017394,0.));
#433 = CARTESIAN_POINT('',(-106.4363333333,65.378454017394,0.));
#434 = ( GEOMETRIC_REPRESENTATION_CONTEXT(3) 
GLOBAL_UNCERTAINTY_ASSIGNED_CONTEXT((#438)) GLOBAL_UNIT_ASSIGNED_CONTEXT
((#435,#436,#437)) REPRESENTATION_CONTEXT('Context #1',
  '3D Context with UNIT and UNCERTAINTY') );
#435 = ( LENGTH_UNIT() NAMED_UNIT(*) SI_UNIT(.MILLI.,.METRE.) );
#436 = ( NAMED_UNIT(*) PLANE_ANGLE_UNIT() SI_UNIT($,.RADIAN.) );
#437 = ( NAMED_UNIT(*) SI_UNIT($,.STERADIAN.) SOLID_ANGLE_UNIT() );
#438 = UNCERTAINTY_MEASURE_WITH_UNIT(LENGTH_MEASURE(1.E-07),#435,
  'distance_accuracy_value','confusion accuracy');
#439 = CONTEXT_DEPENDENT_SHAPE_REPRESENTATION(#440,#442);
#440 = ( REPRESENTATION_RELATIONSHIP('','',#127,#10) 
REPRESENTATION_RELATIONSHIP_WITH_TRANSFORMATION(#441) 
SHAPE_REPRESENTATION_RELATIONSHIP() );
#441 = ITEM_DEFINED_TRANSFORMATION('','',#11,#39);
#442 = PRODUCT_DEFINITION_SHAPE('Placement','Placement of an item',#443
  );
#443 = NEXT_ASSEMBLY_USAGE_OCCURRENCE('476','Sketch','',#5,#122,$);
#444 = PRODUCT_RELATED_PRODUCT_CATEGORY('part',$,(#124));
#445 = SHAPE_DEFINITION_REPRESENTATION(#446,#452);
#446 = PRODUCT_DEFINITION_SHAPE('','',#447);
#447 = PRODUCT_DEFINITION('design','',#448,#451);
#448 = PRODUCT_DEFINITION_FORMATION('','',#449);
#449 = PRODUCT('Sketch001','Sketch001','',(#450));
#450 = PRODUCT_CONTEXT('',#2,'mechanical');
#451 = PRODUCT_DEFINITION_CONTEXT('part definition',#2,'design');
#452 = SHAPE_REPRESENTATION('',(#11,#453,#496,#504,#513,#522,#531,#540,
    #549,#558,#567,#628,#657,#686,#708,#737,#787,#851,#882,#913,#946,
    #979,#987,#995,#1003,#1036,#1069,#1102,#1135,#1168,#1201,#1234,#1267
    ,#1300,#1333),#1341);
#453 = GEOMETRIC_CURVE_SET('',(#454,#461,#468,#475,#482,#489));
#454 = TRIMMED_CURVE('',#455,(#459,PARAMETER_VALUE(0.)),(#460,
    PARAMETER_VALUE(45.979640252994)),.T.,.PARAMETER.);
#455 = LINE('',#456,#457);
#456 = CARTESIAN_POINT('',(-179.09565,100.41437,0.));
#457 = VECTOR('',#458,1.);
#458 = DIRECTION('',(0.988862217056,0.1488338526,0.));
#459 = CARTESIAN_POINT('',(-179.09565,100.41437,0.));
#460 = CARTESIAN_POINT('',(-133.628121,107.257697,0.));
#461 = TRIMMED_CURVE('',#462,(#466,PARAMETER_VALUE(0.)),(#467,
    PARAMETER_VALUE(22.19916763943)),.T.,.PARAMETER.);
#462 = LINE('',#463,#464);
#463 = CARTESIAN_POINT('',(-133.628121,107.257697,0.));
#464 = VECTOR('',#465,1.);
#465 = DIRECTION('',(7.541476451695E-02,-0.997152251812,0.));
#466 = CARTESIAN_POINT('',(-133.628121,107.257697,0.));
#467 = CARTESIAN_POINT('',(-131.953976,85.121747,0.));
#468 = TRIMMED_CURVE('',#469,(#473,PARAMETER_VALUE(0.)),(#474,
    PARAMETER_VALUE(46.683831837604)),.T.,.PARAMETER.);
#469 = LINE('',#470,#471);
#470 = CARTESIAN_POINT('',(-131.953976,85.121747,0.));
#471 = VECTOR('',#472,1.);
#472 = DIRECTION('',(0.99615034091,-8.766127027095E-02,0.));
#473 = CARTESIAN_POINT('',(-131.953976,85.121747,0.));
#474 = CARTESIAN_POINT('',(-85.449861,81.029383,0.));
#475 = TRIMMED_CURVE('',#476,(#480,PARAMETER_VALUE(0.)),(#481,
    PARAMETER_VALUE(24.818635228641)),.T.,.PARAMETER.);
#476 = LINE('',#477,#478);
#477 = CARTESIAN_POINT('',(-85.449861,81.029383,0.));
#478 = VECTOR('',#479,1.);
#479 = DIRECTION('',(-0.65206788572,-0.758160584845,0.));
#480 = CARTESIAN_POINT('',(-85.449861,81.029383,0.));
#481 = CARTESIAN_POINT('',(-101.633296,62.212872,0.));
#482 = TRIMMED_CURVE('',#483,(#487,PARAMETER_VALUE(0.)),(#488,
    PARAMETER_VALUE(67.523946)),.T.,.PARAMETER.);
#483 = LINE('',#484,#485);
#484 = CARTESIAN_POINT('',(-101.633296,62.212872,0.));
#485 = VECTOR('',#486,1.);
#486 = DIRECTION('',(-1.,0.,0.));
#487 = CARTESIAN_POINT('',(-101.633296,62.212872,0.));
#488 = CARTESIAN_POINT('',(-169.157242,62.212872,0.));
#489 = TRIMMED_CURVE('',#490,(#494,PARAMETER_VALUE(0.)),(#495,
    PARAMETER_VALUE(39.473109872652)),.T.,.PARAMETER.);
#490 = LINE('',#491,#492);
#491 = CARTESIAN_POINT('',(-169.157242,62.212872,0.));
#492 = VECTOR('',#493,1.);
#493 = DIRECTION('',(-0.25177666599,0.96778536384,0.));
#494 = CARTESIAN_POINT('',(-169.157242,62.212872,0.));
#495 = CARTESIAN_POINT('',(-179.09565,100.41437,0.));
#496 = GEOMETRIC_CURVE_SET('',(#497));
#497 = TRIMMED_CURVE('',#498,(#502,PARAMETER_VALUE(0.)),(#503,
    PARAMETER_VALUE(69.715562)),.T.,.PARAMETER.);
#498 = LINE('',#499,#500);
#499 = CARTESIAN_POINT('',(-171.369158,43.826092,0.));
#500 = VECTOR('',#501,1.);
#501 = DIRECTION('',(1.,0.,0.));
#502 = CARTESIAN_POINT('',(-171.369158,43.826092,0.));
#503 = CARTESIAN_POINT('',(-101.653596,43.826092,0.));
#504 = GEOMETRIC_CURVE_SET('',(#505));
#505 = TRIMMED_CURVE('',#506,(#511,PARAMETER_VALUE(5.441931471032)),(
    #512,PARAMETER_VALUE(7.536326573425)),.T.,.PARAMETER.);
#506 = CIRCLE('',#507,10.);
#507 = AXIS2_PLACEMENT_3D('',#508,#509,#510);
#508 = CARTESIAN_POINT('',(80.071224556299,191.16207517384,0.));
#509 = DIRECTION('',(0.,0.,1.));
#510 = DIRECTION('',(1.,0.,-0.));
#511 = CARTESIAN_POINT('',(86.736510965942,183.70728093943,0.));
#512 = CARTESIAN_POINT('',(83.194622538464,200.6617796453,0.));
#513 = GEOMETRIC_CURVE_SET('',(#514));
#514 = TRIMMED_CURVE('',#515,(#520,PARAMETER_VALUE(3.762057)),(#521,
    PARAMETER_VALUE(7.563816)),.T.,.PARAMETER.);
#515 = CIRCLE('',#516,8.45744);
#516 = AXIS2_PLACEMENT_3D('',#517,#518,#519);
#517 = CARTESIAN_POINT('',(137.520738,114.59353,0.));
#518 = DIRECTION('',(0.,0.,1.));
#519 = DIRECTION('',(1.,0.,-0.));
#520 = CARTESIAN_POINT('',(130.63969235825,109.67626427301,0.));
#521 = CARTESIAN_POINT('',(139.94050409928,122.6974193982,0.));
#522 = GEOMETRIC_CURVE_SET('',(#523));
#523 = TRIMMED_CURVE('',#524,(#529,PARAMETER_VALUE(1.038988)),(#530,
    PARAMETER_VALUE(4.304531)),.T.,.PARAMETER.);
#524 = ELLIPSE('',#525,31.487675463535,12.413030132724);
#525 = AXIS2_PLACEMENT_3D('',#526,#527,#528);
#526 = CARTESIAN_POINT('',(195.187393,133.858398,0.));
#527 = DIRECTION('',(0.,0.,1.));
#528 = DIRECTION('',(-0.329682704334,-0.944091793452,0.));
#529 = CARTESIAN_POINT('',(200.02383331713,115.25675055804,0.));
#530 = CARTESIAN_POINT('',(188.54717368289,149.40620884271,0.));
#531 = GEOMETRIC_CURVE_SET('',(#532));
#532 = TRIMMED_CURVE('',#533,(#538,PARAMETER_VALUE(0.)),(#539,
    PARAMETER_VALUE(6.28318530718)),.T.,.PARAMETER.);
#533 = CIRCLE('',#534,12.933154);
#534 = AXIS2_PLACEMENT_3D('',#535,#536,#537);
#535 = CARTESIAN_POINT('',(54.931007,95.725029,0.));
#536 = DIRECTION('',(0.,0.,1.));
#537 = DIRECTION('',(1.,0.,-0.));
#538 = CARTESIAN_POINT('',(67.864161,95.725029,0.));
#539 = CARTESIAN_POINT('',(67.864161,95.725029,0.));
#540 = GEOMETRIC_CURVE_SET('',(#541));
#541 = TRIMMED_CURVE('',#542,(#547,PARAMETER_VALUE(0.)),(#548,
    PARAMETER_VALUE(6.28318530718)),.T.,.PARAMETER.);
#542 = CIRCLE('',#543,21.343175);
#543 = AXIS2_PLACEMENT_3D('',#544,#545,#546);
#544 = CARTESIAN_POINT('',(95.959827,131.114766,0.));
#545 = DIRECTION('',(0.,0.,1.));
#546 = DIRECTION('',(1.,0.,-0.));
#547 = CARTESIAN_POINT('',(117.303002,131.114766,0.));
#548 = CARTESIAN_POINT('',(117.303002,131.114766,0.));
#549 = GEOMETRIC_CURVE_SET('',(#550));
#550 = TRIMMED_CURVE('',#551,(#556,PARAMETER_VALUE(0.)),(#557,
    PARAMETER_VALUE(6.28318530718)),.T.,.PARAMETER.);
#551 = ELLIPSE('',#552,13.649234425786,11.094137746222);
#552 = AXIS2_PLACEMENT_3D('',#553,#554,#555);
#553 = CARTESIAN_POINT('',(165.424774,181.664612,0.));
#554 = DIRECTION('',(0.,0.,1.));
#555 = DIRECTION('',(-0.821587691308,-0.570082156791,0.));
#556 = CARTESIAN_POINT('',(154.210731,173.883427,0.));
#557 = CARTESIAN_POINT('',(154.210731,173.883427,0.));
#558 = GEOMETRIC_CURVE_SET('',(#559));
#559 = TRIMMED_CURVE('',#560,(#565,PARAMETER_VALUE(0.)),(#566,
    PARAMETER_VALUE(6.28318530718)),.T.,.PARAMETER.);
#560 = ELLIPSE('',#561,15.291031770193,8.353145361816);
#561 = AXIS2_PLACEMENT_3D('',#562,#563,#564);
#562 = CARTESIAN_POINT('',(127.198395,157.761505,0.));
#563 = DIRECTION('',(0.,-0.,1.));
#564 = DIRECTION('',(0.790549727558,0.612397851285,0.));
#565 = CARTESIAN_POINT('',(139.286716,167.1257,0.));
#566 = CARTESIAN_POINT('',(139.286716,167.1257,0.));
#567 = GEOMETRIC_CURVE_SET('',(#568,#575,#583,#590,#598,#605,#613,#620)
  );
#568 = TRIMMED_CURVE('',#569,(#573,PARAMETER_VALUE(0.)),(#574,
    PARAMETER_VALUE(8.928587825381)),.T.,.PARAMETER.);
#569 = LINE('',#570,#571);
#570 = CARTESIAN_POINT('',(47.397617,-33.3054705419,0.));
#571 = VECTOR('',#572,1.);
#572 = DIRECTION('',(0.,-1.,0.));
#573 = CARTESIAN_POINT('',(47.397617,-33.3054705419,0.));
#574 = CARTESIAN_POINT('',(47.397617,-42.23405836728,0.));
#575 = TRIMMED_CURVE('',#576,(#581,PARAMETER_VALUE(3.14159265359)),(#582
    ,PARAMETER_VALUE(4.712388980385)),.T.,.PARAMETER.);
#576 = CIRCLE('',#577,4.451083541899);
#577 = AXIS2_PLACEMENT_3D('',#578,#579,#580);
#578 = CARTESIAN_POINT('',(51.8487005419,-42.23405836728,0.));
#579 = DIRECTION('',(0.,0.,1.));
#580 = DIRECTION('',(1.,0.,-0.));
#581 = CARTESIAN_POINT('',(47.397617,-42.23405836728,0.));
#582 = CARTESIAN_POINT('',(51.8487005419,-46.68514190918,0.));
#583 = TRIMMED_CURVE('',#584,(#588,PARAMETER_VALUE(0.)),(#589,
    PARAMETER_VALUE(5.312562916201)),.T.,.PARAMETER.);
#584 = LINE('',#585,#586);
#585 = CARTESIAN_POINT('',(51.8487005419,-46.68514190918,0.));
#586 = VECTOR('',#587,1.);
#587 = DIRECTION('',(1.,0.,0.));
#588 = CARTESIAN_POINT('',(51.8487005419,-46.68514190918,0.));
#589 = CARTESIAN_POINT('',(57.1612634581,-46.68514190918,0.));
#590 = TRIMMED_CURVE('',#591,(#596,PARAMETER_VALUE(4.712388980385)),(
    #597,PARAMETER_VALUE(6.28318530718)),.T.,.PARAMETER.);
#591 = CIRCLE('',#592,4.451083541899);
#592 = AXIS2_PLACEMENT_3D('',#593,#594,#595);
#593 = CARTESIAN_POINT('',(57.1612634581,-42.23405836728,0.));
#594 = DIRECTION('',(0.,0.,1.));
#595 = DIRECTION('',(1.,0.,-0.));
#596 = CARTESIAN_POINT('',(57.1612634581,-46.68514190918,0.));
#597 = CARTESIAN_POINT('',(61.612347,-42.23405836728,0.));
#598 = TRIMMED_CURVE('',#599,(#603,PARAMETER_VALUE(0.)),(#604,
    PARAMETER_VALUE(8.928587825381)),.T.,.PARAMETER.);
#599 = LINE('',#600,#601);
#600 = CARTESIAN_POINT('',(61.612347,-42.23405836728,0.));
#601 = VECTOR('',#602,1.);
#602 = DIRECTION('',(0.,1.,0.));
#603 = CARTESIAN_POINT('',(61.612347,-42.23405836728,0.));
#604 = CARTESIAN_POINT('',(61.612347,-33.3054705419,0.));
#605 = TRIMMED_CURVE('',#606,(#611,PARAMETER_VALUE(0.)),(#612,
    PARAMETER_VALUE(1.570796326795)),.T.,.PARAMETER.);
#606 = CIRCLE('',#607,4.451083541899);
#607 = AXIS2_PLACEMENT_3D('',#608,#609,#610);
#608 = CARTESIAN_POINT('',(57.161263458101,-33.3054705419,0.));
#609 = DIRECTION('',(0.,0.,1.));
#610 = DIRECTION('',(1.,0.,-0.));
#611 = CARTESIAN_POINT('',(61.612347,-33.3054705419,0.));
#612 = CARTESIAN_POINT('',(57.161263458101,-28.854387,0.));
#613 = TRIMMED_CURVE('',#614,(#618,PARAMETER_VALUE(0.)),(#619,
    PARAMETER_VALUE(5.312562916201)),.T.,.PARAMETER.);
#614 = LINE('',#615,#616);
#615 = CARTESIAN_POINT('',(57.161263458101,-28.854387,0.));
#616 = VECTOR('',#617,1.);
#617 = DIRECTION('',(-1.,0.,0.));
#618 = CARTESIAN_POINT('',(57.161263458101,-28.854387,0.));
#619 = CARTESIAN_POINT('',(51.848700541899,-28.854387,0.));
#620 = TRIMMED_CURVE('',#621,(#626,PARAMETER_VALUE(1.570796326795)),(
    #627,PARAMETER_VALUE(3.14159265359)),.T.,.PARAMETER.);
#621 = CIRCLE('',#622,4.451083541899);
#622 = AXIS2_PLACEMENT_3D('',#623,#624,#625);
#623 = CARTESIAN_POINT('',(51.8487005419,-33.3054705419,0.));
#624 = DIRECTION('',(0.,0.,1.));
#625 = DIRECTION('',(1.,0.,-0.));
#626 = CARTESIAN_POINT('',(51.848700541899,-28.854387,0.));
#627 = CARTESIAN_POINT('',(47.397617,-33.3054705419,0.));
#628 = GEOMETRIC_CURVE_SET('',(#629,#636,#643,#650));
#629 = TRIMMED_CURVE('',#630,(#634,PARAMETER_VALUE(0.)),(#635,
    PARAMETER_VALUE(21.820846)),.T.,.PARAMETER.);
#630 = LINE('',#631,#632);
#631 = CARTESIAN_POINT('',(120.216896,-40.076542,0.));
#632 = VECTOR('',#633,1.);
#633 = DIRECTION('',(0.,-1.,0.));
#634 = CARTESIAN_POINT('',(120.216896,-40.076542,0.));
#635 = CARTESIAN_POINT('',(120.216896,-61.897388,0.));
#636 = TRIMMED_CURVE('',#637,(#641,PARAMETER_VALUE(0.)),(#642,
    PARAMETER_VALUE(31.172646)),.T.,.PARAMETER.);
#637 = LINE('',#638,#639);
#638 = CARTESIAN_POINT('',(120.216896,-61.897388,0.));
#639 = VECTOR('',#640,1.);
#640 = DIRECTION('',(1.,0.,0.));
#641 = CARTESIAN_POINT('',(120.216896,-61.897388,0.));
#642 = CARTESIAN_POINT('',(151.389542,-61.897388,0.));
#643 = TRIMMED_CURVE('',#644,(#648,PARAMETER_VALUE(0.)),(#649,
    PARAMETER_VALUE(21.820846)),.T.,.PARAMETER.);
#644 = LINE('',#645,#646);
#645 = CARTESIAN_POINT('',(151.389542,-61.897388,0.));
#646 = VECTOR('',#647,1.);
#647 = DIRECTION('',(0.,1.,0.));
#648 = CARTESIAN_POINT('',(151.389542,-61.897388,0.));
#649 = CARTESIAN_POINT('',(151.389542,-40.076542,0.));
#650 = TRIMMED_CURVE('',#651,(#655,PARAMETER_VALUE(0.)),(#656,
    PARAMETER_VALUE(31.172646)),.T.,.PARAMETER.);
#651 = LINE('',#652,#653);
#652 = CARTESIAN_POINT('',(151.389542,-40.076542,0.));
#653 = VECTOR('',#654,1.);
#654 = DIRECTION('',(-1.,0.,0.));
#655 = CARTESIAN_POINT('',(151.389542,-40.076542,0.));
#656 = CARTESIAN_POINT('',(120.216896,-40.076542,0.));
#657 = GEOMETRIC_CURVE_SET('',(#658,#665,#672,#679));
#658 = TRIMMED_CURVE('',#659,(#663,PARAMETER_VALUE(0.)),(#664,
    PARAMETER_VALUE(17.207306)),.T.,.PARAMETER.);
#659 = LINE('',#660,#661);
#660 = CARTESIAN_POINT('',(56.125961,-66.885002,0.));
#661 = VECTOR('',#662,1.);
#662 = DIRECTION('',(0.,-1.,0.));
#663 = CARTESIAN_POINT('',(56.125961,-66.885002,0.));
#664 = CARTESIAN_POINT('',(56.125961,-84.092308,0.));
#665 = TRIMMED_CURVE('',#666,(#670,PARAMETER_VALUE(0.)),(#671,
    PARAMETER_VALUE(37.65654)),.T.,.PARAMETER.);
#666 = LINE('',#667,#668);
#667 = CARTESIAN_POINT('',(56.125961,-84.092308,0.));
#668 = VECTOR('',#669,1.);
#669 = DIRECTION('',(1.,0.,0.));
#670 = CARTESIAN_POINT('',(56.125961,-84.092308,0.));
#671 = CARTESIAN_POINT('',(93.782501,-84.092308,0.));
#672 = TRIMMED_CURVE('',#673,(#677,PARAMETER_VALUE(0.)),(#678,
    PARAMETER_VALUE(17.207306)),.T.,.PARAMETER.);
#673 = LINE('',#674,#675);
#674 = CARTESIAN_POINT('',(93.782501,-84.092308,0.));
#675 = VECTOR('',#676,1.);
#676 = DIRECTION('',(0.,1.,0.));
#677 = CARTESIAN_POINT('',(93.782501,-84.092308,0.));
#678 = CARTESIAN_POINT('',(93.782501,-66.885002,0.));
#679 = TRIMMED_CURVE('',#680,(#684,PARAMETER_VALUE(0.)),(#685,
    PARAMETER_VALUE(37.65654)),.T.,.PARAMETER.);
#680 = LINE('',#681,#682);
#681 = CARTESIAN_POINT('',(93.782501,-66.885002,0.));
#682 = VECTOR('',#683,1.);
#683 = DIRECTION('',(-1.,0.,0.));
#684 = CARTESIAN_POINT('',(93.782501,-66.885002,0.));
#685 = CARTESIAN_POINT('',(56.125961,-66.885002,0.));
#686 = GEOMETRIC_CURVE_SET('',(#687,#694,#701));
#687 = TRIMMED_CURVE('',#688,(#692,PARAMETER_VALUE(0.)),(#693,
    PARAMETER_VALUE(149.05837713002)),.T.,.PARAMETER.);
#688 = LINE('',#689,#690);
#689 = CARTESIAN_POINT('',(-629.081848,-206.085785,0.));
#690 = VECTOR('',#691,1.);
#691 = DIRECTION('',(-0.234227727462,0.972181758566,0.));
#692 = CARTESIAN_POINT('',(-629.081848,-206.085785,0.));
#693 = CARTESIAN_POINT('',(-663.9954529343,-61.17394979277,0.));
#694 = TRIMMED_CURVE('',#695,(#699,PARAMETER_VALUE(0.)),(#700,
    PARAMETER_VALUE(149.05837713002)),.T.,.PARAMETER.);
#695 = LINE('',#696,#697);
#696 = CARTESIAN_POINT('',(-663.9954529343,-61.17394979277,0.));
#697 = VECTOR('',#698,1.);
#698 = DIRECTION('',(-0.724820236283,-0.688938041536,0.));
#699 = CARTESIAN_POINT('',(-663.9954529343,-61.17394979277,0.));
#700 = CARTESIAN_POINT('',(-772.0359810656,-163.8659362072,0.));
#701 = TRIMMED_CURVE('',#702,(#706,PARAMETER_VALUE(0.)),(#707,
    PARAMETER_VALUE(149.05837713002)),.T.,.PARAMETER.);
#702 = LINE('',#703,#704);
#703 = CARTESIAN_POINT('',(-772.0359810656,-163.8659362072,0.));
#704 = VECTOR('',#705,1.);
#705 = DIRECTION('',(0.959047963745,-0.28324371703,0.));
#706 = CARTESIAN_POINT('',(-772.0359810656,-163.8659362072,0.));
#707 = CARTESIAN_POINT('',(-629.081848,-206.085785,0.));
#708 = GEOMETRIC_CURVE_SET('',(#709,#716,#723,#730));
#709 = TRIMMED_CURVE('',#710,(#714,PARAMETER_VALUE(0.)),(#715,
    PARAMETER_VALUE(173.31687798758)),.T.,.PARAMETER.);
#710 = LINE('',#711,#712);
#711 = CARTESIAN_POINT('',(-350.545959,-239.436005,0.));
#712 = VECTOR('',#713,1.);
#713 = DIRECTION('',(-0.160352403774,0.987059829293,0.));
#714 = CARTESIAN_POINT('',(-350.545959,-239.436005,0.));
#715 = CARTESIAN_POINT('',(-378.337737,-68.361877,0.));
#716 = TRIMMED_CURVE('',#717,(#721,PARAMETER_VALUE(0.)),(#722,
    PARAMETER_VALUE(173.31687798758)),.T.,.PARAMETER.);
#717 = LINE('',#718,#719);
#718 = CARTESIAN_POINT('',(-378.337737,-68.361877,0.));
#719 = VECTOR('',#720,1.);
#720 = DIRECTION('',(-0.987059829293,-0.160352403774,0.));
#721 = CARTESIAN_POINT('',(-378.337737,-68.361877,0.));
#722 = CARTESIAN_POINT('',(-549.411865,-96.153655,0.));
#723 = TRIMMED_CURVE('',#724,(#728,PARAMETER_VALUE(0.)),(#729,
    PARAMETER_VALUE(173.31687798758)),.T.,.PARAMETER.);
#724 = LINE('',#725,#726);
#725 = CARTESIAN_POINT('',(-549.411865,-96.153655,0.));
#726 = VECTOR('',#727,1.);
#727 = DIRECTION('',(0.160352403774,-0.987059829293,0.));
#728 = CARTESIAN_POINT('',(-549.411865,-96.153655,0.));
#729 = CARTESIAN_POINT('',(-521.620087,-267.227783,0.));
#730 = TRIMMED_CURVE('',#731,(#735,PARAMETER_VALUE(0.)),(#736,
    PARAMETER_VALUE(173.31687798758)),.T.,.PARAMETER.);
#731 = LINE('',#732,#733);
#732 = CARTESIAN_POINT('',(-521.620087,-267.227783,0.));
#733 = VECTOR('',#734,1.);
#734 = DIRECTION('',(0.987059829293,0.160352403774,0.));
#735 = CARTESIAN_POINT('',(-521.620087,-267.227783,0.));
#736 = CARTESIAN_POINT('',(-350.545959,-239.436005,0.));
#737 = GEOMETRIC_CURVE_SET('',(#738,#745,#752,#759,#766,#773,#780));
#738 = TRIMMED_CURVE('',#739,(#743,PARAMETER_VALUE(0.)),(#744,
    PARAMETER_VALUE(86.209766897885)),.T.,.PARAMETER.);
#739 = LINE('',#740,#741);
#740 = CARTESIAN_POINT('',(-661.196899,-493.268066,0.));
#741 = VECTOR('',#742,1.);
#742 = DIRECTION('',(0.220238500463,0.975446053308,0.));
#743 = CARTESIAN_POINT('',(-661.196899,-493.268066,0.));
#744 = CARTESIAN_POINT('',(-642.2101892131,-409.1750891228,0.));
#745 = TRIMMED_CURVE('',#746,(#750,PARAMETER_VALUE(0.)),(#751,
    PARAMETER_VALUE(86.209766897885)),.T.,.PARAMETER.);
#746 = LINE('',#747,#748);
#747 = CARTESIAN_POINT('',(-642.2101892131,-409.1750891228,0.));
#748 = VECTOR('',#749,1.);
#749 = DIRECTION('',(-0.62531797491,0.780370059814,0.));
#750 = CARTESIAN_POINT('',(-642.2101892131,-409.1750891228,0.));
#751 = CARTESIAN_POINT('',(-696.1187060672,-341.8995681722,0.));
#752 = TRIMMED_CURVE('',#753,(#757,PARAMETER_VALUE(0.)),(#758,
    PARAMETER_VALUE(86.209766897885)),.T.,.PARAMETER.);
#753 = LINE('',#754,#755);
#754 = CARTESIAN_POINT('',(-696.1187060672,-341.8995681722,0.));
#755 = VECTOR('',#756,1.);
#756 = DIRECTION('',(-0.999997261014,-2.340505367883E-03,0.));
#757 = CARTESIAN_POINT('',(-696.1187060672,-341.8995681722,0.));
#758 = CARTESIAN_POINT('',(-782.3282368377,-342.1013425943,0.));
#759 = TRIMMED_CURVE('',#760,(#764,PARAMETER_VALUE(0.)),(#765,
    PARAMETER_VALUE(86.209766897885)),.T.,.PARAMETER.);
#760 = LINE('',#761,#762);
#761 = CARTESIAN_POINT('',(-782.3282368377,-342.1013425943,0.));
#762 = VECTOR('',#763,1.);
#763 = DIRECTION('',(-0.621658213347,-0.78328862227,0.));
#764 = CARTESIAN_POINT('',(-782.3282368377,-342.1013425943,0.));
#765 = CARTESIAN_POINT('',(-835.9212465005,-409.628472134,0.));
#766 = TRIMMED_CURVE('',#767,(#771,PARAMETER_VALUE(0.)),(#772,
    PARAMETER_VALUE(86.209766897885)),.T.,.PARAMETER.);
#767 = LINE('',#768,#769);
#768 = CARTESIAN_POINT('',(-835.9212465005,-409.628472134,0.));
#769 = VECTOR('',#770,1.);
#770 = DIRECTION('',(0.224802148486,-0.974404430427,0.));
#771 = CARTESIAN_POINT('',(-835.9212465005,-409.628472134,0.));
#772 = CARTESIAN_POINT('',(-816.5411056813,-493.6316509454,0.));
#773 = TRIMMED_CURVE('',#774,(#778,PARAMETER_VALUE(0.)),(#779,
    PARAMETER_VALUE(86.209766897885)),.T.,.PARAMETER.);
#774 = LINE('',#775,#776);
#775 = CARTESIAN_POINT('',(-816.5411056813,-493.6316509454,0.));
#776 = VECTOR('',#777,1.);
#777 = DIRECTION('',(0.901981907381,-0.431773828244,0.));
#778 = CARTESIAN_POINT('',(-816.5411056813,-493.6316509454,0.));
#779 = CARTESIAN_POINT('',(-738.7814556999,-530.854772031,0.));
#780 = TRIMMED_CURVE('',#781,(#785,PARAMETER_VALUE(0.)),(#786,
    PARAMETER_VALUE(86.209766897885)),.T.,.PARAMETER.);
#781 = LINE('',#782,#783);
#782 = CARTESIAN_POINT('',(-738.7814556999,-530.854772031,0.));
#783 = VECTOR('',#784,1.);
#784 = DIRECTION('',(0.89995089294,0.435991273188,0.));
#785 = CARTESIAN_POINT('',(-738.7814556999,-530.854772031,0.));
#786 = CARTESIAN_POINT('',(-661.196899,-493.268066,0.));
#787 = GEOMETRIC_CURVE_SET('',(#788,#795,#802,#809,#816,#823,#830,#837,
    #844));
#788 = TRIMMED_CURVE('',#789,(#793,PARAMETER_VALUE(0.)),(#794,
    PARAMETER_VALUE(71.395844092987)),.T.,.PARAMETER.);
#789 = LINE('',#790,#791);
#790 = CARTESIAN_POINT('',(-311.019745,-522.912659,0.));
#791 = VECTOR('',#792,1.);
#792 = DIRECTION('',(0.426406360176,0.904531710888,0.));
#793 = CARTESIAN_POINT('',(-311.019745,-522.912659,0.));
#794 = CARTESIAN_POINT('',(-280.5761029885,-458.3328539923,0.));
#795 = TRIMMED_CURVE('',#796,(#800,PARAMETER_VALUE(0.)),(#801,
    PARAMETER_VALUE(71.395844092987)),.T.,.PARAMETER.);
#796 = LINE('',#797,#798);
#797 = CARTESIAN_POINT('',(-280.5761029885,-458.3328539923,0.));
#798 = VECTOR('',#799,1.);
#799 = DIRECTION('',(-0.254775553603,0.967000215763,0.));
#800 = CARTESIAN_POINT('',(-280.5761029885,-458.3328539923,0.));
#801 = CARTESIAN_POINT('',(-298.7660186923,-389.2930573497,0.));
#802 = TRIMMED_CURVE('',#803,(#807,PARAMETER_VALUE(0.)),(#808,
    PARAMETER_VALUE(71.395844092987)),.T.,.PARAMETER.);
#803 = LINE('',#804,#805);
#804 = CARTESIAN_POINT('',(-298.7660186923,-389.2930573497,0.));
#805 = VECTOR('',#806,1.);
#806 = DIRECTION('',(-0.816745154337,0.576998572673,0.));
#807 = CARTESIAN_POINT('',(-298.7660186923,-389.2930573497,0.));
#808 = CARTESIAN_POINT('',(-357.0782283951,-348.0977572133,0.));
#809 = TRIMMED_CURVE('',#810,(#814,PARAMETER_VALUE(0.)),(#815,
    PARAMETER_VALUE(71.395844092987)),.T.,.PARAMETER.);
#810 = LINE('',#811,#812);
#811 = CARTESIAN_POINT('',(-357.0782283951,-348.0977572133,0.));
#812 = VECTOR('',#813,1.);
#813 = DIRECTION('',(-0.996550620245,-8.298711519578E-02,0.));
#814 = CARTESIAN_POINT('',(-357.0782283951,-348.0977572133,0.));
#815 = CARTESIAN_POINT('',(-428.2278011089,-354.0226923516,0.));
#816 = TRIMMED_CURVE('',#817,(#821,PARAMETER_VALUE(0.)),(#822,
    PARAMETER_VALUE(71.395844092987)),.T.,.PARAMETER.);
#817 = LINE('',#818,#819);
#818 = CARTESIAN_POINT('',(-428.2278011089,-354.0226923516,0.));
#819 = VECTOR('',#820,1.);
#820 = DIRECTION('',(-0.710058975514,-0.704142209565,0.));
#821 = CARTESIAN_POINT('',(-428.2278011089,-354.0226923516,0.));
#822 = CARTESIAN_POINT('',(-478.9230610215,-404.295519765,0.));
#823 = TRIMMED_CURVE('',#824,(#828,PARAMETER_VALUE(0.)),(#829,
    PARAMETER_VALUE(71.395844092987)),.T.,.PARAMETER.);
#824 = LINE('',#825,#826);
#825 = CARTESIAN_POINT('',(-478.9230610215,-404.295519765,0.));
#826 = VECTOR('',#827,1.);
#827 = DIRECTION('',(-9.132284471354E-02,-0.99582133841,0.));
#828 = CARTESIAN_POINT('',(-478.9230610215,-404.295519765,0.));
#829 = CARTESIAN_POINT('',(-485.4431326048,-475.3930247866,0.));
#830 = TRIMMED_CURVE('',#831,(#835,PARAMETER_VALUE(0.)),(#836,
    PARAMETER_VALUE(71.395844092987)),.T.,.PARAMETER.);
#831 = LINE('',#832,#833);
#832 = CARTESIAN_POINT('',(-485.4431326048,-475.3930247866,0.));
#833 = VECTOR('',#834,1.);
#834 = DIRECTION('',(0.570144260069,-0.821544595692,0.));
#835 = CARTESIAN_POINT('',(-485.4431326048,-475.3930247866,0.));
#836 = CARTESIAN_POINT('',(-444.7372019024,-534.047894656,0.));
#837 = TRIMMED_CURVE('',#838,(#842,PARAMETER_VALUE(0.)),(#843,
    PARAMETER_VALUE(71.395844092987)),.T.,.PARAMETER.);
#838 = LINE('',#839,#840);
#839 = CARTESIAN_POINT('',(-444.7372019024,-534.047894656,0.));
#840 = VECTOR('',#841,1.);
#841 = DIRECTION('',(0.964834529118,-0.262858006198,0.));
#842 = CARTESIAN_POINT('',(-444.7372019024,-534.047894656,0.));
#843 = CARTESIAN_POINT('',(-375.852026286,-552.8148638851,0.));
#844 = TRIMMED_CURVE('',#845,(#849,PARAMETER_VALUE(0.)),(#850,
    PARAMETER_VALUE(71.395844092987)),.T.,.PARAMETER.);
#845 = LINE('',#846,#847);
#846 = CARTESIAN_POINT('',(-375.852026286,-552.8148638851,0.));
#847 = VECTOR('',#848,1.);
#848 = DIRECTION('',(0.908067999051,0.418822765737,0.));
#849 = CARTESIAN_POINT('',(-375.852026286,-552.8148638851,0.));
#850 = CARTESIAN_POINT('',(-311.019745,-522.912659,0.));
#851 = GEOMETRIC_CURVE_SET('',(#852,#860,#867,#875));
#852 = TRIMMED_CURVE('',#853,(#858,PARAMETER_VALUE(1.507547241135)),(
    #859,PARAMETER_VALUE(4.649139894725)),.T.,.PARAMETER.);
#853 = CIRCLE('',#854,43.006138211443);
#854 = AXIS2_PLACEMENT_3D('',#855,#856,#857);
#855 = CARTESIAN_POINT('',(-661.1968996804,-645.814331,0.));
#856 = DIRECTION('',(0.,0.,1.));
#857 = DIRECTION('',(1.,0.,-0.));
#858 = CARTESIAN_POINT('',(-658.478614,-602.894186,0.));
#859 = CARTESIAN_POINT('',(-663.9151853609,-688.734476,0.));
#860 = TRIMMED_CURVE('',#861,(#865,PARAMETER_VALUE(0.)),(#866,
    PARAMETER_VALUE(185.65015321844)),.T.,.PARAMETER.);
#861 = LINE('',#862,#863);
#862 = CARTESIAN_POINT('',(-663.9151853609,-688.734476,0.));
#863 = VECTOR('',#864,1.);
#864 = DIRECTION('',(0.998000443308,-6.320692332635E-02,0.));
#865 = CARTESIAN_POINT('',(-663.9151853609,-688.734476,0.));
#866 = CARTESIAN_POINT('',(-478.6362501487,-700.468851,0.));
#867 = TRIMMED_CURVE('',#868,(#873,PARAMETER_VALUE(4.649139894725)),(
    #874,PARAMETER_VALUE(7.790732548315)),.T.,.PARAMETER.);
#868 = CIRCLE('',#869,43.006138211443);
#869 = AXIS2_PLACEMENT_3D('',#870,#871,#872);
#870 = CARTESIAN_POINT('',(-475.9179644682,-657.548706,0.));
#871 = DIRECTION('',(0.,0.,1.));
#872 = DIRECTION('',(1.,0.,-0.));
#873 = CARTESIAN_POINT('',(-478.6362501487,-700.468851,0.));
#874 = CARTESIAN_POINT('',(-473.1996787877,-614.628561,0.));
#875 = TRIMMED_CURVE('',#876,(#880,PARAMETER_VALUE(0.)),(#881,
    PARAMETER_VALUE(185.65015321844)),.T.,.PARAMETER.);
#876 = LINE('',#877,#878);
#877 = CARTESIAN_POINT('',(-658.478614,-602.894186,0.));
#878 = VECTOR('',#879,1.);
#879 = DIRECTION('',(0.998000443308,-6.320692332635E-02,0.));
#880 = CARTESIAN_POINT('',(-658.478614,-602.894186,0.));
#881 = CARTESIAN_POINT('',(-473.1996787877,-614.628561,0.));
#882 = GEOMETRIC_CURVE_SET('',(#883,#891,#898,#906));
#883 = TRIMMED_CURVE('',#884,(#889,PARAMETER_VALUE(1.411318036125)),(
    #890,PARAMETER_VALUE(4.552910689714)),.T.,.PARAMETER.);
#884 = CIRCLE('',#885,100.);
#885 = AXIS2_PLACEMENT_3D('',#886,#887,#888);
#886 = CARTESIAN_POINT('',(-2.011288619837E+03,1.760951730485E+03,0.));
#887 = DIRECTION('',(0.,0.,1.));
#888 = DIRECTION('',(1.,0.,-0.));
#889 = CARTESIAN_POINT('',(-1.99540830591E+03,1.859682757166E+03,0.));
#890 = CARTESIAN_POINT('',(-2.027168933764E+03,1.662220703803E+03,0.));
#891 = TRIMMED_CURVE('',#892,(#896,PARAMETER_VALUE(0.)),(#897,
    PARAMETER_VALUE(506.42641609833)),.T.,.PARAMETER.);
#892 = LINE('',#893,#894);
#893 = CARTESIAN_POINT('',(-2.027168933764E+03,1.662220703803E+03,0.));
#894 = VECTOR('',#895,1.);
#895 = DIRECTION('',(0.987310266815,-0.158803139272,0.));
#896 = CARTESIAN_POINT('',(-2.027168933764E+03,1.662220703803E+03,0.));
#897 = CARTESIAN_POINT('',(-1.527168933764E+03,1.581798599117E+03,0.));
#898 = TRIMMED_CURVE('',#899,(#904,PARAMETER_VALUE(4.552910689714)),(
    #905,PARAMETER_VALUE(7.694503343304)),.T.,.PARAMETER.);
#899 = CIRCLE('',#900,100.);
#900 = AXIS2_PLACEMENT_3D('',#901,#902,#903);
#901 = CARTESIAN_POINT('',(-1.511288619837E+03,1.680529625798E+03,0.));
#902 = DIRECTION('',(0.,0.,1.));
#903 = DIRECTION('',(1.,0.,-0.));
#904 = CARTESIAN_POINT('',(-1.527168933764E+03,1.581798599117E+03,0.));
#905 = CARTESIAN_POINT('',(-1.49540830591E+03,1.77926065248E+03,0.));
#906 = TRIMMED_CURVE('',#907,(#911,PARAMETER_VALUE(0.)),(#912,
    PARAMETER_VALUE(506.42641609833)),.T.,.PARAMETER.);
#907 = LINE('',#908,#909);
#908 = CARTESIAN_POINT('',(-1.99540830591E+03,1.859682757166E+03,0.));
#909 = VECTOR('',#910,1.);
#910 = DIRECTION('',(0.987310266815,-0.158803139272,0.));
#911 = CARTESIAN_POINT('',(-1.99540830591E+03,1.859682757166E+03,0.));
#912 = CARTESIAN_POINT('',(-1.49540830591E+03,1.77926065248E+03,0.));
#913 = GEOMETRIC_CURVE_SET('',(#914,#922,#930,#938));
#914 = TRIMMED_CURVE('',#915,(#920,PARAMETER_VALUE(4.399185826795)),(
    #921,PARAMETER_VALUE(5.966129017503)),.T.,.PARAMETER.);
#915 = CIRCLE('',#916,258.11574976846);
#916 = AXIS2_PLACEMENT_3D('',#917,#918,#919);
#917 = CARTESIAN_POINT('',(-2.249549570753E+03,1.202798706E+03,0.));
#918 = DIRECTION('',(0.,0.,1.));
#919 = DIRECTION('',(1.,0.,-0.));
#920 = CARTESIAN_POINT('',(-2.329076978659E+03,957.23989090645,0.));
#921 = CARTESIAN_POINT('',(-2.004299007688E+03,1.12232571926E+03,0.));
#922 = TRIMMED_CURVE('',#923,(#928,PARAMETER_VALUE(5.966129017503)),(
    #929,PARAMETER_VALUE(9.107721671093)),.T.,.PARAMETER.);
#923 = CIRCLE('',#924,119.99999999999);
#924 = AXIS2_PLACEMENT_3D('',#925,#926,#927);
#925 = CARTESIAN_POINT('',(-2.118317883305E+03,1.159738230575E+03,0.));
#926 = DIRECTION('',(0.,0.,1.));
#927 = DIRECTION('',(1.,0.,-0.));
#928 = CARTESIAN_POINT('',(-2.004299007688E+03,1.12232571926E+03,0.));
#929 = CARTESIAN_POINT('',(-2.232336758923E+03,1.19715074189E+03,0.));
#930 = TRIMMED_CURVE('',#931,(#936,PARAMETER_VALUE(4.399185826794)),(
    #937,PARAMETER_VALUE(5.966129017503)),.T.,.PARAMETER.);
#931 = CIRCLE('',#932,18.115749768467);
#932 = AXIS2_PLACEMENT_3D('',#933,#934,#935);
#933 = CARTESIAN_POINT('',(-2.249549570753E+03,1.202798706E+03,0.));
#934 = DIRECTION('',(0.,0.,1.));
#935 = DIRECTION('',(1.,0.,-0.));
#936 = CARTESIAN_POINT('',(-2.255131169794E+03,1.185564259626E+03,0.));
#937 = CARTESIAN_POINT('',(-2.232336758923E+03,1.19715074189E+03,0.));
#938 = TRIMMED_CURVE('',#939,(#944,PARAMETER_VALUE(1.257593173205)),(
    #945,PARAMETER_VALUE(4.399185826795)),.T.,.PARAMETER.);
#939 = CIRCLE('',#940,120.);
#940 = AXIS2_PLACEMENT_3D('',#941,#942,#943);
#941 = CARTESIAN_POINT('',(-2.292104074227E+03,1.071402075266E+03,0.));
#942 = DIRECTION('',(0.,0.,1.));
#943 = DIRECTION('',(1.,0.,-0.));
#944 = CARTESIAN_POINT('',(-2.255131169794E+03,1.185564259626E+03,0.));
#945 = CARTESIAN_POINT('',(-2.329076978659E+03,957.23989090645,0.));
#946 = GEOMETRIC_CURVE_SET('',(#947,#955,#963,#971));
#947 = TRIMMED_CURVE('',#948,(#953,PARAMETER_VALUE(0.284929539485)),(
    #954,PARAMETER_VALUE(2.552949454363)),.T.,.PARAMETER.);
#948 = CIRCLE('',#949,264.95696504893);
#949 = AXIS2_PLACEMENT_3D('',#950,#951,#952);
#950 = CARTESIAN_POINT('',(-1.296142969389E+03,942.45118497345,0.));
#951 = DIRECTION('',(0.,0.,1.));
#952 = DIRECTION('',(1.,0.,-0.));
#953 = CARTESIAN_POINT('',(-1.041868682128E+03,1.016927893857E+03,0.));
#954 = CARTESIAN_POINT('',(-1.516506295494E+03,1.089564059447E+03,0.));
#955 = TRIMMED_CURVE('',#956,(#961,PARAMETER_VALUE(2.552949454363)),(
    #962,PARAMETER_VALUE(5.694542107953)),.T.,.PARAMETER.);
#956 = CIRCLE('',#957,80.);
#957 = AXIS2_PLACEMENT_3D('',#958,#959,#960);
#958 = CARTESIAN_POINT('',(-1.449970712686E+03,1.045145412231E+03,0.));
#959 = DIRECTION('',(0.,0.,1.));
#960 = DIRECTION('',(1.,0.,-0.));
#961 = CARTESIAN_POINT('',(-1.516506295494E+03,1.089564059447E+03,0.));
#962 = CARTESIAN_POINT('',(-1.383435129879E+03,1.000726765015E+03,0.));
#963 = TRIMMED_CURVE('',#964,(#969,PARAMETER_VALUE(0.284929539485)),(
    #970,PARAMETER_VALUE(2.552949454363)),.T.,.PARAMETER.);
#964 = CIRCLE('',#965,104.95696504893);
#965 = AXIS2_PLACEMENT_3D('',#966,#967,#968);
#966 = CARTESIAN_POINT('',(-1.296142969389E+03,942.45118497345,0.));
#967 = DIRECTION('',(0.,0.,1.));
#968 = DIRECTION('',(1.,0.,-0.));
#969 = CARTESIAN_POINT('',(-1.195417715852E+03,971.95352068226,0.));
#970 = CARTESIAN_POINT('',(-1.383435129879E+03,1.000726765015E+03,0.));
#971 = TRIMMED_CURVE('',#972,(#977,PARAMETER_VALUE(3.426522193074)),(
    #978,PARAMETER_VALUE(6.568114846664)),.T.,.PARAMETER.);
#972 = CIRCLE('',#973,80.);
#973 = AXIS2_PLACEMENT_3D('',#974,#975,#976);
#974 = CARTESIAN_POINT('',(-1.11864319899E+03,994.44070726968,0.));
#975 = DIRECTION('',(0.,0.,1.));
#976 = DIRECTION('',(1.,0.,-0.));
#977 = CARTESIAN_POINT('',(-1.195417715852E+03,971.95352068226,0.));
#978 = CARTESIAN_POINT('',(-1.041868682128E+03,1.016927893857E+03,0.));
#979 = GEOMETRIC_CURVE_SET('',(#980));
#980 = TRIMMED_CURVE('',#981,(#985,PARAMETER_VALUE(0.)),(#986,
    PARAMETER_VALUE(633.602081)),.T.,.PARAMETER.);
#981 = LINE('',#982,#983);
#982 = CARTESIAN_POINT('',(-1.134081787E+03,2.205489258E+03,0.));
#983 = VECTOR('',#984,1.);
#984 = DIRECTION('',(1.,0.,0.));
#985 = CARTESIAN_POINT('',(-1.134081787E+03,2.205489258E+03,0.));
#986 = CARTESIAN_POINT('',(-500.479706,2.205489258E+03,0.));
#987 = GEOMETRIC_CURVE_SET('',(#988));
#988 = TRIMMED_CURVE('',#989,(#993,PARAMETER_VALUE(0.)),(#994,
    PARAMETER_VALUE(358.836182)),.T.,.PARAMETER.);
#989 = LINE('',#990,#991);
#990 = CARTESIAN_POINT('',(-912.628479,2.369528809E+03,0.));
#991 = VECTOR('',#992,1.);
#992 = DIRECTION('',(0.,-1.,0.));
#993 = CARTESIAN_POINT('',(-912.628479,2.369528809E+03,0.));
#994 = CARTESIAN_POINT('',(-912.628479,2.010692627E+03,0.));
#995 = GEOMETRIC_CURVE_SET('',(#996));
#996 = TRIMMED_CURVE('',#997,(#1001,PARAMETER_VALUE(0.)),(#1002,
    PARAMETER_VALUE(656.157654)),.T.,.PARAMETER.);
#997 = LINE('',#998,#999);
#998 = CARTESIAN_POINT('',(-1.562634766E+03,1.207408150022E+03,0.));
#999 = VECTOR('',#1000,1.);
#1000 = DIRECTION('',(1.,0.,0.));
#1001 = CARTESIAN_POINT('',(-1.562634766E+03,1.207408150022E+03,0.));
#1002 = CARTESIAN_POINT('',(-906.477112,1.207408150022E+03,0.));
#1003 = GEOMETRIC_CURVE_SET('',(#1004,#1012,#1020,#1028));
#1004 = TRIMMED_CURVE('',#1005,(#1010,PARAMETER_VALUE(6.029510256426)),(
    #1011,PARAMETER_VALUE(7.135150471546)),.T.,.PARAMETER.);
#1005 = CIRCLE('',#1006,286.74653541583);
#1006 = AXIS2_PLACEMENT_3D('',#1007,#1008,#1009);
#1007 = CARTESIAN_POINT('',(413.212585,2.914612254793E+03,0.));
#1008 = DIRECTION('',(0.,0.,1.));
#1009 = DIRECTION('',(1.,0.,-0.));
#1010 = CARTESIAN_POINT('',(690.78227314569,2.842649460269E+03,0.));
#1011 = CARTESIAN_POINT('',(602.03675079377,3.130410795069E+03,0.));
#1012 = TRIMMED_CURVE('',#1013,(#1018,PARAMETER_VALUE(0.851965164367)),(
    #1019,PARAMETER_VALUE(3.993557817956)),.T.,.PARAMETER.);
#1013 = CIRCLE('',#1014,57.971763588064);
#1014 = AXIS2_PLACEMENT_3D('',#1015,#1016,#1017);
#1015 = CARTESIAN_POINT('',(563.86202661365,3.086782641231E+03,0.));
#1016 = DIRECTION('',(0.,0.,1.));
#1017 = DIRECTION('',(1.,0.,-0.));
#1018 = CARTESIAN_POINT('',(602.03675079377,3.130410795069E+03,0.));
#1019 = CARTESIAN_POINT('',(525.6873024335,3.043154487394E+03,0.));
#1020 = TRIMMED_CURVE('',#1021,(#1026,PARAMETER_VALUE(6.029510256426)),(
    #1027,PARAMETER_VALUE(7.135150471546)),.T.,.PARAMETER.);
#1021 = CIRCLE('',#1022,170.80300823972);
#1022 = AXIS2_PLACEMENT_3D('',#1023,#1024,#1025);
#1023 = CARTESIAN_POINT('',(413.212585,2.914612254793E+03,0.));
#1024 = DIRECTION('',(0.,0.,1.));
#1025 = DIRECTION('',(1.,0.,-0.));
#1026 = CARTESIAN_POINT('',(578.54932625371,2.871747005285E+03,0.));
#1027 = CARTESIAN_POINT('',(525.6873024335,3.043154487394E+03,0.));
#1028 = TRIMMED_CURVE('',#1029,(#1034,PARAMETER_VALUE(2.887917602836)),(
    #1035,PARAMETER_VALUE(6.029510256426)),.T.,.PARAMETER.);
#1029 = CIRCLE('',#1030,57.971763588054);
#1030 = AXIS2_PLACEMENT_3D('',#1031,#1032,#1033);
#1031 = CARTESIAN_POINT('',(634.66579969971,2.857198232777E+03,0.));
#1032 = DIRECTION('',(0.,0.,1.));
#1033 = DIRECTION('',(1.,0.,-0.));
#1034 = CARTESIAN_POINT('',(578.54932625371,2.871747005285E+03,0.));
#1035 = CARTESIAN_POINT('',(690.78227314569,2.842649460269E+03,0.));
#1036 = GEOMETRIC_CURVE_SET('',(#1037,#1045,#1053,#1061));
#1037 = TRIMMED_CURVE('',#1038,(#1043,PARAMETER_VALUE(6.02951)),(#1044,
    PARAMETER_VALUE(7.13515)),.T.,.PARAMETER.);
#1038 = CIRCLE('',#1039,286.746535);
#1039 = AXIS2_PLACEMENT_3D('',#1040,#1041,#1042);
#1040 = CARTESIAN_POINT('',(804.904937,2.914612255E+03,0.));
#1041 = DIRECTION('',(0.,0.,1.));
#1042 = DIRECTION('',(1.,0.,-0.));
#1043 = CARTESIAN_POINT('',(1.08247460629E+03,2.842649389404E+03,0.));
#1044 = CARTESIAN_POINT('',(993.72920427889,3.130410705924E+03,0.));
#1045 = TRIMMED_CURVE('',#1046,(#1051,PARAMETER_VALUE(0.85196469282)),(
    #1052,PARAMETER_VALUE(3.99355734641)),.T.,.PARAMETER.);
#1046 = CIRCLE('',#1047,57.971763499993);
#1047 = AXIS2_PLACEMENT_3D('',#1048,#1049,#1050);
#1048 = CARTESIAN_POINT('',(955.55445958406,3.086782570154E+03,0.));
#1049 = DIRECTION('',(0.,0.,1.));
#1050 = DIRECTION('',(1.,0.,-0.));
#1051 = CARTESIAN_POINT('',(993.72920427889,3.130410705924E+03,0.));
#1052 = CARTESIAN_POINT('',(917.37971488923,3.043154434383E+03,0.));
#1053 = TRIMMED_CURVE('',#1054,(#1059,PARAMETER_VALUE(6.02951)),(#1060,
    PARAMETER_VALUE(7.13515)),.T.,.PARAMETER.);
#1054 = CIRCLE('',#1055,170.80300799999);
#1055 = AXIS2_PLACEMENT_3D('',#1056,#1057,#1058);
#1056 = CARTESIAN_POINT('',(804.904937,2.914612255E+03,0.));
#1057 = DIRECTION('',(0.,0.,1.));
#1058 = DIRECTION('',(1.,0.,-0.));
#1059 = CARTESIAN_POINT('',(970.24166702989,2.871746963156E+03,0.));
#1060 = CARTESIAN_POINT('',(917.37971488923,3.043154434383E+03,0.));
#1061 = TRIMMED_CURVE('',#1062,(#1067,PARAMETER_VALUE(2.88791734641)),(
    #1068,PARAMETER_VALUE(6.02951)),.T.,.PARAMETER.);
#1062 = CIRCLE('',#1063,57.971763499994);
#1063 = AXIS2_PLACEMENT_3D('',#1064,#1065,#1066);
#1064 = CARTESIAN_POINT('',(1.02635813666E+03,2.85719817628E+03,0.));
#1065 = DIRECTION('',(0.,0.,1.));
#1066 = DIRECTION('',(1.,0.,-0.));
#1067 = CARTESIAN_POINT('',(970.24166702989,2.871746963156E+03,0.));
#1068 = CARTESIAN_POINT('',(1.08247460629E+03,2.842649389404E+03,0.));
#1069 = GEOMETRIC_CURVE_SET('',(#1070,#1078,#1086,#1094));
#1070 = TRIMMED_CURVE('',#1071,(#1076,PARAMETER_VALUE(6.029509799692)),(
    #1077,PARAMETER_VALUE(7.135149892602)),.T.,.PARAMETER.);
#1071 = CIRCLE('',#1072,286.74649980462);
#1072 = AXIS2_PLACEMENT_3D('',#1073,#1074,#1075);
#1073 = CARTESIAN_POINT('',(1.196597289E+03,2.914612301767E+03,0.));
#1074 = DIRECTION('',(0.,0.,1.));
#1075 = DIRECTION('',(1.,0.,-0.));
#1076 = CARTESIAN_POINT('',(1.474166909806E+03,2.842649389404E+03,0.));
#1077 = CARTESIAN_POINT('',(1.385421556279E+03,3.130410705924E+03,0.));
#1078 = TRIMMED_CURVE('',#1079,(#1084,PARAMETER_VALUE(0.851964585423)),(
    #1085,PARAMETER_VALUE(3.993557239012)),.T.,.PARAMETER.);
#1079 = CIRCLE('',#1080,57.97173870529);
#1080 = AXIS2_PLACEMENT_3D('',#1081,#1082,#1083);
#1081 = CARTESIAN_POINT('',(1.347246823226E+03,3.086782592913E+03,0.));
#1082 = DIRECTION('',(0.,0.,1.));
#1083 = DIRECTION('',(1.,0.,-0.));
#1084 = CARTESIAN_POINT('',(1.385421556279E+03,3.130410705924E+03,0.));
#1085 = CARTESIAN_POINT('',(1.309072090173E+03,3.043154479903E+03,0.));
#1086 = TRIMMED_CURVE('',#1087,(#1092,PARAMETER_VALUE(6.029509799692)),(
    #1093,PARAMETER_VALUE(7.135149892602)),.T.,.PARAMETER.);
#1087 = CIRCLE('',#1088,170.80302239402);
#1088 = AXIS2_PLACEMENT_3D('',#1089,#1090,#1091);
#1089 = CARTESIAN_POINT('',(1.196597289E+03,2.914612301767E+03,0.));
#1090 = DIRECTION('',(0.,0.,1.));
#1091 = DIRECTION('',(1.,0.,-0.));
#1092 = CARTESIAN_POINT('',(1.361934024377E+03,2.871746973192E+03,0.));
#1093 = CARTESIAN_POINT('',(1.309072090173E+03,3.043154479903E+03,0.));
#1094 = TRIMMED_CURVE('',#1095,(#1100,PARAMETER_VALUE(2.887917146103)),(
    #1101,PARAMETER_VALUE(6.029509799693)),.T.,.PARAMETER.);
#1095 = CIRCLE('',#1096,57.971738705291);
#1096 = AXIS2_PLACEMENT_3D('',#1097,#1098,#1099);
#1097 = CARTESIAN_POINT('',(1.418050467092E+03,2.857198181298E+03,0.));
#1098 = DIRECTION('',(0.,0.,1.));
#1099 = DIRECTION('',(1.,0.,-0.));
#1100 = CARTESIAN_POINT('',(1.361934024377E+03,2.871746973192E+03,0.));
#1101 = CARTESIAN_POINT('',(1.474166909806E+03,2.842649389404E+03,0.));
#1102 = GEOMETRIC_CURVE_SET('',(#1103,#1111,#1119,#1127));
#1103 = TRIMMED_CURVE('',#1104,(#1109,PARAMETER_VALUE(6.029510057803)),(
    #1110,PARAMETER_VALUE(7.135150197374)),.T.,.PARAMETER.);
#1104 = CIRCLE('',#1105,286.74645745548);
#1105 = AXIS2_PLACEMENT_3D('',#1106,#1107,#1108);
#1106 = CARTESIAN_POINT('',(1.588289641E+03,2.914612276089E+03,0.));
#1107 = DIRECTION('',(0.,0.,1.));
#1108 = DIRECTION('',(1.,0.,-0.));
#1109 = CARTESIAN_POINT('',(1.865859239387E+03,2.842649445999E+03,0.));
#1110 = CARTESIAN_POINT('',(1.777113814622E+03,3.130410705924E+03,0.));
#1111 = TRIMMED_CURVE('',#1112,(#1117,PARAMETER_VALUE(0.851964890194)),(
    #1118,PARAMETER_VALUE(3.993557543784)),.T.,.PARAMETER.);
#1112 = CIRCLE('',#1113,57.971723245623);
#1113 = AXIS2_PLACEMENT_3D('',#1114,#1115,#1116);
#1114 = CARTESIAN_POINT('',(1.738939105046E+03,3.086782592913E+03,0.));
#1115 = DIRECTION('',(0.,0.,1.));
#1116 = DIRECTION('',(1.,0.,-0.));
#1117 = CARTESIAN_POINT('',(1.777113814622E+03,3.130410705924E+03,0.));
#1118 = CARTESIAN_POINT('',(1.70076439547E+03,3.043154479903E+03,0.));
#1119 = TRIMMED_CURVE('',#1120,(#1125,PARAMETER_VALUE(6.029510057803)),(
    #1126,PARAMETER_VALUE(7.135150197374)),.T.,.PARAMETER.);
#1120 = CIRCLE('',#1121,170.80301096423);
#1121 = AXIS2_PLACEMENT_3D('',#1122,#1123,#1124);
#1122 = CARTESIAN_POINT('',(1.588289641E+03,2.914612276089E+03,0.));
#1123 = DIRECTION('',(0.,0.,1.));
#1124 = DIRECTION('',(1.,0.,-0.));
#1125 = CARTESIAN_POINT('',(1.753626376377E+03,2.871746993058E+03,0.));
#1126 = CARTESIAN_POINT('',(1.70076439547E+03,3.043154479903E+03,0.));
#1127 = TRIMMED_CURVE('',#1128,(#1133,PARAMETER_VALUE(2.887917404213)),(
    #1134,PARAMETER_VALUE(6.029510057803)),.T.,.PARAMETER.);
#1128 = CIRCLE('',#1129,57.97172324562);
#1129 = AXIS2_PLACEMENT_3D('',#1130,#1131,#1132);
#1130 = CARTESIAN_POINT('',(1.809742807882E+03,2.857198219528E+03,0.));
#1131 = DIRECTION('',(0.,0.,1.));
#1132 = DIRECTION('',(1.,0.,-0.));
#1133 = CARTESIAN_POINT('',(1.753626376377E+03,2.871746993058E+03,0.));
#1134 = CARTESIAN_POINT('',(1.865859239387E+03,2.842649445999E+03,0.));
#1135 = GEOMETRIC_CURVE_SET('',(#1136,#1144,#1152,#1160));
#1136 = TRIMMED_CURVE('',#1137,(#1142,PARAMETER_VALUE(6.029510239145)),(
    #1143,PARAMETER_VALUE(7.135150567096)),.T.,.PARAMETER.);
#1137 = CIRCLE('',#1138,286.74657709816);
#1138 = AXIS2_PLACEMENT_3D('',#1139,#1140,#1141);
#1139 = CARTESIAN_POINT('',(724.88739,1.883214616186E+03,0.));
#1140 = DIRECTION('',(0.,0.,1.));
#1141 = DIRECTION('',(1.,0.,-0.));
#1142 = CARTESIAN_POINT('',(1.00245711725E+03,1.811251806404E+03,0.));
#1143 = CARTESIAN_POINT('',(913.71156262238,2.099013205873E+03,0.));
#1144 = TRIMMED_CURVE('',#1145,(#1150,PARAMETER_VALUE(0.851965259916)),(
    #1151,PARAMETER_VALUE(3.993557913506)),.T.,.PARAMETER.);
#1145 = CIRCLE('',#1146,57.971789844051);
#1146 = AXIS2_PLACEMENT_3D('',#1147,#1148,#1149);
#1147 = CARTESIAN_POINT('',(875.5368253212,2.055385028628E+03,0.));
#1148 = DIRECTION('',(0.,0.,1.));
#1149 = DIRECTION('',(1.,0.,-0.));
#1150 = CARTESIAN_POINT('',(913.71156262238,2.099013205873E+03,0.));
#1151 = CARTESIAN_POINT('',(837.36208801999,2.011756851383E+03,0.));
#1152 = TRIMMED_CURVE('',#1153,(#1158,PARAMETER_VALUE(6.029510239145)),(
    #1159,PARAMETER_VALUE(7.135150567096)),.T.,.PARAMETER.);
#1153 = CIRCLE('',#1154,170.80299741007);
#1154 = AXIS2_PLACEMENT_3D('',#1155,#1156,#1157);
#1155 = CARTESIAN_POINT('',(724.88739,1.883214616186E+03,0.));
#1156 = DIRECTION('',(0.,0.,1.));
#1157 = DIRECTION('',(1.,0.,-0.));
#1158 = CARTESIAN_POINT('',(890.22412002988,1.840349366539E+03,0.));
#1159 = CARTESIAN_POINT('',(837.36208801999,2.011756851383E+03,0.));
#1160 = TRIMMED_CURVE('',#1161,(#1166,PARAMETER_VALUE(2.887917585555)),(
    #1167,PARAMETER_VALUE(6.029510239144)),.T.,.PARAMETER.);
#1161 = CIRCLE('',#1162,57.971789844041);
#1162 = AXIS2_PLACEMENT_3D('',#1163,#1164,#1165);
#1163 = CARTESIAN_POINT('',(946.34061864016,1.825800586472E+03,0.));
#1164 = DIRECTION('',(0.,0.,1.));
#1165 = DIRECTION('',(1.,0.,-0.));
#1166 = CARTESIAN_POINT('',(890.22412002988,1.840349366539E+03,0.));
#1167 = CARTESIAN_POINT('',(1.00245711725E+03,1.811251806404E+03,0.));
#1168 = GEOMETRIC_CURVE_SET('',(#1169,#1177,#1185,#1193));
#1169 = TRIMMED_CURVE('',#1170,(#1175,PARAMETER_VALUE(6.029510088055)),(
    #1176,PARAMETER_VALUE(7.135150325858)),.T.,.PARAMETER.);
#1170 = CIRCLE('',#1171,286.74649804222);
#1171 = AXIS2_PLACEMENT_3D('',#1172,#1173,#1174);
#1172 = CARTESIAN_POINT('',(1.116579742E+03,1.883214638284E+03,0.));
#1173 = DIRECTION('',(0.,0.,1.));
#1174 = DIRECTION('',(1.,0.,-0.));
#1175 = CARTESIAN_POINT('',(1.394149381852E+03,1.811251806404E+03,0.));
#1176 = CARTESIAN_POINT('',(1.305403914622E+03,2.099013122924E+03,0.));
#1177 = TRIMMED_CURVE('',#1178,(#1183,PARAMETER_VALUE(0.851965018677)),(
    #1184,PARAMETER_VALUE(3.993557672268)),.T.,.PARAMETER.);
#1178 = CIRCLE('',#1179,57.971746970752);
#1179 = AXIS2_PLACEMENT_3D('',#1180,#1181,#1182);
#1180 = CARTESIAN_POINT('',(1.267229195029E+03,2.055384987154E+03,0.));
#1181 = DIRECTION('',(0.,0.,1.));
#1182 = DIRECTION('',(1.,0.,-0.));
#1183 = CARTESIAN_POINT('',(1.305403914622E+03,2.099013122924E+03,0.));
#1184 = CARTESIAN_POINT('',(1.229054475435E+03,2.011756851383E+03,0.));
#1185 = TRIMMED_CURVE('',#1186,(#1191,PARAMETER_VALUE(6.029510088055)),(
    #1192,PARAMETER_VALUE(7.135150325858)),.T.,.PARAMETER.);
#1186 = CIRCLE('',#1187,170.80300410072);
#1187 = AXIS2_PLACEMENT_3D('',#1188,#1189,#1190);
#1188 = CARTESIAN_POINT('',(1.116579742E+03,1.883214638284E+03,0.));
#1189 = DIRECTION('',(0.,0.,1.));
#1190 = DIRECTION('',(1.,0.,-0.));
#1191 = CARTESIAN_POINT('',(1.28191647203E+03,1.840349361977E+03,0.));
#1192 = CARTESIAN_POINT('',(1.229054475435E+03,2.011756851383E+03,0.));
#1193 = TRIMMED_CURVE('',#1194,(#1199,PARAMETER_VALUE(2.887917434465)),(
    #1200,PARAMETER_VALUE(6.029510088055)),.T.,.PARAMETER.);
#1194 = CIRCLE('',#1195,57.971746970746);
#1195 = AXIS2_PLACEMENT_3D('',#1196,#1197,#1198);
#1196 = CARTESIAN_POINT('',(1.338032926941E+03,1.825800584191E+03,0.));
#1197 = DIRECTION('',(0.,0.,1.));
#1198 = DIRECTION('',(1.,0.,-0.));
#1199 = CARTESIAN_POINT('',(1.28191647203E+03,1.840349361977E+03,0.));
#1200 = CARTESIAN_POINT('',(1.394149381852E+03,1.811251806404E+03,0.));
#1201 = GEOMETRIC_CURVE_SET('',(#1202,#1210,#1218,#1226));
#1202 = TRIMMED_CURVE('',#1203,(#1208,PARAMETER_VALUE(6.029510322077)),(
    #1209,PARAMETER_VALUE(7.135150223595)),.T.,.PARAMETER.);
#1203 = CIRCLE('',#1204,286.74660827414);
#1204 = AXIS2_PLACEMENT_3D('',#1205,#1206,#1207);
#1205 = CARTESIAN_POINT('',(1.508272094E+03,1.883214657585E+03,0.));
#1206 = DIRECTION('',(0.,0.,1.));
#1207 = DIRECTION('',(1.,0.,-0.));
#1208 = CARTESIAN_POINT('',(1.785841857397E+03,1.811251862999E+03,0.));
#1209 = CARTESIAN_POINT('',(1.697096361279E+03,2.099013205873E+03,0.));
#1210 = TRIMMED_CURVE('',#1211,(#1216,PARAMETER_VALUE(0.851964916416)),(
    #1217,PARAMETER_VALUE(3.993557570006)),.T.,.PARAMETER.);
#1211 = CIRCLE('',#1212,57.971807268244);
#1212 = AXIS2_PLACEMENT_3D('',#1213,#1214,#1215);
#1213 = CARTESIAN_POINT('',(1.658921597517E+03,2.055385028628E+03,0.));
#1214 = DIRECTION('',(0.,0.,1.));
#1215 = DIRECTION('',(1.,0.,-0.));
#1216 = CARTESIAN_POINT('',(1.697096361279E+03,2.099013205873E+03,0.));
#1217 = CARTESIAN_POINT('',(1.620746833756E+03,2.011756851383E+03,0.));
#1218 = TRIMMED_CURVE('',#1219,(#1224,PARAMETER_VALUE(6.029510322077)),(
    #1225,PARAMETER_VALUE(7.135150223595)),.T.,.PARAMETER.);
#1219 = CIRCLE('',#1220,170.80299373765);
#1220 = AXIS2_PLACEMENT_3D('',#1221,#1222,#1223);
#1221 = CARTESIAN_POINT('',(1.508272094E+03,1.883214657585E+03,0.));
#1222 = DIRECTION('',(0.,0.,1.));
#1223 = DIRECTION('',(1.,0.,-0.));
#1224 = CARTESIAN_POINT('',(1.67360882403E+03,1.840349422571E+03,0.));
#1225 = CARTESIAN_POINT('',(1.620746833756E+03,2.011756851383E+03,0.));
#1226 = TRIMMED_CURVE('',#1227,(#1232,PARAMETER_VALUE(2.887917668487)),(
    #1233,PARAMETER_VALUE(6.029510322077)),.T.,.PARAMETER.);
#1227 = CIRCLE('',#1228,57.971807268245);
#1228 = AXIS2_PLACEMENT_3D('',#1229,#1230,#1231);
#1229 = CARTESIAN_POINT('',(1.729725340713E+03,1.825800642785E+03,0.));
#1230 = DIRECTION('',(0.,0.,1.));
#1231 = DIRECTION('',(1.,0.,-0.));
#1232 = CARTESIAN_POINT('',(1.67360882403E+03,1.840349422571E+03,0.));
#1233 = CARTESIAN_POINT('',(1.785841857397E+03,1.811251862999E+03,0.));
#1234 = GEOMETRIC_CURVE_SET('',(#1235,#1243,#1251,#1259));
#1235 = TRIMMED_CURVE('',#1236,(#1241,PARAMETER_VALUE(6.029509886817)),(
    #1242,PARAMETER_VALUE(7.135150215017)),.T.,.PARAMETER.);
#1236 = CIRCLE('',#1237,286.74646323729);
#1237 = AXIS2_PLACEMENT_3D('',#1238,#1239,#1240);
#1238 = CARTESIAN_POINT('',(1.899964446E+03,1.883214685406E+03,0.));
#1239 = DIRECTION('',(0.,0.,1.));
#1240 = DIRECTION('',(1.,0.,-0.));
#1241 = CARTESIAN_POINT('',(2.177534037679E+03,1.811251806404E+03,0.));
#1242 = CARTESIAN_POINT('',(2.088788619622E+03,2.099013122924E+03,0.));
#1243 = TRIMMED_CURVE('',#1244,(#1249,PARAMETER_VALUE(0.851964907837)),(
    #1250,PARAMETER_VALUE(3.993557561427)),.T.,.PARAMETER.);
#1244 = CIRCLE('',#1245,57.97172235067);
#1245 = AXIS2_PLACEMENT_3D('',#1246,#1247,#1248);
#1246 = CARTESIAN_POINT('',(2.050613911405E+03,2.055385009913E+03,0.));
#1247 = DIRECTION('',(0.,0.,1.));
#1248 = DIRECTION('',(1.,0.,-0.));
#1249 = CARTESIAN_POINT('',(2.088788619622E+03,2.099013122924E+03,0.));
#1250 = CARTESIAN_POINT('',(2.012439203188E+03,2.011756896903E+03,0.));
#1251 = TRIMMED_CURVE('',#1252,(#1257,PARAMETER_VALUE(6.029509886817)),(
    #1258,PARAMETER_VALUE(7.135150215017)),.T.,.PARAMETER.);
#1252 = CIRCLE('',#1253,170.80301853594);
#1253 = AXIS2_PLACEMENT_3D('',#1254,#1255,#1256);
#1254 = CARTESIAN_POINT('',(1.899964446E+03,1.883214685406E+03,0.));
#1255 = DIRECTION('',(0.,0.,1.));
#1256 = DIRECTION('',(1.,0.,-0.));
#1257 = CARTESIAN_POINT('',(2.065301181377E+03,1.840349372205E+03,0.));
#1258 = CARTESIAN_POINT('',(2.012439203188E+03,2.011756896903E+03,0.));
#1259 = TRIMMED_CURVE('',#1260,(#1265,PARAMETER_VALUE(2.887917233227)),(
    #1266,PARAMETER_VALUE(6.029509886817)),.T.,.PARAMETER.);
#1260 = CIRCLE('',#1261,57.971722350663);
#1261 = AXIS2_PLACEMENT_3D('',#1262,#1263,#1264);
#1262 = CARTESIAN_POINT('',(2.121417609528E+03,1.825800589305E+03,0.));
#1263 = DIRECTION('',(0.,0.,1.));
#1264 = DIRECTION('',(1.,0.,-0.));
#1265 = CARTESIAN_POINT('',(2.065301181377E+03,1.840349372205E+03,0.));
#1266 = CARTESIAN_POINT('',(2.177534037679E+03,1.811251806404E+03,0.));
#1267 = GEOMETRIC_CURVE_SET('',(#1268,#1276,#1284,#1292));
#1268 = TRIMMED_CURVE('',#1269,(#1274,PARAMETER_VALUE(6.029510429333)),(
    #1275,PARAMETER_VALUE(7.135150556804)),.T.,.PARAMETER.);
#1269 = CIRCLE('',#1270,286.74657524412);
#1270 = AXIS2_PLACEMENT_3D('',#1271,#1272,#1273);
#1271 = CARTESIAN_POINT('',(2.291656798E+03,1.883214619524E+03,0.));
#1272 = DIRECTION('',(0.,0.,1.));
#1273 = DIRECTION('',(1.,0.,-0.));
#1274 = CARTESIAN_POINT('',(2.569226537142E+03,1.811251862999E+03,0.));
#1275 = CARTESIAN_POINT('',(2.480480971622E+03,2.099013205873E+03,0.));
#1276 = TRIMMED_CURVE('',#1277,(#1282,PARAMETER_VALUE(0.851965249625)),(
    #1283,PARAMETER_VALUE(3.993557903215)),.T.,.PARAMETER.);
#1277 = CIRCLE('',#1278,57.971790366081);
#1278 = AXIS2_PLACEMENT_3D('',#1279,#1280,#1281);
#1279 = CARTESIAN_POINT('',(2.442306233528E+03,2.055385028628E+03,0.));
#1280 = DIRECTION('',(0.,0.,1.));
#1281 = DIRECTION('',(1.,0.,-0.));
#1282 = CARTESIAN_POINT('',(2.480480971622E+03,2.099013205873E+03,0.));
#1283 = CARTESIAN_POINT('',(2.404131495434E+03,2.011756851383E+03,0.));
#1284 = TRIMMED_CURVE('',#1285,(#1290,PARAMETER_VALUE(6.029510429333)),(
    #1291,PARAMETER_VALUE(7.135150556804)),.T.,.PARAMETER.);
#1285 = CIRCLE('',#1286,170.80299451198);
#1286 = AXIS2_PLACEMENT_3D('',#1287,#1288,#1289);
#1287 = CARTESIAN_POINT('',(2.291656798E+03,1.883214619524E+03,0.));
#1288 = DIRECTION('',(0.,0.,1.));
#1289 = DIRECTION('',(1.,0.,-0.));
#1290 = CARTESIAN_POINT('',(2.456993533377E+03,1.84034940205E+03,0.));
#1291 = CARTESIAN_POINT('',(2.404131495434E+03,2.011756851383E+03,0.));
#1292 = TRIMMED_CURVE('',#1293,(#1298,PARAMETER_VALUE(2.887917775743)),(
    #1299,PARAMETER_VALUE(6.029510429333)),.T.,.PARAMETER.);
#1293 = CIRCLE('',#1294,57.971790366075);
#1294 = AXIS2_PLACEMENT_3D('',#1295,#1296,#1297);
#1295 = CARTESIAN_POINT('',(2.51311003526E+03,1.825800632524E+03,0.));
#1296 = DIRECTION('',(0.,0.,1.));
#1297 = DIRECTION('',(1.,0.,-0.));
#1298 = CARTESIAN_POINT('',(2.456993533377E+03,1.84034940205E+03,0.));
#1299 = CARTESIAN_POINT('',(2.569226537142E+03,1.811251862999E+03,0.));
#1300 = GEOMETRIC_CURVE_SET('',(#1301,#1309,#1317,#1325));
#1301 = TRIMMED_CURVE('',#1302,(#1307,PARAMETER_VALUE(5.173511)),(#1308,
    PARAMETER_VALUE(6.279151)),.T.,.PARAMETER.);
#1302 = CIRCLE('',#1303,512.45237);
#1303 = AXIS2_PLACEMENT_3D('',#1304,#1305,#1306);
#1304 = CARTESIAN_POINT('',(1.65866928E+03,3.649486178E+03,0.));
#1305 = DIRECTION('',(-0.,0.,1.));
#1306 = DIRECTION('',(1.,0.,0.));
#1307 = CARTESIAN_POINT('',(1.886686609968E+03,3.190557502983E+03,0.));
#1308 = CARTESIAN_POINT('',(2.171117479762E+03,3.647418793333E+03,0.));
#1309 = TRIMMED_CURVE('',#1310,(#1315,PARAMETER_VALUE(6.279151)),(#1316,
    PARAMETER_VALUE(9.42074365359)),.T.,.PARAMETER.);
#1310 = CIRCLE('',#1311,103.60292149999);
#1311 = AXIS2_PLACEMENT_3D('',#1312,#1313,#1314);
#1312 = CARTESIAN_POINT('',(2.067515401362E+03,3.647836758209E+03,0.));
#1313 = DIRECTION('',(-0.,0.,1.));
#1314 = DIRECTION('',(1.,0.,0.));
#1315 = CARTESIAN_POINT('',(2.171117479762E+03,3.647418793333E+03,0.));
#1316 = CARTESIAN_POINT('',(1.963913322963E+03,3.648254723085E+03,0.));
#1317 = TRIMMED_CURVE('',#1318,(#1323,PARAMETER_VALUE(5.173511)),(#1324,
    PARAMETER_VALUE(6.279151)),.T.,.PARAMETER.);
#1318 = CIRCLE('',#1319,305.246527);
#1319 = AXIS2_PLACEMENT_3D('',#1320,#1321,#1322);
#1320 = CARTESIAN_POINT('',(1.65866928E+03,3.649486178E+03,0.));
#1321 = DIRECTION('',(-0.,0.,1.));
#1322 = DIRECTION('',(1.,0.,0.));
#1323 = CARTESIAN_POINT('',(1.794489703795E+03,3.376121486195E+03,0.));
#1324 = CARTESIAN_POINT('',(1.963913322963E+03,3.648254723085E+03,0.));
#1325 = TRIMMED_CURVE('',#1326,(#1331,PARAMETER_VALUE(2.03191834641)),(
    #1332,PARAMETER_VALUE(5.173511)),.T.,.PARAMETER.);
#1326 = CIRCLE('',#1327,103.60292149999);
#1327 = AXIS2_PLACEMENT_3D('',#1328,#1329,#1330);
#1328 = CARTESIAN_POINT('',(1.840588156882E+03,3.283339494589E+03,0.));
#1329 = DIRECTION('',(-0.,0.,1.));
#1330 = DIRECTION('',(1.,0.,0.));
#1331 = CARTESIAN_POINT('',(1.794489703795E+03,3.376121486195E+03,0.));
#1332 = CARTESIAN_POINT('',(1.886686609968E+03,3.190557502983E+03,0.));
#1333 = GEOMETRIC_CURVE_SET('',(#1334));
#1334 = TRIMMED_CURVE('',#1335,(#1339,PARAMETER_VALUE(0.)),(#1340,
    PARAMETER_VALUE(1.086100716392E+03)),.T.,.PARAMETER.);
#1335 = LINE('',#1336,#1337);
#1336 = CARTESIAN_POINT('',(2.044427856E+03,4.106501953E+03,0.));
#1337 = VECTOR('',#1338,1.);
#1338 = DIRECTION('',(0.817357030155,-0.576131482611,0.));
#1339 = CARTESIAN_POINT('',(2.044427856E+03,4.106501953E+03,0.));
#1340 = CARTESIAN_POINT('',(2.932159912E+03,3.480765137E+03,0.));
#1341 = ( GEOMETRIC_REPRESENTATION_CONTEXT(3) 
GLOBAL_UNCERTAINTY_ASSIGNED_CONTEXT((#1345)) 
GLOBAL_UNIT_ASSIGNED_CONTEXT((#1342,#1343,#1344)) REPRESENTATION_CONTEXT
('Context #1','3D Context with UNIT and UNCERTAINTY') );
#1342 = ( LENGTH_UNIT() NAMED_UNIT(*) SI_UNIT(.MILLI.,.METRE.) );
#1343 = ( NAMED_UNIT(*) PLANE_ANGLE_UNIT() SI_UNIT($,.RADIAN.) );
#1344 = ( NAMED_UNIT(*) SI_UNIT($,.STERADIAN.) SOLID_ANGLE_UNIT() );
#1345 = UNCERTAINTY_MEASURE_WITH_UNIT(LENGTH_MEASURE(1.E-07),#1342,
  'distance_accuracy_value','confusion accuracy');
#1346 = CONTEXT_DEPENDENT_SHAPE_REPRESENTATION(#1347,#1349);
#1347 = ( REPRESENTATION_RELATIONSHIP('','',#452,#10) 
REPRESENTATION_RELATIONSHIP_WITH_TRANSFORMATION(#1348) 
SHAPE_REPRESENTATION_RELATIONSHIP() );
#1348 = ITEM_DEFINED_TRANSFORMATION('','',#11,#43);
#1349 = PRODUCT_DEFINITION_SHAPE('Placement','Placement of an item',
  #1350);
#1350 = NEXT_ASSEMBLY_USAGE_OCCURRENCE('477','Sketch001','',#5,#447,$);
#1351 = PRODUCT_RELATED_PRODUCT_CATEGORY('part',$,(#449));
#1352 = SHAPE_DEFINITION_REPRESENTATION(#1353,#1359);
#1353 = PRODUCT_DEFINITION_SHAPE('','',#1354);
#1354 = PRODUCT_DEFINITION('design','',#1355,#1358);
#1355 = PRODUCT_DEFINITION_FORMATION('','',#1356);
#1356 = PRODUCT('Open CASCADE STEP translator 7.8 23.9',
  'Open CASCADE STEP translator 7.8 23.9','',(#1357));
#1357 = PRODUCT_CONTEXT('',#2,'mechanical');
#1358 = PRODUCT_DEFINITION_CONTEXT('part definition',#2,'design');
#1359 = GEOMETRICALLY_BOUNDED_WIREFRAME_SHAPE_REPRESENTATION('',(#11,
    #1360),#1362);
#1360 = GEOMETRIC_CURVE_SET('',(#1361));
#1361 = CARTESIAN_POINT('',(0.,0.,0.));
#1362 = ( GEOMETRIC_REPRESENTATION_CONTEXT(3) 
GLOBAL_UNCERTAINTY_ASSIGNED_CONTEXT((#1366)) 
GLOBAL_UNIT_ASSIGNED_CONTEXT((#1363,#1364,#1365)) REPRESENTATION_CONTEXT
('Context #1','3D Context with UNIT and UNCERTAINTY') );
#1363 = ( LENGTH_UNIT() NAMED_UNIT(*) SI_UNIT(.MILLI.,.METRE.) );
#1364 = ( NAMED_UNIT(*) PLANE_ANGLE_UNIT() SI_UNIT($,.RADIAN.) );
#1365 = ( NAMED_UNIT(*) SI_UNIT($,.STERADIAN.) SOLID_ANGLE_UNIT() );
#1366 = UNCERTAINTY_MEASURE_WITH_UNIT(LENGTH_MEASURE(1.E-07),#1363,
  'distance_accuracy_value','confusion accuracy');
#1367 = CONTEXT_DEPENDENT_SHAPE_REPRESENTATION(#1368,#1370);
#1368 = ( REPRESENTATION_RELATIONSHIP('','',#1359,#10) 
REPRESENTATION_RELATIONSHIP_WITH_TRANSFORMATION(#1369) 
SHAPE_REPRESENTATION_RELATIONSHIP() );
#1369 = ITEM_DEFINED_TRANSFORMATION('','',#11,#47);
#1370 = PRODUCT_DEFINITION_SHAPE('Placement','Placement of an item',
  #1371);
#1371 = NEXT_ASSEMBLY_USAGE_OCCURRENCE('478','','',#5,#1354,$);
#1372 = PRODUCT_RELATED_PRODUCT_CATEGORY('part',$,(#1356));
ENDSEC;
END-ISO-10303-21;
