                                                                        S0000001
,,31HOpen CASCADE IGES processor 7.8,13HFilename.iges,                  G0000001
16HOpen CASCADE 7.8,31HOpen CASCADE IGES processor 7.8,32,308,15,308,15,G0000002
,1.,2,2HMM,1,0.01,15H20260727.103125,1E-07,,,,11,0,15H20260727.103125,; G0000003
     402       1       0       0       0       0       0       000000000D0000001
     402       0       0       1       1                 draft_2        D0000002
     144       2       0       0       0       0       0       000020000D0000003
     144       0       0       1       0                   XY-??        D0000004
     108       3       0       0       0       0       0       000010000D0000005
     108       0       0       1       0                               0D0000006
     142       4       0       0       0       0       0       000010500D0000007
     142       0       0       1       0                               0D0000008
     144       5       0       0       0       0       0       000020000D0000009
     144       0       0       1       0                   XZ-??        D0000010
     108       6       0       0       0       0       0       000010000D0000011
     108       0       0       1       0                               0D0000012
     142       7       0       0       0       0       0       000010500D0000013
     142       0       0       1       0                               0D0000014
     144       8       0       0       0       0       0       000020000D0000015
     144       0       0       1       0                   YZ-??        D0000016
     108       9       0       0       0       0       0       000010000D0000017
     108       0       0       1       0                               0D0000018
     142      10       0       0       0       0       0       000010500D0000019
     142       0       0       1       0                               0D0000020
     102      11       0       0       0       0       0       000020000D0000021
     102       0       0       1       0                               0D0000022
     100      12       0       0       0       0      25       000010000D0000023
     100       0       0       1       0                               0D0000024
     124      13       0       0       0       0       0       000000000D0000025
     124       0       0       1       0                               0D0000026
     110      14       0       0       0       0       0       000010000D0000027
     110       0       0       1       0                               0D0000028
     100      15       0       0       0       0      31       000010000D0000029
     100       0       0       2       0                               0D0000030
     124      17       0       0       0       0       0       000000000D0000031
     124       0       0       1       0                               0D0000032
     110      18       0       0       0       0       0       000010000D0000033
     110       0       0       1       0                               0D0000034
     100      19       0       0       0       0      37       000010000D0000035
     100       0       0       1       0                               0D0000036
     124      20       0       0       0       0       0       000000000D0000037
     124       0       0       1       0                               0D0000038
     110      21       0       0       0       0       0       000010000D0000039
     110       0       0       1       0                               0D0000040
     100      22       0       0       0       0      43       000010000D0000041
     100       0       0       1       0                               0D0000042
     124      23       0       0       0       0       0       000000000D0000043
     124       0       0       1       0                               0D0000044
     110      24       0       0       0       0       0       000010000D0000045
     110       0       0       1       0                               0D0000046
     100      25       0       0       0       0      49       000020000D0000047
     100       0       0       1       0                               0D0000048
     124      26       0       0       0       0       0       000000000D0000049
     124       0       0       1       0                               0D0000050
     100      27       0       0       0       0      53       000020000D0000051
     100       0       0       1       0                               0D0000052
     124      28       0       0       0       0       0       000000000D0000053
     124       0       0       1       0                               0D0000054
     110      29       0       0       0       0       0       000020000D0000055
     110       0       0       1       0                      X?        D0000056
     110      30       0       0       0       0       0       000020000D0000057
     110       0       0       2       0                      Y?        D0000058
     110      32       0       0       0       0       0       000020000D0000059
     110       0       0       2       0                      Z?        D0000060
     116      34       0       0       0       0       0       000020400D0000061
     116       0       0       1       0                               0D0000062
     406      35       0       0       0       0       0       000000000D0000063
     406       0       0       1      15                               0D0000064
     406      36       0       0       0       0       0       000000000D0000065
     406       0       0       1      15                               0D0000066
     406      37       0       0       0       0       0       000000000D0000067
     406       0       0       1      15                               0D0000068
     406      38       0       0       0       0       0       000000000D0000069
     406       0       0       1      15                               0D0000070
     406      39       0       0       0       0       0       000000000D0000071
     406       0       0       1      15                               0D0000072
     406      40       0       0       0       0       0       000000000D0000073
     406       0       0       1      15                               0D0000074
     406      41       0       0       0       0       0       000000000D0000075
     406       0       0       1      15                               0D0000076
402,10,3,9,15,21,47,51,55,57,59,61,0,1,73;                       0000001P0000001
144,5,1,0,7,0,1,63;                                              0000003P0000002
108,0.,0.,1.,0.,0,0.,0.,0.,0.;                                   0000005P0000003
142,0,0,0,0,0;                                                   0000007P0000004
144,11,1,0,13,0,1,65;                                            0000009P0000005
108,0.,-1.,-2.220446049E-16,0.,0,0.,0.,0.,0.;                    0000011P0000006
142,0,0,0,0,0;                                                   0000013P0000007
144,17,1,0,19,0,1,69;                                            0000015P0000008
108,1.,1.232595164E-32,1.110223025E-16,0.,0,0.,0.,0.,0.;         0000017P0000009
142,0,0,0,0,0;                                                   0000019P0000010
102,8,23,27,29,33,35,39,41,45;                                   0000021P0000011
100,0.,0.,0.,-1.538897359,7.971692596,-2.451856058,-7.73979908;  0000023P0000012
124,1.,0.,0.,-45.00582837,0.,1.,0.,-3.300147929E-02,0.,0.,1.,0.; 0000025P0000013
110,-47.457684428,-7.772800559,0.,-8.95716415,-19.96920681,0.;   0000027P0000014
100,0.,0.,0.,-5.87595814,-18.548697121,5.164493423,              0000029P0000015
-18.759239234;                                                   0000029P0000016
124,1.,0.,0.,-3.08120601,0.,1.,0.,-1.420509689,0.,0.,1.,0.;      0000031P0000017
110,2.083287413,-20.179748923,0.,46.911184407,-7.838449987,0.;   0000033P0000018
100,0.,0.,0.,2.15498378,-7.827651809,1.684181788,7.942267915;    0000035P0000019
124,1.,0.,0.,44.756200626,0.,1.,0.,-1.079817872E-02,0.,0.,1.,0.; 0000037P0000020
110,46.440382414,7.931469736,0.,2.102168347,17.333521323,0.;     0000039P0000021
100,0.,0.,0.,5.183374357,18.754031012,-4.636694021,18.896616562; 0000041P0000022
124,1.,0.,0.,-3.08120601,0.,1.,0.,-1.420509689,0.,0.,1.,0.;      0000043P0000023
110,-7.717900032,17.476106873,0.,-46.54551999,7.948909624,0.;    0000045P0000024
100,0.,0.,0.,7.144954,0.,7.144954,0.;                            0000047P0000025
124,1.,0.,0.,-45.,0.,1.,0.,0.,0.,0.,1.,0.;                       0000049P0000026
100,0.,0.,0.,7.144954,0.,7.144954,0.;                            0000051P0000027
124,1.,0.,0.,45.,0.,1.,0.,0.,0.,0.,1.,0.;                        0000053P0000028
110,-2.E+100,0.,0.,2.E+100,0.,0.,0,1,67;                         0000055P0000029
110,0.,-2.E+100,2.220446049E+84,0.,2.E+100,-2.220446049E+84,0,1, 0000057P0000030
75;                                                              0000057P0000031
110,0.,-2.220446049E+84,-2.E+100,0.,2.220446049E+84,2.E+100,0,1, 0000059P0000032
71;                                                              0000059P0000033
116,0.,0.,0.,0;                                                  0000061P0000034
406,1,5HXY-__;                                                   0000063P0000035
406,1,5HXZ-__;                                                   0000065P0000036
406,1,2HX_;                                                      0000067P0000037
406,1,5HYZ-__;                                                   0000069P0000038
406,1,2HZ_;                                                      0000071P0000039
406,1,7Hdraft_2;                                                 0000073P0000040
406,1,2HY_;                                                      0000075P0000041
S      1G      3D     76P     41                                        T0000001
