                                                                        S0000001
,,31HOpen CASCADE IGES processor 7.8,13HFilename.iges,                  G0000001
16HOpen CASCADE 7.8,31HOpen CASCADE IGES processor 7.8,32,308,15,308,15,G0000002
,1.,2,2HMM,1,0.01,15H20260727.103125,1E-07,,,,11,0,15H20260727.103125,; G0000003
     402       1       0       0       0       0       0       000000000D0000001
     402       0       0       1       1                 draft_1        D0000002
     144       2       0       0       0       0       0       000020000D0000003
     144       0       0       1       0                XY-plane        D0000004
     108       3       0       0       0       0       0       000010000D0000005
     108       0       0       1       0                               0D0000006
     142       4       0       0       0       0       0       000010500D0000007
     142       0       0       1       0                               0D0000008
     144       5       0       0       0       0       0       000020000D0000009
     144       0       0       1       0                XZ-plane        D0000010
     108       6       0       0       0       0       0       000010000D0000011
     108       0       0       1       0                               0D0000012
     142       7       0       0       0       0       0       000010500D0000013
     142       0       0       1       0                               0D0000014
     144       8       0       0       0       0       0       000020000D0000015
     144       0       0       1       0                YZ-plane        D0000016
     108       9       0       0       0       0       0       000010000D0000017
     108       0       0       1       0                               0D0000018
     142      10       0       0       0       0       0       000010500D0000019
     142       0       0       1       0                               0D0000020
     102      11       0       0       0       0       0       000020000D0000021
     102       0       0       1       0                  Sketch        D0000022
     110      12       0       0       0       0       0       000010000D0000023
     110       0       0       1       0                               0D0000024
     110      13       0       0       0       0       0       000010000D0000025
     110       0       0       1       0                               0D0000026
     110      14       0       0       0       0       0       000010000D0000027
     110       0       0       1       0                               0D0000028
     110      15       0       0       0       0       0       000010000D0000029
     110       0       0       1       0                               0D0000030
     102      16       0       0       0       0       0       000020000D0000031
     102       0       0       1       0                               0D0000032
     110      17       0       0       0       0       0       000010000D0000033
     110       0       0       2       0                               0D0000034
     110      19       0       0       0       0       0       000010000D0000035
     110       0       0       2       0                               0D0000036
     100      21       0       0       0       0      39       000010000D0000037
     100       0       0       2       0                               0D0000038
     124      23       0       0       0       0       0       000000000D0000039
     124       0       0       1       0                               0D0000040
     110      24       0       0       0       0       0       000010000D0000041
     110       0       0       1       0                               0D0000042
     110      25       0       0       0       0       0       000010000D0000043
     110       0       0       1       0                               0D0000044
     110      26       0       0       0       0       0       000020000D0000045
     110       0       0       2       0                               0D0000046
     110      28       0       0       0       0       0       000020000D0000047
     110       0       0       1       0                  X-axis        D0000048
     110      29       0       0       0       0       0       000020000D0000049
     110       0       0       2       0                  Y-axis        D0000050
     110      31       0       0       0       0       0       000020000D0000051
     110       0       0       2       0                  Z-axis        D0000052
     116      33       0       0       0       0       0       000020400D0000053
     116       0       0       1       0                               0D0000054
     406      34       0       0       0       0       0       000000000D0000055
     406       0       0       1      15                               0D0000056
     406      35       0       0       0       0       0       000000000D0000057
     406       0       0       1      15                               0D0000058
     406      36       0       0       0       0       0       000000000D0000059
     406       0       0       1      15                               0D0000060
     406      37       0       0       0       0       0       000000000D0000061
     406       0       0       1      15                               0D0000062
     406      38       0       0       0       0       0       000000000D0000063
     406       0       0       1      15                               0D0000064
     406      39       0       0       0       0       0       000000000D0000065
     406       0       0       1      15                               0D0000066
     406      40       0       0       0       0       0       000000000D0000067
     406       0       0       1      15                               0D0000068
     406      41       0       0       0       0       0       000000000D0000069
     406       0       0       1      15                               0D0000070
402,10,3,9,15,21,31,45,47,49,51,53,0,1,57;                       0000001P0000001
144,5,1,0,7,0,1,65;                                              0000003P0000002
108,0.,0.,1.,0.,0,0.,0.,0.,0.;                                   0000005P0000003
142,0,0,0,0,0;                                                   0000007P0000004
144,11,1,0,13,0,1,61;                                            0000009P0000005
108,0.,-1.,-2.220446049E-16,0.,0,0.,0.,0.,0.;                    0000011P0000006
142,0,0,0,0,0;                                                   0000013P0000007
144,17,1,0,19,0,1,67;                                            0000015P0000008
108,1.,1.232595164E-32,1.110223025E-16,0.,0,0.,0.,0.,0.;         0000017P0000009
142,0,0,0,0,0;                                                   0000019P0000010
102,4,23,25,27,29,0,1,55;                                        0000021P0000011
110,-58.034683,48.169777,0.,-58.034683,0.,0.;                    0000023P0000012
110,-58.034683,0.,0.,53.751732,0.,0.;                            0000025P0000013
110,53.751732,0.,0.,53.751732,48.169777,0.;                      0000027P0000014
110,53.751732,48.169777,0.,-58.034683,48.169777,0.;              0000029P0000015
102,5,33,35,37,41,43;                                            0000031P0000016
110,-33.954932915,-2.637199015,0.,-33.954932915,-52.637199015,   0000033P0000017
0.;                                                              0000033P0000018
110,-33.954932915,-52.637199015,0.,-17.209707021,-52.637199015,  0000035P0000019
0.;                                                              0000035P0000020
100,0.,0.,0.,-17.209707021,-2.637199015,17.209707021,            0000037P0000021
2.637199015;                                                     0000037P0000022
124,1.,0.,0.,2.6E-15,0.,1.,0.,-50.,0.,0.,1.,0.;                  0000039P0000023
110,17.209707021,-47.362800985,0.,33.954932915,-47.362800985,0.; 0000041P0000024
110,33.954932915,-47.362800985,0.,33.954932915,2.637199015,0.;   0000043P0000025
110,-7.670572525E-06,-41.23596789,0.,3.699999156E-15,            0000045P0000026
-41.23596789,0.;                                                 0000045P0000027
110,-2.E+100,0.,0.,2.E+100,0.,0.,0,1,69;                         0000047P0000028
110,0.,-2.E+100,2.220446049E+84,0.,2.E+100,-2.220446049E+84,0,1, 0000049P0000029
63;                                                              0000049P0000030
110,0.,-2.220446049E+84,-2.E+100,0.,2.220446049E+84,2.E+100,0,1, 0000051P0000031
59;                                                              0000051P0000032
116,0.,0.,0.,0;                                                  0000053P0000033
406,1,6HSketch;                                                  0000055P0000034
406,1,7Hdraft_1;                                                 0000057P0000035
406,1,6HZ-axis;                                                  0000059P0000036
406,1,8HXZ-plane;                                                0000061P0000037
406,1,6HY-axis;                                                  0000063P0000038
406,1,8HXY-plane;                                                0000065P0000039
406,1,8HYZ-plane;                                                0000067P0000040
406,1,6HX-axis;                                                  0000069P0000041
S      1G      3D     70P     41                                        T0000001
