                                                                        S0000001
,,31HOpen CASCADE IGES processor 7.8,13HFilename.iges,                  G0000001
16HOpen CASCADE 7.8,31HOpen CASCADE IGES processor 7.8,32,308,15,308,15,G0000002
,1.,2,2HMM,1,0.01,15H20260727.103125,1E-07,,,,11,0,15H20260727.103125,; G0000003
     402       1       0       0       0       0       0       000000000D0000001
     402       0       0       1       1                paper_cl        D0000002
     402       2       0       0       0       0       0       000020000D0000003
     402       0       0       1       1                    Body        D0000004
     144       3       0       0       0       0       0       000020000D0000005
     144       0       0       1       0                               0D0000006
     108       4       0       0       0       0       0       000010000D0000007
     108       0       0       2       0                               0D0000008
     142       6       0       0       0       0       0       000010500D0000009
     142       0       0       1       0                               0D0000010
     100       7       0       0       0       0      13       000010000D0000011
     100       0       0       1       0                               0D0000012
     124       8       0       0       0       0       0       000000000D0000013
     124       0       0       3       0                               0D0000014
     144      11       0       0       0       0       0       000020000D0000015
     144       0       0       1       0                               0D0000016
     120      12       0       0       0       0      19       000010000D0000017
     120       0       0       1       0                               0D0000018
     124      13       0       0       0       0       0       000000000D0000019
     124       0       0       2       0                               0D0000020
     110      15       0       0       0       0       0       000010000D0000021
     110       0       0       1       0                               0D0000022
     110      16       0       0       0       0       0       000010000D0000023
     110       0       0       1       0                               0D0000024
     142      17       0       0       0       0       0       000010500D0000025
     142       0       0       1       0                               0D0000026
     102      18       0       0       0       0       0       000010000D0000027
     102       0       0       1       0                               0D0000028
     110      19       0       0       0       0       0       000010000D0000029
     110       0       0       1       0                               0D0000030
     100      20       0       0       0       0      33       000010000D0000031
     100       0       0       1       0                               0D0000032
     124      21       0       0       0       0       0       000000000D0000033
     124       0       0       2       0                               0D0000034
     110      23       0       0       0       0       0       000010000D0000035
     110       0       0       1       0                               0D0000036
     100      24       0       0       0       0      39       000010000D0000037
     100       0       0       1       0                               0D0000038
     124      25       0       0       0       0       0       000000000D0000039
     124       0       0       3       0                               0D0000040
     144      28       0       0       0       0       0       000020000D0000041
     144       0       0       1       0                               0D0000042
     120      29       0       0       0       0      45       000010000D0000043
     120       0       0       1       0                               0D0000044
     124      30       0       0       0       0       0       000000000D0000045
     124       0       0       1       0                               0D0000046
     110      31       0       0       0       0       0       000010000D0000047
     110       0       0       1       0                               0D0000048
     100      32       0       0       0       0      51       000010000D0000049
     100       0       0       1       0                               0D0000050
     124      33       0       0       0       0       0       000000000D0000051
     124       0       0       1       0                               0D0000052
     142      34       0       0       0       0       0       000010500D0000053
     142       0       0       1       0                               0D0000054
     102      35       0       0       0       0       0       000010000D0000055
     102       0       0       1       0                               0D0000056
     100      36       0       0       0       0      59       000010000D0000057
     100       0       0       1       0                               0D0000058
     124      37       0       0       0       0       0       000000000D0000059
     124       0       0       2       0                               0D0000060
     100      39       0       0       0       0      63       000010000D0000061
     100       0       0       1       0                               0D0000062
     124      40       0       0       0       0       0       000000000D0000063
     124       0       0       2       0                               0D0000064
     100      42       0       0       0       0      67       000010000D0000065
     100       0       0       1       0                               0D0000066
     124      43       0       0       0       0       0       000000000D0000067
     124       0       0       2       0                               0D0000068
     100      45       0       0       0       0      71       000010000D0000069
     100       0       0       1       0                               0D0000070
     124      46       0       0       0       0       0       000000000D0000071
     124       0       0       2       0                               0D0000072
     144      48       0       0       0       0       0       000020000D0000073
     144       0       0       1       0                               0D0000074
     120      49       0       0       0       0      77       000010000D0000075
     120       0       0       1       0                               0D0000076
     124      50       0       0       0       0       0       000000000D0000077
     124       0       0       1       0                               0D0000078
     110      51       0       0       0       0       0       000010000D0000079
     110       0       0       1       0                               0D0000080
     110      52       0       0       0       0       0       000010000D0000081
     110       0       0       1       0                               0D0000082
     142      53       0       0       0       0       0       000010500D0000083
     142       0       0       1       0                               0D0000084
     102      54       0       0       0       0       0       000010000D0000085
     102       0       0       1       0                               0D0000086
     110      55       0       0       0       0       0       000010000D0000087
     110       0       0       1       0                               0D0000088
     100      56       0       0       0       0      91       000010000D0000089
     100       0       0       1       0                               0D0000090
     124      57       0       0       0       0       0       000000000D0000091
     124       0       0       2       0                               0D0000092
     110      59       0       0       0       0       0       000010000D0000093
     110       0       0       1       0                               0D0000094
     100      60       0       0       0       0      97       000010000D0000095
     100       0       0       2       0                               0D0000096
     124      62       0       0       0       0       0       000000000D0000097
     124       0       0       2       0                               0D0000098
     144      64       0       0       0       0       0       000020000D0000099
     144       0       0       1       0                               0D0000100
     108      65       0       0       0       0       0       000010000D0000101
     108       0       0       2       0                               0D0000102
     142      67       0       0       0       0       0       000010500D0000103
     142       0       0       1       0                               0D0000104
     100      68       0       0       0       0     107       000010000D0000105
     100       0       0       1       0                               0D0000106
     124      69       0       0       0       0       0       000000000D0000107
     124       0       0       2       0                               0D0000108
     402      71       0       0       0       0       0       000020000D0000109
     402       0       0       1       1                Additive        D0000110
     144      72       0       0       0       0       0       000020000D0000111
     144       0       0       1       0                               0D0000112
     108      73       0       0       0       0       0       000010000D0000113
     108       0       0       2       0                               0D0000114
     142      75       0       0       0       0       0       000010500D0000115
     142       0       0       1       0                               0D0000116
     100      76       0       0       0       0     119       000010000D0000117
     100       0       0       1       0                               0D0000118
     124      77       0       0       0       0       0       000000000D0000119
     124       0       0       3       0                               0D0000120
     144      80       0       0       0       0       0       000020000D0000121
     144       0       0       1       0                               0D0000122
     120      81       0       0       0       0     125       000010000D0000123
     120       0       0       1       0                               0D0000124
     124      82       0       0       0       0       0       000000000D0000125
     124       0       0       2       0                               0D0000126
     110      84       0       0       0       0       0       000010000D0000127
     110       0       0       1       0                               0D0000128
     110      85       0       0       0       0       0       000010000D0000129
     110       0       0       1       0                               0D0000130
     142      86       0       0       0       0       0       000010500D0000131
     142       0       0       1       0                               0D0000132
     102      87       0       0       0       0       0       000010000D0000133
     102       0       0       1       0                               0D0000134
     110      88       0       0       0       0       0       000010000D0000135
     110       0       0       1       0                               0D0000136
     100      89       0       0       0       0     139       000010000D0000137
     100       0       0       1       0                               0D0000138
     124      90       0       0       0       0       0       000000000D0000139
     124       0       0       2       0                               0D0000140
     110      92       0       0       0       0       0       000010000D0000141
     110       0       0       1       0                               0D0000142
     100      93       0       0       0       0     145       000010000D0000143
     100       0       0       1       0                               0D0000144
     124      94       0       0       0       0       0       000000000D0000145
     124       0       0       3       0                               0D0000146
     144      97       0       0       0       0       0       000020000D0000147
     144       0       0       1       0                               0D0000148
     120      98       0       0       0       0     151       000010000D0000149
     120       0       0       1       0                               0D0000150
     124      99       0       0       0       0       0       000000000D0000151
     124       0       0       1       0                               0D0000152
     110     100       0       0       0       0       0       000010000D0000153
     110       0       0       1       0                               0D0000154
     100     101       0       0       0       0     157       000010000D0000155
     100       0       0       1       0                               0D0000156
     124     102       0       0       0       0       0       000000000D0000157
     124       0       0       1       0                               0D0000158
     142     103       0       0       0       0       0       000010500D0000159
     142       0       0       1       0                               0D0000160
     102     104       0       0       0       0       0       000010000D0000161
     102       0       0       1       0                               0D0000162
     100     105       0       0       0       0     165       000010000D0000163
     100       0       0       1       0                               0D0000164
     124     106       0       0       0       0       0       000000000D0000165
     124       0       0       2       0                               0D0000166
     100     108       0       0       0       0     169       000010000D0000167
     100       0       0       1       0                               0D0000168
     124     109       0       0       0       0       0       000000000D0000169
     124       0       0       2       0                               0D0000170
     100     111       0       0       0       0     173       000010000D0000171
     100       0       0       1       0                               0D0000172
     124     112       0       0       0       0       0       000000000D0000173
     124       0       0       2       0                               0D0000174
     100     114       0       0       0       0     177       000010000D0000175
     100       0       0       1       0                               0D0000176
     124     115       0       0       0       0       0       000000000D0000177
     124       0       0       2       0                               0D0000178
     144     117       0       0       0       0       0       000020000D0000179
     144       0       0       1       0                               0D0000180
     120     118       0       0       0       0     183       000010000D0000181
     120       0       0       1       0                               0D0000182
     124     119       0       0       0       0       0       000000000D0000183
     124       0       0       1       0                               0D0000184
     110     120       0       0       0       0       0       000010000D0000185
     110       0       0       1       0                               0D0000186
     110     121       0       0       0       0       0       000010000D0000187
     110       0       0       1       0                               0D0000188
     142     122       0       0       0       0       0       000010500D0000189
     142       0       0       1       0                               0D0000190
     102     123       0       0       0       0       0       000010000D0000191
     102       0       0       1       0                               0D0000192
     110     124       0       0       0       0       0       000010000D0000193
     110       0       0       1       0                               0D0000194
     100     125       0       0       0       0     197       000010000D0000195
     100       0       0       1       0                               0D0000196
     124     126       0       0       0       0       0       000000000D0000197
     124       0       0       2       0                               0D0000198
     110     128       0       0       0       0       0       000010000D0000199
     110       0       0       1       0                               0D0000200
     100     129       0       0       0       0     203       000010000D0000201
     100       0       0       2       0                               0D0000202
     124     131       0       0       0       0       0       000000000D0000203
     124       0       0       2       0                               0D0000204
     144     133       0       0       0       0       0       000020000D0000205
     144       0       0       1       0                               0D0000206
     108     134       0       0       0       0       0       000010000D0000207
     108       0       0       2       0                               0D0000208
     142     136       0       0       0       0       0       000010500D0000209
     142       0       0       1       0                               0D0000210
     100     137       0       0       0       0     213       000010000D0000211
     100       0       0       1       0                               0D0000212
     124     138       0       0       0       0       0       000000000D0000213
     124       0       0       2       0                               0D0000214
     144     140       0       0       0       0       0       000020000D0000215
     144       0       0       1       0                XY-plane        D0000216
     108     141       0       0       0       0       0       000010000D0000217
     108       0       0       1       0                               0D0000218
     142     142       0       0       0       0       0       000010500D0000219
     142       0       0       1       0                               0D0000220
     144     143       0       0       0       0       0       000020000D0000221
     144       0       0       1       0                XZ-plane        D0000222
     108     144       0       0       0       0       0       000010000D0000223
     108       0       0       1       0                               0D0000224
     142     145       0       0       0       0       0       000010500D0000225
     142       0       0       1       0                               0D0000226
     144     146       0       0       0       0       0       000020000D0000227
     144       0       0       1       0                YZ-plane        D0000228
     108     147       0       0       0       0       0       000010000D0000229
     108       0       0       1       0                               0D0000230
     142     148       0       0       0       0       0       000010500D0000231
     142       0       0       1       0                               0D0000232
     102     149       0       0       0       0       0       000020000D0000233
     102       0       0       1       0                  Sketch        D0000234
     110     150       0       0       0       0       0       000010000D0000235
     110       0       0       1       0                               0D0000236
     100     151       0       0       0       0     239       000010000D0000237
     100       0       0       1       0                               0D0000238
     124     152       0       0       0       0       0       000000000D0000239
     124       0       0       1       0                               0D0000240
     110     153       0       0       0       0       0       000010000D0000241
     110       0       0       1       0                               0D0000242
     100     154       0       0       0       0     245       000020000D0000243
     100       0       0       1       0                Sketch00        D0000244
     124     155       0       0       0       0       0       000000000D0000245
     124       0       0       2       0                               0D0000246
     110     157       0       0       0       0       0       000020000D0000247
     110       0       0       1       0                  X-axis        D0000248
     110     158       0       0       0       0       0       000020000D0000249
     110       0       0       2       0                  Y-axis        D0000250
     110     160       0       0       0       0       0       000020000D0000251
     110       0       0       2       0                  Z-axis        D0000252
     116     162       0       0       0       0       0       000020400D0000253
     116       0       0       1       0                               0D0000254
     406     163       0       0       0       0       0       000000000D0000255
     406       0       0       1      15                               0D0000256
     406     164       0       0       0       0       0       000000000D0000257
     406       0       0       1      15                               0D0000258
     406     165       0       0       0       0       0       000000000D0000259
     406       0       0       1      15                               0D0000260
     406     166       0       0       0       0       0       000000000D0000261
     406       0       0       1      15                               0D0000262
     406     167       0       0       0       0       0       000000000D0000263
     406       0       0       1      15                               0D0000264
     406     168       0       0       0       0       0       000000000D0000265
     406       0       0       1      15                               0D0000266
     406     169       0       0       0       0       0       000000000D0000267
     406       0       0       1      15                               0D0000268
     406     170       0       0       0       0       0       000000000D0000269
     406       0       0       1      15                               0D0000270
     406     171       0       0       0       0       0       000000000D0000271
     406       0       0       1      15                               0D0000272
     406     172       0       0       0       0       0       000000000D0000273
     406       0       0       1      15                               0D0000274
     406     173       0       0       0       0       0       000000000D0000275
     406       0       0       1      15                               0D0000276
402,11,3,109,215,221,227,233,243,247,249,251,253,0,1,269;        0000001P0000001
402,5,5,15,41,73,99,0,1,255;                                     0000003P0000002
144,7,1,0,9;                                                     0000005P0000003
108,1.622246468E-14,-1.,-0.,3.569726151E-13,0,33.506654,         0000007P0000004
1.86587896E-13,6.36810443E-19,0.;                                0000007P0000005
142,0,7,0,11,2;                                                  0000009P0000006
100,0.,0.,0.,0.12033,1.121038771E-44,0.12033,1.121038771E-44;    0000011P0000007
124,-1.,-3.602110761E-30,1.622246468E-14,33.506654,              0000013P0000008
-1.622246468E-14,2.220446049E-16,-1.,1.86587896E-13,0.,-1.,      0000013P0000009
-2.220446049E-16,0.;                                             0000013P0000010
144,17,1,0,25;                                                   0000015P0000011
120,21,23,0.,6.283185307;                                        0000017P0000012
124,-1.,0.,-1.421085472E-14,33.506654,-1.421085472E-14,0.,1.,    0000019P0000013
1.86587896E-13,-0.,1.,0.,0.;                                     0000019P0000014
110,0.,0.,1.,0.,0.,0.;                                           0000021P0000015
110,0.12033,0.,0.,0.12033,0.,34.400362;                          0000023P0000016
142,0,17,0,27,2;                                                 0000025P0000017
102,4,29,31,35,37;                                               0000027P0000018
110,33.386324,1.848779039E-13,0.,33.386324,34.400362,0.;         0000029P0000019
100,0.,0.,0.,0.12033,0.,0.12033,0.;                              0000031P0000020
124,-1.,0.,1.421085472E-14,33.506654,-1.421085472E-14,0.,-1.,    0000033P0000021
34.400362,0.,-1.,0.,0.;                                          0000033P0000022
110,33.386324,34.400362,0.,33.386324,1.848779039E-13,0.;         0000035P0000023
100,0.,0.,0.,0.12033,-1.121038771E-44,0.12033,-1.121038771E-44;  0000037P0000024
124,-1.,3.602110761E-30,-1.622246468E-14,33.506654,              0000039P0000025
-1.622246468E-14,-2.220446049E-16,1.,1.86587896E-13,-0.,1.,      0000039P0000026
2.220446049E-16,0.;                                              0000039P0000027
144,43,1,0,53;                                                   0000041P0000028
120,47,49,3.141592654,6.283185307;                               0000043P0000029
124,1.,0.,0.,21.849594,0.,1.,0.,34.400362,0.,0.,1.,0.;           0000045P0000030
110,0.,0.,1.,0.,0.,0.;                                           0000047P0000031
100,0.,0.,0.,-0.12033,1.473617493E-17,-0.12033,1.473617493E-17;  0000049P0000032
124,1.,0.,0.,11.65706,0.,0.,-1.,0.,0.,1.,-0.,0.;                 0000051P0000033
142,0,43,0,55,2;                                                 0000053P0000034
102,4,57,61,65,69;                                               0000055P0000035
100,0.,0.,0.,11.53673,1.847411113E-13,-11.53673,0.;              0000057P0000036
124,1.,0.,0.,21.849594,0.,1.,0.,34.400362,0.,0.,1.,              0000059P0000037
4.42085248E-17;                                                  0000059P0000038
100,0.,0.,0.,-0.12033,1.473617493E-17,-0.12033,1.473617493E-17;  0000061P0000039
124,-1.,0.,1.224646799E-16,10.192534,1.224646799E-16,0.,1.,      0000063P0000040
34.400362,0.,1.,0.,0.;                                           0000063P0000041
100,0.,0.,0.,-11.53673,0.,11.53673,-1.847411113E-13;             0000065P0000042
124,1.,0.,0.,21.849594,0.,-1.,0.,34.400362,0.,0.,-1.,            0000067P0000043
4.42085248E-17;                                                  0000067P0000044
100,0.,0.,0.,0.12033,0.,0.12033,0.;                              0000069P0000045
124,-1.,0.,-1.421085472E-14,33.506654,-1.421085472E-14,0.,1.,    0000071P0000046
34.400362,-0.,1.,0.,0.;                                          0000071P0000047
144,75,1,0,83;                                                   0000073P0000048
120,79,81,0.,6.283185307;                                        0000075P0000049
124,1.,0.,0.,10.192534,0.,0.,-1.,-3.944304526E-31,0.,1.,0.,0.;   0000077P0000050
110,0.,0.,1.,0.,0.,0.;                                           0000079P0000051
110,0.12033,0.,-34.400362,0.12033,0.,0.;                         0000081P0000052
142,0,75,0,85,2;                                                 0000083P0000053
102,4,87,89,93,95;                                               0000085P0000054
110,10.312864,34.400362,0.,10.312864,-3.944304526E-31,0.;        0000087P0000055
100,0.,0.,0.,0.12033,0.,0.12033,0.;                              0000089P0000056
124,1.,0.,0.,10.192534,0.,-2.220446049E-16,1.,-3.944304526E-31,  0000091P0000057
0.,-1.,-2.220446049E-16,0.;                                      0000091P0000058
110,10.312864,-3.944304526E-31,0.,10.312864,34.400362,0.;        0000093P0000059
100,0.,0.,0.,-0.12033,-1.473617493E-17,-0.12033,                 0000095P0000060
-1.473617493E-17;                                                0000095P0000061
124,-1.,0.,-1.224646799E-16,10.192534,1.224646799E-16,0.,-1.,    0000097P0000062
34.400362,0.,-1.,0.,0.;                                          0000097P0000063
144,101,1,0,103;                                                 0000099P0000064
108,-0.,-1.,-0.,3.93334643E-31,0,10.192534,-3.93334643E-31,      0000101P0000065
6.185679197E-18,0.;                                              0000101P0000066
142,0,101,0,105,2;                                               0000103P0000067
100,0.,0.,0.,0.12033,0.,0.12033,0.;                              0000105P0000068
124,1.,0.,0.,10.192534,0.,2.220446049E-16,-1.,-3.944304526E-31,  0000107P0000069
0.,1.,2.220446049E-16,0.;                                        0000107P0000070
402,5,111,121,147,179,205,0,1,275;                               0000109P0000071
144,113,1,0,115;                                                 0000111P0000072
108,1.622246468E-14,-1.,-0.,3.569726151E-13,0,33.506654,         0000113P0000073
1.86587896E-13,6.36810443E-19,0.;                                0000113P0000074
142,0,113,0,117,2;                                               0000115P0000075
100,0.,0.,0.,0.12033,1.121038771E-44,0.12033,1.121038771E-44;    0000117P0000076
124,-1.,-3.602110761E-30,1.622246468E-14,33.506654,              0000119P0000077
-1.622246468E-14,2.220446049E-16,-1.,1.86587896E-13,0.,-1.,      0000119P0000078
-2.220446049E-16,0.;                                             0000119P0000079
144,123,1,0,131;                                                 0000121P0000080
120,127,129,0.,6.283185307;                                      0000123P0000081
124,-1.,0.,-1.421085472E-14,33.506654,-1.421085472E-14,0.,1.,    0000125P0000082
1.86587896E-13,-0.,1.,0.,0.;                                     0000125P0000083
110,0.,0.,1.,0.,0.,0.;                                           0000127P0000084
110,0.12033,0.,0.,0.12033,0.,34.400362;                          0000129P0000085
142,0,123,0,133,2;                                               0000131P0000086
102,4,135,137,141,143;                                           0000133P0000087
110,33.386324,1.848779039E-13,0.,33.386324,34.400362,0.;         0000135P0000088
100,0.,0.,0.,0.12033,0.,0.12033,0.;                              0000137P0000089
124,-1.,0.,1.421085472E-14,33.506654,-1.421085472E-14,0.,-1.,    0000139P0000090
34.400362,0.,-1.,0.,0.;                                          0000139P0000091
110,33.386324,34.400362,0.,33.386324,1.848779039E-13,0.;         0000141P0000092
100,0.,0.,0.,0.12033,-1.121038771E-44,0.12033,-1.121038771E-44;  0000143P0000093
124,-1.,3.602110761E-30,-1.622246468E-14,33.506654,              0000145P0000094
-1.622246468E-14,-2.220446049E-16,1.,1.86587896E-13,-0.,1.,      0000145P0000095
2.220446049E-16,0.;                                              0000145P0000096
144,149,1,0,159;                                                 0000147P0000097
120,153,155,3.141592654,6.283185307;                             0000149P0000098
124,1.,0.,0.,21.849594,0.,1.,0.,34.400362,0.,0.,1.,0.;           0000151P0000099
110,0.,0.,1.,0.,0.,0.;                                           0000153P0000100
100,0.,0.,0.,-0.12033,1.473617493E-17,-0.12033,1.473617493E-17;  0000155P0000101
124,1.,0.,0.,11.65706,0.,0.,-1.,0.,0.,1.,-0.,0.;                 0000157P0000102
142,0,149,0,161,2;                                               0000159P0000103
102,4,163,167,171,175;                                           0000161P0000104
100,0.,0.,0.,11.53673,1.847411113E-13,-11.53673,0.;              0000163P0000105
124,1.,0.,0.,21.849594,0.,1.,0.,34.400362,0.,0.,1.,              0000165P0000106
4.42085248E-17;                                                  0000165P0000107
100,0.,0.,0.,-0.12033,1.473617493E-17,-0.12033,1.473617493E-17;  0000167P0000108
124,-1.,0.,1.224646799E-16,10.192534,1.224646799E-16,0.,1.,      0000169P0000109
34.400362,0.,1.,0.,0.;                                           0000169P0000110
100,0.,0.,0.,-11.53673,0.,11.53673,-1.847411113E-13;             0000171P0000111
124,1.,0.,0.,21.849594,0.,-1.,0.,34.400362,0.,0.,-1.,            0000173P0000112
4.42085248E-17;                                                  0000173P0000113
100,0.,0.,0.,0.12033,0.,0.12033,0.;                              0000175P0000114
124,-1.,0.,-1.421085472E-14,33.506654,-1.421085472E-14,0.,1.,    0000177P0000115
34.400362,-0.,1.,0.,0.;                                          0000177P0000116
144,181,1,0,189;                                                 0000179P0000117
120,185,187,0.,6.283185307;                                      0000181P0000118
124,1.,0.,0.,10.192534,0.,0.,-1.,-3.944304526E-31,0.,1.,0.,0.;   0000183P0000119
110,0.,0.,1.,0.,0.,0.;                                           0000185P0000120
110,0.12033,0.,-34.400362,0.12033,0.,0.;                         0000187P0000121
142,0,181,0,191,2;                                               0000189P0000122
102,4,193,195,199,201;                                           0000191P0000123
110,10.312864,34.400362,0.,10.312864,-3.944304526E-31,0.;        0000193P0000124
100,0.,0.,0.,0.12033,0.,0.12033,0.;                              0000195P0000125
124,1.,0.,0.,10.192534,0.,-2.220446049E-16,1.,-3.944304526E-31,  0000197P0000126
0.,-1.,-2.220446049E-16,0.;                                      0000197P0000127
110,10.312864,-3.944304526E-31,0.,10.312864,34.400362,0.;        0000199P0000128
100,0.,0.,0.,-0.12033,-1.473617493E-17,-0.12033,                 0000201P0000129
-1.473617493E-17;                                                0000201P0000130
124,-1.,0.,-1.224646799E-16,10.192534,1.224646799E-16,0.,-1.,    0000203P0000131
34.400362,0.,-1.,0.,0.;                                          0000203P0000132
144,207,1,0,209;                                                 0000205P0000133
108,-0.,-1.,-0.,3.93334643E-31,0,10.192534,-3.93334643E-31,      0000207P0000134
6.185679197E-18,0.;                                              0000207P0000135
142,0,207,0,211,2;                                               0000209P0000136
100,0.,0.,0.,0.12033,0.,0.12033,0.;                              0000211P0000137
124,1.,0.,0.,10.192534,0.,2.220446049E-16,-1.,-3.944304526E-31,  0000213P0000138
0.,1.,2.220446049E-16,0.;                                        0000213P0000139
144,217,1,0,219,0,1,263;                                         0000215P0000140
108,0.,0.,1.,0.,0,0.,0.,0.,0.;                                   0000217P0000141
142,0,0,0,0,0;                                                   0000219P0000142
144,223,1,0,225,0,1,257;                                         0000221P0000143
108,0.,-1.,-2.220446049E-16,0.,0,0.,0.,0.,0.;                    0000223P0000144
142,0,0,0,0,0;                                                   0000225P0000145
144,229,1,0,231,0,1,261;                                         0000227P0000146
108,1.,1.232595164E-32,1.110223025E-16,0.,0,0.,0.,0.,0.;         0000229P0000147
142,0,0,0,0,0;                                                   0000231P0000148
102,3,235,237,241,0,1,271;                                       0000233P0000149
110,33.525893,1.883E-13,0.,33.525893,34.400362,0.;               0000235P0000150
100,0.,0.,0.,11.676299,1.847411113E-13,-11.676299,0.;            0000237P0000151
124,1.,0.,0.,21.849594,0.,1.,0.,34.400362,0.,0.,1.,0.;           0000239P0000152
110,10.173295,34.400362,0.,10.173295,-1.4E-15,0.;                0000241P0000153
100,0.,0.,0.,0.12033,0.,0.12033,0.,0,1,273;                      0000243P0000154
124,1.,0.,0.,10.192534,0.,2.220446049E-16,-1.,0.,0.,1.,          0000245P0000155
2.220446049E-16,0.;                                              0000245P0000156
110,-2.E+100,0.,0.,2.E+100,0.,0.,0,1,259;                        0000247P0000157
110,0.,-2.E+100,2.220446049E+84,0.,2.E+100,-2.220446049E+84,0,1, 0000249P0000158
265;                                                             0000249P0000159
110,0.,-2.220446049E+84,-2.E+100,0.,2.220446049E+84,2.E+100,0,1, 0000251P0000160
267;                                                             0000251P0000161
116,0.,0.,0.,0;                                                  0000253P0000162
406,1,4HBody;                                                    0000255P0000163
406,1,8HXZ-plane;                                                0000257P0000164
406,1,6HX-axis;                                                  0000259P0000165
406,1,8HYZ-plane;                                                0000261P0000166
406,1,8HXY-plane;                                                0000263P0000167
406,1,6HY-axis;                                                  0000265P0000168
406,1,6HZ-axis;                                                  0000267P0000169
406,1,10Hpaper_clip;                                             0000269P0000170
406,1,6HSketch;                                                  0000271P0000171
406,1,9HSketch001;                                               0000273P0000172
406,1,12HAdditivePipe;                                           0000275P0000173
S      1G      3D    276P    173                                        T0000001
