ISO-10303-21;
HEADER;
FILE_DESCRIPTION(('FreeCAD Model'),'2;1');
FILE_NAME('Open CASCADE Shape Model','2026-07-27T10:30:46',(''),(''),
  'Open CASCADE STEP processor 7.8','FreeCAD','Unknown');
FILE_SCHEMA(('AUTOMOTIVE_DESIGN { 1 0 10303 214 1 1 1 1 }'));
ENDSEC;
DATA;
#1 = APPLICATION_PROTOCOL_DEFINITION('international standard',
  'automotive_design',2000,#2);
#2 = APPLICATION_CONTEXT(
  'core data for automotive mechanical design processes');
#3 = SHAPE_DEFINITION_REPRESENTATION(#4,#10);
#4 = PRODUCT_DEFINITION_SHAPE('','',#5);
#5 = PRODUCT_DEFINITION('design','',#6,#9);
#6 = PRODUCT_DEFINITION_FORMATION('','',#7);
#7 = PRODUCT('paper_clip','paper_clip','',(#8));
#8 = PRODUCT_CONTEXT('',#2,'mechanical');
#9 = PRODUCT_DEFINITION_CONTEXT('part definition',#2,'design');
#10 = SHAPE_REPRESENTATION('',(#11,#15,#19,#23,#27,#31,#35,#39,#43,#47,
    #51,#55),#59);
#11 = AXIS2_PLACEMENT_3D('',#12,#13,#14);
#12 = CARTESIAN_POINT('',(0.,0.,0.));
#13 = DIRECTION('',(0.,0.,1.));
#14 = DIRECTION('',(1.,0.,-0.));
#15 = AXIS2_PLACEMENT_3D('',#16,#17,#18);
#16 = CARTESIAN_POINT('',(0.,0.,0.));
#17 = DIRECTION('',(0.,0.,1.));
#18 = DIRECTION('',(1.,0.,0.));
#19 = AXIS2_PLACEMENT_3D('',#20,#21,#22);
#20 = CARTESIAN_POINT('',(0.,0.,0.));
#21 = DIRECTION('',(0.,0.,1.));
#22 = DIRECTION('',(1.,0.,0.));
#23 = AXIS2_PLACEMENT_3D('',#24,#25,#26);
#24 = CARTESIAN_POINT('',(0.,0.,0.));
#25 = DIRECTION('',(1.,1.232595164408E-32,1.110223024625E-16));
#26 = DIRECTION('',(0.,1.,-1.110223024625E-16));
#27 = AXIS2_PLACEMENT_3D('',#28,#29,#30);
#28 = CARTESIAN_POINT('',(0.,0.,0.));
#29 = DIRECTION('',(0.,-1.,1.110223024625E-16));
#30 = DIRECTION('',(0.,1.110223024625E-16,1.));
#31 = AXIS2_PLACEMENT_3D('',#32,#33,#34);
#32 = CARTESIAN_POINT('',(0.,0.,0.));
#33 = DIRECTION('',(0.,0.,1.));
#34 = DIRECTION('',(1.,0.,0.));
#35 = AXIS2_PLACEMENT_3D('',#36,#37,#38);
#36 = CARTESIAN_POINT('',(0.,0.,0.));
#37 = DIRECTION('',(0.,-1.,-2.22044604925E-16));
#38 = DIRECTION('',(1.,0.,0.));
#39 = AXIS2_PLACEMENT_3D('',#40,#41,#42);
#40 = CARTESIAN_POINT('',(0.,0.,0.));
#41 = DIRECTION('',(1.,1.232595164408E-32,1.110223024625E-16));
#42 = DIRECTION('',(0.,1.,-1.110223024625E-16));
#43 = AXIS2_PLACEMENT_3D('',#44,#45,#46);
#44 = CARTESIAN_POINT('',(0.,0.,0.));
#45 = DIRECTION('',(0.,0.,1.));
#46 = DIRECTION('',(1.,0.,0.));
#47 = AXIS2_PLACEMENT_3D('',#48,#49,#50);
#48 = CARTESIAN_POINT('',(0.,0.,0.));
#49 = DIRECTION('',(0.,-1.,2.22044604925E-16));
#50 = DIRECTION('',(1.,0.,0.));
#51 = AXIS2_PLACEMENT_3D('',#52,#53,#54);
#52 = CARTESIAN_POINT('',(0.,0.,0.));
#53 = DIRECTION('',(0.,0.,1.));
#54 = DIRECTION('',(1.,0.,0.));
#55 = AXIS2_PLACEMENT_3D('',#56,#57,#58);
#56 = CARTESIAN_POINT('',(0.,0.,0.));
#57 = DIRECTION('',(0.,0.,1.));
#58 = DIRECTION('',(1.,0.,-0.));
#59 = ( GEOMETRIC_REPRESENTATION_CONTEXT(3) 
GLOBAL_UNCERTAINTY_ASSIGNED_CONTEXT((#63)) GLOBAL_UNIT_ASSIGNED_CONTEXT(
(#60,#61,#62)) REPRESENTATION_CONTEXT('Context #1',
  '3D Context with UNIT and UNCERTAINTY') );
#60 = ( LENGTH_UNIT() NAMED_UNIT(*) SI_UNIT(.MILLI.,.METRE.) );
#61 = ( NAMED_UNIT(*) PLANE_ANGLE_UNIT() SI_UNIT($,.RADIAN.) );
#62 = ( NAMED_UNIT(*) SI_UNIT($,.STERADIAN.) SOLID_ANGLE_UNIT() );
#63 = UNCERTAINTY_MEASURE_WITH_UNIT(LENGTH_MEASURE(1.E-07),#60,
  'distance_accuracy_value','confusion accuracy');
#64 = PRODUCT_RELATED_PRODUCT_CATEGORY('part',$,(#7));
#65 = SHAPE_DEFINITION_REPRESENTATION(#66,#72);
#66 = PRODUCT_DEFINITION_SHAPE('','',#67);
#67 = PRODUCT_DEFINITION('design','',#68,#71);
#68 = PRODUCT_DEFINITION_FORMATION('','',#69);
#69 = PRODUCT('Body','Body','',(#70));
#70 = PRODUCT_CONTEXT('',#2,'mechanical');
#71 = PRODUCT_DEFINITION_CONTEXT('part definition',#2,'design');
#72 = ADVANCED_BREP_SHAPE_REPRESENTATION('',(#11,#73),#177);
#73 = MANIFOLD_SOLID_BREP('',#74);
#74 = CLOSED_SHELL('',(#75,#92,#117,#143,#168));
#75 = ADVANCED_FACE('',(#76),#87,.F.);
#76 = FACE_BOUND('',#77,.F.);
#77 = EDGE_LOOP('',(#78));
#78 = ORIENTED_EDGE('',*,*,#79,.T.);
#79 = EDGE_CURVE('',#80,#80,#82,.T.);
#80 = VERTEX_POINT('',#81);
#81 = CARTESIAN_POINT('',(33.386324,1.848779038542E-13,
    -2.947234986828E-17));
#82 = CIRCLE('',#83,0.12033);
#83 = AXIS2_PLACEMENT_3D('',#84,#85,#86);
#84 = CARTESIAN_POINT('',(33.506654,1.86587896002E-13,0.));
#85 = DIRECTION('',(-1.622246467991E-14,1.,2.22044604925E-16));
#86 = DIRECTION('',(-1.,-1.622246467991E-14,-0.));
#87 = PLANE('',#88);
#88 = AXIS2_PLACEMENT_3D('',#89,#90,#91);
#89 = CARTESIAN_POINT('',(33.506654,1.86587896002E-13,6.368104430163E-19
    ));
#90 = DIRECTION('',(-1.622246467991E-14,1.,0.));
#91 = DIRECTION('',(1.,1.622246467991E-14,0.));
#92 = ADVANCED_FACE('',(#93),#112,.T.);
#93 = FACE_BOUND('',#94,.T.);
#94 = EDGE_LOOP('',(#95,#103,#110,#111));
#95 = ORIENTED_EDGE('',*,*,#96,.T.);
#96 = EDGE_CURVE('',#80,#97,#99,.T.);
#97 = VERTEX_POINT('',#98);
#98 = CARTESIAN_POINT('',(33.386324,34.400362,0.));
#99 = LINE('',#100,#101);
#100 = CARTESIAN_POINT('',(33.386324,1.848779038542E-13,0.));
#101 = VECTOR('',#102,1.);
#102 = DIRECTION('',(-1.42108547152E-14,1.,0.));
#103 = ORIENTED_EDGE('',*,*,#104,.F.);
#104 = EDGE_CURVE('',#97,#97,#105,.T.);
#105 = CIRCLE('',#106,0.12033);
#106 = AXIS2_PLACEMENT_3D('',#107,#108,#109);
#107 = CARTESIAN_POINT('',(33.506654,34.400362,0.));
#108 = DIRECTION('',(-1.42108547152E-14,1.,0.));
#109 = DIRECTION('',(-1.,-1.42108547152E-14,-0.));
#110 = ORIENTED_EDGE('',*,*,#96,.F.);
#111 = ORIENTED_EDGE('',*,*,#79,.T.);
#112 = CYLINDRICAL_SURFACE('',#113,0.12033);
#113 = AXIS2_PLACEMENT_3D('',#114,#115,#116);
#114 = CARTESIAN_POINT('',(33.506654,1.86587896002E-13,0.));
#115 = DIRECTION('',(-1.42108547152E-14,1.,0.));
#116 = DIRECTION('',(-1.,-1.42108547152E-14,-0.));
#117 = ADVANCED_FACE('',(#118),#138,.T.);
#118 = FACE_BOUND('',#119,.T.);
#119 = EDGE_LOOP('',(#120,#129,#136,#137));
#120 = ORIENTED_EDGE('',*,*,#121,.T.);
#121 = EDGE_CURVE('',#97,#122,#124,.T.);
#122 = VERTEX_POINT('',#123);
#123 = CARTESIAN_POINT('',(10.312864,34.400362,0.));
#124 = CIRCLE('',#125,11.53673);
#125 = AXIS2_PLACEMENT_3D('',#126,#127,#128);
#126 = CARTESIAN_POINT('',(21.849594,34.400362,4.420852480242E-17));
#127 = DIRECTION('',(0.,0.,1.));
#128 = DIRECTION('',(1.,0.,0.));
#129 = ORIENTED_EDGE('',*,*,#130,.T.);
#130 = EDGE_CURVE('',#122,#122,#131,.T.);
#131 = CIRCLE('',#132,0.12033);
#132 = AXIS2_PLACEMENT_3D('',#133,#134,#135);
#133 = CARTESIAN_POINT('',(10.192534,34.400362,0.));
#134 = DIRECTION('',(1.224646799147E-16,1.,-0.));
#135 = DIRECTION('',(-1.,1.224646799147E-16,0.));
#136 = ORIENTED_EDGE('',*,*,#121,.F.);
#137 = ORIENTED_EDGE('',*,*,#104,.T.);
#138 = TOROIDAL_SURFACE('',#139,11.65706,0.12033);
#139 = AXIS2_PLACEMENT_3D('',#140,#141,#142);
#140 = CARTESIAN_POINT('',(21.849594,34.400362,0.));
#141 = DIRECTION('',(0.,0.,1.));
#142 = DIRECTION('',(1.,0.,0.));
#143 = ADVANCED_FACE('',(#144),#163,.T.);
#144 = FACE_BOUND('',#145,.T.);
#145 = EDGE_LOOP('',(#146,#154,#161,#162));
#146 = ORIENTED_EDGE('',*,*,#147,.T.);
#147 = EDGE_CURVE('',#122,#148,#150,.T.);
#148 = VERTEX_POINT('',#149);
#149 = CARTESIAN_POINT('',(10.312864,-3.944304526105E-31,
    -2.947234986828E-17));
#150 = LINE('',#151,#152);
#151 = CARTESIAN_POINT('',(10.312864,-3.944304526105E-31,0.));
#152 = VECTOR('',#153,1.);
#153 = DIRECTION('',(0.,-1.,0.));
#154 = ORIENTED_EDGE('',*,*,#155,.F.);
#155 = EDGE_CURVE('',#148,#148,#156,.T.);
#156 = CIRCLE('',#157,0.12033);
#157 = AXIS2_PLACEMENT_3D('',#158,#159,#160);
#158 = CARTESIAN_POINT('',(10.192534,-3.944304526105E-31,0.));
#159 = DIRECTION('',(0.,-1.,2.22044604925E-16));
#160 = DIRECTION('',(1.,0.,0.));
#161 = ORIENTED_EDGE('',*,*,#147,.F.);
#162 = ORIENTED_EDGE('',*,*,#130,.F.);
#163 = CYLINDRICAL_SURFACE('',#164,0.12033);
#164 = AXIS2_PLACEMENT_3D('',#165,#166,#167);
#165 = CARTESIAN_POINT('',(10.192534,-3.944304526105E-31,0.));
#166 = DIRECTION('',(0.,-1.,0.));
#167 = DIRECTION('',(1.,0.,0.));
#168 = ADVANCED_FACE('',(#169),#172,.T.);
#169 = FACE_BOUND('',#170,.T.);
#170 = EDGE_LOOP('',(#171));
#171 = ORIENTED_EDGE('',*,*,#155,.T.);
#172 = PLANE('',#173);
#173 = AXIS2_PLACEMENT_3D('',#174,#175,#176);
#174 = CARTESIAN_POINT('',(10.192534,-3.933346429585E-31,
    6.185679197413E-18));
#175 = DIRECTION('',(-0.,-1.,-0.));
#176 = DIRECTION('',(0.,0.,-1.));
#177 = ( GEOMETRIC_REPRESENTATION_CONTEXT(3) 
GLOBAL_UNCERTAINTY_ASSIGNED_CONTEXT((#181)) GLOBAL_UNIT_ASSIGNED_CONTEXT
((#178,#179,#180)) REPRESENTATION_CONTEXT('Context #1',
  '3D Context with UNIT and UNCERTAINTY') );
#178 = ( LENGTH_UNIT() NAMED_UNIT(*) SI_UNIT(.MILLI.,.METRE.) );
#179 = ( NAMED_UNIT(*) PLANE_ANGLE_UNIT() SI_UNIT($,.RADIAN.) );
#180 = ( NAMED_UNIT(*) SI_UNIT($,.STERADIAN.) SOLID_ANGLE_UNIT() );
#181 = UNCERTAINTY_MEASURE_WITH_UNIT(LENGTH_MEASURE(1.E-07),#178,
  'distance_accuracy_value','confusion accuracy');
#182 = CONTEXT_DEPENDENT_SHAPE_REPRESENTATION(#183,#185);
#183 = ( REPRESENTATION_RELATIONSHIP('','',#72,#10) 
REPRESENTATION_RELATIONSHIP_WITH_TRANSFORMATION(#184) 
SHAPE_REPRESENTATION_RELATIONSHIP() );
#184 = ITEM_DEFINED_TRANSFORMATION('','',#11,#15);
#185 = PRODUCT_DEFINITION_SHAPE('Placement','Placement of an item',#186
  );
#186 = NEXT_ASSEMBLY_USAGE_OCCURRENCE('347','Body','',#5,#67,$);
#187 = PRODUCT_RELATED_PRODUCT_CATEGORY('part',$,(#69));
#188 = SHAPE_DEFINITION_REPRESENTATION(#189,#195);
#189 = PRODUCT_DEFINITION_SHAPE('','',#190);
#190 = PRODUCT_DEFINITION('design','',#191,#194);
#191 = PRODUCT_DEFINITION_FORMATION('','',#192);
#192 = PRODUCT('X-axis','X-axis','',(#193));
#193 = PRODUCT_CONTEXT('',#2,'mechanical');
#194 = PRODUCT_DEFINITION_CONTEXT('part definition',#2,'design');
#195 = GEOMETRICALLY_BOUNDED_WIREFRAME_SHAPE_REPRESENTATION('',(#11,#196
    ),#201);
#196 = GEOMETRIC_CURVE_SET('',(#197));
#197 = LINE('',#198,#199);
#198 = CARTESIAN_POINT('',(0.,0.,0.));
#199 = VECTOR('',#200,1.);
#200 = DIRECTION('',(1.,0.,0.));
#201 = ( GEOMETRIC_REPRESENTATION_CONTEXT(3) 
GLOBAL_UNCERTAINTY_ASSIGNED_CONTEXT((#205)) GLOBAL_UNIT_ASSIGNED_CONTEXT
((#202,#203,#204)) REPRESENTATION_CONTEXT('Context #1',
  '3D Context with UNIT and UNCERTAINTY') );
#202 = ( LENGTH_UNIT() NAMED_UNIT(*) SI_UNIT(.MILLI.,.METRE.) );
#203 = ( NAMED_UNIT(*) PLANE_ANGLE_UNIT() SI_UNIT($,.RADIAN.) );
#204 = ( NAMED_UNIT(*) SI_UNIT($,.STERADIAN.) SOLID_ANGLE_UNIT() );
#205 = UNCERTAINTY_MEASURE_WITH_UNIT(LENGTH_MEASURE(1.E-07),#202,
  'distance_accuracy_value','confusion accuracy');
#206 = CONTEXT_DEPENDENT_SHAPE_REPRESENTATION(#207,#209);
#207 = ( REPRESENTATION_RELATIONSHIP('','',#195,#10) 
REPRESENTATION_RELATIONSHIP_WITH_TRANSFORMATION(#208) 
SHAPE_REPRESENTATION_RELATIONSHIP() );
#208 = ITEM_DEFINED_TRANSFORMATION('','',#11,#19);
#209 = PRODUCT_DEFINITION_SHAPE('Placement','Placement of an item',#210
  );
#210 = NEXT_ASSEMBLY_USAGE_OCCURRENCE('348','X-axis','',#5,#190,$);
#211 = PRODUCT_RELATED_PRODUCT_CATEGORY('part',$,(#192));
#212 = CONTEXT_DEPENDENT_SHAPE_REPRESENTATION(#213,#215);
#213 = ( REPRESENTATION_RELATIONSHIP('','',#195,#10) 
REPRESENTATION_RELATIONSHIP_WITH_TRANSFORMATION(#214) 
SHAPE_REPRESENTATION_RELATIONSHIP() );
#214 = ITEM_DEFINED_TRANSFORMATION('','',#11,#23);
#215 = PRODUCT_DEFINITION_SHAPE('Placement','Placement of an item',#216
  );
#216 = NEXT_ASSEMBLY_USAGE_OCCURRENCE('349','Y-axis','',#5,#190,$);
#217 = CONTEXT_DEPENDENT_SHAPE_REPRESENTATION(#218,#220);
#218 = ( REPRESENTATION_RELATIONSHIP('','',#195,#10) 
REPRESENTATION_RELATIONSHIP_WITH_TRANSFORMATION(#219) 
SHAPE_REPRESENTATION_RELATIONSHIP() );
#219 = ITEM_DEFINED_TRANSFORMATION('','',#11,#27);
#220 = PRODUCT_DEFINITION_SHAPE('Placement','Placement of an item',#221
  );
#221 = NEXT_ASSEMBLY_USAGE_OCCURRENCE('350','Z-axis','',#5,#190,$);
#222 = SHAPE_DEFINITION_REPRESENTATION(#223,#229);
#223 = PRODUCT_DEFINITION_SHAPE('','',#224);
#224 = PRODUCT_DEFINITION('design','',#225,#228);
#225 = PRODUCT_DEFINITION_FORMATION('','',#226);
#226 = PRODUCT('XY-plane','XY-plane','',(#227));
#227 = PRODUCT_CONTEXT('',#2,'mechanical');
#228 = PRODUCT_DEFINITION_CONTEXT('part definition',#2,'design');
#229 = MANIFOLD_SURFACE_SHAPE_REPRESENTATION('',(#11),#230);
#230 = ( GEOMETRIC_REPRESENTATION_CONTEXT(3) 
GLOBAL_UNCERTAINTY_ASSIGNED_CONTEXT((#234)) GLOBAL_UNIT_ASSIGNED_CONTEXT
((#231,#232,#233)) REPRESENTATION_CONTEXT('Context #1',
  '3D Context with UNIT and UNCERTAINTY') );
#231 = ( LENGTH_UNIT() NAMED_UNIT(*) SI_UNIT(.MILLI.,.METRE.) );
#232 = ( NAMED_UNIT(*) PLANE_ANGLE_UNIT() SI_UNIT($,.RADIAN.) );
#233 = ( NAMED_UNIT(*) SI_UNIT($,.STERADIAN.) SOLID_ANGLE_UNIT() );
#234 = UNCERTAINTY_MEASURE_WITH_UNIT(LENGTH_MEASURE(1.E-07),#231,
  'distance_accuracy_value','confusion accuracy');
#235 = CONTEXT_DEPENDENT_SHAPE_REPRESENTATION(#236,#238);
#236 = ( REPRESENTATION_RELATIONSHIP('','',#229,#10) 
REPRESENTATION_RELATIONSHIP_WITH_TRANSFORMATION(#237) 
SHAPE_REPRESENTATION_RELATIONSHIP() );
#237 = ITEM_DEFINED_TRANSFORMATION('','',#11,#31);
#238 = PRODUCT_DEFINITION_SHAPE('Placement','Placement of an item',#239
  );
#239 = NEXT_ASSEMBLY_USAGE_OCCURRENCE('351','XY-plane','',#5,#224,$);
#240 = PRODUCT_RELATED_PRODUCT_CATEGORY('part',$,(#226));
#241 = CONTEXT_DEPENDENT_SHAPE_REPRESENTATION(#242,#244);
#242 = ( REPRESENTATION_RELATIONSHIP('','',#229,#10) 
REPRESENTATION_RELATIONSHIP_WITH_TRANSFORMATION(#243) 
SHAPE_REPRESENTATION_RELATIONSHIP() );
#243 = ITEM_DEFINED_TRANSFORMATION('','',#11,#35);
#244 = PRODUCT_DEFINITION_SHAPE('Placement','Placement of an item',#245
  );
#245 = NEXT_ASSEMBLY_USAGE_OCCURRENCE('352','XZ-plane','',#5,#224,$);
#246 = CONTEXT_DEPENDENT_SHAPE_REPRESENTATION(#247,#249);
#247 = ( REPRESENTATION_RELATIONSHIP('','',#229,#10) 
REPRESENTATION_RELATIONSHIP_WITH_TRANSFORMATION(#248) 
SHAPE_REPRESENTATION_RELATIONSHIP() );
#248 = ITEM_DEFINED_TRANSFORMATION('','',#11,#39);
#249 = PRODUCT_DEFINITION_SHAPE('Placement','Placement of an item',#250
  );
#250 = NEXT_ASSEMBLY_USAGE_OCCURRENCE('353','YZ-plane','',#5,#224,$);
#251 = SHAPE_DEFINITION_REPRESENTATION(#252,#258);
#252 = PRODUCT_DEFINITION_SHAPE('','',#253);
#253 = PRODUCT_DEFINITION('design','',#254,#257);
#254 = PRODUCT_DEFINITION_FORMATION('','',#255);
#255 = PRODUCT('Sketch','Sketch','',(#256));
#256 = PRODUCT_CONTEXT('',#2,'mechanical');
#257 = PRODUCT_DEFINITION_CONTEXT('part definition',#2,'design');
#258 = GEOMETRICALLY_BOUNDED_WIREFRAME_SHAPE_REPRESENTATION('',(#11,#259
    ),#282);
#259 = GEOMETRIC_CURVE_SET('',(#260,#267,#275));
#260 = TRIMMED_CURVE('',#261,(#265,PARAMETER_VALUE(0.)),(#266,
    PARAMETER_VALUE(34.400362)),.T.,.PARAMETER.);
#261 = LINE('',#262,#263);
#262 = CARTESIAN_POINT('',(33.525892999999,1.883E-13,0.));
#263 = VECTOR('',#264,1.);
#264 = DIRECTION('',(-1.590442293995E-14,1.,0.));
#265 = CARTESIAN_POINT('',(33.525892999999,1.883E-13,0.));
#266 = CARTESIAN_POINT('',(33.525892999999,34.400362,0.));
#267 = TRIMMED_CURVE('',#268,(#273,PARAMETER_VALUE(1.61E-14)),(#274,
    PARAMETER_VALUE(3.14159265359)),.T.,.PARAMETER.);
#268 = CIRCLE('',#269,11.676298999999);
#269 = AXIS2_PLACEMENT_3D('',#270,#271,#272);
#270 = CARTESIAN_POINT('',(21.849594,34.400362,0.));
#271 = DIRECTION('',(0.,0.,1.));
#272 = DIRECTION('',(1.,0.,0.));
#273 = CARTESIAN_POINT('',(33.525892999999,34.400362,0.));
#274 = CARTESIAN_POINT('',(10.173295000001,34.400362,0.));
#275 = TRIMMED_CURVE('',#276,(#280,PARAMETER_VALUE(0.)),(#281,
    PARAMETER_VALUE(34.400362)),.T.,.PARAMETER.);
#276 = LINE('',#277,#278);
#277 = CARTESIAN_POINT('',(10.173295000001,-1.4E-15,0.));
#278 = VECTOR('',#279,1.);
#279 = DIRECTION('',(0.,1.,0.));
#280 = CARTESIAN_POINT('',(10.173295000001,-1.4E-15,0.));
#281 = CARTESIAN_POINT('',(10.173295000001,34.400362,0.));
#282 = ( GEOMETRIC_REPRESENTATION_CONTEXT(3) 
GLOBAL_UNCERTAINTY_ASSIGNED_CONTEXT((#286)) GLOBAL_UNIT_ASSIGNED_CONTEXT
((#283,#284,#285)) REPRESENTATION_CONTEXT('Context #1',
  '3D Context with UNIT and UNCERTAINTY') );
#283 = ( LENGTH_UNIT() NAMED_UNIT(*) SI_UNIT(.MILLI.,.METRE.) );
#284 = ( NAMED_UNIT(*) PLANE_ANGLE_UNIT() SI_UNIT($,.RADIAN.) );
#285 = ( NAMED_UNIT(*) SI_UNIT($,.STERADIAN.) SOLID_ANGLE_UNIT() );
#286 = UNCERTAINTY_MEASURE_WITH_UNIT(LENGTH_MEASURE(1.E-07),#283,
  'distance_accuracy_value','confusion accuracy');
#287 = CONTEXT_DEPENDENT_SHAPE_REPRESENTATION(#288,#290);
#288 = ( REPRESENTATION_RELATIONSHIP('','',#258,#10) 
REPRESENTATION_RELATIONSHIP_WITH_TRANSFORMATION(#289) 
SHAPE_REPRESENTATION_RELATIONSHIP() );
#289 = ITEM_DEFINED_TRANSFORMATION('','',#11,#43);
#290 = PRODUCT_DEFINITION_SHAPE('Placement','Placement of an item',#291
  );
#291 = NEXT_ASSEMBLY_USAGE_OCCURRENCE('354','Sketch','',#5,#253,$);
#292 = PRODUCT_RELATED_PRODUCT_CATEGORY('part',$,(#255));
#293 = SHAPE_DEFINITION_REPRESENTATION(#294,#300);
#294 = PRODUCT_DEFINITION_SHAPE('','',#295);
#295 = PRODUCT_DEFINITION('design','',#296,#299);
#296 = PRODUCT_DEFINITION_FORMATION('','',#297);
#297 = PRODUCT('Sketch001','Sketch001','',(#298));
#298 = PRODUCT_CONTEXT('',#2,'mechanical');
#299 = PRODUCT_DEFINITION_CONTEXT('part definition',#2,'design');
#300 = GEOMETRICALLY_BOUNDED_WIREFRAME_SHAPE_REPRESENTATION('',(#11,#301
    ),#310);
#301 = GEOMETRIC_CURVE_SET('',(#302));
#302 = TRIMMED_CURVE('',#303,(#308,PARAMETER_VALUE(0.)),(#309,
    PARAMETER_VALUE(6.28318530718)),.T.,.PARAMETER.);
#303 = CIRCLE('',#304,0.12033);
#304 = AXIS2_PLACEMENT_3D('',#305,#306,#307);
#305 = CARTESIAN_POINT('',(10.192534,0.,0.));
#306 = DIRECTION('',(0.,0.,1.));
#307 = DIRECTION('',(1.,0.,0.));
#308 = CARTESIAN_POINT('',(10.312864,0.,0.));
#309 = CARTESIAN_POINT('',(10.312864,0.,0.));
#310 = ( GEOMETRIC_REPRESENTATION_CONTEXT(3) 
GLOBAL_UNCERTAINTY_ASSIGNED_CONTEXT((#314)) GLOBAL_UNIT_ASSIGNED_CONTEXT
((#311,#312,#313)) REPRESENTATION_CONTEXT('Context #1',
  '3D Context with UNIT and UNCERTAINTY') );
#311 = ( LENGTH_UNIT() NAMED_UNIT(*) SI_UNIT(.MILLI.,.METRE.) );
#312 = ( NAMED_UNIT(*) PLANE_ANGLE_UNIT() SI_UNIT($,.RADIAN.) );
#313 = ( NAMED_UNIT(*) SI_UNIT($,.STERADIAN.) SOLID_ANGLE_UNIT() );
#314 = UNCERTAINTY_MEASURE_WITH_UNIT(LENGTH_MEASURE(1.E-07),#311,
  'distance_accuracy_value','confusion accuracy');
#315 = CONTEXT_DEPENDENT_SHAPE_REPRESENTATION(#316,#318);
#316 = ( REPRESENTATION_RELATIONSHIP('','',#300,#10) 
REPRESENTATION_RELATIONSHIP_WITH_TRANSFORMATION(#317) 
SHAPE_REPRESENTATION_RELATIONSHIP() );
#317 = ITEM_DEFINED_TRANSFORMATION('','',#11,#47);
#318 = PRODUCT_DEFINITION_SHAPE('Placement','Placement of an item',#319
  );
#319 = NEXT_ASSEMBLY_USAGE_OCCURRENCE('355','Sketch001','',#5,#295,$);
#320 = PRODUCT_RELATED_PRODUCT_CATEGORY('part',$,(#297));
#321 = SHAPE_DEFINITION_REPRESENTATION(#322,#328);
#322 = PRODUCT_DEFINITION_SHAPE('','',#323);
#323 = PRODUCT_DEFINITION('design','',#324,#327);
#324 = PRODUCT_DEFINITION_FORMATION('','',#325);
#325 = PRODUCT('AdditivePipe','AdditivePipe','',(#326));
#326 = PRODUCT_CONTEXT('',#2,'mechanical');
#327 = PRODUCT_DEFINITION_CONTEXT('part definition',#2,'design');
#328 = ADVANCED_BREP_SHAPE_REPRESENTATION('',(#11,#329),#433);
#329 = MANIFOLD_SOLID_BREP('',#330);
#330 = CLOSED_SHELL('',(#331,#348,#373,#399,#424));
#331 = ADVANCED_FACE('',(#332),#343,.F.);
#332 = FACE_BOUND('',#333,.F.);
#333 = EDGE_LOOP('',(#334));
#334 = ORIENTED_EDGE('',*,*,#335,.T.);
#335 = EDGE_CURVE('',#336,#336,#338,.T.);
#336 = VERTEX_POINT('',#337);
#337 = CARTESIAN_POINT('',(33.386324,1.848779038542E-13,
    -2.947234986828E-17));
#338 = CIRCLE('',#339,0.12033);
#339 = AXIS2_PLACEMENT_3D('',#340,#341,#342);
#340 = CARTESIAN_POINT('',(33.506654,1.86587896002E-13,0.));
#341 = DIRECTION('',(-1.622246467991E-14,1.,2.22044604925E-16));
#342 = DIRECTION('',(-1.,-1.622246467991E-14,-0.));
#343 = PLANE('',#344);
#344 = AXIS2_PLACEMENT_3D('',#345,#346,#347);
#345 = CARTESIAN_POINT('',(33.506654,1.86587896002E-13,
    6.368104430163E-19));
#346 = DIRECTION('',(-1.622246467991E-14,1.,0.));
#347 = DIRECTION('',(1.,1.622246467991E-14,0.));
#348 = ADVANCED_FACE('',(#349),#368,.T.);
#349 = FACE_BOUND('',#350,.T.);
#350 = EDGE_LOOP('',(#351,#359,#366,#367));
#351 = ORIENTED_EDGE('',*,*,#352,.T.);
#352 = EDGE_CURVE('',#336,#353,#355,.T.);
#353 = VERTEX_POINT('',#354);
#354 = CARTESIAN_POINT('',(33.386324,34.400362,0.));
#355 = LINE('',#356,#357);
#356 = CARTESIAN_POINT('',(33.386324,1.848779038542E-13,0.));
#357 = VECTOR('',#358,1.);
#358 = DIRECTION('',(-1.42108547152E-14,1.,0.));
#359 = ORIENTED_EDGE('',*,*,#360,.F.);
#360 = EDGE_CURVE('',#353,#353,#361,.T.);
#361 = CIRCLE('',#362,0.12033);
#362 = AXIS2_PLACEMENT_3D('',#363,#364,#365);
#363 = CARTESIAN_POINT('',(33.506654,34.400362,0.));
#364 = DIRECTION('',(-1.42108547152E-14,1.,0.));
#365 = DIRECTION('',(-1.,-1.42108547152E-14,-0.));
#366 = ORIENTED_EDGE('',*,*,#352,.F.);
#367 = ORIENTED_EDGE('',*,*,#335,.T.);
#368 = CYLINDRICAL_SURFACE('',#369,0.12033);
#369 = AXIS2_PLACEMENT_3D('',#370,#371,#372);
#370 = CARTESIAN_POINT('',(33.506654,1.86587896002E-13,0.));
#371 = DIRECTION('',(-1.42108547152E-14,1.,0.));
#372 = DIRECTION('',(-1.,-1.42108547152E-14,-0.));
#373 = ADVANCED_FACE('',(#374),#394,.T.);
#374 = FACE_BOUND('',#375,.T.);
#375 = EDGE_LOOP('',(#376,#385,#392,#393));
#376 = ORIENTED_EDGE('',*,*,#377,.T.);
#377 = EDGE_CURVE('',#353,#378,#380,.T.);
#378 = VERTEX_POINT('',#379);
#379 = CARTESIAN_POINT('',(10.312864,34.400362,0.));
#380 = CIRCLE('',#381,11.53673);
#381 = AXIS2_PLACEMENT_3D('',#382,#383,#384);
#382 = CARTESIAN_POINT('',(21.849594,34.400362,4.420852480242E-17));
#383 = DIRECTION('',(0.,-0.,1.));
#384 = DIRECTION('',(1.,0.,0.));
#385 = ORIENTED_EDGE('',*,*,#386,.T.);
#386 = EDGE_CURVE('',#378,#378,#387,.T.);
#387 = CIRCLE('',#388,0.12033);
#388 = AXIS2_PLACEMENT_3D('',#389,#390,#391);
#389 = CARTESIAN_POINT('',(10.192534,34.400362,0.));
#390 = DIRECTION('',(1.224646799147E-16,1.,0.));
#391 = DIRECTION('',(-1.,1.224646799147E-16,0.));
#392 = ORIENTED_EDGE('',*,*,#377,.F.);
#393 = ORIENTED_EDGE('',*,*,#360,.T.);
#394 = TOROIDAL_SURFACE('',#395,11.65706,0.12033);
#395 = AXIS2_PLACEMENT_3D('',#396,#397,#398);
#396 = CARTESIAN_POINT('',(21.849594,34.400362,0.));
#397 = DIRECTION('',(0.,-0.,1.));
#398 = DIRECTION('',(1.,0.,0.));
#399 = ADVANCED_FACE('',(#400),#419,.T.);
#400 = FACE_BOUND('',#401,.T.);
#401 = EDGE_LOOP('',(#402,#410,#417,#418));
#402 = ORIENTED_EDGE('',*,*,#403,.T.);
#403 = EDGE_CURVE('',#378,#404,#406,.T.);
#404 = VERTEX_POINT('',#405);
#405 = CARTESIAN_POINT('',(10.312864,-3.944304526105E-31,
    -2.947234986828E-17));
#406 = LINE('',#407,#408);
#407 = CARTESIAN_POINT('',(10.312864,-3.944304526105E-31,0.));
#408 = VECTOR('',#409,1.);
#409 = DIRECTION('',(0.,-1.,0.));
#410 = ORIENTED_EDGE('',*,*,#411,.F.);
#411 = EDGE_CURVE('',#404,#404,#412,.T.);
#412 = CIRCLE('',#413,0.12033);
#413 = AXIS2_PLACEMENT_3D('',#414,#415,#416);
#414 = CARTESIAN_POINT('',(10.192534,-3.944304526105E-31,0.));
#415 = DIRECTION('',(0.,-1.,2.22044604925E-16));
#416 = DIRECTION('',(1.,0.,-0.));
#417 = ORIENTED_EDGE('',*,*,#403,.F.);
#418 = ORIENTED_EDGE('',*,*,#386,.F.);
#419 = CYLINDRICAL_SURFACE('',#420,0.12033);
#420 = AXIS2_PLACEMENT_3D('',#421,#422,#423);
#421 = CARTESIAN_POINT('',(10.192534,-3.944304526105E-31,0.));
#422 = DIRECTION('',(0.,-1.,0.));
#423 = DIRECTION('',(1.,0.,0.));
#424 = ADVANCED_FACE('',(#425),#428,.T.);
#425 = FACE_BOUND('',#426,.T.);
#426 = EDGE_LOOP('',(#427));
#427 = ORIENTED_EDGE('',*,*,#411,.T.);
#428 = PLANE('',#429);
#429 = AXIS2_PLACEMENT_3D('',#430,#431,#432);
#430 = CARTESIAN_POINT('',(10.192534,-3.933346429585E-31,
    6.185679197413E-18));
#431 = DIRECTION('',(-0.,-1.,-0.));
#432 = DIRECTION('',(0.,0.,-1.));
#433 = ( GEOMETRIC_REPRESENTATION_CONTEXT(3) 
GLOBAL_UNCERTAINTY_ASSIGNED_CONTEXT((#437)) GLOBAL_UNIT_ASSIGNED_CONTEXT
((#434,#435,#436)) REPRESENTATION_CONTEXT('Context #1',
  '3D Context with UNIT and UNCERTAINTY') );
#434 = ( LENGTH_UNIT() NAMED_UNIT(*) SI_UNIT(.MILLI.,.METRE.) );
#435 = ( NAMED_UNIT(*) PLANE_ANGLE_UNIT() SI_UNIT($,.RADIAN.) );
#436 = ( NAMED_UNIT(*) SI_UNIT($,.STERADIAN.) SOLID_ANGLE_UNIT() );
#437 = UNCERTAINTY_MEASURE_WITH_UNIT(LENGTH_MEASURE(1.E-07),#434,
  'distance_accuracy_value','confusion accuracy');
#438 = CONTEXT_DEPENDENT_SHAPE_REPRESENTATION(#439,#441);
#439 = ( REPRESENTATION_RELATIONSHIP('','',#328,#10) 
REPRESENTATION_RELATIONSHIP_WITH_TRANSFORMATION(#440) 
SHAPE_REPRESENTATION_RELATIONSHIP() );
#440 = ITEM_DEFINED_TRANSFORMATION('','',#11,#51);
#441 = PRODUCT_DEFINITION_SHAPE('Placement','Placement of an item',#442
  );
#442 = NEXT_ASSEMBLY_USAGE_OCCURRENCE('356','AdditivePipe','',#5,#323,$
  );
#443 = PRODUCT_RELATED_PRODUCT_CATEGORY('part',$,(#325));
#444 = SHAPE_DEFINITION_REPRESENTATION(#445,#451);
#445 = PRODUCT_DEFINITION_SHAPE('','',#446);
#446 = PRODUCT_DEFINITION('design','',#447,#450);
#447 = PRODUCT_DEFINITION_FORMATION('','',#448);
#448 = PRODUCT('Open CASCADE STEP translator 7.8 16.11',
  'Open CASCADE STEP translator 7.8 16.11','',(#449));
#449 = PRODUCT_CONTEXT('',#2,'mechanical');
#450 = PRODUCT_DEFINITION_CONTEXT('part definition',#2,'design');
#451 = GEOMETRICALLY_BOUNDED_WIREFRAME_SHAPE_REPRESENTATION('',(#11,#452
    ),#454);
#452 = GEOMETRIC_CURVE_SET('',(#453));
#453 = CARTESIAN_POINT('',(0.,0.,0.));
#454 = ( GEOMETRIC_REPRESENTATION_CONTEXT(3) 
GLOBAL_UNCERTAINTY_ASSIGNED_CONTEXT((#458)) GLOBAL_UNIT_ASSIGNED_CONTEXT
((#455,#456,#457)) REPRESENTATION_CONTEXT('Context #1',
  '3D Context with UNIT and UNCERTAINTY') );
#455 = ( LENGTH_UNIT() NAMED_UNIT(*) SI_UNIT(.MILLI.,.METRE.) );
#456 = ( NAMED_UNIT(*) PLANE_ANGLE_UNIT() SI_UNIT($,.RADIAN.) );
#457 = ( NAMED_UNIT(*) SI_UNIT($,.STERADIAN.) SOLID_ANGLE_UNIT() );
#458 = UNCERTAINTY_MEASURE_WITH_UNIT(LENGTH_MEASURE(1.E-07),#455,
  'distance_accuracy_value','confusion accuracy');
#459 = CONTEXT_DEPENDENT_SHAPE_REPRESENTATION(#460,#462);
#460 = ( REPRESENTATION_RELATIONSHIP('','',#451,#10) 
REPRESENTATION_RELATIONSHIP_WITH_TRANSFORMATION(#461) 
SHAPE_REPRESENTATION_RELATIONSHIP() );
#461 = ITEM_DEFINED_TRANSFORMATION('','',#11,#55);
#462 = PRODUCT_DEFINITION_SHAPE('Placement','Placement of an item',#463
  );
#463 = NEXT_ASSEMBLY_USAGE_OCCURRENCE('357','','',#5,#446,$);
#464 = PRODUCT_RELATED_PRODUCT_CATEGORY('part',$,(#448));
ENDSEC;
END-ISO-10303-21;
