                                                                        S0000001
,,31HOpen CASCADE IGES processor 7.8,13HFilename.iges,                  G0000001
16HOpen CASCADE 7.8,31HOpen CASCADE IGES processor 7.8,32,308,15,308,15,G0000002
,1.,2,2HMM,1,0.01,15H20260727.103125,1E-07,,,,11,0,15H20260727.103125,; G0000003
     402       1       0       0       0       0       0       000000000D0000001
     402       0       0       2       1                pencil_c        D0000002
     402       3       0       0       0       0       0       000020000D0000003
     402       0       0       1       1                               0D0000004
     144       4       0       0       0       0       0       000020000D0000005
     144       0       0       1       0                               0D0000006
     108       5       0       0       0       0       0       000010000D0000007
     108       0       0       1       0                               0D0000008
     142       6       0       0       0       0       0       000010500D0000009
     142       0       0       1       0                               0D0000010
     100       7       0       0       0       0      13       000010000D0000011
     100       0       0       1       0                               0D0000012
     124       8       0       0       0       0       0       000000000D0000013
     124       0       0       1       0                               0D0000014
     142       9       0       0       0       0       0       000010500D0000015
     142       0       0       1       0                               0D0000016
     100      10       0       0       0       0      19       000010000D0000017
     100       0       0       1       0                               0D0000018
     124      11       0       0       0       0       0       000000000D0000019
     124       0       0       1       0                               0D0000020
     144      12       0       0       0       0       0       000020000D0000021
     144       0       0       1       0                               0D0000022
     120      13       0       0       0       0      25       000010000D0000023
     120       0       0       1       0                               0D0000024
     124      14       0       0       0       0       0       000000000D0000025
     124       0       0       1       0                               0D0000026
     110      15       0       0       0       0       0       000010000D0000027
     110       0       0       1       0                               0D0000028
     110      16       0       0       0       0       0       000010000D0000029
     110       0       0       1       0                               0D0000030
     142      17       0       0       0       0       0       000010500D0000031
     142       0       0       1       0                               0D0000032
     102      18       0       0       0       0       0       000010000D0000033
     102       0       0       1       0                               0D0000034
     126      19       0       0       0       0       0       000010000D0000035
     126       0       0       2       0                               0D0000036
     100      21       0       0       0       0       0       000010000D0000037
     100       0       0       1       0                               0D0000038
     126      22       0       0       0       0       0       000010000D0000039
     126       0       0       2       0                               0D0000040
     100      24       0       0       0       0      43       000010000D0000041
     100       0       0       1       0                               0D0000042
     124      25       0       0       0       0       0       000000000D0000043
     124       0       0       1       0                               0D0000044
     144      26       0       0       0       0       0       000020000D0000045
     144       0       0       1       0                               0D0000046
     108      27       0       0       0       0       0       000010000D0000047
     108       0       0       1       0                               0D0000048
     142      28       0       0       0       0       0       000010500D0000049
     142       0       0       1       0                               0D0000050
     100      29       0       0       0       0      53       000010000D0000051
     100       0       0       1       0                               0D0000052
     124      30       0       0       0       0       0       000000000D0000053
     124       0       0       1       0                               0D0000054
     142      31       0       0       0       0       0       000010500D0000055
     142       0       0       1       0                               0D0000056
     100      32       0       0       0       0       0       000010000D0000057
     100       0       0       1       0                               0D0000058
     144      33       0       0       0       0       0       000020000D0000059
     144       0       0       1       0                               0D0000060
     120      34       0       0       0       0      63       000010000D0000061
     120       0       0       1       0                               0D0000062
     124      35       0       0       0       0       0       000000000D0000063
     124       0       0       1       1                               0D0000064
     110      36       0       0       0       0       0       000010000D0000065
     110       0       0       1       0                               0D0000066
     110      37       0       0       0       0       0       000010000D0000067
     110       0       0       1       0                               0D0000068
     142      38       0       0       0       0       0       000010500D0000069
     142       0       0       1       0                               0D0000070
     102      39       0       0       0       0       0       000010000D0000071
     102       0       0       1       0                               0D0000072
     100      40       0       0       0       0      75       000010000D0000073
     100       0       0       1       0                               0D0000074
     124      41       0       0       0       0       0       000000000D0000075
     124       0       0       1       0                               0D0000076
     126      42       0       0       0       0       0       000010000D0000077
     126       0       0       2       0                               0D0000078
     100      44       0       0       0       0      81       000010000D0000079
     100       0       0       1       0                               0D0000080
     124      45       0       0       0       0       0       000000000D0000081
     124       0       0       1       0                               0D0000082
     126      46       0       0       0       0       0       000010000D0000083
     126       0       0       2       0                               0D0000084
     402      48       0       0       0       0       0       000020000D0000085
     402       0       0       1       1                               0D0000086
     144      49       0       0       0       0       0       000020000D0000087
     144       0       0       1       0                               0D0000088
     108      50       0       0       0       0       0       000010000D0000089
     108       0       0       1       0                               0D0000090
     142      51       0       0       0       0       0       000010500D0000091
     142       0       0       1       0                               0D0000092
     100      52       0       0       0       0      95       000010000D0000093
     100       0       0       1       0                               0D0000094
     124      53       0       0       0       0       0       000000000D0000095
     124       0       0       1       0                               0D0000096
     142      54       0       0       0       0       0       000010500D0000097
     142       0       0       1       0                               0D0000098
     100      55       0       0       0       0     101       000010000D0000099
     100       0       0       1       0                               0D0000100
     124      56       0       0       0       0       0       000000000D0000101
     124       0       0       1       0                               0D0000102
     144      57       0       0       0       0       0       000020000D0000103
     144       0       0       1       0                               0D0000104
     120      58       0       0       0       0     107       000010000D0000105
     120       0       0       1       0                               0D0000106
     124      59       0       0       0       0       0       000000000D0000107
     124       0       0       1       0                               0D0000108
     110      60       0       0       0       0       0       000010000D0000109
     110       0       0       1       0                               0D0000110
     110      61       0       0       0       0       0       000010000D0000111
     110       0       0       1       0                               0D0000112
     142      62       0       0       0       0       0       000010500D0000113
     142       0       0       1       0                               0D0000114
     102      63       0       0       0       0       0       000010000D0000115
     102       0       0       1       0                               0D0000116
     126      64       0       0       0       0       0       000010000D0000117
     126       0       0       2       0                               0D0000118
     100      66       0       0       0       0     121       000010000D0000119
     100       0       0       1       0                               0D0000120
     124      67       0       0       0       0       0       000000000D0000121
     124       0       0       1       0                               0D0000122
     126      68       0       0       0       0       0       000010000D0000123
     126       0       0       2       0                               0D0000124
     100      70       0       0       0       0     127       000010000D0000125
     100       0       0       1       0                               0D0000126
     124      71       0       0       0       0       0       000000000D0000127
     124       0       0       1       0                               0D0000128
     144      72       0       0       0       0       0       000020000D0000129
     144       0       0       1       0                               0D0000130
     108      73       0       0       0       0       0       000010000D0000131
     108       0       0       1       0                               0D0000132
     142      74       0       0       0       0       0       000010500D0000133
     142       0       0       1       0                               0D0000134
     100      75       0       0       0       0     137       000010000D0000135
     100       0       0       1       0                               0D0000136
     124      76       0       0       0       0       0       000000000D0000137
     124       0       0       1       0                               0D0000138
     142      77       0       0       0       0       0       000010500D0000139
     142       0       0       1       0                               0D0000140
     100      78       0       0       0       0     143       000010000D0000141
     100       0       0       1       0                               0D0000142
     124      79       0       0       0       0       0       000000000D0000143
     124       0       0       1       0                               0D0000144
     144      80       0       0       0       0       0       000020000D0000145
     144       0       0       1       0                               0D0000146
     120      81       0       0       0       0     149       000010000D0000147
     120       0       0       1       0                               0D0000148
     124      82       0       0       0       0       0       000000000D0000149
     124       0       0       1       1                               0D0000150
     110      83       0       0       0       0       0       000010000D0000151
     110       0       0       1       0                               0D0000152
     110      84       0       0       0       0       0       000010000D0000153
     110       0       0       1       0                               0D0000154
     142      85       0       0       0       0       0       000010500D0000155
     142       0       0       1       0                               0D0000156
     102      86       0       0       0       0       0       000010000D0000157
     102       0       0       1       0                               0D0000158
     100      87       0       0       0       0     161       000010000D0000159
     100       0       0       1       0                               0D0000160
     124      88       0       0       0       0       0       000000000D0000161
     124       0       0       1       0                               0D0000162
     126      89       0       0       0       0       0       000010000D0000163
     126       0       0       2       0                               0D0000164
     100      91       0       0       0       0     167       000010000D0000165
     100       0       0       1       0                               0D0000166
     124      92       0       0       0       0       0       000000000D0000167
     124       0       0       1       0                               0D0000168
     126      93       0       0       0       0       0       000010000D0000169
     126       0       0       2       0                               0D0000170
     402      95       0       0       0       0       0       000020000D0000171
     402       0       0       1       1                               0D0000172
     144      96       0       0       0       0       0       000020000D0000173
     144       0       0       1       0                               0D0000174
     108      97       0       0       0       0       0       000010000D0000175
     108       0       0       1       0                               0D0000176
     142      98       0       0       0       0       0       000010500D0000177
     142       0       0       1       0                               0D0000178
     100      99       0       0       0       0     181       000010000D0000179
     100       0       0       1       0                               0D0000180
     124     100       0       0       0       0       0       000000000D0000181
     124       0       0       1       0                               0D0000182
     142     101       0       0       0       0       0       000010500D0000183
     142       0       0       1       0                               0D0000184
     100     102       0       0       0       0     187       000010000D0000185
     100       0       0       1       0                               0D0000186
     124     103       0       0       0       0       0       000000000D0000187
     124       0       0       1       0                               0D0000188
     144     104       0       0       0       0       0       000020000D0000189
     144       0       0       1       0                               0D0000190
     120     105       0       0       0       0     193       000010000D0000191
     120       0       0       1       0                               0D0000192
     124     106       0       0       0       0       0       000000000D0000193
     124       0       0       1       0                               0D0000194
     110     107       0       0       0       0       0       000010000D0000195
     110       0       0       1       0                               0D0000196
     110     108       0       0       0       0       0       000010000D0000197
     110       0       0       1       0                               0D0000198
     142     109       0       0       0       0       0       000010500D0000199
     142       0       0       1       0                               0D0000200
     102     110       0       0       0       0       0       000010000D0000201
     102       0       0       1       0                               0D0000202
     126     111       0       0       0       0       0       000010000D0000203
     126       0       0       2       0                               0D0000204
     100     113       0       0       0       0     207       000010000D0000205
     100       0       0       1       0                               0D0000206
     124     114       0       0       0       0       0       000000000D0000207
     124       0       0       1       0                               0D0000208
     126     115       0       0       0       0       0       000010000D0000209
     126       0       0       2       0                               0D0000210
     100     117       0       0       0       0     213       000010000D0000211
     100       0       0       1       0                               0D0000212
     124     118       0       0       0       0       0       000000000D0000213
     124       0       0       1       0                               0D0000214
     144     119       0       0       0       0       0       000020000D0000215
     144       0       0       1       0                               0D0000216
     108     120       0       0       0       0       0       000010000D0000217
     108       0       0       1       0                               0D0000218
     142     121       0       0       0       0       0       000010500D0000219
     142       0       0       1       0                               0D0000220
     100     122       0       0       0       0     223       000010000D0000221
     100       0       0       1       0                               0D0000222
     124     123       0       0       0       0       0       000000000D0000223
     124       0       0       1       0                               0D0000224
     142     124       0       0       0       0       0       000010500D0000225
     142       0       0       1       0                               0D0000226
     100     125       0       0       0       0     229       000010000D0000227
     100       0       0       1       0                               0D0000228
     124     126       0       0       0       0       0       000000000D0000229
     124       0       0       1       0                               0D0000230
     144     127       0       0       0       0       0       000020000D0000231
     144       0       0       1       0                               0D0000232
     120     128       0       0       0       0     235       000010000D0000233
     120       0       0       1       0                               0D0000234
     124     129       0       0       0       0       0       000000000D0000235
     124       0       0       1       1                               0D0000236
     110     130       0       0       0       0       0       000010000D0000237
     110       0       0       1       0                               0D0000238
     110     131       0       0       0       0       0       000010000D0000239
     110       0       0       1       0                               0D0000240
     142     132       0       0       0       0       0       000010500D0000241
     142       0       0       1       0                               0D0000242
     102     133       0       0       0       0       0       000010000D0000243
     102       0       0       1       0                               0D0000244
     100     134       0       0       0       0     247       000010000D0000245
     100       0       0       1       0                               0D0000246
     124     135       0       0       0       0       0       000000000D0000247
     124       0       0       1       0                               0D0000248
     126     136       0       0       0       0       0       000010000D0000249
     126       0       0       2       0                               0D0000250
     100     138       0       0       0       0     253       000010000D0000251
     100       0       0       1       0                               0D0000252
     124     139       0       0       0       0       0       000000000D0000253
     124       0       0       1       0                               0D0000254
     126     140       0       0       0       0       0       000010000D0000255
     126       0       0       2       0                               0D0000256
     402     142       0       0       0       0       0       000020000D0000257
     402       0       0       1       1                               0D0000258
     144     143       0       0       0       0       0       000020000D0000259
     144       0       0       1       0                               0D0000260
     108     144       0       0       0       0       0       000010000D0000261
     108       0       0       1       0                               0D0000262
     142     145       0       0       0       0       0       000010500D0000263
     142       0       0       1       0                               0D0000264
     100     146       0       0       0       0     267       000010000D0000265
     100       0       0       1       0                               0D0000266
     124     147       0       0       0       0       0       000000000D0000267
     124       0       0       1       0                               0D0000268
     142     148       0       0       0       0       0       000010500D0000269
     142       0       0       1       0                               0D0000270
     100     149       0       0       0       0     273       000010000D0000271
     100       0       0       1       0                               0D0000272
     124     150       0       0       0       0       0       000000000D0000273
     124       0       0       1       0                               0D0000274
     144     151       0       0       0       0       0       000020000D0000275
     144       0       0       1       0                               0D0000276
     120     152       0       0       0       0     279       000010000D0000277
     120       0       0       1       0                               0D0000278
     124     153       0       0       0       0       0       000000000D0000279
     124       0       0       1       0                               0D0000280
     110     154       0       0       0       0       0       000010000D0000281
     110       0       0       1       0                               0D0000282
     110     155       0       0       0       0       0       000010000D0000283
     110       0       0       1       0                               0D0000284
     142     156       0       0       0       0       0       000010500D0000285
     142       0       0       1       0                               0D0000286
     102     157       0       0       0       0       0       000010000D0000287
     102       0       0       1       0                               0D0000288
     126     158       0       0       0       0       0       000010000D0000289
     126       0       0       2       0                               0D0000290
     100     160       0       0       0       0       0       000010000D0000291
     100       0       0       1       0                               0D0000292
     126     161       0       0       0       0       0       000010000D0000293
     126       0       0       2       0                               0D0000294
     100     163       0       0       0       0     297       000010000D0000295
     100       0       0       1       0                               0D0000296
     124     164       0       0       0       0       0       000000000D0000297
     124       0       0       1       0                               0D0000298
     144     165       0       0       0       0       0       000020000D0000299
     144       0       0       1       0                               0D0000300
     108     166       0       0       0       0       0       000010000D0000301
     108       0       0       1       0                               0D0000302
     142     167       0       0       0       0       0       000010500D0000303
     142       0       0       1       0                               0D0000304
     100     168       0       0       0       0     307       000010000D0000305
     100       0       0       1       0                               0D0000306
     124     169       0       0       0       0       0       000000000D0000307
     124       0       0       1       0                               0D0000308
     142     170       0       0       0       0       0       000010500D0000309
     142       0       0       1       0                               0D0000310
     100     171       0       0       0       0       0       000010000D0000311
     100       0       0       1       0                               0D0000312
     144     172       0       0       0       0       0       000020000D0000313
     144       0       0       1       0                               0D0000314
     120     173       0       0       0       0     317       000010000D0000315
     120       0       0       1       0                               0D0000316
     124     174       0       0       0       0       0       000000000D0000317
     124       0       0       1       1                               0D0000318
     110     175       0       0       0       0       0       000010000D0000319
     110       0       0       1       0                               0D0000320
     110     176       0       0       0       0       0       000010000D0000321
     110       0       0       1       0                               0D0000322
     142     177       0       0       0       0       0       000010500D0000323
     142       0       0       1       0                               0D0000324
     102     178       0       0       0       0       0       000010000D0000325
     102       0       0       1       0                               0D0000326
     100     179       0       0       0       0     329       000010000D0000327
     100       0       0       1       0                               0D0000328
     124     180       0       0       0       0       0       000000000D0000329
     124       0       0       1       0                               0D0000330
     126     181       0       0       0       0       0       000010000D0000331
     126       0       0       2       0                               0D0000332
     100     183       0       0       0       0     335       000010000D0000333
     100       0       0       1       0                               0D0000334
     124     184       0       0       0       0       0       000000000D0000335
     124       0       0       1       0                               0D0000336
     126     185       0       0       0       0       0       000010000D0000337
     126       0       0       2       0                               0D0000338
     402     187       0       0       0       0       0       000020000D0000339
     402       0       0       1       1                               0D0000340
     144     188       0       0       0       0       0       000020000D0000341
     144       0       0       1       0                               0D0000342
     108     189       0       0       0       0       0       000010000D0000343
     108       0       0       1       0                               0D0000344
     142     190       0       0       0       0       0       000010500D0000345
     142       0       0       1       0                               0D0000346
     100     191       0       0       0       0     349       000010000D0000347
     100       0       0       1       0                               0D0000348
     124     192       0       0       0       0       0       000000000D0000349
     124       0       0       1       0                               0D0000350
     142     193       0       0       0       0       0       000010500D0000351
     142       0       0       1       0                               0D0000352
     100     194       0       0       0       0     355       000010000D0000353
     100       0       0       1       0                               0D0000354
     124     195       0       0       0       0       0       000000000D0000355
     124       0       0       1       0                               0D0000356
     144     196       0       0       0       0       0       000020000D0000357
     144       0       0       1       0                               0D0000358
     120     197       0       0       0       0     361       000010000D0000359
     120       0       0       1       0                               0D0000360
     124     198       0       0       0       0       0       000000000D0000361
     124       0       0       1       0                               0D0000362
     110     199       0       0       0       0       0       000010000D0000363
     110       0       0       1       0                               0D0000364
     110     200       0       0       0       0       0       000010000D0000365
     110       0       0       1       0                               0D0000366
     142     201       0       0       0       0       0       000010500D0000367
     142       0       0       1       0                               0D0000368
     102     202       0       0       0       0       0       000010000D0000369
     102       0       0       1       0                               0D0000370
     126     203       0       0       0       0       0       000010000D0000371
     126       0       0       2       0                               0D0000372
     100     205       0       0       0       0       0       000010000D0000373
     100       0       0       1       0                               0D0000374
     126     206       0       0       0       0       0       000010000D0000375
     126       0       0       2       0                               0D0000376
     100     208       0       0       0       0     379       000010000D0000377
     100       0       0       1       0                               0D0000378
     124     209       0       0       0       0       0       000000000D0000379
     124       0       0       1       0                               0D0000380
     144     210       0       0       0       0       0       000020000D0000381
     144       0       0       1       0                               0D0000382
     108     211       0       0       0       0       0       000010000D0000383
     108       0       0       1       0                               0D0000384
     142     212       0       0       0       0       0       000010500D0000385
     142       0       0       1       0                               0D0000386
     100     213       0       0       0       0     389       000010000D0000387
     100       0       0       1       0                               0D0000388
     124     214       0       0       0       0       0       000000000D0000389
     124       0       0       1       0                               0D0000390
     142     215       0       0       0       0       0       000010500D0000391
     142       0       0       1       0                               0D0000392
     100     216       0       0       0       0       0       000010000D0000393
     100       0       0       1       0                               0D0000394
     144     217       0       0       0       0       0       000020000D0000395
     144       0       0       1       0                               0D0000396
     120     218       0       0       0       0     399       000010000D0000397
     120       0       0       1       0                               0D0000398
     124     219       0       0       0       0       0       000000000D0000399
     124       0       0       1       1                               0D0000400
     110     220       0       0       0       0       0       000010000D0000401
     110       0       0       1       0                               0D0000402
     110     221       0       0       0       0       0       000010000D0000403
     110       0       0       1       0                               0D0000404
     142     222       0       0       0       0       0       000010500D0000405
     142       0       0       1       0                               0D0000406
     102     223       0       0       0       0       0       000010000D0000407
     102       0       0       1       0                               0D0000408
     100     224       0       0       0       0     411       000010000D0000409
     100       0       0       1       0                               0D0000410
     124     225       0       0       0       0       0       000000000D0000411
     124       0       0       1       0                               0D0000412
     126     226       0       0       0       0       0       000010000D0000413
     126       0       0       2       0                               0D0000414
     100     228       0       0       0       0     417       000010000D0000415
     100       0       0       1       0                               0D0000416
     124     229       0       0       0       0       0       000000000D0000417
     124       0       0       1       0                               0D0000418
     126     230       0       0       0       0       0       000010000D0000419
     126       0       0       2       0                               0D0000420
     402     232       0       0       0       0       0       000020000D0000421
     402       0       0       1       1                               0D0000422
     144     233       0       0       0       0       0       000020000D0000423
     144       0       0       1       0                               0D0000424
     108     234       0       0       0       0       0       000010000D0000425
     108       0       0       1       0                               0D0000426
     142     235       0       0       0       0       0       000010500D0000427
     142       0       0       1       0                               0D0000428
     100     236       0       0       0       0     431       000010000D0000429
     100       0       0       1       0                               0D0000430
     124     237       0       0       0       0       0       000000000D0000431
     124       0       0       1       0                               0D0000432
     142     238       0       0       0       0       0       000010500D0000433
     142       0       0       1       0                               0D0000434
     100     239       0       0       0       0     437       000010000D0000435
     100       0       0       1       0                               0D0000436
     124     240       0       0       0       0       0       000000000D0000437
     124       0       0       1       0                               0D0000438
     144     241       0       0       0       0       0       000020000D0000439
     144       0       0       1       0                               0D0000440
     120     242       0       0       0       0     443       000010000D0000441
     120       0       0       1       0                               0D0000442
     124     243       0       0       0       0       0       000000000D0000443
     124       0       0       1       0                               0D0000444
     110     244       0       0       0       0       0       000010000D0000445
     110       0       0       1       0                               0D0000446
     110     245       0       0       0       0       0       000010000D0000447
     110       0       0       1       0                               0D0000448
     142     246       0       0       0       0       0       000010500D0000449
     142       0       0       1       0                               0D0000450
     102     247       0       0       0       0       0       000010000D0000451
     102       0       0       1       0                               0D0000452
     126     248       0       0       0       0       0       000010000D0000453
     126       0       0       2       0                               0D0000454
     100     250       0       0       0       0     457       000010000D0000455
     100       0       0       1       0                               0D0000456
     124     251       0       0       0       0       0       000000000D0000457
     124       0       0       1       0                               0D0000458
     126     252       0       0       0       0       0       000010000D0000459
     126       0       0       2       0                               0D0000460
     100     254       0       0       0       0     463       000010000D0000461
     100       0       0       1       0                               0D0000462
     124     255       0       0       0       0       0       000000000D0000463
     124       0       0       1       0                               0D0000464
     144     256       0       0       0       0       0       000020000D0000465
     144       0       0       1       0                               0D0000466
     108     257       0       0       0       0       0       000010000D0000467
     108       0       0       1       0                               0D0000468
     142     258       0       0       0       0       0       000010500D0000469
     142       0       0       1       0                               0D0000470
     100     259       0       0       0       0     473       000010000D0000471
     100       0       0       1       0                               0D0000472
     124     260       0       0       0       0       0       000000000D0000473
     124       0       0       1       0                               0D0000474
     142     261       0       0       0       0       0       000010500D0000475
     142       0       0       1       0                               0D0000476
     100     262       0       0       0       0     479       000010000D0000477
     100       0       0       1       0                               0D0000478
     124     263       0       0       0       0       0       000000000D0000479
     124       0       0       1       0                               0D0000480
     144     264       0       0       0       0       0       000020000D0000481
     144       0       0       1       0                               0D0000482
     120     265       0       0       0       0     485       000010000D0000483
     120       0       0       1       0                               0D0000484
     124     266       0       0       0       0       0       000000000D0000485
     124       0       0       1       1                               0D0000486
     110     267       0       0       0       0       0       000010000D0000487
     110       0       0       1       0                               0D0000488
     110     268       0       0       0       0       0       000010000D0000489
     110       0       0       1       0                               0D0000490
     142     269       0       0       0       0       0       000010500D0000491
     142       0       0       1       0                               0D0000492
     102     270       0       0       0       0       0       000010000D0000493
     102       0       0       1       0                               0D0000494
     100     271       0       0       0       0     497       000010000D0000495
     100       0       0       1       0                               0D0000496
     124     272       0       0       0       0       0       000000000D0000497
     124       0       0       1       0                               0D0000498
     126     273       0       0       0       0       0       000010000D0000499
     126       0       0       2       0                               0D0000500
     100     275       0       0       0       0     503       000010000D0000501
     100       0       0       1       0                               0D0000502
     124     276       0       0       0       0       0       000000000D0000503
     124       0       0       1       0                               0D0000504
     126     277       0       0       0       0       0       000010000D0000505
     126       0       0       2       0                               0D0000506
     402     279       0       0       0       0       0       000020000D0000507
     402       0       0       1       1                               0D0000508
     144     280       0       0       0       0       0       000020000D0000509
     144       0       0       1       0                               0D0000510
     108     281       0       0       0       0       0       000010000D0000511
     108       0       0       1       0                               0D0000512
     142     282       0       0       0       0       0       000010500D0000513
     142       0       0       1       0                               0D0000514
     100     283       0       0       0       0     517       000010000D0000515
     100       0       0       1       0                               0D0000516
     124     284       0       0       0       0       0       000000000D0000517
     124       0       0       1       0                               0D0000518
     142     285       0       0       0       0       0       000010500D0000519
     142       0       0       1       0                               0D0000520
     100     286       0       0       0       0     523       000010000D0000521
     100       0       0       1       0                               0D0000522
     124     287       0       0       0       0       0       000000000D0000523
     124       0       0       1       0                               0D0000524
     144     288       0       0       0       0       0       000020000D0000525
     144       0       0       1       0                               0D0000526
     120     289       0       0       0       0     529       000010000D0000527
     120       0       0       1       0                               0D0000528
     124     290       0       0       0       0       0       000000000D0000529
     124       0       0       1       0                               0D0000530
     110     291       0       0       0       0       0       000010000D0000531
     110       0       0       1       0                               0D0000532
     110     292       0       0       0       0       0       000010000D0000533
     110       0       0       1       0                               0D0000534
     142     293       0       0       0       0       0       000010500D0000535
     142       0       0       1       0                               0D0000536
     102     294       0       0       0       0       0       000010000D0000537
     102       0       0       1       0                               0D0000538
     126     295       0       0       0       0       0       000010000D0000539
     126       0       0       2       0                               0D0000540
     100     297       0       0       0       0     543       000010000D0000541
     100       0       0       1       0                               0D0000542
     124     298       0       0       0       0       0       000000000D0000543
     124       0       0       1       0                               0D0000544
     126     299       0       0       0       0       0       000010000D0000545
     126       0       0       2       0                               0D0000546
     100     301       0       0       0       0     549       000010000D0000547
     100       0       0       1       0                               0D0000548
     124     302       0       0       0       0       0       000000000D0000549
     124       0       0       1       0                               0D0000550
     144     303       0       0       0       0       0       000020000D0000551
     144       0       0       1       0                               0D0000552
     108     304       0       0       0       0       0       000010000D0000553
     108       0       0       1       0                               0D0000554
     142     305       0       0       0       0       0       000010500D0000555
     142       0       0       1       0                               0D0000556
     100     306       0       0       0       0     559       000010000D0000557
     100       0       0       1       0                               0D0000558
     124     307       0       0       0       0       0       000000000D0000559
     124       0       0       1       0                               0D0000560
     142     308       0       0       0       0       0       000010500D0000561
     142       0       0       1       0                               0D0000562
     100     309       0       0       0       0     565       000010000D0000563
     100       0       0       1       0                               0D0000564
     124     310       0       0       0       0       0       000000000D0000565
     124       0       0       1       0                               0D0000566
     144     311       0       0       0       0       0       000020000D0000567
     144       0       0       1       0                               0D0000568
     120     312       0       0       0       0     571       000010000D0000569
     120       0       0       1       0                               0D0000570
     124     313       0       0       0       0       0       000000000D0000571
     124       0       0       1       1                               0D0000572
     110     314       0       0       0       0       0       000010000D0000573
     110       0       0       1       0                               0D0000574
     110     315       0       0       0       0       0       000010000D0000575
     110       0       0       1       0                               0D0000576
     142     316       0       0       0       0       0       000010500D0000577
     142       0       0       1       0                               0D0000578
     102     317       0       0       0       0       0       000010000D0000579
     102       0       0       1       0                               0D0000580
     100     318       0       0       0       0     583       000010000D0000581
     100       0       0       1       0                               0D0000582
     124     319       0       0       0       0       0       000000000D0000583
     124       0       0       1       0                               0D0000584
     126     320       0       0       0       0       0       000010000D0000585
     126       0       0       2       0                               0D0000586
     100     322       0       0       0       0     589       000010000D0000587
     100       0       0       1       0                               0D0000588
     124     323       0       0       0       0       0       000000000D0000589
     124       0       0       1       0                               0D0000590
     126     324       0       0       0       0       0       000010000D0000591
     126       0       0       2       0                               0D0000592
     144     326       0       0       0       0       0       000020000D0000593
     144       0       0       1       0                    XY??        D0000594
     108     327       0       0       0       0       0       000010000D0000595
     108       0       0       1       0                               0D0000596
     142     328       0       0       0       0       0       000010500D0000597
     142       0       0       1       0                               0D0000598
     144     329       0       0       0       0       0       000020000D0000599
     144       0       0       1       0                    XZ??        D0000600
     108     330       0       0       0       0       0       000010000D0000601
     108       0       0       1       0                               0D0000602
     142     331       0       0       0       0       0       000010500D0000603
     142       0       0       1       0                               0D0000604
     144     332       0       0       0       0       0       000020000D0000605
     144       0       0       1       0                    YZ??        D0000606
     108     333       0       0       0       0       0       000010000D0000607
     108       0       0       1       0                               0D0000608
     142     334       0       0       0       0       0       000010500D0000609
     142       0       0       1       0                               0D0000610
     100     335       0       0       0       0       0       000020000D0000611
     100       0       0       1       0                               0D0000612
     100     336       0       0       0       0       0       000020000D0000613
     100       0       0       1       0                               0D0000614
     100     337       0       0       0       0     617       000020000D0000615
     100       0       0       1       0                               0D0000616
     124     338       0       0       0       0       0       000000000D0000617
     124       0       0       1       0                               0D0000618
     100     339       0       0       0       0     621       000020000D0000619
     100       0       0       1       0                               0D0000620
     124     340       0       0       0       0       0       000000000D0000621
     124       0       0       1       0                               0D0000622
     110     341       0       0       0       0       0       000020000D0000623
     110       0       0       1       0                      X?        D0000624
     110     342       0       0       0       0       0       000020000D0000625
     110       0       0       2       0                      Y?        D0000626
     110     344       0       0       0       0       0       000020000D0000627
     110       0       0       2       0                      Z?        D0000628
     116     346       0       0       0       0       0       000020400D0000629
     116       0       0       1       0                               0D0000630
     406     347       0       0       0       0       0       000000000D0000631
     406       0       0       1      15                               0D0000632
     406     348       0       0       0       0       0       000000000D0000633
     406       0       0       1      15                               0D0000634
     406     349       0       0       0       0       0       000000000D0000635
     406       0       0       1      15                               0D0000636
     406     350       0       0       0       0       0       000000000D0000637
     406       0       0       1      15                               0D0000638
     406     351       0       0       0       0       0       000000000D0000639
     406       0       0       1      15                               0D0000640
     406     352       0       0       0       0       0       000000000D0000641
     406       0       0       1      15                               0D0000642
     406     353       0       0       0       0       0       000000000D0000643
     406       0       0       1      15                               0D0000644
402,18,3,85,171,257,339,421,507,593,599,605,611,613,615,619,623, 0000001P0000001
625,627,629,0,1,631;                                             0000001P0000002
402,4,5,21,45,59;                                                0000003P0000003
144,7,1,1,9,15;                                                  0000005P0000004
108,0.,0.,1.,35.,0,-2.81531792E-16,-7.684058348E-17,35.,0.;      0000007P0000005
142,0,7,0,11,2;                                                  0000009P0000006
100,0.,0.,0.,4.5,0.,4.5,0.;                                      0000011P0000007
124,1.,0.,0.,0.,0.,1.,0.,0.,0.,0.,1.,35.;                        0000013P0000008
142,0,7,0,17,2;                                                  0000015P0000009
100,0.,0.,0.,4.,0.,4.,0.;                                        0000017P0000010
124,1.,0.,0.,0.,0.,-1.,0.,0.,0.,0.,-1.,35.;                      0000019P0000011
144,23,1,0,31;                                                   0000021P0000012
120,27,29,6.283185307,12.566370614;                              0000023P0000013
124,1.,0.,0.,0.,0.,-1.,0.,0.,0.,-0.,-1.,35.;                     0000025P0000014
110,0.,0.,1.,0.,0.,0.;                                           0000027P0000015
110,4.5,0.,0.,4.75,0.,35.;                                       0000029P0000016
142,0,23,0,33,2;                                                 0000031P0000017
102,4,35,37,39,41;                                               0000033P0000018
126,1,1,1,0,1,0,0.,0.,1.,1.,1.,1.,4.5,0.,35.,4.75,0.,0.,0.,1.,   0000035P0000019
0.999974491,0.,7.142674934E-03;                                  0000035P0000020
100,0.,0.,0.,4.75,0.,4.75,0.;                                    0000037P0000021
126,1,1,1,0,1,0,0.,0.,1.,1.,1.,1.,4.75,0.,0.,4.5,0.,35.,0.,1.,   0000039P0000022
0.999974491,-0.,7.142674934E-03;                                 0000039P0000023
100,0.,0.,0.,4.5,0.,4.5,0.;                                      0000041P0000024
124,1.,0.,0.,0.,0.,-1.,0.,0.,0.,0.,-1.,35.;                      0000043P0000025
144,47,1,1,49,55;                                                0000045P0000026
108,-0.,-0.,-1.,0.,0,-4.178289294E-16,-5.957706746E-18,0.,0.;    0000047P0000027
142,0,47,0,51,2;                                                 0000049P0000028
100,0.,0.,0.,4.75,0.,4.75,0.;                                    0000051P0000029
124,1.,0.,0.,0.,0.,-1.,0.,0.,0.,0.,-1.,0.;                       0000053P0000030
142,0,47,0,57,2;                                                 0000055P0000031
100,0.,0.,0.,4.25,0.,4.25,0.;                                    0000057P0000032
144,61,1,0,69;                                                   0000059P0000033
120,65,67,-6.283185307,0.;                                       0000061P0000034
124,1.,0.,0.,0.,0.,1.,0.,0.,0.,0.,-1.,35.;                       0000063P0000035
110,0.,0.,1.,0.,0.,0.;                                           0000065P0000036
110,4.,0.,0.,4.25,0.,35.;                                        0000067P0000037
142,0,61,0,71,2;                                                 0000069P0000038
102,4,73,77,79,83;                                               0000071P0000039
100,0.,0.,0.,4.,0.,4.,0.;                                        0000073P0000040
124,1.,0.,0.,0.,0.,1.,0.,0.,0.,0.,1.,35.;                        0000075P0000041
126,1,1,1,0,1,0,0.,0.,1.,1.,1.,1.,4.,0.,35.,4.25,0.,0.,0.,1.,    0000077P0000042
0.999974491,0.,7.142674934E-03;                                  0000077P0000043
100,0.,0.,0.,4.25,0.,4.25,0.;                                    0000079P0000044
124,1.,0.,0.,0.,0.,-1.,0.,0.,0.,0.,-1.,0.;                       0000081P0000045
126,1,1,1,0,1,0,0.,0.,1.,1.,1.,1.,4.25,0.,0.,4.,0.,35.,0.,1.,    0000083P0000046
0.999974491,-0.,7.142674934E-03;                                 0000083P0000047
402,4,87,103,129,145;                                            0000085P0000048
144,89,1,1,91,97;                                                0000087P0000049
108,0.,0.,1.,35.,0,15.,-7.684058348E-17,35.,0.;                  0000089P0000050
142,0,89,0,93,2;                                                 0000091P0000051
100,0.,0.,0.,4.5,0.,4.5,0.;                                      0000093P0000052
124,1.,0.,0.,15.,0.,1.,0.,0.,0.,0.,1.,35.;                       0000095P0000053
142,0,89,0,99,2;                                                 0000097P0000054
100,0.,0.,0.,4.,0.,4.,0.;                                        0000099P0000055
124,1.,0.,0.,15.,0.,-1.,0.,0.,0.,0.,-1.,35.;                     0000101P0000056
144,105,1,0,113;                                                 0000103P0000057
120,109,111,6.283185307,12.566370614;                            0000105P0000058
124,1.,0.,0.,15.,0.,-1.,0.,0.,0.,-0.,-1.,35.;                    0000107P0000059
110,0.,0.,1.,0.,0.,0.;                                           0000109P0000060
110,4.5,0.,0.,4.75,0.,35.;                                       0000111P0000061
142,0,105,0,115,2;                                               0000113P0000062
102,4,117,119,123,125;                                           0000115P0000063
126,1,1,1,0,1,0,0.,0.,1.,1.,1.,1.,19.5,0.,35.,19.75,0.,0.,0.,1., 0000117P0000064
0.999974491,0.,7.142674934E-03;                                  0000117P0000065
100,0.,0.,0.,4.75,0.,4.75,0.;                                    0000119P0000066
124,1.,0.,0.,15.,0.,1.,0.,0.,0.,0.,1.,0.;                        0000121P0000067
126,1,1,1,0,1,0,0.,0.,1.,1.,1.,1.,19.75,0.,0.,19.5,0.,35.,0.,1., 0000123P0000068
0.999974491,-0.,7.142674934E-03;                                 0000123P0000069
100,0.,0.,0.,4.5,0.,4.5,0.;                                      0000125P0000070
124,1.,0.,0.,15.,0.,-1.,0.,0.,0.,0.,-1.,35.;                     0000127P0000071
144,131,1,1,133,139;                                             0000129P0000072
108,-0.,-0.,-1.,0.,0,15.,-5.957706746E-18,0.,0.;                 0000131P0000073
142,0,131,0,135,2;                                               0000133P0000074
100,0.,0.,0.,4.75,0.,4.75,0.;                                    0000135P0000075
124,1.,0.,0.,15.,0.,-1.,0.,0.,0.,0.,-1.,0.;                      0000137P0000076
142,0,131,0,141,2;                                               0000139P0000077
100,0.,0.,0.,4.25,0.,4.25,0.;                                    0000141P0000078
124,1.,0.,0.,15.,0.,1.,0.,0.,0.,0.,1.,0.;                        0000143P0000079
144,147,1,0,155;                                                 0000145P0000080
120,151,153,-6.283185307,0.;                                     0000147P0000081
124,1.,0.,0.,15.,0.,1.,0.,0.,0.,0.,-1.,35.;                      0000149P0000082
110,0.,0.,1.,0.,0.,0.;                                           0000151P0000083
110,4.,0.,0.,4.25,0.,35.;                                        0000153P0000084
142,0,147,0,157,2;                                               0000155P0000085
102,4,159,163,165,169;                                           0000157P0000086
100,0.,0.,0.,4.,0.,4.,0.;                                        0000159P0000087
124,1.,0.,0.,15.,0.,1.,0.,0.,0.,0.,1.,35.;                       0000161P0000088
126,1,1,1,0,1,0,0.,0.,1.,1.,1.,1.,19.,0.,35.,19.25,0.,0.,0.,1.,  0000163P0000089
0.999974491,0.,7.142674934E-03;                                  0000163P0000090
100,0.,0.,0.,4.25,0.,4.25,0.;                                    0000165P0000091
124,1.,0.,0.,15.,0.,-1.,0.,0.,0.,0.,-1.,0.;                      0000167P0000092
126,1,1,1,0,1,0,0.,0.,1.,1.,1.,1.,19.25,0.,0.,19.,0.,35.,0.,1.,  0000169P0000093
0.999974491,-0.,7.142674934E-03;                                 0000169P0000094
402,4,173,189,215,231;                                           0000171P0000095
144,175,1,1,177,183;                                             0000173P0000096
108,0.,0.,1.,35.,0,30.,-7.684058348E-17,35.,0.;                  0000175P0000097
142,0,175,0,179,2;                                               0000177P0000098
100,0.,0.,0.,4.5,0.,4.5,0.;                                      0000179P0000099
124,1.,0.,0.,30.,0.,1.,0.,0.,0.,0.,1.,35.;                       0000181P0000100
142,0,175,0,185,2;                                               0000183P0000101
100,0.,0.,0.,4.,0.,4.,0.;                                        0000185P0000102
124,1.,0.,0.,30.,0.,-1.,0.,0.,0.,0.,-1.,35.;                     0000187P0000103
144,191,1,0,199;                                                 0000189P0000104
120,195,197,6.283185307,12.566370614;                            0000191P0000105
124,1.,0.,0.,30.,0.,-1.,0.,0.,0.,-0.,-1.,35.;                    0000193P0000106
110,0.,0.,1.,0.,0.,0.;                                           0000195P0000107
110,4.5,0.,0.,4.75,0.,35.;                                       0000197P0000108
142,0,191,0,201,2;                                               0000199P0000109
102,4,203,205,209,211;                                           0000201P0000110
126,1,1,1,0,1,0,0.,0.,1.,1.,1.,1.,34.5,0.,35.,34.75,0.,0.,0.,1., 0000203P0000111
0.999974491,0.,7.142674934E-03;                                  0000203P0000112
100,0.,0.,0.,4.75,0.,4.75,0.;                                    0000205P0000113
124,1.,0.,0.,30.,0.,1.,0.,0.,0.,0.,1.,0.;                        0000207P0000114
126,1,1,1,0,1,0,0.,0.,1.,1.,1.,1.,34.75,0.,0.,34.5,0.,35.,0.,1., 0000209P0000115
0.999974491,-0.,7.142674934E-03;                                 0000209P0000116
100,0.,0.,0.,4.5,0.,4.5,0.;                                      0000211P0000117
124,1.,0.,0.,30.,0.,-1.,0.,0.,0.,0.,-1.,35.;                     0000213P0000118
144,217,1,1,219,225;                                             0000215P0000119
108,-0.,-0.,-1.,0.,0,30.,-5.957706746E-18,0.,0.;                 0000217P0000120
142,0,217,0,221,2;                                               0000219P0000121
100,0.,0.,0.,4.75,0.,4.75,0.;                                    0000221P0000122
124,1.,0.,0.,30.,0.,-1.,0.,0.,0.,0.,-1.,0.;                      0000223P0000123
142,0,217,0,227,2;                                               0000225P0000124
100,0.,0.,0.,4.25,0.,4.25,0.;                                    0000227P0000125
124,1.,0.,0.,30.,0.,1.,0.,0.,0.,0.,1.,0.;                        0000229P0000126
144,233,1,0,241;                                                 0000231P0000127
120,237,239,-6.283185307,0.;                                     0000233P0000128
124,1.,0.,0.,30.,0.,1.,0.,0.,0.,0.,-1.,35.;                      0000235P0000129
110,0.,0.,1.,0.,0.,0.;                                           0000237P0000130
110,4.,0.,0.,4.25,0.,35.;                                        0000239P0000131
142,0,233,0,243,2;                                               0000241P0000132
102,4,245,249,251,255;                                           0000243P0000133
100,0.,0.,0.,4.,0.,4.,0.;                                        0000245P0000134
124,1.,0.,0.,30.,0.,1.,0.,0.,0.,0.,1.,35.;                       0000247P0000135
126,1,1,1,0,1,0,0.,0.,1.,1.,1.,1.,34.,0.,35.,34.25,0.,0.,0.,1.,  0000249P0000136
0.999974491,0.,7.142674934E-03;                                  0000249P0000137
100,0.,0.,0.,4.25,0.,4.25,0.;                                    0000251P0000138
124,1.,0.,0.,30.,0.,-1.,0.,0.,0.,0.,-1.,0.;                      0000253P0000139
126,1,1,1,0,1,0,0.,0.,1.,1.,1.,1.,34.25,0.,0.,34.,0.,35.,0.,1.,  0000255P0000140
0.999974491,-0.,7.142674934E-03;                                 0000255P0000141
402,4,259,275,299,313;                                           0000257P0000142
144,261,1,1,263,269;                                             0000259P0000143
108,0.,0.,1.,35.,0,-2.81531792E-16,-7.684058348E-17,35.,0.;      0000261P0000144
142,0,261,0,265,2;                                               0000263P0000145
100,0.,0.,0.,4.5,0.,4.5,0.;                                      0000265P0000146
124,1.,0.,0.,0.,0.,1.,0.,0.,0.,0.,1.,35.;                        0000267P0000147
142,0,261,0,271,2;                                               0000269P0000148
100,0.,0.,0.,4.,0.,4.,0.;                                        0000271P0000149
124,1.,0.,0.,0.,0.,-1.,0.,0.,0.,0.,-1.,35.;                      0000273P0000150
144,277,1,0,285;                                                 0000275P0000151
120,281,283,6.283185307,12.566370614;                            0000277P0000152
124,1.,0.,0.,0.,0.,-1.,0.,0.,0.,-0.,-1.,35.;                     0000279P0000153
110,0.,0.,1.,0.,0.,0.;                                           0000281P0000154
110,4.5,0.,0.,4.75,0.,35.;                                       0000283P0000155
142,0,277,0,287,2;                                               0000285P0000156
102,4,289,291,293,295;                                           0000287P0000157
126,1,1,1,0,1,0,0.,0.,1.,1.,1.,1.,4.5,0.,35.,4.75,0.,0.,0.,1.,   0000289P0000158
0.999974491,0.,7.142674934E-03;                                  0000289P0000159
100,0.,0.,0.,4.75,0.,4.75,0.;                                    0000291P0000160
126,1,1,1,0,1,0,0.,0.,1.,1.,1.,1.,4.75,0.,0.,4.5,0.,35.,0.,1.,   0000293P0000161
0.999974491,-0.,7.142674934E-03;                                 0000293P0000162
100,0.,0.,0.,4.5,0.,4.5,0.;                                      0000295P0000163
124,1.,0.,0.,0.,0.,-1.,0.,0.,0.,0.,-1.,35.;                      0000297P0000164
144,301,1,1,303,309;                                             0000299P0000165
108,-0.,-0.,-1.,0.,0,-4.178289294E-16,-5.957706746E-18,0.,0.;    0000301P0000166
142,0,301,0,305,2;                                               0000303P0000167
100,0.,0.,0.,4.75,0.,4.75,0.;                                    0000305P0000168
124,1.,0.,0.,0.,0.,-1.,0.,0.,0.,0.,-1.,0.;                       0000307P0000169
142,0,301,0,311,2;                                               0000309P0000170
100,0.,0.,0.,4.25,0.,4.25,0.;                                    0000311P0000171
144,315,1,0,323;                                                 0000313P0000172
120,319,321,-6.283185307,0.;                                     0000315P0000173
124,1.,0.,0.,0.,0.,1.,0.,0.,0.,0.,-1.,35.;                       0000317P0000174
110,0.,0.,1.,0.,0.,0.;                                           0000319P0000175
110,4.,0.,0.,4.25,0.,35.;                                        0000321P0000176
142,0,315,0,325,2;                                               0000323P0000177
102,4,327,331,333,337;                                           0000325P0000178
100,0.,0.,0.,4.,0.,4.,0.;                                        0000327P0000179
124,1.,0.,0.,0.,0.,1.,0.,0.,0.,0.,1.,35.;                        0000329P0000180
126,1,1,1,0,1,0,0.,0.,1.,1.,1.,1.,4.,0.,35.,4.25,0.,0.,0.,1.,    0000331P0000181
0.999974491,0.,7.142674934E-03;                                  0000331P0000182
100,0.,0.,0.,4.25,0.,4.25,0.;                                    0000333P0000183
124,1.,0.,0.,0.,0.,-1.,0.,0.,0.,0.,-1.,0.;                       0000335P0000184
126,1,1,1,0,1,0,0.,0.,1.,1.,1.,1.,4.25,0.,0.,4.,0.,35.,0.,1.,    0000337P0000185
0.999974491,-0.,7.142674934E-03;                                 0000337P0000186
402,4,341,357,381,395;                                           0000339P0000187
144,343,1,1,345,351;                                             0000341P0000188
108,0.,0.,1.,35.,0,-2.81531792E-16,-7.684058348E-17,35.,0.;      0000343P0000189
142,0,343,0,347,2;                                               0000345P0000190
100,0.,0.,0.,4.5,0.,4.5,0.;                                      0000347P0000191
124,1.,0.,0.,0.,0.,1.,0.,0.,0.,0.,1.,35.;                        0000349P0000192
142,0,343,0,353,2;                                               0000351P0000193
100,0.,0.,0.,4.,0.,4.,0.;                                        0000353P0000194
124,1.,0.,0.,0.,0.,-1.,0.,0.,0.,0.,-1.,35.;                      0000355P0000195
144,359,1,0,367;                                                 0000357P0000196
120,363,365,6.283185307,12.566370614;                            0000359P0000197
124,1.,0.,0.,0.,0.,-1.,0.,0.,0.,-0.,-1.,35.;                     0000361P0000198
110,0.,0.,1.,0.,0.,0.;                                           0000363P0000199
110,4.5,0.,0.,4.75,0.,35.;                                       0000365P0000200
142,0,359,0,369,2;                                               0000367P0000201
102,4,371,373,375,377;                                           0000369P0000202
126,1,1,1,0,1,0,0.,0.,1.,1.,1.,1.,4.5,0.,35.,4.75,0.,0.,0.,1.,   0000371P0000203
0.999974491,0.,7.142674934E-03;                                  0000371P0000204
100,0.,0.,0.,4.75,0.,4.75,0.;                                    0000373P0000205
126,1,1,1,0,1,0,0.,0.,1.,1.,1.,1.,4.75,0.,0.,4.5,0.,35.,0.,1.,   0000375P0000206
0.999974491,-0.,7.142674934E-03;                                 0000375P0000207
100,0.,0.,0.,4.5,0.,4.5,0.;                                      0000377P0000208
124,1.,0.,0.,0.,0.,-1.,0.,0.,0.,0.,-1.,35.;                      0000379P0000209
144,383,1,1,385,391;                                             0000381P0000210
108,-0.,-0.,-1.,0.,0,-4.178289294E-16,-5.957706746E-18,0.,0.;    0000383P0000211
142,0,383,0,387,2;                                               0000385P0000212
100,0.,0.,0.,4.75,0.,4.75,0.;                                    0000387P0000213
124,1.,0.,0.,0.,0.,-1.,0.,0.,0.,0.,-1.,0.;                       0000389P0000214
142,0,383,0,393,2;                                               0000391P0000215
100,0.,0.,0.,4.25,0.,4.25,0.;                                    0000393P0000216
144,397,1,0,405;                                                 0000395P0000217
120,401,403,-6.283185307,0.;                                     0000397P0000218
124,1.,0.,0.,0.,0.,1.,0.,0.,0.,0.,-1.,35.;                       0000399P0000219
110,0.,0.,1.,0.,0.,0.;                                           0000401P0000220
110,4.,0.,0.,4.25,0.,35.;                                        0000403P0000221
142,0,397,0,407,2;                                               0000405P0000222
102,4,409,413,415,419;                                           0000407P0000223
100,0.,0.,0.,4.,0.,4.,0.;                                        0000409P0000224
124,1.,0.,0.,0.,0.,1.,0.,0.,0.,0.,1.,35.;                        0000411P0000225
126,1,1,1,0,1,0,0.,0.,1.,1.,1.,1.,4.,0.,35.,4.25,0.,0.,0.,1.,    0000413P0000226
0.999974491,0.,7.142674934E-03;                                  0000413P0000227
100,0.,0.,0.,4.25,0.,4.25,0.;                                    0000415P0000228
124,1.,0.,0.,0.,0.,-1.,0.,0.,0.,0.,-1.,0.;                       0000417P0000229
126,1,1,1,0,1,0,0.,0.,1.,1.,1.,1.,4.25,0.,0.,4.,0.,35.,0.,1.,    0000419P0000230
0.999974491,-0.,7.142674934E-03;                                 0000419P0000231
402,4,423,439,465,481;                                           0000421P0000232
144,425,1,1,427,433;                                             0000423P0000233
108,0.,0.,1.,35.,0,15.,-7.684058348E-17,35.,0.;                  0000425P0000234
142,0,425,0,429,2;                                               0000427P0000235
100,0.,0.,0.,4.5,0.,4.5,0.;                                      0000429P0000236
124,1.,0.,0.,15.,0.,1.,0.,0.,0.,0.,1.,35.;                       0000431P0000237
142,0,425,0,435,2;                                               0000433P0000238
100,0.,0.,0.,4.,0.,4.,0.;                                        0000435P0000239
124,1.,0.,0.,15.,0.,-1.,0.,0.,0.,0.,-1.,35.;                     0000437P0000240
144,441,1,0,449;                                                 0000439P0000241
120,445,447,6.283185307,12.566370614;                            0000441P0000242
124,1.,0.,0.,15.,0.,-1.,0.,0.,0.,-0.,-1.,35.;                    0000443P0000243
110,0.,0.,1.,0.,0.,0.;                                           0000445P0000244
110,4.5,0.,0.,4.75,0.,35.;                                       0000447P0000245
142,0,441,0,451,2;                                               0000449P0000246
102,4,453,455,459,461;                                           0000451P0000247
126,1,1,1,0,1,0,0.,0.,1.,1.,1.,1.,19.5,0.,35.,19.75,0.,0.,0.,1., 0000453P0000248
0.999974491,0.,7.142674934E-03;                                  0000453P0000249
100,0.,0.,0.,4.75,0.,4.75,0.;                                    0000455P0000250
124,1.,0.,0.,15.,0.,1.,0.,0.,0.,0.,1.,0.;                        0000457P0000251
126,1,1,1,0,1,0,0.,0.,1.,1.,1.,1.,19.75,0.,0.,19.5,0.,35.,0.,1., 0000459P0000252
0.999974491,-0.,7.142674934E-03;                                 0000459P0000253
100,0.,0.,0.,4.5,0.,4.5,0.;                                      0000461P0000254
124,1.,0.,0.,15.,0.,-1.,0.,0.,0.,0.,-1.,35.;                     0000463P0000255
144,467,1,1,469,475;                                             0000465P0000256
108,-0.,-0.,-1.,0.,0,15.,-5.957706746E-18,0.,0.;                 0000467P0000257
142,0,467,0,471,2;                                               0000469P0000258
100,0.,0.,0.,4.75,0.,4.75,0.;                                    0000471P0000259
124,1.,0.,0.,15.,0.,-1.,0.,0.,0.,0.,-1.,0.;                      0000473P0000260
142,0,467,0,477,2;                                               0000475P0000261
100,0.,0.,0.,4.25,0.,4.25,0.;                                    0000477P0000262
124,1.,0.,0.,15.,0.,1.,0.,0.,0.,0.,1.,0.;                        0000479P0000263
144,483,1,0,491;                                                 0000481P0000264
120,487,489,-6.283185307,0.;                                     0000483P0000265
124,1.,0.,0.,15.,0.,1.,0.,0.,0.,0.,-1.,35.;                      0000485P0000266
110,0.,0.,1.,0.,0.,0.;                                           0000487P0000267
110,4.,0.,0.,4.25,0.,35.;                                        0000489P0000268
142,0,483,0,493,2;                                               0000491P0000269
102,4,495,499,501,505;                                           0000493P0000270
100,0.,0.,0.,4.,0.,4.,0.;                                        0000495P0000271
124,1.,0.,0.,15.,0.,1.,0.,0.,0.,0.,1.,35.;                       0000497P0000272
126,1,1,1,0,1,0,0.,0.,1.,1.,1.,1.,19.,0.,35.,19.25,0.,0.,0.,1.,  0000499P0000273
0.999974491,0.,7.142674934E-03;                                  0000499P0000274
100,0.,0.,0.,4.25,0.,4.25,0.;                                    0000501P0000275
124,1.,0.,0.,15.,0.,-1.,0.,0.,0.,0.,-1.,0.;                      0000503P0000276
126,1,1,1,0,1,0,0.,0.,1.,1.,1.,1.,19.25,0.,0.,19.,0.,35.,0.,1.,  0000505P0000277
0.999974491,-0.,7.142674934E-03;                                 0000505P0000278
402,4,509,525,551,567;                                           0000507P0000279
144,511,1,1,513,519;                                             0000509P0000280
108,0.,0.,1.,35.,0,30.,-7.684058348E-17,35.,0.;                  0000511P0000281
142,0,511,0,515,2;                                               0000513P0000282
100,0.,0.,0.,4.5,0.,4.5,0.;                                      0000515P0000283
124,1.,0.,0.,30.,0.,1.,0.,0.,0.,0.,1.,35.;                       0000517P0000284
142,0,511,0,521,2;                                               0000519P0000285
100,0.,0.,0.,4.,0.,4.,0.;                                        0000521P0000286
124,1.,0.,0.,30.,0.,-1.,0.,0.,0.,0.,-1.,35.;                     0000523P0000287
144,527,1,0,535;                                                 0000525P0000288
120,531,533,6.283185307,12.566370614;                            0000527P0000289
124,1.,0.,0.,30.,0.,-1.,0.,0.,0.,-0.,-1.,35.;                    0000529P0000290
110,0.,0.,1.,0.,0.,0.;                                           0000531P0000291
110,4.5,0.,0.,4.75,0.,35.;                                       0000533P0000292
142,0,527,0,537,2;                                               0000535P0000293
102,4,539,541,545,547;                                           0000537P0000294
126,1,1,1,0,1,0,0.,0.,1.,1.,1.,1.,34.5,0.,35.,34.75,0.,0.,0.,1., 0000539P0000295
0.999974491,0.,7.142674934E-03;                                  0000539P0000296
100,0.,0.,0.,4.75,0.,4.75,0.;                                    0000541P0000297
124,1.,0.,0.,30.,0.,1.,0.,0.,0.,0.,1.,0.;                        0000543P0000298
126,1,1,1,0,1,0,0.,0.,1.,1.,1.,1.,34.75,0.,0.,34.5,0.,35.,0.,1., 0000545P0000299
0.999974491,-0.,7.142674934E-03;                                 0000545P0000300
100,0.,0.,0.,4.5,0.,4.5,0.;                                      0000547P0000301
124,1.,0.,0.,30.,0.,-1.,0.,0.,0.,0.,-1.,35.;                     0000549P0000302
144,553,1,1,555,561;                                             0000551P0000303
108,-0.,-0.,-1.,0.,0,30.,-5.957706746E-18,0.,0.;                 0000553P0000304
142,0,553,0,557,2;                                               0000555P0000305
100,0.,0.,0.,4.75,0.,4.75,0.;                                    0000557P0000306
124,1.,0.,0.,30.,0.,-1.,0.,0.,0.,0.,-1.,0.;                      0000559P0000307
142,0,553,0,563,2;                                               0000561P0000308
100,0.,0.,0.,4.25,0.,4.25,0.;                                    0000563P0000309
124,1.,0.,0.,30.,0.,1.,0.,0.,0.,0.,1.,0.;                        0000565P0000310
144,569,1,0,577;                                                 0000567P0000311
120,573,575,-6.283185307,0.;                                     0000569P0000312
124,1.,0.,0.,30.,0.,1.,0.,0.,0.,0.,-1.,35.;                      0000571P0000313
110,0.,0.,1.,0.,0.,0.;                                           0000573P0000314
110,4.,0.,0.,4.25,0.,35.;                                        0000575P0000315
142,0,569,0,579,2;                                               0000577P0000316
102,4,581,585,587,591;                                           0000579P0000317
100,0.,0.,0.,4.,0.,4.,0.;                                        0000581P0000318
124,1.,0.,0.,30.,0.,1.,0.,0.,0.,0.,1.,35.;                       0000583P0000319
126,1,1,1,0,1,0,0.,0.,1.,1.,1.,1.,34.,0.,35.,34.25,0.,0.,0.,1.,  0000585P0000320
0.999974491,0.,7.142674934E-03;                                  0000585P0000321
100,0.,0.,0.,4.25,0.,4.25,0.;                                    0000587P0000322
124,1.,0.,0.,30.,0.,-1.,0.,0.,0.,0.,-1.,0.;                      0000589P0000323
126,1,1,1,0,1,0,0.,0.,1.,1.,1.,1.,34.25,0.,0.,34.,0.,35.,0.,1.,  0000591P0000324
0.999974491,-0.,7.142674934E-03;                                 0000591P0000325
144,595,1,0,597,0,1,643;                                         0000593P0000326
108,0.,0.,1.,0.,0,0.,0.,0.,0.;                                   0000595P0000327
142,0,0,0,0,0;                                                   0000597P0000328
144,601,1,0,603,0,1,637;                                         0000599P0000329
108,0.,-1.,-2.220446049E-16,0.,0,0.,0.,0.,0.;                    0000601P0000330
142,0,0,0,0,0;                                                   0000603P0000331
144,607,1,0,609,0,1,641;                                         0000605P0000332
108,1.,1.232595164E-32,1.110223025E-16,0.,0,0.,0.,0.,0.;         0000607P0000333
142,0,0,0,0,0;                                                   0000609P0000334
100,0.,0.,0.,4.75,0.,4.75,0.;                                    0000611P0000335
100,0.,0.,0.,4.25,0.,4.25,0.;                                    0000613P0000336
100,0.,0.,0.,4.5,0.,4.5,0.;                                      0000615P0000337
124,1.,0.,0.,0.,0.,1.,0.,0.,0.,0.,1.,35.;                        0000617P0000338
100,0.,0.,0.,4.,0.,4.,0.;                                        0000619P0000339
124,1.,0.,0.,0.,0.,1.,0.,0.,0.,0.,1.,35.;                        0000621P0000340
110,-2.E+100,0.,0.,2.E+100,0.,0.,0,1,639;                        0000623P0000341
110,0.,-2.E+100,2.220446049E+84,0.,2.E+100,-2.220446049E+84,0,1, 0000625P0000342
635;                                                             0000625P0000343
110,0.,-2.220446049E+84,-2.E+100,0.,2.220446049E+84,2.E+100,0,1, 0000627P0000344
633;                                                             0000627P0000345
116,0.,0.,0.,0;                                                  0000629P0000346
406,1,10Hpencil_cap;                                             0000631P0000347
406,1,2HZ_;                                                      0000633P0000348
406,1,2HY_;                                                      0000635P0000349
406,1,4HXZ__;                                                    0000637P0000350
406,1,2HX_;                                                      0000639P0000351
406,1,4HYZ__;                                                    0000641P0000352
406,1,4HXY__;                                                    0000643P0000353
S      1G      3D    644P    353                                        T0000001
