                                                                        S0000001
,,31HOpen CASCADE IGES processor 7.8,13HFilename.iges,                  G0000001
16HOpen CASCADE 7.8,31HOpen CASCADE IGES processor 7.8,32,308,15,308,15,G0000002
,1.,2,2HMM,1,0.01,15H20260727.103125,1E-07,,,,11,0,15H20260727.103125,; G0000003
     402       1       0       0       0       0       0       000000000D0000001
     402       0       0       2       1                servo_wh        D0000002
     402       3       0       0       0       0       0       000020000D0000003
     402       0       0       1       1                               0D0000004
     144       4       0       0       0       0       0       000020000D0000005
     144       0       0       1       0                               0D0000006
     120       5       0       0       0       0       9       000010000D0000007
     120       0       0       1       0                               0D0000008
     124       6       0       0       0       0       0       000000000D0000009
     124       0       0       1       0                               0D0000010
     110       7       0       0       0       0       0       000010000D0000011
     110       0       0       1       0                               0D0000012
     110       8       0       0       0       0       0       000010000D0000013
     110       0       0       1       0                               0D0000014
     142       9       0       0       0       0       0       000010500D0000015
     142       0       0       1       0                               0D0000016
     102      10       0       0       0       0       0       000010000D0000017
     102       0       0       1       0                               0D0000018
     100      11       0       0       0       0      21       000010000D0000019
     100       0       0       1       0                               0D0000020
     124      12       0       0       0       0       0       000000000D0000021
     124       0       0       1       0                               0D0000022
     110      13       0       0       0       0       0       000010000D0000023
     110       0       0       1       0                               0D0000024
     100      14       0       0       0       0       0       000010000D0000025
     100       0       0       1       0                               0D0000026
     110      15       0       0       0       0       0       000010000D0000027
     110       0       0       1       0                               0D0000028
     144      16       0       0       0       0       0       000020000D0000029
     144       0       0       1       0                               0D0000030
     108      17       0       0       0       0       0       000010000D0000031
     108       0       0       1       0                               0D0000032
     142      18       0       0       0       0       0       000010500D0000033
     142       0       0       1       0                               0D0000034
     100      19       0       0       0       0      37       000010000D0000035
     100       0       0       1       0                               0D0000036
     124      20       0       0       0       0       0       000000000D0000037
     124       0       0       1       0                               0D0000038
     144      21       0       0       0       0       0       000020000D0000039
     144       0       0       1       0                               0D0000040
     108      22       0       0       0       0       0       000010000D0000041
     108       0       0       1       0                               0D0000042
     142      23       0       0       0       0       0       000010500D0000043
     142       0       0       1       0                               0D0000044
     100      24       0       0       0       0      47       000010000D0000045
     100       0       0       1       0                               0D0000046
     124      25       0       0       0       0       0       000000000D0000047
     124       0       0       1       0                               0D0000048
     142      26       0       0       0       0       0       000010500D0000049
     142       0       0       1       0                               0D0000050
     100      27       0       0       0       0      53       000010000D0000051
     100       0       0       1       0                               0D0000052
     124      28       0       0       0       0       0       000000000D0000053
     124       0       0       1       0                               0D0000054
     144      29       0       0       0       0       0       000020000D0000055
     144       0       0       1       0                               0D0000056
     120      30       0       0       0       0      59       000010000D0000057
     120       0       0       1       0                               0D0000058
     124      31       0       0       0       0       0       000000000D0000059
     124       0       0       1       0                               0D0000060
     110      32       0       0       0       0       0       000010000D0000061
     110       0       0       1       0                               0D0000062
     110      33       0       0       0       0       0       000010000D0000063
     110       0       0       1       0                               0D0000064
     142      34       0       0       0       0       0       000010500D0000065
     142       0       0       1       0                               0D0000066
     102      35       0       0       0       0       0       000010000D0000067
     102       0       0       1       0                               0D0000068
     100      36       0       0       0       0      71       000010000D0000069
     100       0       0       1       0                               0D0000070
     124      37       0       0       0       0       0       000000000D0000071
     124       0       0       1       0                               0D0000072
     110      38       0       0       0       0       0       000010000D0000073
     110       0       0       1       0                               0D0000074
     100      39       0       0       0       0      77       000010000D0000075
     100       0       0       1       0                               0D0000076
     124      40       0       0       0       0       0       000000000D0000077
     124       0       0       1       0                               0D0000078
     110      41       0       0       0       0       0       000010000D0000079
     110       0       0       1       0                               0D0000080
     144      42       0       0       0       0       0       000020000D0000081
     144       0       0       1       0                               0D0000082
     108      43       0       0       0       0       0       000010000D0000083
     108       0       0       1       0                               0D0000084
     142      44       0       0       0       0       0       000010500D0000085
     142       0       0       1       0                               0D0000086
     100      45       0       0       0       0      89       000010000D0000087
     100       0       0       1       0                               0D0000088
     124      46       0       0       0       0       0       000000000D0000089
     124       0       0       1       0                               0D0000090
     402      47       0       0       0       0       0       000020000D0000091
     402       0       0       1       1                               0D0000092
     144      48       0       0       0       0       0       000020000D0000093
     144       0       0       1       0                               0D0000094
     120      49       0       0       0       0      97       000010000D0000095
     120       0       0       1       0                               0D0000096
     124      50       0       0       0       0       0       000000000D0000097
     124       0       0       1       0                               0D0000098
     110      51       0       0       0       0       0       000010000D0000099
     110       0       0       1       0                               0D0000100
     110      52       0       0       0       0       0       000010000D0000101
     110       0       0       1       0                               0D0000102
     142      53       0       0       0       0       0       000010500D0000103
     142       0       0       1       0                               0D0000104
     102      54       0       0       0       0       0       000010000D0000105
     102       0       0       1       0                               0D0000106
     100      55       0       0       0       0     109       000010000D0000107
     100       0       0       1       0                               0D0000108
     124      56       0       0       0       0       0       000000000D0000109
     124       0       0       1       0                               0D0000110
     110      57       0       0       0       0       0       000010000D0000111
     110       0       0       1       0                               0D0000112
     100      58       0       0       0       0       0       000010000D0000113
     100       0       0       1       0                               0D0000114
     110      59       0       0       0       0       0       000010000D0000115
     110       0       0       1       0                               0D0000116
     144      60       0       0       0       0       0       000020000D0000117
     144       0       0       1       0                               0D0000118
     108      61       0       0       0       0       0       000010000D0000119
     108       0       0       1       0                               0D0000120
     142      62       0       0       0       0       0       000010500D0000121
     142       0       0       1       0                               0D0000122
     100      63       0       0       0       0     125       000010000D0000123
     100       0       0       1       0                               0D0000124
     124      64       0       0       0       0       0       000000000D0000125
     124       0       0       1       0                               0D0000126
     144      65       0       0       0       0       0       000020000D0000127
     144       0       0       1       0                               0D0000128
     108      66       0       0       0       0       0       000010000D0000129
     108       0       0       1       0                               0D0000130
     142      67       0       0       0       0       0       000010500D0000131
     142       0       0       1       0                               0D0000132
     100      68       0       0       0       0     135       000010000D0000133
     100       0       0       1       0                               0D0000134
     124      69       0       0       0       0       0       000000000D0000135
     124       0       0       1       0                               0D0000136
     402      70       0       0       0       0       0       000020000D0000137
     402       0       0       1       1                               0D0000138
     144      71       0       0       0       0       0       000020000D0000139
     144       0       0       1       0                               0D0000140
     120      72       0       0       0       0     143       000010000D0000141
     120       0       0       1       0                               0D0000142
     124      73       0       0       0       0       0       000000000D0000143
     124       0       0       1       0                               0D0000144
     110      74       0       0       0       0       0       000010000D0000145
     110       0       0       1       0                               0D0000146
     110      75       0       0       0       0       0       000010000D0000147
     110       0       0       1       0                               0D0000148
     142      76       0       0       0       0       0       000010500D0000149
     142       0       0       1       0                               0D0000150
     102      77       0       0       0       0       0       000010000D0000151
     102       0       0       1       0                               0D0000152
     100      78       0       0       0       0     155       000010000D0000153
     100       0       0       1       0                               0D0000154
     124      79       0       0       0       0       0       000000000D0000155
     124       0       0       1       0                               0D0000156
     110      80       0       0       0       0       0       000010000D0000157
     110       0       0       1       0                               0D0000158
     100      81       0       0       0       0       0       000010000D0000159
     100       0       0       1       0                               0D0000160
     110      82       0       0       0       0       0       000010000D0000161
     110       0       0       1       0                               0D0000162
     144      83       0       0       0       0       0       000020000D0000163
     144       0       0       1       0                               0D0000164
     108      84       0       0       0       0       0       000010000D0000165
     108       0       0       1       0                               0D0000166
     142      85       0       0       0       0       0       000010500D0000167
     142       0       0       1       0                               0D0000168
     100      86       0       0       0       0     171       000010000D0000169
     100       0       0       1       0                               0D0000170
     124      87       0       0       0       0       0       000000000D0000171
     124       0       0       1       0                               0D0000172
     144      88       0       0       0       0       0       000020000D0000173
     144       0       0       1       0                               0D0000174
     108      89       0       0       0       0       0       000010000D0000175
     108       0       0       1       0                               0D0000176
     142      90       0       0       0       0       0       000010500D0000177
     142       0       0       1       0                               0D0000178
     100      91       0       0       0       0     181       000010000D0000179
     100       0       0       1       0                               0D0000180
     124      92       0       0       0       0       0       000000000D0000181
     124       0       0       1       0                               0D0000182
     142      93       0       0       0       0       0       000010500D0000183
     142       0       0       1       0                               0D0000184
     100      94       0       0       0       0     187       000010000D0000185
     100       0       0       1       0                               0D0000186
     124      95       0       0       0       0       0       000000000D0000187
     124       0       0       1       0                               0D0000188
     144      96       0       0       0       0       0       000020000D0000189
     144       0       0       1       0                               0D0000190
     120      97       0       0       0       0     193       000010000D0000191
     120       0       0       1       0                               0D0000192
     124      98       0       0       0       0       0       000000000D0000193
     124       0       0       1       0                               0D0000194
     110      99       0       0       0       0       0       000010000D0000195
     110       0       0       1       0                               0D0000196
     110     100       0       0       0       0       0       000010000D0000197
     110       0       0       1       0                               0D0000198
     142     101       0       0       0       0       0       000010500D0000199
     142       0       0       1       0                               0D0000200
     102     102       0       0       0       0       0       000010000D0000201
     102       0       0       1       0                               0D0000202
     100     103       0       0       0       0     205       000010000D0000203
     100       0       0       1       0                               0D0000204
     124     104       0       0       0       0       0       000000000D0000205
     124       0       0       1       0                               0D0000206
     110     105       0       0       0       0       0       000010000D0000207
     110       0       0       1       0                               0D0000208
     100     106       0       0       0       0     211       000010000D0000209
     100       0       0       1       0                               0D0000210
     124     107       0       0       0       0       0       000000000D0000211
     124       0       0       1       0                               0D0000212
     110     108       0       0       0       0       0       000010000D0000213
     110       0       0       1       0                               0D0000214
     144     109       0       0       0       0       0       000020000D0000215
     144       0       0       1       0                               0D0000216
     108     110       0       0       0       0       0       000010000D0000217
     108       0       0       1       0                               0D0000218
     142     111       0       0       0       0       0       000010500D0000219
     142       0       0       1       0                               0D0000220
     100     112       0       0       0       0     223       000010000D0000221
     100       0       0       1       0                               0D0000222
     124     113       0       0       0       0       0       000000000D0000223
     124       0       0       1       0                               0D0000224
     402     114       0       0       0       0       0       000020000D0000225
     402       0       0       1       1                               0D0000226
     144     115       0       0       0       0       0       000020000D0000227
     144       0       0       1       0                               0D0000228
     120     116       0       0       0       0     231       000010000D0000229
     120       0       0       1       0                               0D0000230
     124     117       0       0       0       0       0       000000000D0000231
     124       0       0       1       0                               0D0000232
     110     118       0       0       0       0       0       000010000D0000233
     110       0       0       1       0                               0D0000234
     110     119       0       0       0       0       0       000010000D0000235
     110       0       0       1       0                               0D0000236
     142     120       0       0       0       0       0       000010500D0000237
     142       0       0       1       0                               0D0000238
     102     121       0       0       0       0       0       000010000D0000239
     102       0       0       1       0                               0D0000240
     100     122       0       0       0       0     243       000010000D0000241
     100       0       0       1       0                               0D0000242
     124     123       0       0       0       0       0       000000000D0000243
     124       0       0       1       0                               0D0000244
     110     124       0       0       0       0       0       000010000D0000245
     110       0       0       1       0                               0D0000246
     100     125       0       0       0       0       0       000010000D0000247
     100       0       0       1       0                               0D0000248
     110     126       0       0       0       0       0       000010000D0000249
     110       0       0       1       0                               0D0000250
     144     127       0       0       0       0       0       000020000D0000251
     144       0       0       1       0                               0D0000252
     108     128       0       0       0       0       0       000010000D0000253
     108       0       0       1       0                               0D0000254
     142     129       0       0       0       0       0       000010500D0000255
     142       0       0       1       0                               0D0000256
     100     130       0       0       0       0     259       000010000D0000257
     100       0       0       1       0                               0D0000258
     124     131       0       0       0       0       0       000000000D0000259
     124       0       0       1       0                               0D0000260
     144     132       0       0       0       0       0       000020000D0000261
     144       0       0       1       0                               0D0000262
     108     133       0       0       0       0       0       000010000D0000263
     108       0       0       1       0                               0D0000264
     142     134       0       0       0       0       0       000010500D0000265
     142       0       0       1       0                               0D0000266
     100     135       0       0       0       0     269       000010000D0000267
     100       0       0       1       0                               0D0000268
     124     136       0       0       0       0       0       000000000D0000269
     124       0       0       1       0                               0D0000270
     142     137       0       0       0       0       0       000010500D0000271
     142       0       0       1       0                               0D0000272
     100     138       0       0       0       0     275       000010000D0000273
     100       0       0       1       0                               0D0000274
     124     139       0       0       0       0       0       000000000D0000275
     124       0       0       1       0                               0D0000276
     144     140       0       0       0       0       0       000020000D0000277
     144       0       0       1       0                               0D0000278
     120     141       0       0       0       0     281       000010000D0000279
     120       0       0       1       0                               0D0000280
     124     142       0       0       0       0       0       000000000D0000281
     124       0       0       1       0                               0D0000282
     110     143       0       0       0       0       0       000010000D0000283
     110       0       0       1       0                               0D0000284
     110     144       0       0       0       0       0       000010000D0000285
     110       0       0       1       0                               0D0000286
     142     145       0       0       0       0       0       000010500D0000287
     142       0       0       1       0                               0D0000288
     102     146       0       0       0       0       0       000010000D0000289
     102       0       0       1       0                               0D0000290
     100     147       0       0       0       0     293       000010000D0000291
     100       0       0       1       0                               0D0000292
     124     148       0       0       0       0       0       000000000D0000293
     124       0       0       1       0                               0D0000294
     110     149       0       0       0       0       0       000010000D0000295
     110       0       0       1       0                               0D0000296
     100     150       0       0       0       0     299       000010000D0000297
     100       0       0       1       0                               0D0000298
     124     151       0       0       0       0       0       000000000D0000299
     124       0       0       1       0                               0D0000300
     110     152       0       0       0       0       0       000010000D0000301
     110       0       0       1       0                               0D0000302
     144     153       0       0       0       0       0       000020000D0000303
     144       0       0       1       0                               0D0000304
     108     154       0       0       0       0       0       000010000D0000305
     108       0       0       1       0                               0D0000306
     142     155       0       0       0       0       0       000010500D0000307
     142       0       0       1       0                               0D0000308
     100     156       0       0       0       0     311       000010000D0000309
     100       0       0       1       0                               0D0000310
     124     157       0       0       0       0       0       000000000D0000311
     124       0       0       1       0                               0D0000312
     402     158       0       0       0       0       0       000020000D0000313
     402       0       0       1       1                               0D0000314
     144     159       0       0       0       0       0       000020000D0000315
     144       0       0       1       0                               0D0000316
     120     160       0       0       0       0     319       000010000D0000317
     120       0       0       1       0                               0D0000318
     124     161       0       0       0       0       0       000000000D0000319
     124       0       0       1       0                               0D0000320
     110     162       0       0       0       0       0       000010000D0000321
     110       0       0       1       0                               0D0000322
     110     163       0       0       0       0       0       000010000D0000323
     110       0       0       1       0                               0D0000324
     142     164       0       0       0       0       0       000010500D0000325
     142       0       0       1       0                               0D0000326
     102     165       0       0       0       0       0       000010000D0000327
     102       0       0       1       0                               0D0000328
     100     166       0       0       0       0     331       000010000D0000329
     100       0       0       1       0                               0D0000330
     124     167       0       0       0       0       0       000000000D0000331
     124       0       0       1       0                               0D0000332
     110     168       0       0       0       0       0       000010000D0000333
     110       0       0       1       0                               0D0000334
     100     169       0       0       0       0       0       000010000D0000335
     100       0       0       1       0                               0D0000336
     110     170       0       0       0       0       0       000010000D0000337
     110       0       0       1       0                               0D0000338
     144     171       0       0       0       0       0       000020000D0000339
     144       0       0       1       0                               0D0000340
     108     172       0       0       0       0       0       000010000D0000341
     108       0       0       1       0                               0D0000342
     142     173       0       0       0       0       0       000010500D0000343
     142       0       0       1       0                               0D0000344
     100     174       0       0       0       0     347       000010000D0000345
     100       0       0       1       0                               0D0000346
     124     175       0       0       0       0       0       000000000D0000347
     124       0       0       1       0                               0D0000348
     144     176       0       0       0       0       0       000020000D0000349
     144       0       0       1       0                               0D0000350
     108     177       0       0       0       0       0       000010000D0000351
     108       0       0       1       0                               0D0000352
     142     178       0       0       0       0       0       000010500D0000353
     142       0       0       1       0                               0D0000354
     100     179       0       0       0       0     357       000010000D0000355
     100       0       0       1       0                               0D0000356
     124     180       0       0       0       0       0       000000000D0000357
     124       0       0       1       0                               0D0000358
     142     181       0       0       0       0       0       000010500D0000359
     142       0       0       1       0                               0D0000360
     100     182       0       0       0       0     363       000010000D0000361
     100       0       0       1       0                               0D0000362
     124     183       0       0       0       0       0       000000000D0000363
     124       0       0       1       0                               0D0000364
     144     184       0       0       0       0       0       000020000D0000365
     144       0       0       1       0                               0D0000366
     120     185       0       0       0       0     369       000010000D0000367
     120       0       0       1       0                               0D0000368
     124     186       0       0       0       0       0       000000000D0000369
     124       0       0       1       0                               0D0000370
     110     187       0       0       0       0       0       000010000D0000371
     110       0       0       1       0                               0D0000372
     110     188       0       0       0       0       0       000010000D0000373
     110       0       0       1       0                               0D0000374
     142     189       0       0       0       0       0       000010500D0000375
     142       0       0       1       0                               0D0000376
     102     190       0       0       0       0       0       000010000D0000377
     102       0       0       1       0                               0D0000378
     100     191       0       0       0       0     381       000010000D0000379
     100       0       0       1       0                               0D0000380
     124     192       0       0       0       0       0       000000000D0000381
     124       0       0       1       0                               0D0000382
     110     193       0       0       0       0       0       000010000D0000383
     110       0       0       1       0                               0D0000384
     100     194       0       0       0       0     387       000010000D0000385
     100       0       0       1       0                               0D0000386
     124     195       0       0       0       0       0       000000000D0000387
     124       0       0       1       0                               0D0000388
     110     196       0       0       0       0       0       000010000D0000389
     110       0       0       1       0                               0D0000390
     144     197       0       0       0       0       0       000020000D0000391
     144       0       0       1       0                               0D0000392
     108     198       0       0       0       0       0       000010000D0000393
     108       0       0       1       0                               0D0000394
     142     199       0       0       0       0       0       000010500D0000395
     142       0       0       1       0                               0D0000396
     100     200       0       0       0       0     399       000010000D0000397
     100       0       0       1       0                               0D0000398
     124     201       0       0       0       0       0       000000000D0000399
     124       0       0       1       0                               0D0000400
     402     202       0       0       0       0       0       000020000D0000401
     402       0       0       1       1                               0D0000402
     144     203       0       0       0       0       0       000020000D0000403
     144       0       0       1       0                               0D0000404
     120     204       0       0       0       0     407       000010000D0000405
     120       0       0       1       0                               0D0000406
     124     205       0       0       0       0       0       000000000D0000407
     124       0       0       1       0                               0D0000408
     110     206       0       0       0       0       0       000010000D0000409
     110       0       0       1       0                               0D0000410
     110     207       0       0       0       0       0       000010000D0000411
     110       0       0       1       0                               0D0000412
     142     208       0       0       0       0       0       000010500D0000413
     142       0       0       1       0                               0D0000414
     102     209       0       0       0       0       0       000010000D0000415
     102       0       0       1       0                               0D0000416
     100     210       0       0       0       0     419       000010000D0000417
     100       0       0       1       0                               0D0000418
     124     211       0       0       0       0       0       000000000D0000419
     124       0       0       1       0                               0D0000420
     110     212       0       0       0       0       0       000010000D0000421
     110       0       0       1       0                               0D0000422
     100     213       0       0       0       0       0       000010000D0000423
     100       0       0       1       0                               0D0000424
     110     214       0       0       0       0       0       000010000D0000425
     110       0       0       1       0                               0D0000426
     144     215       0       0       0       0       0       000020000D0000427
     144       0       0       1       0                               0D0000428
     108     216       0       0       0       0       0       000010000D0000429
     108       0       0       1       0                               0D0000430
     142     217       0       0       0       0       0       000010500D0000431
     142       0       0       1       0                               0D0000432
     100     218       0       0       0       0     435       000010000D0000433
     100       0       0       1       0                               0D0000434
     124     219       0       0       0       0       0       000000000D0000435
     124       0       0       1       0                               0D0000436
     144     220       0       0       0       0       0       000020000D0000437
     144       0       0       1       0                               0D0000438
     108     221       0       0       0       0       0       000010000D0000439
     108       0       0       1       0                               0D0000440
     142     222       0       0       0       0       0       000010500D0000441
     142       0       0       1       0                               0D0000442
     100     223       0       0       0       0     445       000010000D0000443
     100       0       0       1       0                               0D0000444
     124     224       0       0       0       0       0       000000000D0000445
     124       0       0       1       0                               0D0000446
     142     225       0       0       0       0       0       000010500D0000447
     142       0       0       1       0                               0D0000448
     100     226       0       0       0       0     451       000010000D0000449
     100       0       0       1       0                               0D0000450
     124     227       0       0       0       0       0       000000000D0000451
     124       0       0       1       0                               0D0000452
     144     228       0       0       0       0       0       000020000D0000453
     144       0       0       1       0                               0D0000454
     120     229       0       0       0       0     457       000010000D0000455
     120       0       0       1       0                               0D0000456
     124     230       0       0       0       0       0       000000000D0000457
     124       0       0       1       0                               0D0000458
     110     231       0       0       0       0       0       000010000D0000459
     110       0       0       1       0                               0D0000460
     110     232       0       0       0       0       0       000010000D0000461
     110       0       0       1       0                               0D0000462
     142     233       0       0       0       0       0       000010500D0000463
     142       0       0       1       0                               0D0000464
     102     234       0       0       0       0       0       000010000D0000465
     102       0       0       1       0                               0D0000466
     100     235       0       0       0       0     469       000010000D0000467
     100       0       0       1       0                               0D0000468
     124     236       0       0       0       0       0       000000000D0000469
     124       0       0       1       0                               0D0000470
     110     237       0       0       0       0       0       000010000D0000471
     110       0       0       1       0                               0D0000472
     100     238       0       0       0       0     475       000010000D0000473
     100       0       0       1       0                               0D0000474
     124     239       0       0       0       0       0       000000000D0000475
     124       0       0       1       0                               0D0000476
     110     240       0       0       0       0       0       000010000D0000477
     110       0       0       1       0                               0D0000478
     144     241       0       0       0       0       0       000020000D0000479
     144       0       0       1       0                               0D0000480
     108     242       0       0       0       0       0       000010000D0000481
     108       0       0       1       0                               0D0000482
     142     243       0       0       0       0       0       000010500D0000483
     142       0       0       1       0                               0D0000484
     100     244       0       0       0       0     487       000010000D0000485
     100       0       0       1       0                               0D0000486
     124     245       0       0       0       0       0       000000000D0000487
     124       0       0       1       0                               0D0000488
     402     246       0       0       0       0       0       000020000D0000489
     402       0       0       1       1                               0D0000490
     144     247       0       0       0       0       0       000020000D0000491
     144       0       0       1       0                               0D0000492
     120     248       0       0       0       0     495       000010000D0000493
     120       0       0       1       0                               0D0000494
     124     249       0       0       0       0       0       000000000D0000495
     124       0       0       1       0                               0D0000496
     110     250       0       0       0       0       0       000010000D0000497
     110       0       0       1       0                               0D0000498
     110     251       0       0       0       0       0       000010000D0000499
     110       0       0       1       0                               0D0000500
     142     252       0       0       0       0       0       000010500D0000501
     142       0       0       1       0                               0D0000502
     102     253       0       0       0       0       0       000010000D0000503
     102       0       0       1       0                               0D0000504
     100     254       0       0       0       0     507       000010000D0000505
     100       0       0       1       0                               0D0000506
     124     255       0       0       0       0       0       000000000D0000507
     124       0       0       1       0                               0D0000508
     110     256       0       0       0       0       0       000010000D0000509
     110       0       0       1       0                               0D0000510
     100     257       0       0       0       0       0       000010000D0000511
     100       0       0       1       0                               0D0000512
     110     258       0       0       0       0       0       000010000D0000513
     110       0       0       1       0                               0D0000514
     144     259       0       0       0       0       0       000020000D0000515
     144       0       0       1       0                               0D0000516
     108     260       0       0       0       0       0       000010000D0000517
     108       0       0       1       0                               0D0000518
     142     261       0       0       0       0       0       000010500D0000519
     142       0       0       1       0                               0D0000520
     100     262       0       0       0       0     523       000010000D0000521
     100       0       0       1       0                               0D0000522
     124     263       0       0       0       0       0       000000000D0000523
     124       0       0       1       0                               0D0000524
     144     264       0       0       0       0       0       000020000D0000525
     144       0       0       1       0                               0D0000526
     108     265       0       0       0       0       0       000010000D0000527
     108       0       0       1       0                               0D0000528
     142     266       0       0       0       0       0       000010500D0000529
     142       0       0       1       0                               0D0000530
     100     267       0       0       0       0     533       000010000D0000531
     100       0       0       1       0                               0D0000532
     124     268       0       0       0       0       0       000000000D0000533
     124       0       0       1       0                               0D0000534
     142     269       0       0       0       0       0       000010500D0000535
     142       0       0       1       0                               0D0000536
     100     270       0       0       0       0     539       000010000D0000537
     100       0       0       1       0                               0D0000538
     124     271       0       0       0       0       0       000000000D0000539
     124       0       0       1       0                               0D0000540
     144     272       0       0       0       0       0       000020000D0000541
     144       0       0       1       0                               0D0000542
     120     273       0       0       0       0     545       000010000D0000543
     120       0       0       1       0                               0D0000544
     124     274       0       0       0       0       0       000000000D0000545
     124       0       0       1       0                               0D0000546
     110     275       0       0       0       0       0       000010000D0000547
     110       0       0       1       0                               0D0000548
     110     276       0       0       0       0       0       000010000D0000549
     110       0       0       1       0                               0D0000550
     142     277       0       0       0       0       0       000010500D0000551
     142       0       0       1       0                               0D0000552
     102     278       0       0       0       0       0       000010000D0000553
     102       0       0       1       0                               0D0000554
     100     279       0       0       0       0     557       000010000D0000555
     100       0       0       1       0                               0D0000556
     124     280       0       0       0       0       0       000000000D0000557
     124       0       0       1       0                               0D0000558
     110     281       0       0       0       0       0       000010000D0000559
     110       0       0       1       0                               0D0000560
     100     282       0       0       0       0     563       000010000D0000561
     100       0       0       1       0                               0D0000562
     124     283       0       0       0       0       0       000000000D0000563
     124       0       0       1       0                               0D0000564
     110     284       0       0       0       0       0       000010000D0000565
     110       0       0       1       0                               0D0000566
     144     285       0       0       0       0       0       000020000D0000567
     144       0       0       1       0                               0D0000568
     108     286       0       0       0       0       0       000010000D0000569
     108       0       0       1       0                               0D0000570
     142     287       0       0       0       0       0       000010500D0000571
     142       0       0       1       0                               0D0000572
     100     288       0       0       0       0     575       000010000D0000573
     100       0       0       1       0                               0D0000574
     124     289       0       0       0       0       0       000000000D0000575
     124       0       0       1       0                               0D0000576
     144     290       0       0       0       0       0       000020000D0000577
     144       0       0       1       0                XY-plane        D0000578
     108     291       0       0       0       0       0       000010000D0000579
     108       0       0       1       0                               0D0000580
     142     292       0       0       0       0       0       000010500D0000581
     142       0       0       1       0                               0D0000582
     144     293       0       0       0       0       0       000020000D0000583
     144       0       0       1       0                XZ-plane        D0000584
     108     294       0       0       0       0       0       000010000D0000585
     108       0       0       1       0                               0D0000586
     142     295       0       0       0       0       0       000010500D0000587
     142       0       0       1       0                               0D0000588
     144     296       0       0       0       0       0       000020000D0000589
     144       0       0       1       0                YZ-plane        D0000590
     108     297       0       0       0       0       0       000010000D0000591
     108       0       0       1       0                               0D0000592
     142     298       0       0       0       0       0       000010500D0000593
     142       0       0       1       0                               0D0000594
     100     299       0       0       0       0       0       000020000D0000595
     100       0       0       1       0                               0D0000596
     100     300       0       0       0       0     599       000020000D0000597
     100       0       0       1       0                Sketch_0        D0000598
     124     301       0       0       0       0       0       000000000D0000599
     124       0       0       1       0                               0D0000600
     100     302       0       0       0       0     603       000020000D0000601
     100       0       0       1       0                Sketch_0        D0000602
     124     303       0       0       0       0       0       000000000D0000603
     124       0       0       1       0                               0D0000604
     100     304       0       0       0       0     607       000020000D0000605
     100       0       0       1       0                Sketch_0        D0000606
     124     305       0       0       0       0       0       000000000D0000607
     124       0       0       1       0                               0D0000608
     100     306       0       0       0       0     611       000020000D0000609
     100       0       0       1       0                               0D0000610
     124     307       0       0       0       0       0       000000000D0000611
     124       0       0       1       0                               0D0000612
     100     308       0       0       0       0     615       000020000D0000613
     100       0       0       1       0                               0D0000614
     124     309       0       0       0       0       0       000000000D0000615
     124       0       0       1       0                               0D0000616
     100     310       0       0       0       0     619       000020000D0000617
     100       0       0       1       0                               0D0000618
     124     311       0       0       0       0       0       000000000D0000619
     124       0       0       1       0                               0D0000620
     100     312       0       0       0       0     623       000020000D0000621
     100       0       0       1       0                               0D0000622
     124     313       0       0       0       0       0       000000000D0000623
     124       0       0       1       0                               0D0000624
     100     314       0       0       0       0     627       000020000D0000625
     100       0       0       1       0                               0D0000626
     124     315       0       0       0       0       0       000000000D0000627
     124       0       0       1       0                               0D0000628
     100     316       0       0       0       0     631       000020000D0000629
     100       0       0       1       0                               0D0000630
     124     317       0       0       0       0       0       000000000D0000631
     124       0       0       1       0                               0D0000632
     100     318       0       0       0       0     635       000020000D0000633
     100       0       0       1       0                               0D0000634
     124     319       0       0       0       0       0       000000000D0000635
     124       0       0       1       0                               0D0000636
     100     320       0       0       0       0     639       000020000D0000637
     100       0       0       1       0                               0D0000638
     124     321       0       0       0       0       0       000000000D0000639
     124       0       0       1       0                               0D0000640
     100     322       0       0       0       0     643       000020000D0000641
     100       0       0       1       0                               0D0000642
     124     323       0       0       0       0       0       000000000D0000643
     124       0       0       1       0                               0D0000644
     100     324       0       0       0       0     647       000020000D0000645
     100       0       0       1       0                               0D0000646
     124     325       0       0       0       0       0       000000000D0000647
     124       0       0       1       0                               0D0000648
     110     326       0       0       0       0       0       000020000D0000649
     110       0       0       1       0                  X-axis        D0000650
     110     327       0       0       0       0       0       000020000D0000651
     110       0       0       2       0                  Y-axis        D0000652
     110     329       0       0       0       0       0       000020000D0000653
     110       0       0       2       0                  Z-axis        D0000654
     116     331       0       0       0       0       0       000020400D0000655
     116       0       0       1       0                               0D0000656
     406     332       0       0       0       0       0       000000000D0000657
     406       0       0       1      15                               0D0000658
     406     333       0       0       0       0       0       000000000D0000659
     406       0       0       1      15                               0D0000660
     406     334       0       0       0       0       0       000000000D0000661
     406       0       0       1      15                               0D0000662
     406     335       0       0       0       0       0       000000000D0000663
     406       0       0       1      15                               0D0000664
     406     336       0       0       0       0       0       000000000D0000665
     406       0       0       1      15                               0D0000666
     406     337       0       0       0       0       0       000000000D0000667
     406       0       0       1      15                               0D0000668
     406     338       0       0       0       0       0       000000000D0000669
     406       0       0       1      15                               0D0000670
     406     339       0       0       0       0       0       000000000D0000671
     406       0       0       1      15                               0D0000672
     406     340       0       0       0       0       0       000000000D0000673
     406       0       0       1      15                               0D0000674
     406     341       0       0       0       0       0       000000000D0000675
     406       0       0       1      15                               0D0000676
402,28,3,91,137,225,313,401,489,577,583,589,595,597,601,605,609, 0000001P0000001
613,617,621,625,629,633,637,641,645,649,651,653,655,0,1,661;     0000001P0000002
402,5,5,29,39,55,81;                                             0000003P0000003
144,7,1,0,15;                                                    0000005P0000004
120,11,13,6.283185307,12.566370614;                              0000007P0000005
124,1.,0.,0.,0.,0.,-1.,0.,0.,0.,0.,-1.,0.;                       0000009P0000006
110,0.,0.,1.,0.,0.,0.;                                           0000011P0000007
110,32.,0.,-12.,32.,0.,0.;                                       0000013P0000008
142,0,7,0,17,2;                                                  0000015P0000009
102,4,19,23,25,27;                                               0000017P0000010
100,0.,0.,0.,32.,0.,32.,0.;                                      0000019P0000011
124,1.,0.,0.,0.,0.,-1.,0.,0.,0.,0.,-1.,12.;                      0000021P0000012
110,32.,0.,12.,32.,0.,0.;                                        0000023P0000013
100,0.,0.,0.,32.,0.,32.,0.;                                      0000025P0000014
110,32.,0.,0.,32.,0.,12.;                                        0000027P0000015
144,31,1,0,33;                                                   0000029P0000016
108,-0.,-0.,-1.,0.,0,-2.05E-15,6.E-17,0.,0.;                     0000031P0000017
142,0,31,0,35,2;                                                 0000033P0000018
100,0.,0.,0.,32.,0.,32.,0.;                                      0000035P0000019
124,1.,0.,0.,0.,0.,-1.,0.,0.,0.,0.,-1.,0.;                       0000037P0000020
144,41,1,1,43,49;                                                0000039P0000021
108,0.,0.,1.,12.,0,-2.05E-15,6.E-17,12.,0.;                      0000041P0000022
142,0,41,0,45,2;                                                 0000043P0000023
100,0.,0.,0.,32.,0.,32.,0.;                                      0000045P0000024
124,1.,0.,0.,0.,0.,1.,0.,0.,0.,0.,1.,12.;                        0000047P0000025
142,0,41,0,51,2;                                                 0000049P0000026
100,0.,0.,0.,13.5,0.,13.5,0.;                                    0000051P0000027
124,1.,0.,0.,0.,0.,-1.,0.,0.,0.,0.,-1.,12.;                      0000053P0000028
144,57,1,0,65;                                                   0000055P0000029
120,61,63,6.283185307,12.566370614;                              0000057P0000030
124,1.,0.,0.,0.,0.,-1.,0.,0.,0.,0.,-1.,12.;                      0000059P0000031
110,0.,0.,1.,0.,0.,0.;                                           0000061P0000032
110,13.5,0.,-4.,13.5,0.,0.;                                      0000063P0000033
142,0,57,0,67,2;                                                 0000065P0000034
102,4,69,73,75,79;                                               0000067P0000035
100,0.,0.,0.,13.5,0.,13.5,0.;                                    0000069P0000036
124,1.,0.,0.,0.,0.,-1.,0.,0.,0.,0.,-1.,16.;                      0000071P0000037
110,13.5,0.,16.,13.5,0.,12.;                                     0000073P0000038
100,0.,0.,0.,13.5,0.,13.5,0.;                                    0000075P0000039
124,1.,0.,0.,0.,0.,1.,0.,0.,0.,0.,1.,12.;                        0000077P0000040
110,13.5,0.,12.,13.5,0.,16.;                                     0000079P0000041
144,83,1,0,85;                                                   0000081P0000042
108,0.,0.,1.,16.,0,-1.22E-15,-5.5E-16,16.,0.;                    0000083P0000043
142,0,83,0,87,2;                                                 0000085P0000044
100,0.,0.,0.,13.5,0.,13.5,0.;                                    0000087P0000045
124,1.,0.,0.,0.,0.,1.,0.,0.,0.,0.,1.,16.;                        0000089P0000046
402,3,93,117,127;                                                0000091P0000047
144,95,1,0,103;                                                  0000093P0000048
120,99,101,6.283185307,12.566370614;                             0000095P0000049
124,1.,0.,0.,0.,0.,-1.,0.,0.,0.,0.,-1.,0.;                       0000097P0000050
110,0.,0.,1.,0.,0.,0.;                                           0000099P0000051
110,32.,0.,-12.,32.,0.,0.;                                       0000101P0000052
142,0,95,0,105,2;                                                0000103P0000053
102,4,107,111,113,115;                                           0000105P0000054
100,0.,0.,0.,32.,0.,32.,0.;                                      0000107P0000055
124,1.,0.,0.,0.,0.,-1.,0.,0.,0.,0.,-1.,12.;                      0000109P0000056
110,32.,0.,12.,32.,0.,0.;                                        0000111P0000057
100,0.,0.,0.,32.,0.,32.,0.;                                      0000113P0000058
110,32.,0.,0.,32.,0.,12.;                                        0000115P0000059
144,119,1,0,121;                                                 0000117P0000060
108,-0.,-0.,-1.,0.,0,-2.05E-15,6.E-17,0.,0.;                     0000119P0000061
142,0,119,0,123,2;                                               0000121P0000062
100,0.,0.,0.,32.,0.,32.,0.;                                      0000123P0000063
124,1.,0.,0.,0.,0.,-1.,0.,0.,0.,0.,-1.,0.;                       0000125P0000064
144,129,1,0,131;                                                 0000127P0000065
108,0.,0.,1.,12.,0,-2.05E-15,6.E-17,12.,0.;                      0000129P0000066
142,0,129,0,133,2;                                               0000131P0000067
100,0.,0.,0.,32.,0.,32.,0.;                                      0000133P0000068
124,1.,0.,0.,0.,0.,1.,0.,0.,0.,0.,1.,12.;                        0000135P0000069
402,5,139,163,173,189,215;                                       0000137P0000070
144,141,1,0,149;                                                 0000139P0000071
120,145,147,6.283185307,12.566370614;                            0000141P0000072
124,1.,0.,0.,0.,0.,-1.,0.,0.,0.,0.,-1.,0.;                       0000143P0000073
110,0.,0.,1.,0.,0.,0.;                                           0000145P0000074
110,32.,0.,-12.,32.,0.,0.;                                       0000147P0000075
142,0,141,0,151,2;                                               0000149P0000076
102,4,153,157,159,161;                                           0000151P0000077
100,0.,0.,0.,32.,0.,32.,0.;                                      0000153P0000078
124,1.,0.,0.,0.,0.,-1.,0.,0.,0.,0.,-1.,12.;                      0000155P0000079
110,32.,0.,12.,32.,0.,0.;                                        0000157P0000080
100,0.,0.,0.,32.,0.,32.,0.;                                      0000159P0000081
110,32.,0.,0.,32.,0.,12.;                                        0000161P0000082
144,165,1,0,167;                                                 0000163P0000083
108,-0.,-0.,-1.,0.,0,-2.05E-15,6.E-17,0.,0.;                     0000165P0000084
142,0,165,0,169,2;                                               0000167P0000085
100,0.,0.,0.,32.,0.,32.,0.;                                      0000169P0000086
124,1.,0.,0.,0.,0.,-1.,0.,0.,0.,0.,-1.,0.;                       0000171P0000087
144,175,1,1,177,183;                                             0000173P0000088
108,0.,0.,1.,12.,0,-2.05E-15,6.E-17,12.,0.;                      0000175P0000089
142,0,175,0,179,2;                                               0000177P0000090
100,0.,0.,0.,32.,0.,32.,0.;                                      0000179P0000091
124,1.,0.,0.,0.,0.,1.,0.,0.,0.,0.,1.,12.;                        0000181P0000092
142,0,175,0,185,2;                                               0000183P0000093
100,0.,0.,0.,13.5,0.,13.5,0.;                                    0000185P0000094
124,1.,0.,0.,0.,0.,-1.,0.,0.,0.,0.,-1.,12.;                      0000187P0000095
144,191,1,0,199;                                                 0000189P0000096
120,195,197,6.283185307,12.566370614;                            0000191P0000097
124,1.,0.,0.,0.,0.,-1.,0.,0.,0.,0.,-1.,12.;                      0000193P0000098
110,0.,0.,1.,0.,0.,0.;                                           0000195P0000099
110,13.5,0.,-4.,13.5,0.,0.;                                      0000197P0000100
142,0,191,0,201,2;                                               0000199P0000101
102,4,203,207,209,213;                                           0000201P0000102
100,0.,0.,0.,13.5,0.,13.5,0.;                                    0000203P0000103
124,1.,0.,0.,0.,0.,-1.,0.,0.,0.,0.,-1.,16.;                      0000205P0000104
110,13.5,0.,16.,13.5,0.,12.;                                     0000207P0000105
100,0.,0.,0.,13.5,0.,13.5,0.;                                    0000209P0000106
124,1.,0.,0.,0.,0.,1.,0.,0.,0.,0.,1.,12.;                        0000211P0000107
110,13.5,0.,12.,13.5,0.,16.;                                     0000213P0000108
144,217,1,0,219;                                                 0000215P0000109
108,0.,0.,1.,16.,0,-1.22E-15,-5.5E-16,16.,0.;                    0000217P0000110
142,0,217,0,221,2;                                               0000219P0000111
100,0.,0.,0.,13.5,0.,13.5,0.;                                    0000221P0000112
124,1.,0.,0.,0.,0.,1.,0.,0.,0.,0.,1.,16.;                        0000223P0000113
402,5,227,251,261,277,303;                                       0000225P0000114
144,229,1,0,237;                                                 0000227P0000115
120,233,235,6.283185307,12.566370614;                            0000229P0000116
124,1.,0.,0.,0.,0.,-1.,0.,0.,0.,0.,-1.,0.;                       0000231P0000117
110,0.,0.,1.,0.,0.,0.;                                           0000233P0000118
110,32.,0.,-12.,32.,0.,0.;                                       0000235P0000119
142,0,229,0,239,2;                                               0000237P0000120
102,4,241,245,247,249;                                           0000239P0000121
100,0.,0.,0.,32.,0.,32.,0.;                                      0000241P0000122
124,1.,0.,0.,0.,0.,-1.,0.,0.,0.,0.,-1.,12.;                      0000243P0000123
110,32.,0.,12.,32.,0.,0.;                                        0000245P0000124
100,0.,0.,0.,32.,0.,32.,0.;                                      0000247P0000125
110,32.,0.,0.,32.,0.,12.;                                        0000249P0000126
144,253,1,0,255;                                                 0000251P0000127
108,-0.,-0.,-1.,0.,0,-2.05E-15,6.E-17,0.,0.;                     0000253P0000128
142,0,253,0,257,2;                                               0000255P0000129
100,0.,0.,0.,32.,0.,32.,0.;                                      0000257P0000130
124,1.,0.,0.,0.,0.,-1.,0.,0.,0.,0.,-1.,0.;                       0000259P0000131
144,263,1,1,265,271;                                             0000261P0000132
108,0.,0.,1.,12.,0,-2.05E-15,6.E-17,12.,0.;                      0000263P0000133
142,0,263,0,267,2;                                               0000265P0000134
100,0.,0.,0.,32.,0.,32.,0.;                                      0000267P0000135
124,1.,0.,0.,0.,0.,1.,0.,0.,0.,0.,1.,12.;                        0000269P0000136
142,0,263,0,273,2;                                               0000271P0000137
100,0.,0.,0.,13.5,0.,13.5,0.;                                    0000273P0000138
124,1.,0.,0.,0.,0.,-1.,0.,0.,0.,0.,-1.,12.;                      0000275P0000139
144,279,1,0,287;                                                 0000277P0000140
120,283,285,6.283185307,12.566370614;                            0000279P0000141
124,1.,0.,0.,0.,0.,-1.,0.,0.,0.,0.,-1.,12.;                      0000281P0000142
110,0.,0.,1.,0.,0.,0.;                                           0000283P0000143
110,13.5,0.,-4.,13.5,0.,0.;                                      0000285P0000144
142,0,279,0,289,2;                                               0000287P0000145
102,4,291,295,297,301;                                           0000289P0000146
100,0.,0.,0.,13.5,0.,13.5,0.;                                    0000291P0000147
124,1.,0.,0.,0.,0.,-1.,0.,0.,0.,0.,-1.,16.;                      0000293P0000148
110,13.5,0.,16.,13.5,0.,12.;                                     0000295P0000149
100,0.,0.,0.,13.5,0.,13.5,0.;                                    0000297P0000150
124,1.,0.,0.,0.,0.,1.,0.,0.,0.,0.,1.,12.;                        0000299P0000151
110,13.5,0.,12.,13.5,0.,16.;                                     0000301P0000152
144,305,1,0,307;                                                 0000303P0000153
108,0.,0.,1.,16.,0,-1.22E-15,-5.5E-16,16.,0.;                    0000305P0000154
142,0,305,0,309,2;                                               0000307P0000155
100,0.,0.,0.,13.5,0.,13.5,0.;                                    0000309P0000156
124,1.,0.,0.,0.,0.,1.,0.,0.,0.,0.,1.,16.;                        0000311P0000157
402,5,315,339,349,365,391;                                       0000313P0000158
144,317,1,0,325;                                                 0000315P0000159
120,321,323,6.283185307,12.566370614;                            0000317P0000160
124,1.,0.,0.,0.,0.,-1.,0.,0.,0.,0.,-1.,0.;                       0000319P0000161
110,0.,0.,1.,0.,0.,0.;                                           0000321P0000162
110,32.,0.,-12.,32.,0.,0.;                                       0000323P0000163
142,0,317,0,327,2;                                               0000325P0000164
102,4,329,333,335,337;                                           0000327P0000165
100,0.,0.,0.,32.,0.,32.,0.;                                      0000329P0000166
124,1.,0.,0.,0.,0.,-1.,0.,0.,0.,0.,-1.,12.;                      0000331P0000167
110,32.,0.,12.,32.,0.,0.;                                        0000333P0000168
100,0.,0.,0.,32.,0.,32.,0.;                                      0000335P0000169
110,32.,0.,0.,32.,0.,12.;                                        0000337P0000170
144,341,1,0,343;                                                 0000339P0000171
108,-0.,-0.,-1.,0.,0,-2.05E-15,6.E-17,0.,0.;                     0000341P0000172
142,0,341,0,345,2;                                               0000343P0000173
100,0.,0.,0.,32.,0.,32.,0.;                                      0000345P0000174
124,1.,0.,0.,0.,0.,-1.,0.,0.,0.,0.,-1.,0.;                       0000347P0000175
144,351,1,1,353,359;                                             0000349P0000176
108,0.,0.,1.,12.,0,-2.05E-15,6.E-17,12.,0.;                      0000351P0000177
142,0,351,0,355,2;                                               0000353P0000178
100,0.,0.,0.,32.,0.,32.,0.;                                      0000355P0000179
124,1.,0.,0.,0.,0.,1.,0.,0.,0.,0.,1.,12.;                        0000357P0000180
142,0,351,0,361,2;                                               0000359P0000181
100,0.,0.,0.,13.5,0.,13.5,0.;                                    0000361P0000182
124,1.,0.,0.,0.,0.,-1.,0.,0.,0.,0.,-1.,12.;                      0000363P0000183
144,367,1,0,375;                                                 0000365P0000184
120,371,373,6.283185307,12.566370614;                            0000367P0000185
124,1.,0.,0.,0.,0.,-1.,0.,0.,0.,0.,-1.,12.;                      0000369P0000186
110,0.,0.,1.,0.,0.,0.;                                           0000371P0000187
110,13.5,0.,-4.,13.5,0.,0.;                                      0000373P0000188
142,0,367,0,377,2;                                               0000375P0000189
102,4,379,383,385,389;                                           0000377P0000190
100,0.,0.,0.,13.5,0.,13.5,0.;                                    0000379P0000191
124,1.,0.,0.,0.,0.,-1.,0.,0.,0.,0.,-1.,16.;                      0000381P0000192
110,13.5,0.,16.,13.5,0.,12.;                                     0000383P0000193
100,0.,0.,0.,13.5,0.,13.5,0.;                                    0000385P0000194
124,1.,0.,0.,0.,0.,1.,0.,0.,0.,0.,1.,12.;                        0000387P0000195
110,13.5,0.,12.,13.5,0.,16.;                                     0000389P0000196
144,393,1,0,395;                                                 0000391P0000197
108,0.,0.,1.,16.,0,-1.22E-15,-5.5E-16,16.,0.;                    0000393P0000198
142,0,393,0,397,2;                                               0000395P0000199
100,0.,0.,0.,13.5,0.,13.5,0.;                                    0000397P0000200
124,1.,0.,0.,0.,0.,1.,0.,0.,0.,0.,1.,16.;                        0000399P0000201
402,5,403,427,437,453,479;                                       0000401P0000202
144,405,1,0,413;                                                 0000403P0000203
120,409,411,6.283185307,12.566370614;                            0000405P0000204
124,1.,0.,0.,0.,0.,-1.,0.,0.,0.,0.,-1.,0.;                       0000407P0000205
110,0.,0.,1.,0.,0.,0.;                                           0000409P0000206
110,32.,0.,-12.,32.,0.,0.;                                       0000411P0000207
142,0,405,0,415,2;                                               0000413P0000208
102,4,417,421,423,425;                                           0000415P0000209
100,0.,0.,0.,32.,0.,32.,0.;                                      0000417P0000210
124,1.,0.,0.,0.,0.,-1.,0.,0.,0.,0.,-1.,12.;                      0000419P0000211
110,32.,0.,12.,32.,0.,0.;                                        0000421P0000212
100,0.,0.,0.,32.,0.,32.,0.;                                      0000423P0000213
110,32.,0.,0.,32.,0.,12.;                                        0000425P0000214
144,429,1,0,431;                                                 0000427P0000215
108,-0.,-0.,-1.,0.,0,-2.05E-15,6.E-17,0.,0.;                     0000429P0000216
142,0,429,0,433,2;                                               0000431P0000217
100,0.,0.,0.,32.,0.,32.,0.;                                      0000433P0000218
124,1.,0.,0.,0.,0.,-1.,0.,0.,0.,0.,-1.,0.;                       0000435P0000219
144,439,1,1,441,447;                                             0000437P0000220
108,0.,0.,1.,12.,0,-2.05E-15,6.E-17,12.,0.;                      0000439P0000221
142,0,439,0,443,2;                                               0000441P0000222
100,0.,0.,0.,32.,0.,32.,0.;                                      0000443P0000223
124,1.,0.,0.,0.,0.,1.,0.,0.,0.,0.,1.,12.;                        0000445P0000224
142,0,439,0,449,2;                                               0000447P0000225
100,0.,0.,0.,13.5,0.,13.5,0.;                                    0000449P0000226
124,1.,0.,0.,0.,0.,-1.,0.,0.,0.,0.,-1.,12.;                      0000451P0000227
144,455,1,0,463;                                                 0000453P0000228
120,459,461,6.283185307,12.566370614;                            0000455P0000229
124,1.,0.,0.,0.,0.,-1.,0.,0.,0.,0.,-1.,12.;                      0000457P0000230
110,0.,0.,1.,0.,0.,0.;                                           0000459P0000231
110,13.5,0.,-4.,13.5,0.,0.;                                      0000461P0000232
142,0,455,0,465,2;                                               0000463P0000233
102,4,467,471,473,477;                                           0000465P0000234
100,0.,0.,0.,13.5,0.,13.5,0.;                                    0000467P0000235
124,1.,0.,0.,0.,0.,-1.,0.,0.,0.,0.,-1.,16.;                      0000469P0000236
110,13.5,0.,16.,13.5,0.,12.;                                     0000471P0000237
100,0.,0.,0.,13.5,0.,13.5,0.;                                    0000473P0000238
124,1.,0.,0.,0.,0.,1.,0.,0.,0.,0.,1.,12.;                        0000475P0000239
110,13.5,0.,12.,13.5,0.,16.;                                     0000477P0000240
144,481,1,0,483;                                                 0000479P0000241
108,0.,0.,1.,16.,0,-1.22E-15,-5.5E-16,16.,0.;                    0000481P0000242
142,0,481,0,485,2;                                               0000483P0000243
100,0.,0.,0.,13.5,0.,13.5,0.;                                    0000485P0000244
124,1.,0.,0.,0.,0.,1.,0.,0.,0.,0.,1.,16.;                        0000487P0000245
402,5,491,515,525,541,567;                                       0000489P0000246
144,493,1,0,501;                                                 0000491P0000247
120,497,499,6.283185307,12.566370614;                            0000493P0000248
124,1.,0.,0.,0.,0.,-1.,0.,0.,0.,0.,-1.,0.;                       0000495P0000249
110,0.,0.,1.,0.,0.,0.;                                           0000497P0000250
110,32.,0.,-12.,32.,0.,0.;                                       0000499P0000251
142,0,493,0,503,2;                                               0000501P0000252
102,4,505,509,511,513;                                           0000503P0000253
100,0.,0.,0.,32.,0.,32.,0.;                                      0000505P0000254
124,1.,0.,0.,0.,0.,-1.,0.,0.,0.,0.,-1.,12.;                      0000507P0000255
110,32.,0.,12.,32.,0.,0.;                                        0000509P0000256
100,0.,0.,0.,32.,0.,32.,0.;                                      0000511P0000257
110,32.,0.,0.,32.,0.,12.;                                        0000513P0000258
144,517,1,0,519;                                                 0000515P0000259
108,-0.,-0.,-1.,0.,0,-2.05E-15,6.E-17,0.,0.;                     0000517P0000260
142,0,517,0,521,2;                                               0000519P0000261
100,0.,0.,0.,32.,0.,32.,0.;                                      0000521P0000262
124,1.,0.,0.,0.,0.,-1.,0.,0.,0.,0.,-1.,0.;                       0000523P0000263
144,527,1,1,529,535;                                             0000525P0000264
108,0.,0.,1.,12.,0,-2.05E-15,6.E-17,12.,0.;                      0000527P0000265
142,0,527,0,531,2;                                               0000529P0000266
100,0.,0.,0.,32.,0.,32.,0.;                                      0000531P0000267
124,1.,0.,0.,0.,0.,1.,0.,0.,0.,0.,1.,12.;                        0000533P0000268
142,0,527,0,537,2;                                               0000535P0000269
100,0.,0.,0.,13.5,0.,13.5,0.;                                    0000537P0000270
124,1.,0.,0.,0.,0.,-1.,0.,0.,0.,0.,-1.,12.;                      0000539P0000271
144,543,1,0,551;                                                 0000541P0000272
120,547,549,6.283185307,12.566370614;                            0000543P0000273
124,1.,0.,0.,0.,0.,-1.,0.,0.,0.,0.,-1.,12.;                      0000545P0000274
110,0.,0.,1.,0.,0.,0.;                                           0000547P0000275
110,13.5,0.,-4.,13.5,0.,0.;                                      0000549P0000276
142,0,543,0,553,2;                                               0000551P0000277
102,4,555,559,561,565;                                           0000553P0000278
100,0.,0.,0.,13.5,0.,13.5,0.;                                    0000555P0000279
124,1.,0.,0.,0.,0.,-1.,0.,0.,0.,0.,-1.,16.;                      0000557P0000280
110,13.5,0.,16.,13.5,0.,12.;                                     0000559P0000281
100,0.,0.,0.,13.5,0.,13.5,0.;                                    0000561P0000282
124,1.,0.,0.,0.,0.,1.,0.,0.,0.,0.,1.,12.;                        0000563P0000283
110,13.5,0.,12.,13.5,0.,16.;                                     0000565P0000284
144,569,1,0,571;                                                 0000567P0000285
108,0.,0.,1.,16.,0,-1.22E-15,-5.5E-16,16.,0.;                    0000569P0000286
142,0,569,0,573,2;                                               0000571P0000287
100,0.,0.,0.,13.5,0.,13.5,0.;                                    0000573P0000288
124,1.,0.,0.,0.,0.,1.,0.,0.,0.,0.,1.,16.;                        0000575P0000289
144,579,1,0,581,0,1,673;                                         0000577P0000290
108,0.,0.,1.,0.,0,0.,0.,0.,0.;                                   0000579P0000291
142,0,0,0,0,0;                                                   0000581P0000292
144,585,1,0,587,0,1,667;                                         0000583P0000293
108,0.,-1.,-2.220446049E-16,0.,0,0.,0.,0.,0.;                    0000585P0000294
142,0,0,0,0,0;                                                   0000587P0000295
144,591,1,0,593,0,1,675;                                         0000589P0000296
108,1.,1.232595164E-32,1.110223025E-16,0.,0,0.,0.,0.,0.;         0000591P0000297
142,0,0,0,0,0;                                                   0000593P0000298
100,0.,0.,0.,32.,0.,32.,0.;                                      0000595P0000299
100,0.,0.,0.,13.5,0.,13.5,0.,0,1,669;                            0000597P0000300
124,1.,0.,0.,0.,0.,1.,0.,0.,0.,0.,1.,12.;                        0000599P0000301
100,0.,0.,0.,1.2,0.,1.2,0.,0,1,663;                              0000601P0000302
124,1.,0.,0.,0.,0.,1.,0.,0.,0.,0.,1.,16.;                        0000603P0000303
100,0.,0.,0.,10.4,0.,10.4,0.,0,1,671;                            0000605P0000304
124,1.,0.,0.,0.,0.,1.,0.,0.,0.,0.,1.,16.;                        0000607P0000305
100,0.,0.,0.,1.1,0.,1.1,0.;                                      0000609P0000306
124,1.,0.,0.,7.5,0.,1.,0.,0.,0.,0.,1.,16.;                       0000611P0000307
100,0.,0.,0.,1.1,0.,1.1,0.;                                      0000613P0000308
124,1.,0.,0.,4.6E-16,0.,1.,0.,7.5,0.,0.,1.,16.;                  0000615P0000309
100,0.,0.,0.,1.1,0.,1.1,0.;                                      0000617P0000310
124,1.,0.,0.,-7.5,0.,1.,0.,9.2E-16,0.,0.,1.,16.;                 0000619P0000311
100,0.,0.,0.,1.1,0.,1.1,0.;                                      0000621P0000312
124,1.,0.,0.,-1.38E-15,0.,1.,0.,-7.5,0.,0.,1.,16.;               0000623P0000313
100,0.,0.,0.,4.,0.,4.,0.;                                        0000625P0000314
124,1.,0.,0.,19.5,0.,1.,0.,0.,0.,0.,1.,16.;                      0000627P0000315
100,0.,0.,0.,4.,0.,4.,0.;                                        0000629P0000316
124,1.,0.,0.,9.75,0.,1.,0.,16.887495374,0.,0.,1.,16.;            0000631P0000317
100,0.,0.,0.,4.,0.,4.,0.;                                        0000633P0000318
124,1.,0.,0.,-9.75,0.,1.,0.,16.887495374,0.,0.,1.,16.;           0000635P0000319
100,0.,0.,0.,4.,0.,4.,0.;                                        0000637P0000320
124,1.,0.,0.,-19.5,0.,1.,0.,2.39E-15,0.,0.,1.,16.;               0000639P0000321
100,0.,0.,0.,4.,0.,4.,0.;                                        0000641P0000322
124,1.,0.,0.,-9.75,0.,1.,0.,-16.887495374,0.,0.,1.,16.;          0000643P0000323
100,0.,0.,0.,4.,0.,4.,0.;                                        0000645P0000324
124,1.,0.,0.,9.75,0.,1.,0.,-16.887495374,0.,0.,1.,16.;           0000647P0000325
110,-2.E+100,0.,0.,2.E+100,0.,0.,0,1,659;                        0000649P0000326
110,0.,-2.E+100,2.220446049E+84,0.,2.E+100,-2.220446049E+84,0,1, 0000651P0000327
657;                                                             0000651P0000328
110,0.,-2.220446049E+84,-2.E+100,0.,2.220446049E+84,2.E+100,0,1, 0000653P0000329
665;                                                             0000653P0000330
116,0.,0.,0.,0;                                                  0000655P0000331
406,1,6HY-axis;                                                  0000657P0000332
406,1,6HX-axis;                                                  0000659P0000333
406,1,26Hservo_wheel_360_partdesign;                             0000661P0000334
406,1,27HSketch_05_Center_Screw_Hole;                            0000663P0000335
406,1,6HZ-axis;                                                  0000665P0000336
406,1,8HXZ-plane;                                                0000667P0000337
406,1,26HSketch_03_FrontHub_Profile;                             0000669P0000338
406,1,26HSketch_07_ServoHorn_Pocket;                             0000671P0000339
406,1,8HXY-plane;                                                0000673P0000340
406,1,8HYZ-plane;                                                0000675P0000341
S      1G      3D    676P    341                                        T0000001
